%TF.GenerationSoftware,KiCad,Pcbnew,(7.0.0)*%
%TF.CreationDate,2023-03-03T15:02:14-06:00*%
%TF.ProjectId,Banana to USB Adapter,42616e61-6e61-4207-946f-205553422041,rev?*%
%TF.SameCoordinates,Original*%
%TF.FileFunction,Legend,Bot*%
%TF.FilePolarity,Positive*%
%FSLAX46Y46*%
G04 Gerber Fmt 4.6, Leading zero omitted, Abs format (unit mm)*
G04 Created by KiCad (PCBNEW (7.0.0)) date 2023-03-03 15:02:14*
%MOMM*%
%LPD*%
G01*
G04 APERTURE LIST*
%ADD10C,0.150000*%
%ADD11C,0.120000*%
G04 APERTURE END LIST*
D10*
X131725000Y-95925000D02*
X131725000Y-96275000D01*
X131725000Y-95950000D02*
X131725000Y-95925000D01*
X131725000Y-103175000D02*
X131900000Y-103000000D01*
X131725000Y-96275000D02*
X131900000Y-96100000D01*
X131725000Y-95925000D02*
X131900000Y-96100000D01*
X131725000Y-102825000D02*
X131725000Y-103175000D01*
X131725000Y-102850000D02*
X131725000Y-102825000D01*
X131725000Y-102825000D02*
X131900000Y-103000000D01*
G36*
X149748409Y-110683219D02*
G01*
X146275791Y-110683219D01*
X146275791Y-108986486D01*
X147160325Y-108986486D01*
X147178621Y-109026550D01*
X147215673Y-109050362D01*
X147924599Y-109050362D01*
X147924599Y-109748048D01*
X147933842Y-109779526D01*
X147967128Y-109808368D01*
X148010723Y-109814636D01*
X148050787Y-109796340D01*
X148074599Y-109759288D01*
X148074599Y-109050362D01*
X148772286Y-109050362D01*
X148803764Y-109041119D01*
X148832606Y-109007833D01*
X148838874Y-108964238D01*
X148820578Y-108924174D01*
X148783526Y-108900362D01*
X148074599Y-108900362D01*
X148074599Y-108202675D01*
X148065356Y-108171197D01*
X148032070Y-108142355D01*
X147988475Y-108136087D01*
X147948411Y-108154383D01*
X147924599Y-108191435D01*
X147924599Y-108900362D01*
X147226913Y-108900362D01*
X147195435Y-108909605D01*
X147166593Y-108942891D01*
X147160325Y-108986486D01*
X146275791Y-108986486D01*
X146275791Y-107286791D01*
X149748409Y-107286791D01*
X149748409Y-110683219D01*
G37*
G36*
X149710314Y-91671314D02*
G01*
X146313886Y-91671314D01*
X146313886Y-90695191D01*
X147946742Y-90695191D01*
X147955985Y-90726669D01*
X147989271Y-90755511D01*
X148032866Y-90761779D01*
X148072930Y-90743483D01*
X148096742Y-90706431D01*
X148096742Y-89149818D01*
X148087499Y-89118340D01*
X148054213Y-89089498D01*
X148010618Y-89083230D01*
X147970554Y-89101526D01*
X147946742Y-89138578D01*
X147946742Y-90695191D01*
X146313886Y-90695191D01*
X146313886Y-88198696D01*
X149710314Y-88198696D01*
X149710314Y-91671314D01*
G37*
G36*
X156612990Y-111538936D02*
G01*
X156604701Y-111539019D01*
X156596638Y-111538829D01*
X156588801Y-111538365D01*
X156577468Y-111537158D01*
X156566645Y-111535336D01*
X156556329Y-111532899D01*
X156546522Y-111529847D01*
X156537223Y-111526181D01*
X156528433Y-111521900D01*
X156520151Y-111517003D01*
X156512377Y-111511493D01*
X156507477Y-111507477D01*
X156500633Y-111500965D01*
X156494462Y-111493887D01*
X156488964Y-111486242D01*
X156484139Y-111478030D01*
X156479988Y-111469252D01*
X156476510Y-111459907D01*
X156473705Y-111449995D01*
X156471573Y-111439516D01*
X156470115Y-111428471D01*
X156469329Y-111416859D01*
X156469180Y-111408803D01*
X156469366Y-111400532D01*
X156469924Y-111392524D01*
X156471147Y-111382883D01*
X156472951Y-111373653D01*
X156475337Y-111364832D01*
X156478305Y-111356422D01*
X156481099Y-111349989D01*
X156485014Y-111342308D01*
X156489311Y-111335018D01*
X156493990Y-111328119D01*
X156499050Y-111321611D01*
X156504492Y-111315495D01*
X156510316Y-111309769D01*
X156512752Y-111307589D01*
X156519021Y-111302462D01*
X156525613Y-111297708D01*
X156532530Y-111293326D01*
X156539772Y-111289316D01*
X156547338Y-111285678D01*
X156555228Y-111282413D01*
X156558475Y-111281210D01*
X156566658Y-111278536D01*
X156574965Y-111276253D01*
X156583396Y-111274361D01*
X156591951Y-111272860D01*
X156600630Y-111271751D01*
X156609434Y-111271032D01*
X156612990Y-111270855D01*
X156612990Y-111538936D01*
G37*
G36*
X156612990Y-110981671D02*
G01*
X156604701Y-110981754D01*
X156596638Y-110981564D01*
X156588801Y-110981101D01*
X156577468Y-110979894D01*
X156566645Y-110978071D01*
X156556329Y-110975635D01*
X156546522Y-110972583D01*
X156537223Y-110968916D01*
X156528433Y-110964635D01*
X156520151Y-110959739D01*
X156512377Y-110954228D01*
X156507477Y-110950213D01*
X156500633Y-110943701D01*
X156494462Y-110936623D01*
X156488964Y-110928978D01*
X156484139Y-110920766D01*
X156479988Y-110911988D01*
X156476510Y-110902642D01*
X156473705Y-110892731D01*
X156471573Y-110882252D01*
X156470115Y-110871207D01*
X156469329Y-110859595D01*
X156469180Y-110851538D01*
X156469366Y-110843268D01*
X156469924Y-110835260D01*
X156471147Y-110825619D01*
X156472951Y-110816388D01*
X156475337Y-110807568D01*
X156478305Y-110799158D01*
X156481099Y-110792725D01*
X156485014Y-110785044D01*
X156489311Y-110777753D01*
X156493990Y-110770855D01*
X156499050Y-110764347D01*
X156504492Y-110758230D01*
X156510316Y-110752505D01*
X156512752Y-110750324D01*
X156519021Y-110745198D01*
X156525613Y-110740444D01*
X156532530Y-110736062D01*
X156539772Y-110732052D01*
X156547338Y-110728414D01*
X156555228Y-110725148D01*
X156558475Y-110723946D01*
X156566658Y-110721272D01*
X156574965Y-110718989D01*
X156583396Y-110717097D01*
X156591951Y-110715596D01*
X156600630Y-110714486D01*
X156609434Y-110713768D01*
X156612990Y-110713590D01*
X156612990Y-110981671D01*
G37*
G36*
X156999846Y-109313959D02*
G01*
X157007882Y-109315654D01*
X157015380Y-109318478D01*
X157022341Y-109322432D01*
X157028764Y-109327515D01*
X157034651Y-109333728D01*
X157040000Y-109341070D01*
X157044811Y-109349543D01*
X157049116Y-109359074D01*
X157051968Y-109366808D01*
X157054497Y-109375043D01*
X157056703Y-109383780D01*
X157058586Y-109393018D01*
X157060147Y-109402757D01*
X157061384Y-109412998D01*
X157062299Y-109423741D01*
X157062891Y-109434985D01*
X157063160Y-109446730D01*
X157063178Y-109450757D01*
X157063053Y-109460853D01*
X157062677Y-109470528D01*
X157062052Y-109479782D01*
X157061175Y-109488615D01*
X157060049Y-109497026D01*
X157058672Y-109505015D01*
X157056599Y-109514410D01*
X157055167Y-109519731D01*
X157052596Y-109528139D01*
X157049767Y-109536023D01*
X157046680Y-109543382D01*
X157042637Y-109551519D01*
X157038222Y-109558902D01*
X157034260Y-109564476D01*
X157029213Y-109570514D01*
X157022978Y-109576708D01*
X157016369Y-109581985D01*
X157009386Y-109586347D01*
X157004169Y-109588901D01*
X156996733Y-109591794D01*
X156989129Y-109593976D01*
X156981357Y-109595448D01*
X156973416Y-109596210D01*
X156968803Y-109596326D01*
X156959320Y-109595686D01*
X156950534Y-109593769D01*
X156942445Y-109590573D01*
X156935051Y-109586098D01*
X156928355Y-109580345D01*
X156922355Y-109573313D01*
X156920150Y-109570143D01*
X156916101Y-109563356D01*
X156912554Y-109555989D01*
X156909507Y-109548042D01*
X156906960Y-109539515D01*
X156904915Y-109530408D01*
X156903370Y-109520720D01*
X156902326Y-109510453D01*
X156901871Y-109502372D01*
X156901782Y-109499605D01*
X156897484Y-109371622D01*
X156902565Y-109365247D01*
X156908371Y-109358366D01*
X156914047Y-109352083D01*
X156919591Y-109346398D01*
X156923471Y-109342704D01*
X156929467Y-109337416D01*
X156936067Y-109332139D01*
X156942512Y-109327572D01*
X156946723Y-109324923D01*
X156953749Y-109321172D01*
X156961345Y-109317971D01*
X156968803Y-109315739D01*
X156977092Y-109314311D01*
X156985546Y-109313541D01*
X156991273Y-109313395D01*
X156999846Y-109313959D01*
G37*
G36*
X156583505Y-109340603D02*
G01*
X156591773Y-109341335D01*
X156599690Y-109342554D01*
X156609700Y-109344938D01*
X156619089Y-109348190D01*
X156627854Y-109352308D01*
X156635996Y-109357294D01*
X156643516Y-109363147D01*
X156648747Y-109368105D01*
X156655021Y-109375390D01*
X156660458Y-109383370D01*
X156665059Y-109392047D01*
X156668824Y-109401420D01*
X156671098Y-109408906D01*
X156672902Y-109416784D01*
X156674235Y-109425054D01*
X156675098Y-109433715D01*
X156675490Y-109442767D01*
X156675516Y-109445872D01*
X156675316Y-109454066D01*
X156674714Y-109461916D01*
X156673464Y-109470882D01*
X156671637Y-109479355D01*
X156669233Y-109487332D01*
X156667309Y-109492376D01*
X156664012Y-109499602D01*
X156659610Y-109507408D01*
X156654609Y-109514541D01*
X156649009Y-109521000D01*
X156644644Y-109525202D01*
X156638103Y-109530526D01*
X156631132Y-109535215D01*
X156623731Y-109539267D01*
X156615899Y-109542684D01*
X156611231Y-109544351D01*
X156602864Y-109546863D01*
X156594348Y-109548759D01*
X156585682Y-109550037D01*
X156576866Y-109550698D01*
X156571762Y-109550799D01*
X156562865Y-109550555D01*
X156554345Y-109549823D01*
X156546204Y-109548604D01*
X156538441Y-109546897D01*
X156528677Y-109543862D01*
X156519585Y-109539960D01*
X156511165Y-109535192D01*
X156503416Y-109529556D01*
X156496339Y-109523053D01*
X156489974Y-109515750D01*
X156484457Y-109507714D01*
X156479789Y-109498946D01*
X156475969Y-109489445D01*
X156473662Y-109481838D01*
X156471832Y-109473819D01*
X156470479Y-109465389D01*
X156469604Y-109456545D01*
X156469206Y-109447290D01*
X156469180Y-109444113D01*
X156469385Y-109436037D01*
X156470172Y-109426787D01*
X156471551Y-109418017D01*
X156473520Y-109409728D01*
X156476080Y-109401920D01*
X156477581Y-109398196D01*
X156480959Y-109391102D01*
X156485472Y-109383416D01*
X156490603Y-109376367D01*
X156496350Y-109369953D01*
X156500833Y-109365760D01*
X156507469Y-109360436D01*
X156514554Y-109355748D01*
X156522087Y-109351695D01*
X156530069Y-109348279D01*
X156534832Y-109346612D01*
X156543294Y-109344175D01*
X156551924Y-109342337D01*
X156560722Y-109341098D01*
X156569689Y-109340457D01*
X156574888Y-109340359D01*
X156583505Y-109340603D01*
G37*
G36*
X156612990Y-108464211D02*
G01*
X156604701Y-108464294D01*
X156596638Y-108464104D01*
X156588801Y-108463641D01*
X156577468Y-108462434D01*
X156566645Y-108460612D01*
X156556329Y-108458175D01*
X156546522Y-108455123D01*
X156537223Y-108451457D01*
X156528433Y-108447175D01*
X156520151Y-108442279D01*
X156512377Y-108436768D01*
X156507477Y-108432753D01*
X156500633Y-108426241D01*
X156494462Y-108419163D01*
X156488964Y-108411518D01*
X156484139Y-108403306D01*
X156479988Y-108394528D01*
X156476510Y-108385183D01*
X156473705Y-108375271D01*
X156471573Y-108364792D01*
X156470115Y-108353747D01*
X156469329Y-108342135D01*
X156469180Y-108334079D01*
X156469366Y-108325808D01*
X156469924Y-108317800D01*
X156471147Y-108308159D01*
X156472951Y-108298928D01*
X156475337Y-108290108D01*
X156478305Y-108281698D01*
X156481099Y-108275265D01*
X156485014Y-108267584D01*
X156489311Y-108260294D01*
X156493990Y-108253395D01*
X156499050Y-108246887D01*
X156504492Y-108240770D01*
X156510316Y-108235045D01*
X156512752Y-108232864D01*
X156519021Y-108227738D01*
X156525613Y-108222984D01*
X156532530Y-108218602D01*
X156539772Y-108214592D01*
X156547338Y-108210954D01*
X156555228Y-108207688D01*
X156558475Y-108206486D01*
X156566658Y-108203812D01*
X156574965Y-108201529D01*
X156583396Y-108199637D01*
X156591951Y-108198136D01*
X156600630Y-108197026D01*
X156609434Y-108196308D01*
X156612990Y-108196130D01*
X156612990Y-108464211D01*
G37*
G36*
X157956990Y-108364952D02*
G01*
X157948701Y-108365035D01*
X157940638Y-108364845D01*
X157932801Y-108364381D01*
X157921468Y-108363174D01*
X157910645Y-108361352D01*
X157900329Y-108358915D01*
X157890522Y-108355863D01*
X157881223Y-108352197D01*
X157872433Y-108347916D01*
X157864151Y-108343020D01*
X157856377Y-108337509D01*
X157851477Y-108333493D01*
X157844633Y-108326982D01*
X157838462Y-108319903D01*
X157832964Y-108312258D01*
X157828139Y-108304047D01*
X157823988Y-108295268D01*
X157820510Y-108285923D01*
X157817705Y-108276011D01*
X157815573Y-108265533D01*
X157814115Y-108254487D01*
X157813329Y-108242875D01*
X157813180Y-108234819D01*
X157813366Y-108226548D01*
X157813924Y-108218540D01*
X157815147Y-108208899D01*
X157816951Y-108199669D01*
X157819337Y-108190848D01*
X157822305Y-108182438D01*
X157825099Y-108176005D01*
X157829014Y-108168324D01*
X157833311Y-108161034D01*
X157837990Y-108154135D01*
X157843050Y-108147627D01*
X157848492Y-108141511D01*
X157854316Y-108135785D01*
X157856752Y-108133605D01*
X157863021Y-108128479D01*
X157869613Y-108123724D01*
X157876530Y-108119342D01*
X157883772Y-108115332D01*
X157891338Y-108111694D01*
X157899228Y-108108429D01*
X157902475Y-108107227D01*
X157910658Y-108104552D01*
X157918965Y-108102269D01*
X157927396Y-108100377D01*
X157935951Y-108098876D01*
X157944630Y-108097767D01*
X157953434Y-108097048D01*
X157956990Y-108096871D01*
X157956990Y-108364952D01*
G37*
G36*
X156677934Y-107607691D02*
G01*
X156687337Y-107607957D01*
X156696692Y-107608399D01*
X156705997Y-107609019D01*
X156715254Y-107609816D01*
X156724462Y-107610790D01*
X156733621Y-107611941D01*
X156742732Y-107613269D01*
X156751646Y-107614866D01*
X156760317Y-107616725D01*
X156768743Y-107618847D01*
X156776926Y-107621231D01*
X156784863Y-107623878D01*
X156792557Y-107626788D01*
X156800006Y-107629960D01*
X156807212Y-107633395D01*
X156815732Y-107638081D01*
X156823709Y-107643225D01*
X156831143Y-107648828D01*
X156838032Y-107654888D01*
X156844378Y-107661406D01*
X156850179Y-107668382D01*
X156852348Y-107671301D01*
X156857245Y-107678985D01*
X156861312Y-107687261D01*
X156864549Y-107696128D01*
X156866956Y-107705587D01*
X156868285Y-107713580D01*
X156869081Y-107721951D01*
X156869347Y-107730701D01*
X156869113Y-107738576D01*
X156868274Y-107747394D01*
X156866823Y-107756015D01*
X156864763Y-107764442D01*
X156864462Y-107765481D01*
X156861507Y-107773932D01*
X156858240Y-107781407D01*
X156854337Y-107788956D01*
X156849798Y-107796580D01*
X156847658Y-107799871D01*
X156843015Y-107806520D01*
X156837876Y-107813280D01*
X156832243Y-107820149D01*
X156826116Y-107827128D01*
X156820632Y-107833028D01*
X156817177Y-107836605D01*
X156811105Y-107842702D01*
X156804614Y-107848905D01*
X156797702Y-107855212D01*
X156790371Y-107861624D01*
X156784204Y-107866830D01*
X156777768Y-107872102D01*
X156771064Y-107877442D01*
X156570785Y-107877442D01*
X156562259Y-107870540D01*
X156554122Y-107863683D01*
X156546373Y-107856870D01*
X156539012Y-107850102D01*
X156532039Y-107843379D01*
X156525454Y-107836700D01*
X156519257Y-107830066D01*
X156513449Y-107823477D01*
X156508028Y-107816932D01*
X156502996Y-107810432D01*
X156499856Y-107806123D01*
X156494132Y-107797526D01*
X156489171Y-107788831D01*
X156484973Y-107780038D01*
X156481538Y-107771148D01*
X156478867Y-107762160D01*
X156476959Y-107753074D01*
X156475814Y-107743890D01*
X156475432Y-107734609D01*
X156475695Y-107726079D01*
X156476482Y-107717878D01*
X156477795Y-107710008D01*
X156480175Y-107700633D01*
X156483375Y-107691773D01*
X156487395Y-107683429D01*
X156492236Y-107675600D01*
X156497689Y-107668304D01*
X156503666Y-107661438D01*
X156510168Y-107655000D01*
X156517195Y-107648993D01*
X156524746Y-107643414D01*
X156532822Y-107638265D01*
X156536200Y-107636326D01*
X156543152Y-107632692D01*
X156550329Y-107629316D01*
X156557733Y-107626196D01*
X156565362Y-107623332D01*
X156573218Y-107620725D01*
X156581299Y-107618374D01*
X156589607Y-107616279D01*
X156598140Y-107614441D01*
X156606804Y-107612839D01*
X156615505Y-107611449D01*
X156624243Y-107610274D01*
X156633018Y-107609312D01*
X156641829Y-107608564D01*
X156650676Y-107608030D01*
X156659561Y-107607709D01*
X156668482Y-107607603D01*
X156677934Y-107607691D01*
G37*
G36*
X156801109Y-106812143D02*
G01*
X156809959Y-106813288D01*
X156818328Y-106815196D01*
X156826214Y-106817868D01*
X156833617Y-106821302D01*
X156840539Y-106825500D01*
X156846977Y-106830462D01*
X156852934Y-106836186D01*
X156858246Y-106842597D01*
X156862850Y-106849619D01*
X156866746Y-106857252D01*
X156869933Y-106865495D01*
X156872412Y-106874349D01*
X156874183Y-106883813D01*
X156875245Y-106893888D01*
X156875578Y-106901845D01*
X156875600Y-106904574D01*
X156875319Y-106913431D01*
X156874476Y-106922123D01*
X156873072Y-106930650D01*
X156871106Y-106939012D01*
X156868578Y-106947210D01*
X156865488Y-106955242D01*
X156861837Y-106963110D01*
X156857623Y-106970813D01*
X156852781Y-106978482D01*
X156847341Y-106986249D01*
X156841302Y-106994113D01*
X156834665Y-107002076D01*
X156829294Y-107008112D01*
X156823587Y-107014202D01*
X156817543Y-107020348D01*
X156811162Y-107026549D01*
X156804445Y-107032805D01*
X156802131Y-107034902D01*
X156697400Y-107034902D01*
X156697400Y-106957330D01*
X156697501Y-106948153D01*
X156697803Y-106939281D01*
X156698307Y-106930714D01*
X156699012Y-106922453D01*
X156699919Y-106914496D01*
X156701336Y-106904980D01*
X156703067Y-106895942D01*
X156703848Y-106892460D01*
X156705950Y-106884135D01*
X156708347Y-106876259D01*
X156711041Y-106868832D01*
X156714663Y-106860511D01*
X156718712Y-106852836D01*
X156722411Y-106846933D01*
X156727205Y-106840455D01*
X156733251Y-106833748D01*
X156739782Y-106827958D01*
X156746800Y-106823084D01*
X156752110Y-106820164D01*
X156759886Y-106816890D01*
X156768166Y-106814420D01*
X156776951Y-106812755D01*
X156784882Y-106811967D01*
X156791775Y-106811762D01*
X156801109Y-106812143D01*
G37*
G36*
X156782520Y-106261501D02*
G01*
X156790657Y-106268442D01*
X156798406Y-106275322D01*
X156805768Y-106282139D01*
X156812740Y-106288895D01*
X156819325Y-106295590D01*
X156825522Y-106302222D01*
X156831331Y-106308792D01*
X156836751Y-106315301D01*
X156841783Y-106321748D01*
X156844923Y-106326012D01*
X156850647Y-106334557D01*
X156855608Y-106343194D01*
X156859806Y-106351923D01*
X156863241Y-106360743D01*
X156865912Y-106369655D01*
X156867821Y-106378658D01*
X156868965Y-106387753D01*
X156869347Y-106396940D01*
X156869084Y-106405287D01*
X156868297Y-106413328D01*
X156866984Y-106421065D01*
X156864605Y-106430306D01*
X156861405Y-106439070D01*
X156857384Y-106447357D01*
X156852543Y-106455167D01*
X156847030Y-106462515D01*
X156840991Y-106469413D01*
X156834428Y-106475864D01*
X156827340Y-106481866D01*
X156819728Y-106487420D01*
X156811590Y-106492525D01*
X156808189Y-106494441D01*
X156801151Y-106498075D01*
X156793913Y-106501451D01*
X156786472Y-106504571D01*
X156778831Y-106507435D01*
X156770987Y-106510042D01*
X156762943Y-106512393D01*
X156754696Y-106514488D01*
X156746249Y-106516326D01*
X156737636Y-106517974D01*
X156728993Y-106519403D01*
X156720319Y-106520612D01*
X156711615Y-106521601D01*
X156702880Y-106522371D01*
X156694115Y-106522920D01*
X156685319Y-106523250D01*
X156676493Y-106523360D01*
X156666903Y-106523268D01*
X156657381Y-106522993D01*
X156647926Y-106522535D01*
X156638538Y-106521894D01*
X156629217Y-106521070D01*
X156619963Y-106520063D01*
X156610776Y-106518872D01*
X156601657Y-106517498D01*
X156592702Y-106515944D01*
X156584010Y-106514115D01*
X156575581Y-106512012D01*
X156567414Y-106509633D01*
X156559510Y-106506980D01*
X156551868Y-106504052D01*
X156544489Y-106500850D01*
X156537372Y-106497372D01*
X156528908Y-106492686D01*
X156520977Y-106487542D01*
X156513581Y-106481939D01*
X156506720Y-106475879D01*
X156500392Y-106469361D01*
X156494599Y-106462385D01*
X156492431Y-106459466D01*
X156487534Y-106451852D01*
X156483467Y-106443666D01*
X156480230Y-106434908D01*
X156477823Y-106425577D01*
X156476495Y-106417700D01*
X156475698Y-106409457D01*
X156475432Y-106400848D01*
X156475750Y-106392079D01*
X156476702Y-106383360D01*
X156478290Y-106374689D01*
X156480512Y-106366067D01*
X156483053Y-106358602D01*
X156486229Y-106351081D01*
X156490041Y-106343503D01*
X156494489Y-106335870D01*
X156497316Y-106331483D01*
X156501953Y-106324840D01*
X156507071Y-106318101D01*
X156512669Y-106311266D01*
X156518749Y-106304335D01*
X156524182Y-106298486D01*
X156527602Y-106294944D01*
X156533632Y-106288959D01*
X156540120Y-106282850D01*
X156547066Y-106276617D01*
X156554469Y-106270260D01*
X156560722Y-106265085D01*
X156567267Y-106259831D01*
X156574106Y-106254497D01*
X156773995Y-106254497D01*
X156782520Y-106261501D01*
G37*
G36*
X156699262Y-105453020D02*
G01*
X156708367Y-105453698D01*
X156716897Y-105454828D01*
X156724853Y-105456409D01*
X156733991Y-105459022D01*
X156742232Y-105462340D01*
X156749577Y-105466364D01*
X156750938Y-105467254D01*
X156757130Y-105472325D01*
X156762272Y-105478378D01*
X156766365Y-105485415D01*
X156769409Y-105493433D01*
X156771403Y-105502435D01*
X156772243Y-105510344D01*
X156772431Y-105516688D01*
X156772012Y-105524928D01*
X156770752Y-105533282D01*
X156768901Y-105540898D01*
X156768133Y-105543457D01*
X156765234Y-105551369D01*
X156762034Y-105558584D01*
X156758249Y-105565969D01*
X156754455Y-105572571D01*
X156750166Y-105579409D01*
X156745335Y-105586414D01*
X156739961Y-105593589D01*
X156734924Y-105599872D01*
X156730422Y-105605202D01*
X156724594Y-105611847D01*
X156718396Y-105618739D01*
X156712947Y-105624672D01*
X156707241Y-105630776D01*
X156701277Y-105637052D01*
X156695055Y-105643499D01*
X156553004Y-105669878D01*
X156544611Y-105664632D01*
X156536725Y-105659351D01*
X156529346Y-105654032D01*
X156522473Y-105648677D01*
X156516108Y-105643286D01*
X156510249Y-105637857D01*
X156503638Y-105631020D01*
X156500052Y-105626891D01*
X156494761Y-105619904D01*
X156490366Y-105612622D01*
X156486868Y-105605044D01*
X156484268Y-105597170D01*
X156482564Y-105589000D01*
X156481757Y-105580534D01*
X156481685Y-105577065D01*
X156482076Y-105568570D01*
X156483251Y-105560377D01*
X156485209Y-105552487D01*
X156487950Y-105544899D01*
X156491474Y-105537612D01*
X156492822Y-105535251D01*
X156497159Y-105528455D01*
X156501963Y-105521989D01*
X156507234Y-105515852D01*
X156512972Y-105510045D01*
X156519178Y-105504568D01*
X156521350Y-105502815D01*
X156528036Y-105497831D01*
X156535052Y-105493134D01*
X156542397Y-105488726D01*
X156550073Y-105484607D01*
X156558078Y-105480776D01*
X156560819Y-105479564D01*
X156569141Y-105476097D01*
X156577544Y-105472877D01*
X156586030Y-105469905D01*
X156594598Y-105467180D01*
X156603249Y-105464703D01*
X156606151Y-105463932D01*
X156614756Y-105461784D01*
X156623278Y-105459884D01*
X156631719Y-105458230D01*
X156640076Y-105456825D01*
X156648352Y-105455666D01*
X156651092Y-105455335D01*
X156659053Y-105454471D01*
X156667908Y-105453690D01*
X156676294Y-105453152D01*
X156684214Y-105452857D01*
X156689584Y-105452795D01*
X156699262Y-105453020D01*
G37*
G36*
X158630791Y-112393868D02*
G01*
X155832894Y-112393868D01*
X155832894Y-111982481D01*
X156397274Y-111982481D01*
X156397495Y-111990658D01*
X156398056Y-111998698D01*
X156399002Y-112006846D01*
X156400349Y-112014613D01*
X156400987Y-112017651D01*
X156402830Y-112025393D01*
X156405031Y-112032937D01*
X156405872Y-112035432D01*
X156408949Y-112042961D01*
X156411343Y-112046765D01*
X156416618Y-112051064D01*
X156422871Y-112053018D01*
X156430819Y-112054067D01*
X156433813Y-112054190D01*
X156441750Y-112054471D01*
X156449769Y-112054571D01*
X156453548Y-112054581D01*
X156461965Y-112054499D01*
X156469906Y-112054223D01*
X156473674Y-112053995D01*
X156481635Y-112052964D01*
X156486374Y-112051650D01*
X156493248Y-112047705D01*
X156493408Y-112047547D01*
X156495949Y-112040708D01*
X156494398Y-112032679D01*
X156493408Y-112029961D01*
X156490613Y-112022371D01*
X156488524Y-112015698D01*
X156486228Y-112007898D01*
X156484241Y-111999766D01*
X156483834Y-111997917D01*
X156482443Y-111989562D01*
X156481788Y-111981392D01*
X156481685Y-111976423D01*
X156482257Y-111967913D01*
X156483975Y-111959479D01*
X156486499Y-111951954D01*
X156487547Y-111949459D01*
X156491337Y-111941971D01*
X156495718Y-111935108D01*
X156501052Y-111928049D01*
X156506500Y-111921713D01*
X156512648Y-111915312D01*
X156518588Y-111909707D01*
X156525146Y-111903992D01*
X156532322Y-111898166D01*
X156538774Y-111893228D01*
X156541475Y-111891231D01*
X156548496Y-111886200D01*
X156556004Y-111880996D01*
X156563998Y-111875621D01*
X156570744Y-111871197D01*
X156577801Y-111866663D01*
X156585170Y-111862020D01*
X156592849Y-111857266D01*
X156594818Y-111856060D01*
X156918000Y-111856060D01*
X156925425Y-111853911D01*
X156930256Y-111847608D01*
X156930701Y-111846681D01*
X156933006Y-111839049D01*
X156934023Y-111833004D01*
X156934655Y-111825054D01*
X156934938Y-111817067D01*
X156935000Y-111810534D01*
X156934904Y-111802668D01*
X156934538Y-111794388D01*
X156934023Y-111788454D01*
X156932606Y-111780541D01*
X156930701Y-111774386D01*
X156926149Y-111767889D01*
X156925425Y-111767351D01*
X156918000Y-111765397D01*
X156426779Y-111765397D01*
X156419354Y-111766961D01*
X156414202Y-111773006D01*
X156413883Y-111773604D01*
X156411306Y-111781366D01*
X156410561Y-111786305D01*
X156410000Y-111794662D01*
X156409799Y-111802832D01*
X156409780Y-111806626D01*
X156409872Y-111814469D01*
X156410219Y-111822489D01*
X156410561Y-111826751D01*
X156411997Y-111834589D01*
X156413883Y-111839061D01*
X156418989Y-111845083D01*
X156419354Y-111845314D01*
X156426779Y-111847268D01*
X156498293Y-111847268D01*
X156490710Y-111852308D01*
X156483492Y-111857269D01*
X156476641Y-111862151D01*
X156470157Y-111866954D01*
X156462566Y-111872845D01*
X156455548Y-111878612D01*
X156449102Y-111884256D01*
X156447882Y-111885370D01*
X156441981Y-111890935D01*
X156435441Y-111897474D01*
X156429492Y-111903863D01*
X156424134Y-111910100D01*
X156418630Y-111917186D01*
X156417205Y-111919173D01*
X156412583Y-111926164D01*
X156408635Y-111933118D01*
X156404947Y-111941019D01*
X156402138Y-111948871D01*
X156401573Y-111950827D01*
X156399692Y-111958740D01*
X156398349Y-111966654D01*
X156397543Y-111974567D01*
X156397274Y-111982481D01*
X155832894Y-111982481D01*
X155832894Y-111412711D01*
X156397274Y-111412711D01*
X156397438Y-111423476D01*
X156397927Y-111433935D01*
X156398743Y-111444088D01*
X156399885Y-111453936D01*
X156401353Y-111463478D01*
X156403148Y-111472714D01*
X156405269Y-111481645D01*
X156407716Y-111490270D01*
X156410489Y-111498589D01*
X156413589Y-111506603D01*
X156415837Y-111511776D01*
X156419429Y-111519341D01*
X156423244Y-111526648D01*
X156427283Y-111533697D01*
X156431545Y-111540490D01*
X156436030Y-111547024D01*
X156440738Y-111553301D01*
X156447363Y-111561269D01*
X156454385Y-111568780D01*
X156461804Y-111575832D01*
X156465662Y-111579187D01*
X156473649Y-111585561D01*
X156481978Y-111591497D01*
X156490648Y-111596992D01*
X156499661Y-111602048D01*
X156509016Y-111606664D01*
X156516256Y-111609838D01*
X156523688Y-111612764D01*
X156531313Y-111615443D01*
X156539131Y-111617875D01*
X156547096Y-111620075D01*
X156555164Y-111622058D01*
X156563335Y-111623825D01*
X156571609Y-111625376D01*
X156579986Y-111626710D01*
X156588466Y-111627828D01*
X156597049Y-111628730D01*
X156605736Y-111629415D01*
X156614525Y-111629884D01*
X156623417Y-111630137D01*
X156629403Y-111630185D01*
X156645621Y-111630185D01*
X156654349Y-111629670D01*
X156662883Y-111627823D01*
X156670643Y-111624140D01*
X156675907Y-111619438D01*
X156680647Y-111612519D01*
X156683631Y-111604951D01*
X156684860Y-111596735D01*
X156684895Y-111595014D01*
X156684895Y-111270855D01*
X156692879Y-111270927D01*
X156700713Y-111271143D01*
X156710922Y-111271656D01*
X156720863Y-111272425D01*
X156730535Y-111273451D01*
X156739938Y-111274733D01*
X156749073Y-111276272D01*
X156757939Y-111278067D01*
X156762271Y-111279061D01*
X156770719Y-111281284D01*
X156778867Y-111283848D01*
X156786717Y-111286755D01*
X156794267Y-111290003D01*
X156801518Y-111293594D01*
X156808469Y-111297526D01*
X156815122Y-111301800D01*
X156821475Y-111306416D01*
X156828892Y-111312738D01*
X156835756Y-111319613D01*
X156842066Y-111327041D01*
X156846716Y-111333383D01*
X156851012Y-111340078D01*
X156854953Y-111347127D01*
X156858540Y-111354531D01*
X156859382Y-111356437D01*
X156862450Y-111364369D01*
X156865109Y-111372728D01*
X156867359Y-111381515D01*
X156869200Y-111390729D01*
X156870632Y-111400370D01*
X156871655Y-111410439D01*
X156872154Y-111418272D01*
X156872422Y-111426344D01*
X156872473Y-111431859D01*
X156872385Y-111440530D01*
X156872119Y-111448956D01*
X156871676Y-111457139D01*
X156871057Y-111465076D01*
X156870033Y-111474655D01*
X156868733Y-111483853D01*
X156867156Y-111492668D01*
X156866807Y-111494386D01*
X156864942Y-111502814D01*
X156863010Y-111510880D01*
X156861011Y-111518583D01*
X156858524Y-111527348D01*
X156855941Y-111535591D01*
X156853715Y-111542062D01*
X156850627Y-111550521D01*
X156847689Y-111558288D01*
X156844514Y-111566317D01*
X156841175Y-111574270D01*
X156840819Y-111575083D01*
X156837728Y-111582533D01*
X156835421Y-111590391D01*
X156834958Y-111594623D01*
X156836912Y-111601266D01*
X156842773Y-111605956D01*
X156850394Y-111608044D01*
X156853715Y-111608496D01*
X156862016Y-111609106D01*
X156870095Y-111609277D01*
X156870715Y-111609277D01*
X156878774Y-111609071D01*
X156883415Y-111608691D01*
X156891343Y-111607669D01*
X156892990Y-111607324D01*
X156900415Y-111604588D01*
X156906667Y-111599897D01*
X156906863Y-111599703D01*
X156911287Y-111593225D01*
X156914920Y-111586272D01*
X156917023Y-111581922D01*
X156920430Y-111573948D01*
X156923392Y-111566068D01*
X156925915Y-111558645D01*
X156928425Y-111550603D01*
X156930505Y-111543430D01*
X156932492Y-111535860D01*
X156934421Y-111527928D01*
X156936293Y-111519633D01*
X156938107Y-111510976D01*
X156939865Y-111501956D01*
X156941565Y-111492574D01*
X156942229Y-111488719D01*
X156943466Y-111480888D01*
X156944537Y-111472929D01*
X156945444Y-111464841D01*
X156946186Y-111456626D01*
X156946763Y-111448282D01*
X156947175Y-111439810D01*
X156947422Y-111431209D01*
X156947505Y-111422481D01*
X156947354Y-111411182D01*
X156946900Y-111400148D01*
X156946145Y-111389379D01*
X156945087Y-111378874D01*
X156943727Y-111368634D01*
X156942064Y-111358658D01*
X156940100Y-111348946D01*
X156937833Y-111339499D01*
X156935264Y-111330316D01*
X156932392Y-111321398D01*
X156930310Y-111315600D01*
X156926905Y-111307119D01*
X156923212Y-111298896D01*
X156919230Y-111290930D01*
X156914959Y-111283222D01*
X156910400Y-111275772D01*
X156905553Y-111268579D01*
X156900417Y-111261644D01*
X156894993Y-111254967D01*
X156889280Y-111248547D01*
X156883278Y-111242384D01*
X156879117Y-111238419D01*
X156872591Y-111232691D01*
X156865763Y-111227231D01*
X156858632Y-111222039D01*
X156851200Y-111217115D01*
X156843465Y-111212459D01*
X156835428Y-111208070D01*
X156827088Y-111203950D01*
X156818447Y-111200097D01*
X156809503Y-111196513D01*
X156800257Y-111193196D01*
X156793925Y-111191134D01*
X156784180Y-111188305D01*
X156774143Y-111185755D01*
X156763815Y-111183483D01*
X156753194Y-111181489D01*
X156742282Y-111179774D01*
X156731077Y-111178336D01*
X156719581Y-111177177D01*
X156711754Y-111176559D01*
X156703798Y-111176064D01*
X156695712Y-111175693D01*
X156687497Y-111175446D01*
X156679151Y-111175322D01*
X156674930Y-111175307D01*
X156666921Y-111175371D01*
X156659014Y-111175563D01*
X156647346Y-111176092D01*
X156635908Y-111176910D01*
X156624700Y-111178016D01*
X156613722Y-111179410D01*
X156602975Y-111181093D01*
X156592457Y-111183065D01*
X156582170Y-111185325D01*
X156572113Y-111187873D01*
X156562285Y-111190710D01*
X156559061Y-111191720D01*
X156549526Y-111194926D01*
X156540266Y-111198390D01*
X156531281Y-111202111D01*
X156522571Y-111206091D01*
X156514135Y-111210327D01*
X156505975Y-111214821D01*
X156498089Y-111219573D01*
X156490478Y-111224583D01*
X156483141Y-111229850D01*
X156476079Y-111235374D01*
X156471524Y-111239201D01*
X156464931Y-111245139D01*
X156458633Y-111251304D01*
X156452630Y-111257696D01*
X156446923Y-111264315D01*
X156441511Y-111271160D01*
X156436395Y-111278232D01*
X156431573Y-111285531D01*
X156427048Y-111293056D01*
X156422817Y-111300808D01*
X156418882Y-111308787D01*
X156416423Y-111314232D01*
X156413001Y-111322568D01*
X156409916Y-111331089D01*
X156407167Y-111339796D01*
X156404754Y-111348689D01*
X156402679Y-111357766D01*
X156400940Y-111367030D01*
X156399537Y-111376479D01*
X156398471Y-111386113D01*
X156397742Y-111395932D01*
X156397349Y-111405938D01*
X156397317Y-111408803D01*
X156397274Y-111412711D01*
X155832894Y-111412711D01*
X155832894Y-110855446D01*
X156397274Y-110855446D01*
X156397438Y-110866211D01*
X156397927Y-110876670D01*
X156398743Y-110886824D01*
X156399885Y-110896671D01*
X156401353Y-110906214D01*
X156403148Y-110915450D01*
X156405269Y-110924381D01*
X156407716Y-110933006D01*
X156410489Y-110941325D01*
X156413589Y-110949339D01*
X156415837Y-110954511D01*
X156419429Y-110962076D01*
X156423244Y-110969383D01*
X156427283Y-110976433D01*
X156431545Y-110983225D01*
X156436030Y-110989759D01*
X156440738Y-110996036D01*
X156447363Y-111004005D01*
X156454385Y-111011515D01*
X156461804Y-111018568D01*
X156465662Y-111021922D01*
X156473649Y-111028297D01*
X156481978Y-111034232D01*
X156490648Y-111039728D01*
X156499661Y-111044783D01*
X156509016Y-111049400D01*
X156516256Y-111052573D01*
X156523688Y-111055500D01*
X156531313Y-111058179D01*
X156539131Y-111060610D01*
X156547096Y-111062810D01*
X156555164Y-111064794D01*
X156563335Y-111066561D01*
X156571609Y-111068112D01*
X156579986Y-111069446D01*
X156588466Y-111070564D01*
X156597049Y-111071466D01*
X156605736Y-111072151D01*
X156614525Y-111072620D01*
X156623417Y-111072872D01*
X156629403Y-111072920D01*
X156645621Y-111072920D01*
X156654349Y-111072406D01*
X156662883Y-111070559D01*
X156670643Y-111066875D01*
X156675907Y-111062173D01*
X156680647Y-111055255D01*
X156683631Y-111047687D01*
X156684860Y-111039470D01*
X156684895Y-111037749D01*
X156684895Y-110713590D01*
X156692879Y-110713662D01*
X156700713Y-110713879D01*
X156710922Y-110714391D01*
X156720863Y-110715161D01*
X156730535Y-110716187D01*
X156739938Y-110717469D01*
X156749073Y-110719008D01*
X156757939Y-110720803D01*
X156762271Y-110721797D01*
X156770719Y-110724019D01*
X156778867Y-110726584D01*
X156786717Y-110729490D01*
X156794267Y-110732739D01*
X156801518Y-110736329D01*
X156808469Y-110740261D01*
X156815122Y-110744536D01*
X156821475Y-110749152D01*
X156828892Y-110755474D01*
X156835756Y-110762349D01*
X156842066Y-110769777D01*
X156846716Y-110776118D01*
X156851012Y-110782813D01*
X156854953Y-110789863D01*
X156858540Y-110797267D01*
X156859382Y-110799173D01*
X156862450Y-110807105D01*
X156865109Y-110815464D01*
X156867359Y-110824250D01*
X156869200Y-110833464D01*
X156870632Y-110843106D01*
X156871655Y-110853175D01*
X156872154Y-110861007D01*
X156872422Y-110869080D01*
X156872473Y-110874595D01*
X156872385Y-110883266D01*
X156872119Y-110891692D01*
X156871676Y-110899874D01*
X156871057Y-110907812D01*
X156870033Y-110917391D01*
X156868733Y-110926588D01*
X156867156Y-110935404D01*
X156866807Y-110937121D01*
X156864942Y-110945549D01*
X156863010Y-110953615D01*
X156861011Y-110961318D01*
X156858524Y-110970084D01*
X156855941Y-110978327D01*
X156853715Y-110984797D01*
X156850627Y-110993256D01*
X156847689Y-111001023D01*
X156844514Y-111009053D01*
X156841175Y-111017006D01*
X156840819Y-111017819D01*
X156837728Y-111025268D01*
X156835421Y-111033127D01*
X156834958Y-111037358D01*
X156836912Y-111044002D01*
X156842773Y-111048691D01*
X156850394Y-111050780D01*
X156853715Y-111051231D01*
X156862016Y-111051841D01*
X156870095Y-111052012D01*
X156870715Y-111052013D01*
X156878774Y-111051806D01*
X156883415Y-111051427D01*
X156891343Y-111050405D01*
X156892990Y-111050059D01*
X156900415Y-111047324D01*
X156906667Y-111042633D01*
X156906863Y-111042439D01*
X156911287Y-111035961D01*
X156914920Y-111029007D01*
X156917023Y-111024658D01*
X156920430Y-111016683D01*
X156923392Y-111008804D01*
X156925915Y-111001380D01*
X156928425Y-110993339D01*
X156930505Y-110986165D01*
X156932492Y-110978595D01*
X156934421Y-110970663D01*
X156936293Y-110962369D01*
X156938107Y-110953711D01*
X156939865Y-110944692D01*
X156941565Y-110935309D01*
X156942229Y-110931455D01*
X156943466Y-110923624D01*
X156944537Y-110915664D01*
X156945444Y-110907577D01*
X156946186Y-110899361D01*
X156946763Y-110891017D01*
X156947175Y-110882545D01*
X156947422Y-110873945D01*
X156947505Y-110865216D01*
X156947354Y-110853918D01*
X156946900Y-110842884D01*
X156946145Y-110832114D01*
X156945087Y-110821610D01*
X156943727Y-110811369D01*
X156942064Y-110801393D01*
X156940100Y-110791682D01*
X156937833Y-110782235D01*
X156935264Y-110773052D01*
X156932392Y-110764134D01*
X156930310Y-110758335D01*
X156926905Y-110749855D01*
X156923212Y-110741631D01*
X156919230Y-110733666D01*
X156914959Y-110725958D01*
X156910400Y-110718508D01*
X156905553Y-110711315D01*
X156900417Y-110704380D01*
X156894993Y-110697702D01*
X156889280Y-110691282D01*
X156883278Y-110685120D01*
X156879117Y-110681155D01*
X156872591Y-110675427D01*
X156865763Y-110669967D01*
X156858632Y-110664775D01*
X156851200Y-110659851D01*
X156843465Y-110655194D01*
X156835428Y-110650806D01*
X156827088Y-110646685D01*
X156818447Y-110642833D01*
X156809503Y-110639248D01*
X156800257Y-110635932D01*
X156793925Y-110633869D01*
X156784180Y-110631041D01*
X156774143Y-110628491D01*
X156763815Y-110626218D01*
X156753194Y-110624225D01*
X156742282Y-110622509D01*
X156731077Y-110621072D01*
X156719581Y-110619912D01*
X156711754Y-110619294D01*
X156703798Y-110618800D01*
X156695712Y-110618429D01*
X156687497Y-110618181D01*
X156679151Y-110618058D01*
X156674930Y-110618042D01*
X156666921Y-110618106D01*
X156659014Y-110618299D01*
X156647346Y-110618828D01*
X156635908Y-110619645D01*
X156624700Y-110620751D01*
X156613722Y-110622146D01*
X156602975Y-110623829D01*
X156592457Y-110625800D01*
X156582170Y-110628060D01*
X156572113Y-110630609D01*
X156562285Y-110633446D01*
X156559061Y-110634455D01*
X156549526Y-110637662D01*
X156540266Y-110641126D01*
X156531281Y-110644847D01*
X156522571Y-110648826D01*
X156514135Y-110653063D01*
X156505975Y-110657557D01*
X156498089Y-110662309D01*
X156490478Y-110667318D01*
X156483141Y-110672585D01*
X156476079Y-110678110D01*
X156471524Y-110681936D01*
X156464931Y-110687875D01*
X156458633Y-110694040D01*
X156452630Y-110700432D01*
X156446923Y-110707050D01*
X156441511Y-110713896D01*
X156436395Y-110720968D01*
X156431573Y-110728266D01*
X156427048Y-110735792D01*
X156422817Y-110743544D01*
X156418882Y-110751523D01*
X156416423Y-110756968D01*
X156413001Y-110765304D01*
X156409916Y-110773825D01*
X156407167Y-110782532D01*
X156404754Y-110791424D01*
X156402679Y-110800502D01*
X156400940Y-110809765D01*
X156399537Y-110819214D01*
X156398471Y-110828848D01*
X156397742Y-110838668D01*
X156397349Y-110848673D01*
X156397317Y-110851538D01*
X156397274Y-110855446D01*
X155832894Y-110855446D01*
X155832894Y-110311273D01*
X156397274Y-110311273D01*
X156397422Y-110320438D01*
X156397865Y-110329321D01*
X156398604Y-110337923D01*
X156399637Y-110346243D01*
X156400967Y-110354281D01*
X156402591Y-110362038D01*
X156405217Y-110371942D01*
X156408368Y-110381345D01*
X156412044Y-110390248D01*
X156414078Y-110394511D01*
X156418456Y-110402761D01*
X156423189Y-110410607D01*
X156428275Y-110418050D01*
X156433715Y-110425090D01*
X156439510Y-110431728D01*
X156445659Y-110437962D01*
X156452162Y-110443793D01*
X156459019Y-110449222D01*
X156466203Y-110454262D01*
X156473686Y-110458930D01*
X156481468Y-110463226D01*
X156489549Y-110467149D01*
X156497930Y-110470700D01*
X156506610Y-110473878D01*
X156515589Y-110476684D01*
X156524867Y-110479117D01*
X156534533Y-110481269D01*
X156544675Y-110483135D01*
X156552594Y-110484345D01*
X156560781Y-110485395D01*
X156569236Y-110486283D01*
X156577959Y-110487009D01*
X156586950Y-110487574D01*
X156596209Y-110487978D01*
X156605735Y-110488220D01*
X156615530Y-110488300D01*
X156918000Y-110488300D01*
X156925425Y-110486151D01*
X156930256Y-110479848D01*
X156930701Y-110478922D01*
X156933006Y-110471289D01*
X156934023Y-110465244D01*
X156934655Y-110457358D01*
X156934938Y-110449527D01*
X156935000Y-110443164D01*
X156934904Y-110435093D01*
X156934538Y-110426667D01*
X156934023Y-110420694D01*
X156932606Y-110412829D01*
X156930701Y-110406821D01*
X156926149Y-110400367D01*
X156925425Y-110399787D01*
X156917805Y-110397638D01*
X156627058Y-110397638D01*
X156616717Y-110397534D01*
X156606896Y-110397222D01*
X156597593Y-110396703D01*
X156588810Y-110395977D01*
X156580545Y-110395042D01*
X156572800Y-110393901D01*
X156563847Y-110392181D01*
X156558866Y-110390994D01*
X156550921Y-110388770D01*
X156543329Y-110386250D01*
X156534685Y-110382836D01*
X156526550Y-110378996D01*
X156518923Y-110374731D01*
X156514120Y-110371650D01*
X156507395Y-110366693D01*
X156501288Y-110361200D01*
X156495800Y-110355171D01*
X156490929Y-110348606D01*
X156486677Y-110341505D01*
X156485397Y-110339019D01*
X156482011Y-110331319D01*
X156479325Y-110323165D01*
X156477340Y-110314558D01*
X156476055Y-110305497D01*
X156475520Y-110297600D01*
X156475432Y-110292711D01*
X156475811Y-110284165D01*
X156476946Y-110275626D01*
X156478839Y-110267093D01*
X156481489Y-110258566D01*
X156484897Y-110250045D01*
X156489061Y-110241530D01*
X156493982Y-110233021D01*
X156499661Y-110224518D01*
X156504403Y-110218113D01*
X156509544Y-110211645D01*
X156515083Y-110205116D01*
X156521020Y-110198525D01*
X156527356Y-110191872D01*
X156534090Y-110185157D01*
X156541223Y-110178380D01*
X156548754Y-110171542D01*
X156556683Y-110164642D01*
X156565011Y-110157680D01*
X156570785Y-110153004D01*
X156917805Y-110153004D01*
X156925425Y-110150855D01*
X156930256Y-110144552D01*
X156930701Y-110143625D01*
X156933006Y-110135992D01*
X156934023Y-110129947D01*
X156934655Y-110121997D01*
X156934938Y-110114011D01*
X156935000Y-110107477D01*
X156934904Y-110099612D01*
X156934538Y-110091332D01*
X156934023Y-110085397D01*
X156932606Y-110077484D01*
X156930701Y-110071329D01*
X156926149Y-110064832D01*
X156925425Y-110064295D01*
X156918000Y-110062341D01*
X156426779Y-110062341D01*
X156419354Y-110063904D01*
X156414202Y-110069949D01*
X156413883Y-110070548D01*
X156411306Y-110078309D01*
X156410561Y-110083248D01*
X156410000Y-110091606D01*
X156409799Y-110099776D01*
X156409780Y-110103569D01*
X156409872Y-110111413D01*
X156410219Y-110119433D01*
X156410561Y-110123695D01*
X156411997Y-110131533D01*
X156413883Y-110136005D01*
X156418989Y-110142027D01*
X156419354Y-110142257D01*
X156426779Y-110144211D01*
X156491650Y-110144211D01*
X156485646Y-110149436D01*
X156477024Y-110157269D01*
X156468862Y-110165094D01*
X156461160Y-110172912D01*
X156453919Y-110180724D01*
X156447138Y-110188529D01*
X156440817Y-110196326D01*
X156434956Y-110204117D01*
X156429556Y-110211902D01*
X156424616Y-110219679D01*
X156420136Y-110227449D01*
X156416050Y-110235258D01*
X156412366Y-110243077D01*
X156409085Y-110250906D01*
X156406205Y-110258746D01*
X156403726Y-110266596D01*
X156401650Y-110274456D01*
X156399976Y-110282326D01*
X156398703Y-110290207D01*
X156397833Y-110298098D01*
X156397364Y-110306000D01*
X156397274Y-110311273D01*
X155832894Y-110311273D01*
X155832894Y-109851706D01*
X156200317Y-109851706D01*
X156200594Y-109861167D01*
X156201424Y-109869646D01*
X156203150Y-109878524D01*
X156205674Y-109885986D01*
X156209625Y-109892904D01*
X156211650Y-109895279D01*
X156218574Y-109900493D01*
X156226697Y-109903834D01*
X156235192Y-109905789D01*
X156243352Y-109906779D01*
X156252495Y-109907186D01*
X156254441Y-109907198D01*
X156263959Y-109906902D01*
X156272485Y-109906015D01*
X156281406Y-109904169D01*
X156288898Y-109901472D01*
X156295833Y-109897248D01*
X156298210Y-109895083D01*
X156303253Y-109887756D01*
X156306484Y-109879261D01*
X156308376Y-109870432D01*
X156309333Y-109861982D01*
X156309727Y-109852541D01*
X156309735Y-109851120D01*
X156409780Y-109851120D01*
X156409894Y-109859191D01*
X156410334Y-109867618D01*
X156410952Y-109873590D01*
X156412271Y-109881406D01*
X156414274Y-109887268D01*
X156418735Y-109893754D01*
X156419745Y-109894497D01*
X156426779Y-109896647D01*
X156918000Y-109896647D01*
X156925425Y-109894497D01*
X156930256Y-109888194D01*
X156930701Y-109887268D01*
X156933006Y-109879635D01*
X156934023Y-109873590D01*
X156934655Y-109865640D01*
X156934938Y-109857653D01*
X156935000Y-109851120D01*
X156934904Y-109843254D01*
X156934538Y-109834975D01*
X156934023Y-109829040D01*
X156932606Y-109821127D01*
X156930701Y-109814972D01*
X156926149Y-109808475D01*
X156925425Y-109807938D01*
X156918000Y-109805984D01*
X156426779Y-109805984D01*
X156419745Y-109807938D01*
X156414687Y-109814047D01*
X156414274Y-109814972D01*
X156411972Y-109822477D01*
X156410952Y-109829040D01*
X156410193Y-109836926D01*
X156409853Y-109844757D01*
X156409780Y-109851120D01*
X156309735Y-109851120D01*
X156309738Y-109850534D01*
X156309461Y-109841067D01*
X156308631Y-109832574D01*
X156306905Y-109823667D01*
X156304381Y-109816161D01*
X156300430Y-109809175D01*
X156298405Y-109806765D01*
X156291481Y-109801636D01*
X156283358Y-109798350D01*
X156274863Y-109796427D01*
X156266703Y-109795454D01*
X156257560Y-109795053D01*
X156255614Y-109795042D01*
X156246101Y-109795337D01*
X156237589Y-109796225D01*
X156228698Y-109798070D01*
X156221249Y-109800768D01*
X156214383Y-109804991D01*
X156212041Y-109807156D01*
X156206912Y-109814483D01*
X156203626Y-109822978D01*
X156201702Y-109831808D01*
X156200729Y-109840257D01*
X156200328Y-109849699D01*
X156200317Y-109851706D01*
X155832894Y-109851706D01*
X155832894Y-109445872D01*
X156397274Y-109445872D01*
X156397391Y-109454195D01*
X156397742Y-109462313D01*
X156398325Y-109470224D01*
X156399302Y-109479193D01*
X156400596Y-109487882D01*
X156402171Y-109496309D01*
X156403989Y-109504493D01*
X156406050Y-109512433D01*
X156408354Y-109520131D01*
X156409780Y-109524421D01*
X156409780Y-109673897D01*
X156411840Y-109681617D01*
X156418023Y-109687189D01*
X156419159Y-109687770D01*
X156426650Y-109690440D01*
X156434531Y-109691800D01*
X156442859Y-109692386D01*
X156447491Y-109692460D01*
X156455601Y-109692207D01*
X156463588Y-109691300D01*
X156471648Y-109689240D01*
X156476018Y-109687184D01*
X156482029Y-109682140D01*
X156484802Y-109674407D01*
X156484811Y-109673897D01*
X156484811Y-109602969D01*
X156490585Y-109608671D01*
X156496550Y-109613811D01*
X156503960Y-109619236D01*
X156511644Y-109623849D01*
X156519603Y-109627653D01*
X156525062Y-109629738D01*
X156533404Y-109632394D01*
X156541869Y-109634501D01*
X156550458Y-109636058D01*
X156559171Y-109637065D01*
X156568007Y-109637523D01*
X156570980Y-109637554D01*
X156578844Y-109637432D01*
X156589063Y-109636890D01*
X156598976Y-109635914D01*
X156608584Y-109634506D01*
X156617886Y-109632663D01*
X156626884Y-109630387D01*
X156635576Y-109627677D01*
X156643962Y-109624534D01*
X156646011Y-109623681D01*
X156653968Y-109620075D01*
X156661618Y-109616097D01*
X156668964Y-109611746D01*
X156676004Y-109607023D01*
X156682739Y-109601928D01*
X156689169Y-109596460D01*
X156695293Y-109590619D01*
X156701113Y-109584407D01*
X156706565Y-109577904D01*
X156711688Y-109571095D01*
X156716482Y-109563982D01*
X156720945Y-109556563D01*
X156725079Y-109548839D01*
X156728883Y-109540809D01*
X156732357Y-109532474D01*
X156735502Y-109523834D01*
X156738295Y-109514923D01*
X156740717Y-109505773D01*
X156742765Y-109496384D01*
X156744441Y-109486758D01*
X156745745Y-109476894D01*
X156746676Y-109466791D01*
X156747235Y-109456451D01*
X156747409Y-109448539D01*
X156747421Y-109445872D01*
X156747230Y-109436479D01*
X156746658Y-109427229D01*
X156745704Y-109418123D01*
X156744368Y-109409159D01*
X156742651Y-109400339D01*
X156740552Y-109391662D01*
X156739605Y-109388231D01*
X156737006Y-109380044D01*
X156734217Y-109372458D01*
X156730617Y-109364148D01*
X156726743Y-109356704D01*
X156721875Y-109349113D01*
X156719675Y-109346221D01*
X156725747Y-109340988D01*
X156732315Y-109336281D01*
X156739376Y-109332099D01*
X156743513Y-109330003D01*
X156751312Y-109326981D01*
X156759759Y-109324947D01*
X156767813Y-109323970D01*
X156774190Y-109323751D01*
X156782753Y-109324601D01*
X156790662Y-109327154D01*
X156797916Y-109331408D01*
X156804516Y-109337364D01*
X156807993Y-109341531D01*
X156812550Y-109348685D01*
X156816255Y-109356662D01*
X156819108Y-109365464D01*
X156820443Y-109371622D01*
X156820835Y-109373429D01*
X156821970Y-109381966D01*
X156822452Y-109389208D01*
X156827923Y-109518363D01*
X156828342Y-109527452D01*
X156829010Y-109536352D01*
X156829929Y-109545062D01*
X156831099Y-109553583D01*
X156832518Y-109561915D01*
X156834188Y-109570057D01*
X156836109Y-109578010D01*
X156838279Y-109585774D01*
X156840697Y-109593361D01*
X156844063Y-109602475D01*
X156847811Y-109611179D01*
X156851940Y-109619473D01*
X156856451Y-109627357D01*
X156861343Y-109634830D01*
X156864462Y-109639117D01*
X156869965Y-109645952D01*
X156875850Y-109652291D01*
X156882116Y-109658134D01*
X156888764Y-109663480D01*
X156895794Y-109668331D01*
X156903205Y-109672685D01*
X156906277Y-109674288D01*
X156914171Y-109677947D01*
X156922465Y-109680986D01*
X156931161Y-109683404D01*
X156940257Y-109685203D01*
X156949754Y-109686381D01*
X156957640Y-109686877D01*
X156963722Y-109686989D01*
X156972314Y-109686766D01*
X156980795Y-109686097D01*
X156989166Y-109684983D01*
X156997428Y-109683423D01*
X157005580Y-109681417D01*
X157013621Y-109678965D01*
X157021553Y-109676068D01*
X157029375Y-109672725D01*
X157037069Y-109668921D01*
X157044518Y-109664640D01*
X157051723Y-109659884D01*
X157058684Y-109654651D01*
X157065401Y-109648942D01*
X157071873Y-109642756D01*
X157078101Y-109636094D01*
X157084085Y-109628956D01*
X157089840Y-109621373D01*
X157095284Y-109613276D01*
X157100416Y-109604666D01*
X157105237Y-109595544D01*
X157108648Y-109588366D01*
X157111884Y-109580899D01*
X157114945Y-109573143D01*
X157117831Y-109565099D01*
X157120541Y-109556767D01*
X157121406Y-109553925D01*
X157123850Y-109545243D01*
X157126054Y-109536269D01*
X157128017Y-109527002D01*
X157129740Y-109517444D01*
X157131223Y-109507594D01*
X157132465Y-109497452D01*
X157133467Y-109487018D01*
X157134228Y-109476292D01*
X157134749Y-109465275D01*
X157135030Y-109453965D01*
X157135083Y-109446263D01*
X157134992Y-109435207D01*
X157134719Y-109424460D01*
X157134264Y-109414022D01*
X157133627Y-109403893D01*
X157132808Y-109394073D01*
X157131807Y-109384562D01*
X157130623Y-109375361D01*
X157129258Y-109366469D01*
X157127711Y-109357885D01*
X157125981Y-109349611D01*
X157124727Y-109344267D01*
X157122755Y-109336522D01*
X157119917Y-109326608D01*
X157116842Y-109317163D01*
X157113527Y-109308189D01*
X157109975Y-109299684D01*
X157106185Y-109291650D01*
X157102156Y-109284086D01*
X157098161Y-109277443D01*
X157553696Y-109277443D01*
X157553825Y-109287002D01*
X157554211Y-109296333D01*
X157554855Y-109305439D01*
X157555757Y-109314317D01*
X157556916Y-109322969D01*
X157558333Y-109331395D01*
X157560007Y-109339593D01*
X157561939Y-109347565D01*
X157564129Y-109355310D01*
X157566576Y-109362829D01*
X157568351Y-109367715D01*
X157572182Y-109377225D01*
X157576349Y-109386314D01*
X157580853Y-109394982D01*
X157585692Y-109403228D01*
X157590867Y-109411053D01*
X157596377Y-109418456D01*
X157602224Y-109425439D01*
X157608406Y-109432000D01*
X157614888Y-109438197D01*
X157621632Y-109443992D01*
X157628639Y-109449384D01*
X157635908Y-109454372D01*
X157643440Y-109458958D01*
X157651234Y-109463141D01*
X157659291Y-109466920D01*
X157667611Y-109470297D01*
X157676083Y-109473274D01*
X157684696Y-109475854D01*
X157693449Y-109478036D01*
X157702342Y-109479822D01*
X157711376Y-109481212D01*
X157720550Y-109482204D01*
X157729865Y-109482799D01*
X157739321Y-109482998D01*
X157747915Y-109482903D01*
X157756503Y-109482619D01*
X157765085Y-109482146D01*
X157773661Y-109481483D01*
X157782231Y-109480632D01*
X157790795Y-109479590D01*
X157799352Y-109478360D01*
X157807904Y-109476940D01*
X157816492Y-109475215D01*
X157825257Y-109473069D01*
X157834200Y-109470502D01*
X157843319Y-109467513D01*
X157852616Y-109464102D01*
X157862089Y-109460271D01*
X157869311Y-109457121D01*
X157876632Y-109453734D01*
X157881568Y-109451344D01*
X157889049Y-109447527D01*
X157896692Y-109443405D01*
X157904496Y-109438977D01*
X157912461Y-109434244D01*
X157920588Y-109429204D01*
X157928877Y-109423860D01*
X157937326Y-109418209D01*
X157945938Y-109412253D01*
X157954710Y-109405991D01*
X157963645Y-109399423D01*
X157969690Y-109394875D01*
X157978905Y-109387774D01*
X157985191Y-109382804D01*
X157991592Y-109377644D01*
X157998107Y-109372295D01*
X158004737Y-109366757D01*
X158011481Y-109361030D01*
X158018340Y-109355113D01*
X158025313Y-109349007D01*
X158032400Y-109342711D01*
X158039602Y-109336227D01*
X158046919Y-109329553D01*
X158054350Y-109322690D01*
X158061896Y-109315637D01*
X158069556Y-109308395D01*
X158077330Y-109300964D01*
X158081260Y-109297178D01*
X158197715Y-109184631D01*
X158197715Y-109493940D01*
X158199802Y-109501764D01*
X158200256Y-109502537D01*
X158205775Y-109508233D01*
X158207876Y-109509571D01*
X158215051Y-109512792D01*
X158220381Y-109514065D01*
X158228441Y-109515091D01*
X158236536Y-109515428D01*
X158237771Y-109515433D01*
X158246079Y-109515171D01*
X158254068Y-109514310D01*
X158255552Y-109514065D01*
X158263541Y-109512156D01*
X158268644Y-109510157D01*
X158275018Y-109505468D01*
X158276459Y-109503514D01*
X158278937Y-109496033D01*
X158279000Y-109494526D01*
X158279000Y-109101588D01*
X158278381Y-109093571D01*
X158277046Y-109088106D01*
X158273251Y-109080961D01*
X158270793Y-109078141D01*
X158264079Y-109074026D01*
X158257897Y-109072083D01*
X158249835Y-109070881D01*
X158241793Y-109070387D01*
X158237381Y-109070325D01*
X158229440Y-109070435D01*
X158221217Y-109070841D01*
X158218036Y-109071106D01*
X158210123Y-109072377D01*
X158203187Y-109074624D01*
X158195994Y-109078134D01*
X158190486Y-109081462D01*
X158183842Y-109086201D01*
X158177709Y-109091389D01*
X158176808Y-109092209D01*
X158032217Y-109230157D01*
X158025859Y-109236067D01*
X158019586Y-109241826D01*
X158013397Y-109247436D01*
X158007292Y-109252896D01*
X158001270Y-109258207D01*
X157995333Y-109263368D01*
X157986584Y-109270830D01*
X157978024Y-109277954D01*
X157969654Y-109284742D01*
X157961472Y-109291194D01*
X157953479Y-109297309D01*
X157945674Y-109303087D01*
X157940577Y-109306752D01*
X157933020Y-109312057D01*
X157925590Y-109317129D01*
X157918287Y-109321968D01*
X157911112Y-109326572D01*
X157904063Y-109330943D01*
X157897142Y-109335081D01*
X157890347Y-109338985D01*
X157881486Y-109343827D01*
X157872851Y-109348254D01*
X157866522Y-109351302D01*
X157858267Y-109355042D01*
X157850207Y-109358446D01*
X157842342Y-109361514D01*
X157834673Y-109364247D01*
X157827199Y-109366643D01*
X157818132Y-109369167D01*
X157809369Y-109371166D01*
X157805950Y-109371818D01*
X157797487Y-109373282D01*
X157789196Y-109374497D01*
X157781077Y-109375465D01*
X157773130Y-109376184D01*
X157763820Y-109376720D01*
X157754757Y-109376899D01*
X157745980Y-109376624D01*
X157737382Y-109375799D01*
X157728962Y-109374426D01*
X157720721Y-109372502D01*
X157712659Y-109370029D01*
X157710011Y-109369083D01*
X157702217Y-109365978D01*
X157694807Y-109362378D01*
X157687782Y-109358284D01*
X157681142Y-109353695D01*
X157674886Y-109348612D01*
X157672886Y-109346808D01*
X157667112Y-109341118D01*
X157661804Y-109334892D01*
X157656963Y-109328130D01*
X157652590Y-109320833D01*
X157648684Y-109312999D01*
X157647485Y-109310269D01*
X157644298Y-109301829D01*
X157641770Y-109292922D01*
X157640167Y-109285142D01*
X157639022Y-109277038D01*
X157638335Y-109268610D01*
X157638106Y-109259857D01*
X157638268Y-109251565D01*
X157638754Y-109243493D01*
X157639563Y-109235641D01*
X157641029Y-109226134D01*
X157643001Y-109216971D01*
X157645479Y-109208152D01*
X157648462Y-109199676D01*
X157651741Y-109191529D01*
X157655106Y-109183697D01*
X157658557Y-109176180D01*
X157662094Y-109168978D01*
X157666451Y-109160750D01*
X157670933Y-109152977D01*
X157675414Y-109145663D01*
X157679771Y-109138817D01*
X157684698Y-109131420D01*
X157689458Y-109124658D01*
X157693403Y-109119369D01*
X157698409Y-109112342D01*
X157702302Y-109105264D01*
X157703759Y-109099439D01*
X157701414Y-109092404D01*
X157694918Y-109087895D01*
X157693989Y-109087520D01*
X157686097Y-109085382D01*
X157680116Y-109084393D01*
X157671920Y-109083725D01*
X157663824Y-109083451D01*
X157659404Y-109083416D01*
X157651247Y-109083563D01*
X157644359Y-109084003D01*
X157636416Y-109085178D01*
X157633417Y-109085956D01*
X157626060Y-109088821D01*
X157624819Y-109089474D01*
X157618592Y-109094230D01*
X157614659Y-109098266D01*
X157609512Y-109104595D01*
X157604858Y-109111109D01*
X157600150Y-109118171D01*
X157598246Y-109121127D01*
X157593658Y-109128615D01*
X157589770Y-109135659D01*
X157585923Y-109143279D01*
X157582117Y-109151477D01*
X157578977Y-109158748D01*
X157577729Y-109161769D01*
X157574635Y-109169521D01*
X157571704Y-109177512D01*
X157568934Y-109185741D01*
X157566326Y-109194208D01*
X157563881Y-109202914D01*
X157561598Y-109211858D01*
X157560730Y-109215503D01*
X157558704Y-109224795D01*
X157557021Y-109234229D01*
X157555681Y-109243807D01*
X157554685Y-109253528D01*
X157554136Y-109261408D01*
X157553806Y-109269380D01*
X157553696Y-109277443D01*
X157098161Y-109277443D01*
X157097890Y-109276993D01*
X157096786Y-109275293D01*
X157092280Y-109268830D01*
X157086338Y-109261394D01*
X157080052Y-109254675D01*
X157073423Y-109248671D01*
X157066451Y-109243382D01*
X157059135Y-109238810D01*
X157054581Y-109236409D01*
X157046782Y-109232919D01*
X157038774Y-109230021D01*
X157030555Y-109227714D01*
X157022127Y-109225998D01*
X157013489Y-109224875D01*
X157004641Y-109224342D01*
X157001043Y-109224295D01*
X156993139Y-109224501D01*
X156985330Y-109225118D01*
X156976518Y-109226327D01*
X156967830Y-109228073D01*
X156965676Y-109228594D01*
X156957189Y-109231121D01*
X156948921Y-109234211D01*
X156940874Y-109237863D01*
X156933046Y-109242076D01*
X156926282Y-109246299D01*
X156919667Y-109250934D01*
X156913202Y-109255980D01*
X156906887Y-109261438D01*
X156903346Y-109264742D01*
X156897200Y-109270836D01*
X156891073Y-109277324D01*
X156885836Y-109283197D01*
X156880613Y-109289359D01*
X156875404Y-109295809D01*
X156870770Y-109287726D01*
X156865783Y-109280330D01*
X156860443Y-109273621D01*
X156854750Y-109267599D01*
X156848704Y-109262264D01*
X156842306Y-109257616D01*
X156839647Y-109255949D01*
X156831390Y-109251566D01*
X156822886Y-109248090D01*
X156814134Y-109245521D01*
X156805136Y-109243859D01*
X156795889Y-109243103D01*
X156792752Y-109243053D01*
X156784219Y-109243266D01*
X156775912Y-109243908D01*
X156767831Y-109244976D01*
X156759975Y-109246472D01*
X156752346Y-109248396D01*
X156743126Y-109251401D01*
X156734260Y-109255074D01*
X156730812Y-109256730D01*
X156722402Y-109261167D01*
X156714269Y-109265928D01*
X156706412Y-109271013D01*
X156698832Y-109276422D01*
X156691528Y-109282156D01*
X156684502Y-109288215D01*
X156681769Y-109290729D01*
X156675355Y-109285588D01*
X156668694Y-109280791D01*
X156661784Y-109276338D01*
X156654627Y-109272228D01*
X156647222Y-109268461D01*
X156639568Y-109265038D01*
X156636437Y-109263765D01*
X156628298Y-109260950D01*
X156619634Y-109258613D01*
X156610445Y-109256752D01*
X156600732Y-109255369D01*
X156592583Y-109254605D01*
X156584099Y-109254147D01*
X156575279Y-109253995D01*
X156564962Y-109254218D01*
X156554921Y-109254886D01*
X156545154Y-109256001D01*
X156535662Y-109257561D01*
X156526445Y-109259567D01*
X156517503Y-109262018D01*
X156508835Y-109264916D01*
X156500443Y-109268259D01*
X156492303Y-109271996D01*
X156484494Y-109276074D01*
X156477014Y-109280495D01*
X156469863Y-109285258D01*
X156463043Y-109290363D01*
X156456552Y-109295809D01*
X156450391Y-109301598D01*
X156444560Y-109307728D01*
X156439012Y-109314234D01*
X156433801Y-109321052D01*
X156428925Y-109328181D01*
X156424385Y-109335621D01*
X156420181Y-109343372D01*
X156416313Y-109351436D01*
X156412781Y-109359810D01*
X156409584Y-109368496D01*
X156406699Y-109377484D01*
X156404199Y-109386668D01*
X156402083Y-109396046D01*
X156400352Y-109405621D01*
X156399006Y-109415390D01*
X156398044Y-109425356D01*
X156397467Y-109435516D01*
X156397307Y-109444113D01*
X156397274Y-109445872D01*
X155832894Y-109445872D01*
X155832894Y-108939605D01*
X156397274Y-108939605D01*
X156397422Y-108948770D01*
X156397865Y-108957653D01*
X156398604Y-108966255D01*
X156399637Y-108974575D01*
X156400967Y-108982613D01*
X156402591Y-108990370D01*
X156405217Y-109000274D01*
X156408368Y-109009677D01*
X156412044Y-109018580D01*
X156414078Y-109022843D01*
X156418456Y-109031093D01*
X156423189Y-109038939D01*
X156428275Y-109046382D01*
X156433715Y-109053423D01*
X156439510Y-109060060D01*
X156445659Y-109066294D01*
X156452162Y-109072125D01*
X156459019Y-109077554D01*
X156466203Y-109082594D01*
X156473686Y-109087262D01*
X156481468Y-109091558D01*
X156489549Y-109095481D01*
X156497930Y-109099032D01*
X156506610Y-109102210D01*
X156515589Y-109105016D01*
X156524867Y-109107449D01*
X156534533Y-109109602D01*
X156544675Y-109111467D01*
X156552594Y-109112678D01*
X156560781Y-109113727D01*
X156569236Y-109114615D01*
X156577959Y-109115341D01*
X156586950Y-109115906D01*
X156596209Y-109116310D01*
X156605735Y-109116552D01*
X156615530Y-109116633D01*
X156918000Y-109116633D01*
X156925425Y-109114483D01*
X156930256Y-109108181D01*
X156930701Y-109107254D01*
X156933006Y-109099621D01*
X156934023Y-109093576D01*
X156934655Y-109085690D01*
X156934938Y-109077859D01*
X156935000Y-109071497D01*
X156934904Y-109063425D01*
X156934538Y-109054999D01*
X156934023Y-109049026D01*
X156932606Y-109041162D01*
X156930701Y-109035153D01*
X156926149Y-109028699D01*
X156925425Y-109028119D01*
X156917805Y-109025970D01*
X156627058Y-109025970D01*
X156616717Y-109025866D01*
X156606896Y-109025554D01*
X156597593Y-109025035D01*
X156588810Y-109024309D01*
X156580545Y-109023375D01*
X156572800Y-109022233D01*
X156563847Y-109020514D01*
X156558866Y-109019326D01*
X156550921Y-109017102D01*
X156543329Y-109014583D01*
X156534685Y-109011169D01*
X156526550Y-109007329D01*
X156518923Y-109003063D01*
X156514120Y-108999982D01*
X156507395Y-108995025D01*
X156501288Y-108989532D01*
X156495800Y-108983503D01*
X156490929Y-108976938D01*
X156486677Y-108969837D01*
X156485397Y-108967351D01*
X156482011Y-108959651D01*
X156479325Y-108951497D01*
X156478791Y-108949180D01*
X157753780Y-108949180D01*
X157753849Y-108957381D01*
X157754109Y-108965703D01*
X157754366Y-108970088D01*
X157755520Y-108978207D01*
X157757101Y-108982984D01*
X157761799Y-108989237D01*
X157762377Y-108989627D01*
X157769607Y-108991581D01*
X157774296Y-108991190D01*
X157779376Y-108990409D01*
X157785434Y-108989041D01*
X157792468Y-108987087D01*
X158259265Y-108818462D01*
X158266289Y-108814967D01*
X158269230Y-108812600D01*
X158273688Y-108806009D01*
X158275287Y-108801853D01*
X158277094Y-108793842D01*
X158278059Y-108785894D01*
X158278218Y-108783877D01*
X158278663Y-108775685D01*
X158278907Y-108767075D01*
X158278996Y-108758380D01*
X158279000Y-108756326D01*
X158278938Y-108748449D01*
X158278724Y-108740376D01*
X158278304Y-108732385D01*
X158278023Y-108728776D01*
X158276909Y-108720562D01*
X158275223Y-108712769D01*
X158274701Y-108710995D01*
X158271236Y-108703591D01*
X158268644Y-108700248D01*
X158262218Y-108695618D01*
X158259265Y-108694191D01*
X157792468Y-108526152D01*
X157785018Y-108523694D01*
X157781135Y-108522439D01*
X157773710Y-108520876D01*
X157769607Y-108520681D01*
X157761986Y-108522830D01*
X157757249Y-108529293D01*
X157756906Y-108530255D01*
X157754998Y-108538071D01*
X157754366Y-108543933D01*
X157753965Y-108552203D01*
X157753800Y-108560483D01*
X157753780Y-108565035D01*
X157753842Y-108573538D01*
X157754055Y-108581789D01*
X157754513Y-108590027D01*
X157754561Y-108590632D01*
X157755637Y-108598663D01*
X157757688Y-108605482D01*
X157761954Y-108612120D01*
X157763159Y-108613102D01*
X157769976Y-108617248D01*
X157771170Y-108617792D01*
X158176222Y-108757499D01*
X158182866Y-108759648D01*
X158176222Y-108761407D01*
X157771170Y-108899160D01*
X157763968Y-108902408D01*
X157763159Y-108903067D01*
X157758388Y-108909492D01*
X157757688Y-108911079D01*
X157755454Y-108918652D01*
X157754561Y-108925342D01*
X157754055Y-108933613D01*
X157753829Y-108942122D01*
X157753780Y-108949180D01*
X156478791Y-108949180D01*
X156477340Y-108942890D01*
X156476055Y-108933829D01*
X156475520Y-108925932D01*
X156475432Y-108921043D01*
X156475811Y-108912498D01*
X156476946Y-108903958D01*
X156478839Y-108895425D01*
X156481489Y-108886898D01*
X156484897Y-108878377D01*
X156489061Y-108869862D01*
X156493982Y-108861353D01*
X156499661Y-108852850D01*
X156504403Y-108846445D01*
X156509544Y-108839977D01*
X156515083Y-108833448D01*
X156521020Y-108826857D01*
X156527356Y-108820204D01*
X156534090Y-108813489D01*
X156541223Y-108806713D01*
X156548754Y-108799874D01*
X156556683Y-108792974D01*
X156565011Y-108786012D01*
X156570785Y-108781336D01*
X156917805Y-108781336D01*
X156925425Y-108779187D01*
X156930256Y-108772884D01*
X156930701Y-108771957D01*
X156933006Y-108764325D01*
X156934023Y-108758280D01*
X156934655Y-108750329D01*
X156934938Y-108742343D01*
X156935000Y-108735809D01*
X156934904Y-108727944D01*
X156934538Y-108719664D01*
X156934023Y-108713730D01*
X156932606Y-108705816D01*
X156930701Y-108699661D01*
X156926149Y-108693164D01*
X156925425Y-108692627D01*
X156918000Y-108690673D01*
X156426779Y-108690673D01*
X156419354Y-108692236D01*
X156414202Y-108698281D01*
X156413883Y-108698880D01*
X156411306Y-108706641D01*
X156410561Y-108711580D01*
X156410000Y-108719938D01*
X156409799Y-108728108D01*
X156409780Y-108731901D01*
X156409872Y-108739745D01*
X156410219Y-108747765D01*
X156410561Y-108752027D01*
X156411997Y-108759865D01*
X156413883Y-108764337D01*
X156418989Y-108770359D01*
X156419354Y-108770589D01*
X156426779Y-108772543D01*
X156491650Y-108772543D01*
X156485646Y-108777769D01*
X156477024Y-108785601D01*
X156468862Y-108793426D01*
X156461160Y-108801245D01*
X156453919Y-108809056D01*
X156447138Y-108816861D01*
X156440817Y-108824659D01*
X156434956Y-108832450D01*
X156429556Y-108840234D01*
X156424616Y-108848011D01*
X156420136Y-108855781D01*
X156416050Y-108863590D01*
X156412366Y-108871409D01*
X156409085Y-108879238D01*
X156406205Y-108887078D01*
X156403726Y-108894928D01*
X156401650Y-108902788D01*
X156399976Y-108910659D01*
X156398703Y-108918539D01*
X156397833Y-108926431D01*
X156397364Y-108934332D01*
X156397274Y-108939605D01*
X155832894Y-108939605D01*
X155832894Y-108337986D01*
X156397274Y-108337986D01*
X156397438Y-108348751D01*
X156397927Y-108359210D01*
X156398743Y-108369364D01*
X156399885Y-108379212D01*
X156401353Y-108388754D01*
X156403148Y-108397990D01*
X156405269Y-108406921D01*
X156407716Y-108415546D01*
X156410489Y-108423865D01*
X156413589Y-108431879D01*
X156415837Y-108437051D01*
X156419429Y-108444616D01*
X156423244Y-108451923D01*
X156427283Y-108458973D01*
X156431545Y-108465765D01*
X156436030Y-108472300D01*
X156440738Y-108478576D01*
X156447363Y-108486545D01*
X156454385Y-108494055D01*
X156461804Y-108501108D01*
X156465662Y-108504462D01*
X156473649Y-108510837D01*
X156481978Y-108516772D01*
X156490648Y-108522268D01*
X156499661Y-108527324D01*
X156509016Y-108531940D01*
X156516256Y-108535113D01*
X156523688Y-108538040D01*
X156531313Y-108540719D01*
X156539131Y-108543150D01*
X156547096Y-108545350D01*
X156555164Y-108547334D01*
X156563335Y-108549101D01*
X156571609Y-108550652D01*
X156579986Y-108551986D01*
X156588466Y-108553104D01*
X156597049Y-108554006D01*
X156605736Y-108554691D01*
X156614525Y-108555160D01*
X156623417Y-108555412D01*
X156629403Y-108555460D01*
X156645621Y-108555460D01*
X156654349Y-108554946D01*
X156662883Y-108553099D01*
X156670643Y-108549415D01*
X156675907Y-108544714D01*
X156680647Y-108537795D01*
X156683631Y-108530227D01*
X156684860Y-108522010D01*
X156684895Y-108520289D01*
X156684895Y-108196130D01*
X156692879Y-108196202D01*
X156700713Y-108196419D01*
X156710922Y-108196932D01*
X156720863Y-108197701D01*
X156730535Y-108198727D01*
X156739938Y-108200009D01*
X156749073Y-108201548D01*
X156757939Y-108203343D01*
X156762271Y-108204337D01*
X156770719Y-108206559D01*
X156778867Y-108209124D01*
X156786717Y-108212030D01*
X156794267Y-108215279D01*
X156801518Y-108218869D01*
X156808469Y-108222802D01*
X156815122Y-108227076D01*
X156821475Y-108231692D01*
X156828892Y-108238014D01*
X156835756Y-108244889D01*
X156842066Y-108252317D01*
X156846716Y-108258658D01*
X156851012Y-108265354D01*
X156854953Y-108272403D01*
X156858540Y-108279807D01*
X156859382Y-108281713D01*
X156862450Y-108289645D01*
X156865109Y-108298004D01*
X156867359Y-108306791D01*
X156869200Y-108316005D01*
X156870632Y-108325646D01*
X156871655Y-108335715D01*
X156872154Y-108343547D01*
X156872422Y-108351620D01*
X156872473Y-108357135D01*
X156872385Y-108365806D01*
X156872119Y-108374232D01*
X156871676Y-108382414D01*
X156871057Y-108390352D01*
X156870033Y-108399931D01*
X156868733Y-108409128D01*
X156867156Y-108417944D01*
X156866807Y-108419661D01*
X156864942Y-108428090D01*
X156863010Y-108436155D01*
X156861011Y-108443858D01*
X156858524Y-108452624D01*
X156855941Y-108460867D01*
X156853715Y-108467337D01*
X156850627Y-108475796D01*
X156847689Y-108483564D01*
X156844514Y-108491593D01*
X156841175Y-108499546D01*
X156840819Y-108500359D01*
X156837728Y-108507808D01*
X156835421Y-108515667D01*
X156834958Y-108519899D01*
X156836912Y-108526542D01*
X156842773Y-108531231D01*
X156850394Y-108533320D01*
X156853715Y-108533772D01*
X156862016Y-108534381D01*
X156870095Y-108534552D01*
X156870715Y-108534553D01*
X156878774Y-108534346D01*
X156883415Y-108533967D01*
X156891343Y-108532945D01*
X156892990Y-108532599D01*
X156900415Y-108529864D01*
X156906667Y-108525173D01*
X156906863Y-108524979D01*
X156911287Y-108518501D01*
X156914920Y-108511548D01*
X156917023Y-108507198D01*
X156920430Y-108499223D01*
X156923392Y-108491344D01*
X156925915Y-108483921D01*
X156928425Y-108475879D01*
X156930505Y-108468705D01*
X156932492Y-108461136D01*
X156934421Y-108453203D01*
X156936293Y-108444909D01*
X156938107Y-108436251D01*
X156939865Y-108427232D01*
X156941565Y-108417849D01*
X156942229Y-108413995D01*
X156943466Y-108406164D01*
X156944537Y-108398205D01*
X156945444Y-108390117D01*
X156946186Y-108381901D01*
X156946763Y-108373557D01*
X156947175Y-108365085D01*
X156947422Y-108356485D01*
X156947505Y-108347756D01*
X156947354Y-108336458D01*
X156946900Y-108325424D01*
X156946145Y-108314655D01*
X156945087Y-108304150D01*
X156943727Y-108293909D01*
X156942064Y-108283933D01*
X156940100Y-108274222D01*
X156937833Y-108264775D01*
X156935264Y-108255592D01*
X156932392Y-108246674D01*
X156930310Y-108240875D01*
X156929448Y-108238727D01*
X157741274Y-108238727D01*
X157741438Y-108249492D01*
X157741927Y-108259951D01*
X157742743Y-108270104D01*
X157743885Y-108279952D01*
X157745353Y-108289494D01*
X157747148Y-108298730D01*
X157749269Y-108307661D01*
X157751716Y-108316286D01*
X157754489Y-108324606D01*
X157757589Y-108332619D01*
X157759837Y-108337792D01*
X157763429Y-108345357D01*
X157767244Y-108352664D01*
X157771283Y-108359714D01*
X157775545Y-108366506D01*
X157780030Y-108373040D01*
X157784738Y-108379317D01*
X157791363Y-108387285D01*
X157798385Y-108394796D01*
X157805804Y-108401848D01*
X157809662Y-108405203D01*
X157817649Y-108411578D01*
X157825978Y-108417513D01*
X157834648Y-108423008D01*
X157843661Y-108428064D01*
X157853016Y-108432680D01*
X157860256Y-108435854D01*
X157867688Y-108438780D01*
X157875313Y-108441459D01*
X157883131Y-108443891D01*
X157891096Y-108446091D01*
X157899164Y-108448074D01*
X157907335Y-108449841D01*
X157915609Y-108451392D01*
X157923986Y-108452727D01*
X157932466Y-108453845D01*
X157941049Y-108454746D01*
X157949736Y-108455431D01*
X157958525Y-108455900D01*
X157967417Y-108456153D01*
X157973403Y-108456201D01*
X157989621Y-108456201D01*
X157998349Y-108455686D01*
X158006883Y-108453839D01*
X158014643Y-108450156D01*
X158019907Y-108445454D01*
X158024647Y-108438535D01*
X158027631Y-108430967D01*
X158028860Y-108422751D01*
X158028895Y-108421030D01*
X158028895Y-108096871D01*
X158036879Y-108096943D01*
X158044713Y-108097159D01*
X158054922Y-108097672D01*
X158064863Y-108098441D01*
X158074535Y-108099467D01*
X158083938Y-108100749D01*
X158093073Y-108102288D01*
X158101939Y-108104083D01*
X158106271Y-108105077D01*
X158114719Y-108107300D01*
X158122867Y-108109864D01*
X158130717Y-108112771D01*
X158138267Y-108116019D01*
X158145518Y-108119610D01*
X158152469Y-108123542D01*
X158159122Y-108127816D01*
X158165475Y-108132432D01*
X158172892Y-108138754D01*
X158179756Y-108145629D01*
X158186066Y-108153058D01*
X158190716Y-108159399D01*
X158195012Y-108166094D01*
X158198953Y-108173143D01*
X158202540Y-108180547D01*
X158203382Y-108182453D01*
X158206450Y-108190385D01*
X158209109Y-108198744D01*
X158211359Y-108207531D01*
X158213200Y-108216745D01*
X158214632Y-108226386D01*
X158215655Y-108236455D01*
X158216154Y-108244288D01*
X158216422Y-108252360D01*
X158216473Y-108257876D01*
X158216385Y-108266546D01*
X158216119Y-108274973D01*
X158215676Y-108283155D01*
X158215057Y-108291093D01*
X158214033Y-108300671D01*
X158212733Y-108309869D01*
X158211156Y-108318684D01*
X158210807Y-108320402D01*
X158208942Y-108328830D01*
X158207010Y-108336896D01*
X158205011Y-108344599D01*
X158202524Y-108353364D01*
X158199941Y-108361607D01*
X158197715Y-108368078D01*
X158194627Y-108376537D01*
X158191689Y-108384304D01*
X158188514Y-108392333D01*
X158185175Y-108400286D01*
X158184819Y-108401100D01*
X158181728Y-108408549D01*
X158179421Y-108416407D01*
X158178958Y-108420639D01*
X158180912Y-108427282D01*
X158186773Y-108431972D01*
X158194394Y-108434060D01*
X158197715Y-108434512D01*
X158206016Y-108435122D01*
X158214095Y-108435293D01*
X158214715Y-108435294D01*
X158222774Y-108435087D01*
X158227415Y-108434707D01*
X158235343Y-108433685D01*
X158236990Y-108433340D01*
X158244415Y-108430604D01*
X158250667Y-108425913D01*
X158250863Y-108425719D01*
X158255287Y-108419241D01*
X158258920Y-108412288D01*
X158261023Y-108407938D01*
X158264430Y-108399964D01*
X158267392Y-108392084D01*
X158269915Y-108384661D01*
X158272425Y-108376619D01*
X158274505Y-108369446D01*
X158276492Y-108361876D01*
X158278421Y-108353944D01*
X158280293Y-108345649D01*
X158282107Y-108336992D01*
X158283865Y-108327972D01*
X158285565Y-108318590D01*
X158286229Y-108314735D01*
X158287466Y-108306904D01*
X158288537Y-108298945D01*
X158289444Y-108290857D01*
X158290186Y-108282642D01*
X158290763Y-108274298D01*
X158291175Y-108265826D01*
X158291422Y-108257225D01*
X158291505Y-108248497D01*
X158291354Y-108237198D01*
X158290900Y-108226164D01*
X158290145Y-108215395D01*
X158289087Y-108204890D01*
X158287727Y-108194650D01*
X158286064Y-108184674D01*
X158284100Y-108174962D01*
X158281833Y-108165515D01*
X158279264Y-108156332D01*
X158276392Y-108147414D01*
X158274310Y-108141616D01*
X158270905Y-108133135D01*
X158267212Y-108124912D01*
X158263230Y-108116946D01*
X158258959Y-108109238D01*
X158254400Y-108101788D01*
X158249553Y-108094595D01*
X158244417Y-108087660D01*
X158238993Y-108080983D01*
X158233280Y-108074563D01*
X158227278Y-108068400D01*
X158223117Y-108064435D01*
X158216591Y-108058707D01*
X158209763Y-108053247D01*
X158202632Y-108048055D01*
X158195200Y-108043131D01*
X158187465Y-108038475D01*
X158179428Y-108034086D01*
X158171088Y-108029966D01*
X158162447Y-108026113D01*
X158153503Y-108022529D01*
X158144257Y-108019212D01*
X158137925Y-108017150D01*
X158128180Y-108014321D01*
X158118143Y-108011771D01*
X158107815Y-108009499D01*
X158097194Y-108007505D01*
X158086282Y-108005790D01*
X158075077Y-108004352D01*
X158063581Y-108003193D01*
X158055754Y-108002575D01*
X158047798Y-108002080D01*
X158039712Y-108001709D01*
X158031497Y-108001462D01*
X158023151Y-108001338D01*
X158018930Y-108001323D01*
X158010921Y-108001387D01*
X158003014Y-108001579D01*
X157991346Y-108002108D01*
X157979908Y-108002926D01*
X157968700Y-108004032D01*
X157957722Y-108005426D01*
X157946975Y-108007109D01*
X157936457Y-108009081D01*
X157926170Y-108011341D01*
X157916113Y-108013889D01*
X157906285Y-108016726D01*
X157903061Y-108017736D01*
X157893526Y-108020942D01*
X157884266Y-108024406D01*
X157875281Y-108028128D01*
X157866571Y-108032107D01*
X157858135Y-108036343D01*
X157849975Y-108040837D01*
X157842089Y-108045589D01*
X157834478Y-108050599D01*
X157827141Y-108055866D01*
X157820079Y-108061391D01*
X157815524Y-108065217D01*
X157808931Y-108071155D01*
X157802633Y-108077321D01*
X157796630Y-108083712D01*
X157790923Y-108090331D01*
X157785511Y-108097176D01*
X157780395Y-108104248D01*
X157775573Y-108111547D01*
X157771048Y-108119072D01*
X157766817Y-108126824D01*
X157762882Y-108134803D01*
X157760423Y-108140248D01*
X157757001Y-108148584D01*
X157753916Y-108157105D01*
X157751167Y-108165812D01*
X157748754Y-108174705D01*
X157746679Y-108183783D01*
X157744940Y-108193046D01*
X157743537Y-108202495D01*
X157742471Y-108212129D01*
X157741742Y-108221949D01*
X157741349Y-108231954D01*
X157741317Y-108234819D01*
X157741274Y-108238727D01*
X156929448Y-108238727D01*
X156926905Y-108232395D01*
X156923212Y-108224172D01*
X156919230Y-108216206D01*
X156914959Y-108208498D01*
X156910400Y-108201048D01*
X156905553Y-108193855D01*
X156900417Y-108186920D01*
X156894993Y-108180242D01*
X156889280Y-108173822D01*
X156883278Y-108167660D01*
X156879117Y-108163695D01*
X156872591Y-108157967D01*
X156865763Y-108152507D01*
X156858632Y-108147315D01*
X156851200Y-108142391D01*
X156843465Y-108137734D01*
X156835428Y-108133346D01*
X156827088Y-108129226D01*
X156818447Y-108125373D01*
X156809503Y-108121788D01*
X156800257Y-108118472D01*
X156793925Y-108116409D01*
X156784180Y-108113581D01*
X156774143Y-108111031D01*
X156763815Y-108108759D01*
X156753194Y-108106765D01*
X156742282Y-108105049D01*
X156731077Y-108103612D01*
X156719581Y-108102453D01*
X156711754Y-108101834D01*
X156703798Y-108101340D01*
X156695712Y-108100969D01*
X156687497Y-108100722D01*
X156679151Y-108100598D01*
X156674930Y-108100582D01*
X156666921Y-108100647D01*
X156659014Y-108100839D01*
X156647346Y-108101368D01*
X156635908Y-108102185D01*
X156624700Y-108103291D01*
X156613722Y-108104686D01*
X156602975Y-108106369D01*
X156592457Y-108108340D01*
X156582170Y-108110600D01*
X156572113Y-108113149D01*
X156562285Y-108115986D01*
X156559061Y-108116996D01*
X156549526Y-108120202D01*
X156540266Y-108123666D01*
X156531281Y-108127387D01*
X156522571Y-108131366D01*
X156514135Y-108135603D01*
X156505975Y-108140097D01*
X156498089Y-108144849D01*
X156490478Y-108149858D01*
X156483141Y-108155125D01*
X156476079Y-108160650D01*
X156471524Y-108164476D01*
X156464931Y-108170415D01*
X156458633Y-108176580D01*
X156452630Y-108182972D01*
X156446923Y-108189591D01*
X156441511Y-108196436D01*
X156436395Y-108203508D01*
X156431573Y-108210807D01*
X156427048Y-108218332D01*
X156422817Y-108226084D01*
X156418882Y-108234063D01*
X156416423Y-108239508D01*
X156413001Y-108247844D01*
X156409916Y-108256365D01*
X156407167Y-108265072D01*
X156404754Y-108273964D01*
X156402679Y-108283042D01*
X156400940Y-108292305D01*
X156399537Y-108301754D01*
X156398471Y-108311388D01*
X156397742Y-108321208D01*
X156397349Y-108331213D01*
X156397317Y-108334079D01*
X156397274Y-108337986D01*
X155832894Y-108337986D01*
X155832894Y-107922578D01*
X156172180Y-107922578D01*
X156172314Y-107930650D01*
X156172827Y-107939076D01*
X156173548Y-107945049D01*
X156175062Y-107952864D01*
X156176870Y-107958726D01*
X156181280Y-107965300D01*
X156182341Y-107966151D01*
X156189766Y-107968691D01*
X156918000Y-107968691D01*
X156925607Y-107966858D01*
X156925816Y-107966737D01*
X156930773Y-107960384D01*
X156930896Y-107960094D01*
X156933213Y-107952261D01*
X156934023Y-107947784D01*
X156934724Y-107939867D01*
X156934984Y-107931756D01*
X156935000Y-107929026D01*
X156934862Y-107920902D01*
X156934355Y-107912744D01*
X156934023Y-107909682D01*
X156932518Y-107901975D01*
X156931092Y-107897177D01*
X156926781Y-107890409D01*
X156926207Y-107889947D01*
X156918782Y-107887798D01*
X156856842Y-107887798D01*
X156864700Y-107880478D01*
X156869193Y-107876075D01*
X157741274Y-107876075D01*
X157741495Y-107884253D01*
X157742056Y-107892293D01*
X157743002Y-107900441D01*
X157744349Y-107908207D01*
X157744987Y-107911246D01*
X157746830Y-107918988D01*
X157749031Y-107926532D01*
X157749872Y-107929027D01*
X157752949Y-107936556D01*
X157755343Y-107940360D01*
X157760618Y-107944658D01*
X157766871Y-107946612D01*
X157774819Y-107947662D01*
X157777813Y-107947785D01*
X157785750Y-107948065D01*
X157793769Y-107948166D01*
X157797548Y-107948176D01*
X157805965Y-107948093D01*
X157813906Y-107947818D01*
X157817674Y-107947589D01*
X157825635Y-107946559D01*
X157830374Y-107945245D01*
X157837248Y-107941299D01*
X157837408Y-107941141D01*
X157839949Y-107934303D01*
X157838398Y-107926274D01*
X157837408Y-107923556D01*
X157834613Y-107915965D01*
X157832524Y-107909292D01*
X157830228Y-107901493D01*
X157828241Y-107893361D01*
X157827834Y-107891511D01*
X157826443Y-107883157D01*
X157825788Y-107874987D01*
X157825685Y-107870018D01*
X157826257Y-107861508D01*
X157827975Y-107853074D01*
X157830499Y-107845548D01*
X157831547Y-107843053D01*
X157835337Y-107835566D01*
X157839718Y-107828703D01*
X157845052Y-107821644D01*
X157850500Y-107815307D01*
X157856648Y-107808907D01*
X157862588Y-107803301D01*
X157869146Y-107797586D01*
X157876322Y-107791761D01*
X157882774Y-107786823D01*
X157885475Y-107784826D01*
X157892496Y-107779794D01*
X157900004Y-107774591D01*
X157907998Y-107769215D01*
X157914744Y-107764792D01*
X157921801Y-107760258D01*
X157929170Y-107755614D01*
X157936849Y-107750861D01*
X157938818Y-107749655D01*
X158262000Y-107749655D01*
X158269425Y-107747506D01*
X158274256Y-107741203D01*
X158274701Y-107740276D01*
X158277006Y-107732643D01*
X158278023Y-107726598D01*
X158278655Y-107718648D01*
X158278938Y-107710662D01*
X158279000Y-107704128D01*
X158278904Y-107696263D01*
X158278538Y-107687983D01*
X158278023Y-107682049D01*
X158276606Y-107674135D01*
X158274701Y-107667980D01*
X158270149Y-107661483D01*
X158269425Y-107660946D01*
X158262000Y-107658992D01*
X157770779Y-107658992D01*
X157763354Y-107660555D01*
X157758202Y-107666600D01*
X157757883Y-107667199D01*
X157755306Y-107674960D01*
X157754561Y-107679899D01*
X157754000Y-107688257D01*
X157753799Y-107696427D01*
X157753780Y-107700220D01*
X157753872Y-107708064D01*
X157754219Y-107716084D01*
X157754561Y-107720346D01*
X157755997Y-107728184D01*
X157757883Y-107732656D01*
X157762989Y-107738678D01*
X157763354Y-107738908D01*
X157770779Y-107740862D01*
X157842293Y-107740862D01*
X157834710Y-107745903D01*
X157827492Y-107750864D01*
X157820641Y-107755746D01*
X157814157Y-107760548D01*
X157806566Y-107766440D01*
X157799548Y-107772207D01*
X157793102Y-107777850D01*
X157791882Y-107778964D01*
X157785981Y-107784529D01*
X157779441Y-107791069D01*
X157773492Y-107797457D01*
X157768134Y-107803695D01*
X157762630Y-107810781D01*
X157761205Y-107812767D01*
X157756583Y-107819758D01*
X157752635Y-107826712D01*
X157748947Y-107834613D01*
X157746138Y-107842466D01*
X157745573Y-107844421D01*
X157743692Y-107852335D01*
X157742349Y-107860248D01*
X157741543Y-107868162D01*
X157741274Y-107876075D01*
X156869193Y-107876075D01*
X156872229Y-107873100D01*
X156879428Y-107865663D01*
X156886297Y-107858168D01*
X156892837Y-107850615D01*
X156899047Y-107843003D01*
X156904927Y-107835333D01*
X156910478Y-107827604D01*
X156915698Y-107819817D01*
X156920589Y-107811972D01*
X156923667Y-107806709D01*
X156927927Y-107798762D01*
X156931768Y-107790674D01*
X156935190Y-107782445D01*
X156938193Y-107774076D01*
X156940777Y-107765565D01*
X156942942Y-107756914D01*
X156944688Y-107748121D01*
X156946015Y-107739188D01*
X156946923Y-107730115D01*
X156947412Y-107720900D01*
X156947505Y-107714679D01*
X156947318Y-107704633D01*
X156946756Y-107694865D01*
X156945820Y-107685376D01*
X156944510Y-107676165D01*
X156942825Y-107667232D01*
X156940766Y-107658577D01*
X156938332Y-107650200D01*
X156935525Y-107642102D01*
X156932342Y-107634282D01*
X156928786Y-107626740D01*
X156926207Y-107621866D01*
X156922046Y-107614778D01*
X156917625Y-107607947D01*
X156912942Y-107601373D01*
X156907998Y-107595058D01*
X156902794Y-107589000D01*
X156897328Y-107583199D01*
X156891601Y-107577656D01*
X156885614Y-107572371D01*
X156879365Y-107567343D01*
X156872855Y-107562573D01*
X156868370Y-107559536D01*
X156861407Y-107555178D01*
X156854222Y-107551043D01*
X156846812Y-107547131D01*
X156839180Y-107543443D01*
X156831324Y-107539978D01*
X156823245Y-107536736D01*
X156814943Y-107533718D01*
X156806418Y-107530923D01*
X156797669Y-107528351D01*
X156788697Y-107526002D01*
X156782592Y-107524560D01*
X156773313Y-107522605D01*
X156763942Y-107520841D01*
X156754478Y-107519271D01*
X156744921Y-107517892D01*
X156735271Y-107516706D01*
X156725528Y-107515712D01*
X156715693Y-107514911D01*
X156705765Y-107514302D01*
X156695745Y-107513885D01*
X156685631Y-107513661D01*
X156678838Y-107513618D01*
X156670803Y-107513671D01*
X156662867Y-107513832D01*
X156655031Y-107514099D01*
X156643462Y-107514700D01*
X156632117Y-107515541D01*
X156620995Y-107516623D01*
X156610096Y-107517946D01*
X156599421Y-107519508D01*
X156588968Y-107521312D01*
X156578739Y-107523355D01*
X156568734Y-107525639D01*
X156562187Y-107527296D01*
X156552576Y-107530010D01*
X156543232Y-107532951D01*
X156534157Y-107536119D01*
X156525349Y-107539514D01*
X156516810Y-107543135D01*
X156508538Y-107546983D01*
X156500534Y-107551058D01*
X156492798Y-107555359D01*
X156485330Y-107559887D01*
X156478130Y-107564642D01*
X156473478Y-107567938D01*
X156466740Y-107573107D01*
X156460301Y-107578503D01*
X156454160Y-107584125D01*
X156448318Y-107589974D01*
X156442775Y-107596050D01*
X156437531Y-107602353D01*
X156432586Y-107608882D01*
X156427939Y-107615638D01*
X156423591Y-107622621D01*
X156419543Y-107629830D01*
X156417009Y-107634762D01*
X156413482Y-107642344D01*
X156410303Y-107650143D01*
X156407469Y-107658158D01*
X156404983Y-107666389D01*
X156402844Y-107674836D01*
X156401052Y-107683500D01*
X156399606Y-107692381D01*
X156398508Y-107701477D01*
X156397756Y-107710790D01*
X156397352Y-107720320D01*
X156397274Y-107726793D01*
X156397438Y-107734609D01*
X156397443Y-107734861D01*
X156397948Y-107742799D01*
X156398789Y-107750606D01*
X156400435Y-107760812D01*
X156402679Y-107770786D01*
X156405521Y-107780528D01*
X156408962Y-107790039D01*
X156413001Y-107799317D01*
X156416423Y-107806123D01*
X156421494Y-107815145D01*
X156425670Y-107821891D01*
X156430166Y-107828620D01*
X156434980Y-107835332D01*
X156440115Y-107842027D01*
X156445568Y-107848704D01*
X156451341Y-107855365D01*
X156457434Y-107862008D01*
X156463846Y-107868634D01*
X156470577Y-107875243D01*
X156472892Y-107877442D01*
X156189570Y-107877442D01*
X156182145Y-107879396D01*
X156177215Y-107885826D01*
X156176870Y-107886821D01*
X156174756Y-107894351D01*
X156173548Y-107900694D01*
X156172613Y-107909114D01*
X156172246Y-107916990D01*
X156172180Y-107922578D01*
X155832894Y-107922578D01*
X155832894Y-107333660D01*
X156172180Y-107333660D01*
X156172295Y-107341731D01*
X156172734Y-107350158D01*
X156173353Y-107356130D01*
X156174623Y-107363946D01*
X156176479Y-107369808D01*
X156180941Y-107376294D01*
X156181950Y-107377037D01*
X156189570Y-107379187D01*
X156918000Y-107379187D01*
X156925621Y-107377037D01*
X156930291Y-107370735D01*
X156930701Y-107369808D01*
X156933006Y-107362175D01*
X156934023Y-107356130D01*
X156934655Y-107348180D01*
X156934938Y-107340193D01*
X156935000Y-107333660D01*
X156934904Y-107325794D01*
X156934538Y-107317515D01*
X156934023Y-107311580D01*
X156932606Y-107303667D01*
X156930701Y-107297512D01*
X156926341Y-107291015D01*
X156925621Y-107290478D01*
X156918000Y-107288524D01*
X156189570Y-107288524D01*
X156181950Y-107290478D01*
X156176892Y-107296587D01*
X156176479Y-107297512D01*
X156174250Y-107305480D01*
X156173353Y-107311580D01*
X156172594Y-107319466D01*
X156172254Y-107327297D01*
X156172180Y-107333660D01*
X155832894Y-107333660D01*
X155832894Y-106929975D01*
X156397274Y-106929975D01*
X156397381Y-106939836D01*
X156397700Y-106949415D01*
X156398233Y-106958713D01*
X156398978Y-106967729D01*
X156399936Y-106976463D01*
X156401108Y-106984916D01*
X156402492Y-106993087D01*
X156404089Y-107000977D01*
X156405899Y-107008584D01*
X156408644Y-107018290D01*
X156409389Y-107020638D01*
X156412595Y-107029745D01*
X156416154Y-107038407D01*
X156420068Y-107046623D01*
X156424337Y-107054393D01*
X156428959Y-107061717D01*
X156433935Y-107068595D01*
X156439266Y-107075028D01*
X156444951Y-107081015D01*
X156450990Y-107086581D01*
X156457383Y-107091750D01*
X156464130Y-107096521D01*
X156471231Y-107100896D01*
X156478687Y-107104875D01*
X156486496Y-107108456D01*
X156494660Y-107111640D01*
X156503178Y-107114427D01*
X156512008Y-107116900D01*
X156521203Y-107119044D01*
X156530765Y-107120857D01*
X156540694Y-107122341D01*
X156550989Y-107123495D01*
X156558950Y-107124144D01*
X156567118Y-107124608D01*
X156575492Y-107124886D01*
X156584071Y-107124979D01*
X156918391Y-107124979D01*
X156925956Y-107122855D01*
X156928356Y-107120485D01*
X156932043Y-107113328D01*
X156933436Y-107108370D01*
X156934505Y-107100356D01*
X156934925Y-107092170D01*
X156935000Y-107086095D01*
X156934847Y-107077631D01*
X156934326Y-107069642D01*
X156933436Y-107063039D01*
X156931127Y-107055380D01*
X156928356Y-107050729D01*
X156921139Y-107047194D01*
X156918391Y-107047016D01*
X156868956Y-107047016D01*
X156875364Y-107040870D01*
X156881545Y-107034592D01*
X156887500Y-107028184D01*
X156893228Y-107021646D01*
X156898729Y-107014977D01*
X156904004Y-107008177D01*
X156909051Y-107001247D01*
X156913872Y-106994187D01*
X156918467Y-106986996D01*
X156922835Y-106979674D01*
X156925621Y-106974721D01*
X156929532Y-106967206D01*
X156933058Y-106959608D01*
X156936199Y-106951928D01*
X156938956Y-106944166D01*
X156941328Y-106936321D01*
X156943316Y-106928394D01*
X156944919Y-106920384D01*
X156946137Y-106912292D01*
X156946970Y-106904118D01*
X156947419Y-106895861D01*
X156947505Y-106890310D01*
X156947343Y-106880702D01*
X156946857Y-106871320D01*
X156946048Y-106862164D01*
X156944916Y-106853234D01*
X156943459Y-106844530D01*
X156941680Y-106836052D01*
X156939576Y-106827799D01*
X156937149Y-106819773D01*
X156934413Y-106812006D01*
X156931385Y-106804532D01*
X156928063Y-106797351D01*
X156923499Y-106788788D01*
X156918476Y-106780682D01*
X156912996Y-106773034D01*
X156907058Y-106765844D01*
X156900676Y-106759126D01*
X156893865Y-106752895D01*
X156886625Y-106747151D01*
X156878955Y-106741893D01*
X156870856Y-106737122D01*
X156862327Y-106732837D01*
X156858796Y-106731259D01*
X156851493Y-106728374D01*
X156843946Y-106725874D01*
X156836154Y-106723758D01*
X156828119Y-106722027D01*
X156819839Y-106720681D01*
X156811315Y-106719719D01*
X156802547Y-106719142D01*
X156793534Y-106718949D01*
X156785610Y-106719099D01*
X156775355Y-106719763D01*
X156765454Y-106720958D01*
X156755907Y-106722685D01*
X156746715Y-106724942D01*
X156737876Y-106727731D01*
X156729392Y-106731052D01*
X156721261Y-106734903D01*
X156719284Y-106735949D01*
X156711588Y-106740431D01*
X156704227Y-106745377D01*
X156697202Y-106750787D01*
X156690512Y-106756661D01*
X156684159Y-106762999D01*
X156678142Y-106769801D01*
X156672460Y-106777067D01*
X156667114Y-106784797D01*
X156662052Y-106792983D01*
X156657320Y-106801613D01*
X156652917Y-106810690D01*
X156648845Y-106820213D01*
X156646006Y-106827647D01*
X156643354Y-106835332D01*
X156640886Y-106843268D01*
X156638605Y-106851454D01*
X156636508Y-106859892D01*
X156635851Y-106862760D01*
X156634000Y-106871542D01*
X156632331Y-106880524D01*
X156630845Y-106889705D01*
X156629540Y-106899085D01*
X156628418Y-106908664D01*
X156627477Y-106918442D01*
X156626719Y-106928420D01*
X156626142Y-106938597D01*
X156625748Y-106948973D01*
X156625535Y-106959549D01*
X156625495Y-106966709D01*
X156625495Y-107034902D01*
X156587393Y-107034902D01*
X156578758Y-107034754D01*
X156570437Y-107034310D01*
X156562432Y-107033571D01*
X156553240Y-107032293D01*
X156544503Y-107030590D01*
X156537568Y-107028845D01*
X156529629Y-107026312D01*
X156522226Y-107023258D01*
X156514267Y-107019034D01*
X156507036Y-107014100D01*
X156501420Y-107009305D01*
X156495440Y-107003024D01*
X156490152Y-106995975D01*
X156485555Y-106988160D01*
X156482167Y-106980851D01*
X156479731Y-106974330D01*
X156477207Y-106965993D01*
X156475206Y-106956955D01*
X156473937Y-106948888D01*
X156473031Y-106940335D01*
X156472487Y-106931295D01*
X156472306Y-106921769D01*
X156472428Y-106913474D01*
X156472794Y-106905392D01*
X156473405Y-106897525D01*
X156474512Y-106887991D01*
X156476000Y-106878790D01*
X156477870Y-106869924D01*
X156480122Y-106861392D01*
X156482602Y-106853245D01*
X156485159Y-106845413D01*
X156487792Y-106837896D01*
X156491053Y-106829291D01*
X156494424Y-106821139D01*
X156497316Y-106814693D01*
X156500778Y-106807446D01*
X156504679Y-106799564D01*
X156508429Y-106792299D01*
X156512533Y-106784752D01*
X156514511Y-106781280D01*
X156518289Y-106774237D01*
X156521403Y-106766530D01*
X156522327Y-106761155D01*
X156520177Y-106753534D01*
X156514162Y-106748156D01*
X156513339Y-106747672D01*
X156505959Y-106745003D01*
X156501810Y-106744155D01*
X156493798Y-106743393D01*
X156486179Y-106743178D01*
X156477959Y-106743350D01*
X156469605Y-106744010D01*
X156463904Y-106744937D01*
X156456425Y-106747971D01*
X156449832Y-106752972D01*
X156448468Y-106754316D01*
X156443155Y-106760690D01*
X156438500Y-106767795D01*
X156434128Y-106775537D01*
X156431859Y-106779912D01*
X156427916Y-106788124D01*
X156424656Y-106795580D01*
X156421505Y-106803420D01*
X156418464Y-106811645D01*
X156415533Y-106820255D01*
X156415055Y-106821727D01*
X156412684Y-106829220D01*
X156410457Y-106836923D01*
X156408372Y-106844836D01*
X156406431Y-106852959D01*
X156404632Y-106861292D01*
X156402977Y-106869835D01*
X156402355Y-106873311D01*
X156400891Y-106882113D01*
X156399676Y-106890935D01*
X156398708Y-106899775D01*
X156397989Y-106908635D01*
X156397518Y-106917513D01*
X156397294Y-106926411D01*
X156397274Y-106929975D01*
X155832894Y-106929975D01*
X155832894Y-106208970D01*
X156172180Y-106208970D01*
X156172295Y-106217042D01*
X156172734Y-106225468D01*
X156173353Y-106231441D01*
X156174623Y-106239257D01*
X156176479Y-106245118D01*
X156180941Y-106251605D01*
X156181950Y-106252348D01*
X156189375Y-106254497D01*
X156479535Y-106254497D01*
X156473936Y-106259993D01*
X156467263Y-106266793D01*
X156460953Y-106273518D01*
X156455005Y-106280166D01*
X156449420Y-106286737D01*
X156444198Y-106293233D01*
X156441238Y-106297093D01*
X156436501Y-106303542D01*
X156431207Y-106311217D01*
X156426339Y-106318824D01*
X156421897Y-106326362D01*
X156417881Y-106333831D01*
X156416032Y-106337540D01*
X156412554Y-106344940D01*
X156409447Y-106352341D01*
X156406711Y-106359742D01*
X156403987Y-106368375D01*
X156401769Y-106377009D01*
X156400017Y-106385822D01*
X156398696Y-106394822D01*
X156398091Y-106400848D01*
X156397906Y-106402686D01*
X156397432Y-106410686D01*
X156397274Y-106418824D01*
X156397465Y-106428796D01*
X156398037Y-106438491D01*
X156398990Y-106447907D01*
X156400324Y-106457045D01*
X156402040Y-106465905D01*
X156404137Y-106474486D01*
X156406615Y-106482789D01*
X156409474Y-106490814D01*
X156412715Y-106498561D01*
X156416337Y-106506030D01*
X156418963Y-106510855D01*
X156423160Y-106517908D01*
X156427619Y-106524708D01*
X156432338Y-106531253D01*
X156437318Y-106537544D01*
X156442559Y-106543581D01*
X156448062Y-106549364D01*
X156453825Y-106554893D01*
X156459849Y-106560167D01*
X156466135Y-106565188D01*
X156472681Y-106569954D01*
X156477191Y-106572990D01*
X156484117Y-106577381D01*
X156491266Y-106581542D01*
X156498638Y-106585473D01*
X156506234Y-106589174D01*
X156514053Y-106592645D01*
X156522096Y-106595885D01*
X156530361Y-106598896D01*
X156538850Y-106601676D01*
X156547562Y-106604226D01*
X156556497Y-106606547D01*
X156562578Y-106607966D01*
X156571787Y-106609921D01*
X156581095Y-106611684D01*
X156590504Y-106613255D01*
X156600011Y-106614633D01*
X156609619Y-106615819D01*
X156619326Y-106616813D01*
X156629132Y-106617615D01*
X156639038Y-106618224D01*
X156649044Y-106618640D01*
X156659149Y-106618865D01*
X156665942Y-106618908D01*
X156674024Y-106618853D01*
X156682007Y-106618688D01*
X156689888Y-106618413D01*
X156701521Y-106617795D01*
X156712928Y-106616929D01*
X156724108Y-106615816D01*
X156735061Y-106614456D01*
X156745787Y-106612849D01*
X156756287Y-106610994D01*
X156766560Y-106608892D01*
X156776606Y-106606543D01*
X156783178Y-106604839D01*
X156792789Y-106602120D01*
X156802133Y-106599163D01*
X156811208Y-106595969D01*
X156820016Y-106592539D01*
X156828556Y-106588871D01*
X156836828Y-106584966D01*
X156844832Y-106580825D01*
X156852568Y-106576446D01*
X156860036Y-106571830D01*
X156867236Y-106566978D01*
X156871887Y-106563611D01*
X156878624Y-106558409D01*
X156885058Y-106552986D01*
X156891190Y-106547344D01*
X156897020Y-106541483D01*
X156902547Y-106535401D01*
X156907773Y-106529099D01*
X156912696Y-106522578D01*
X156917316Y-106515837D01*
X156921635Y-106508876D01*
X156925651Y-106501695D01*
X156928161Y-106496786D01*
X156931618Y-106489284D01*
X156934735Y-106481580D01*
X156937512Y-106473673D01*
X156939948Y-106465563D01*
X156942045Y-106457250D01*
X156943802Y-106448735D01*
X156945219Y-106440017D01*
X156946296Y-106431097D01*
X156947032Y-106421974D01*
X156947429Y-106412648D01*
X156947505Y-106406319D01*
X156947340Y-106397576D01*
X156946845Y-106389081D01*
X156946021Y-106380833D01*
X156944867Y-106372833D01*
X156943383Y-106365080D01*
X156942815Y-106362550D01*
X156940483Y-106353792D01*
X156938038Y-106346359D01*
X156935180Y-106338996D01*
X156931910Y-106331700D01*
X156928228Y-106324474D01*
X156927575Y-106323276D01*
X156923425Y-106316088D01*
X156918892Y-106308887D01*
X156913973Y-106301672D01*
X156908670Y-106294443D01*
X156902982Y-106287201D01*
X156901001Y-106284783D01*
X156895771Y-106278742D01*
X156890216Y-106272586D01*
X156884337Y-106266316D01*
X156878134Y-106259932D01*
X156871606Y-106253433D01*
X156864754Y-106246819D01*
X156861922Y-106244141D01*
X156918977Y-106244141D01*
X156926207Y-106241797D01*
X156930866Y-106235362D01*
X156931092Y-106234762D01*
X156933233Y-106226845D01*
X156934023Y-106222453D01*
X156934724Y-106214590D01*
X156934984Y-106206317D01*
X156935000Y-106203499D01*
X156934838Y-106195125D01*
X156934304Y-106187260D01*
X156934023Y-106184742D01*
X156932456Y-106176972D01*
X156930896Y-106172041D01*
X156926202Y-106165630D01*
X156925816Y-106165397D01*
X156918000Y-106163834D01*
X156189570Y-106163834D01*
X156181950Y-106165788D01*
X156176892Y-106171897D01*
X156176479Y-106172822D01*
X156174250Y-106180791D01*
X156173353Y-106186891D01*
X156172594Y-106194777D01*
X156172254Y-106202608D01*
X156172180Y-106208970D01*
X155832894Y-106208970D01*
X155832894Y-105639787D01*
X156209696Y-105639787D01*
X156209781Y-105650951D01*
X156210035Y-105661924D01*
X156210458Y-105672707D01*
X156211051Y-105683299D01*
X156211814Y-105693700D01*
X156212746Y-105703910D01*
X156213847Y-105713929D01*
X156215118Y-105723758D01*
X156216558Y-105733395D01*
X156218168Y-105742842D01*
X156219947Y-105752098D01*
X156221896Y-105761163D01*
X156224014Y-105770038D01*
X156226301Y-105778721D01*
X156228758Y-105787214D01*
X156231385Y-105795516D01*
X156234166Y-105803633D01*
X156237088Y-105811572D01*
X156240150Y-105819332D01*
X156243353Y-105826914D01*
X156246696Y-105834316D01*
X156250179Y-105841541D01*
X156253803Y-105848586D01*
X156257568Y-105855453D01*
X156263477Y-105865419D01*
X156269703Y-105874983D01*
X156276245Y-105884145D01*
X156283103Y-105892905D01*
X156290277Y-105901263D01*
X156292739Y-105903960D01*
X156300292Y-105911826D01*
X156308151Y-105919304D01*
X156316316Y-105926393D01*
X156324786Y-105933095D01*
X156333562Y-105939409D01*
X156342644Y-105945334D01*
X156352032Y-105950871D01*
X156361725Y-105956020D01*
X156371724Y-105960781D01*
X156382028Y-105965154D01*
X156389068Y-105967854D01*
X156399842Y-105971590D01*
X156410844Y-105974959D01*
X156422072Y-105977960D01*
X156429683Y-105979757D01*
X156437395Y-105981390D01*
X156445207Y-105982860D01*
X156453121Y-105984167D01*
X156461135Y-105985311D01*
X156469250Y-105986291D01*
X156477466Y-105987107D01*
X156485782Y-105987761D01*
X156494200Y-105988251D01*
X156502718Y-105988577D01*
X156511336Y-105988741D01*
X156515683Y-105988761D01*
X156525041Y-105988688D01*
X156534453Y-105988468D01*
X156543921Y-105988102D01*
X156553443Y-105987589D01*
X156563021Y-105986929D01*
X156572653Y-105986123D01*
X156582340Y-105985171D01*
X156592083Y-105984072D01*
X156601773Y-105982808D01*
X156611402Y-105981360D01*
X156620970Y-105979730D01*
X156630478Y-105977917D01*
X156639924Y-105975920D01*
X156649309Y-105973740D01*
X156658633Y-105971377D01*
X156667896Y-105968831D01*
X156677018Y-105966135D01*
X156686018Y-105963225D01*
X156694897Y-105960102D01*
X156703653Y-105956765D01*
X156712287Y-105953215D01*
X156720799Y-105949450D01*
X156729188Y-105945472D01*
X156737456Y-105941280D01*
X156745491Y-105936908D01*
X156753283Y-105932292D01*
X156760830Y-105927432D01*
X156768133Y-105922327D01*
X156775191Y-105916978D01*
X156782006Y-105911385D01*
X156788576Y-105905548D01*
X156794902Y-105899466D01*
X156800892Y-105893186D01*
X156806552Y-105886655D01*
X156811883Y-105879875D01*
X156816884Y-105872843D01*
X156821555Y-105865562D01*
X156825896Y-105858030D01*
X156829908Y-105850248D01*
X156833590Y-105842215D01*
X156836841Y-105833905D01*
X156839659Y-105825289D01*
X156842044Y-105816368D01*
X156843995Y-105807142D01*
X156845512Y-105797610D01*
X156846596Y-105787774D01*
X156847246Y-105777631D01*
X156847463Y-105767184D01*
X156847284Y-105758867D01*
X156846748Y-105750771D01*
X156845855Y-105742894D01*
X156844362Y-105733982D01*
X156842383Y-105725370D01*
X156839859Y-105717198D01*
X156836906Y-105709437D01*
X156833523Y-105702088D01*
X156829709Y-105695151D01*
X156827337Y-105691371D01*
X156822013Y-105684239D01*
X156816004Y-105677693D01*
X156810186Y-105672447D01*
X156803844Y-105667649D01*
X156801936Y-105666360D01*
X156794873Y-105662214D01*
X156787361Y-105658667D01*
X156779400Y-105655718D01*
X156770990Y-105653367D01*
X156765983Y-105652292D01*
X156772670Y-105645482D01*
X156779050Y-105638729D01*
X156785126Y-105632033D01*
X156790896Y-105625395D01*
X156796361Y-105618814D01*
X156801521Y-105612290D01*
X156803499Y-105609696D01*
X156808189Y-105603299D01*
X156813465Y-105595660D01*
X156818356Y-105588063D01*
X156822862Y-105580507D01*
X156826984Y-105572992D01*
X156828900Y-105569250D01*
X156832379Y-105561876D01*
X156835486Y-105554558D01*
X156838642Y-105546090D01*
X156841293Y-105537696D01*
X156843164Y-105530561D01*
X156844839Y-105522307D01*
X156846103Y-105514127D01*
X156846955Y-105506022D01*
X156847396Y-105497992D01*
X156847463Y-105493437D01*
X156847298Y-105484829D01*
X156846803Y-105476593D01*
X156845979Y-105468728D01*
X156844601Y-105460020D01*
X156842773Y-105451818D01*
X156840516Y-105444064D01*
X156837847Y-105436703D01*
X156834294Y-105428771D01*
X156830203Y-105421352D01*
X156829096Y-105419578D01*
X156824345Y-105412800D01*
X156819082Y-105406535D01*
X156813306Y-105400783D01*
X156807016Y-105395544D01*
X156800263Y-105390855D01*
X156793094Y-105386556D01*
X156785511Y-105382648D01*
X156777512Y-105379131D01*
X156769110Y-105376139D01*
X156761437Y-105373902D01*
X156753466Y-105372020D01*
X156745195Y-105370493D01*
X156741559Y-105369947D01*
X156732766Y-105368881D01*
X156724976Y-105368176D01*
X156716953Y-105367663D01*
X156708696Y-105367343D01*
X156700206Y-105367215D01*
X156698768Y-105367212D01*
X156689735Y-105367342D01*
X156681840Y-105367651D01*
X156673611Y-105368140D01*
X156665048Y-105368811D01*
X156656151Y-105369663D01*
X156646921Y-105370696D01*
X156645034Y-105370924D01*
X156635522Y-105372265D01*
X156625915Y-105373844D01*
X156618160Y-105375279D01*
X156610344Y-105376866D01*
X156602467Y-105378607D01*
X156594530Y-105380499D01*
X156586531Y-105382545D01*
X156582508Y-105383625D01*
X156574470Y-105385924D01*
X156566474Y-105388424D01*
X156558521Y-105391126D01*
X156550610Y-105394030D01*
X156542742Y-105397135D01*
X156534918Y-105400441D01*
X156527135Y-105403949D01*
X156519396Y-105407658D01*
X156511782Y-105411634D01*
X156504375Y-105415841D01*
X156497176Y-105420280D01*
X156490184Y-105424951D01*
X156483401Y-105429854D01*
X156476824Y-105434989D01*
X156470456Y-105440356D01*
X156464295Y-105445956D01*
X156458335Y-105451802D01*
X156452669Y-105457911D01*
X156447295Y-105464283D01*
X156442215Y-105470917D01*
X156437428Y-105477814D01*
X156432934Y-105484974D01*
X156428733Y-105492395D01*
X156424825Y-105500080D01*
X156421299Y-105508103D01*
X156418243Y-105516444D01*
X156415657Y-105525103D01*
X156413541Y-105534079D01*
X156411895Y-105543372D01*
X156410720Y-105552983D01*
X156410015Y-105562911D01*
X156409780Y-105573157D01*
X156409895Y-105577065D01*
X156410036Y-105581865D01*
X156410806Y-105590401D01*
X156412088Y-105598766D01*
X156413883Y-105606961D01*
X156416228Y-105614984D01*
X156419159Y-105622836D01*
X156422676Y-105630518D01*
X156426779Y-105638028D01*
X156431371Y-105645380D01*
X156436549Y-105652585D01*
X156441560Y-105658769D01*
X156447021Y-105664842D01*
X156448663Y-105666556D01*
X156454624Y-105672644D01*
X156461053Y-105678770D01*
X156466936Y-105684050D01*
X156473161Y-105689357D01*
X156479731Y-105694693D01*
X156431664Y-105704072D01*
X156424670Y-105707899D01*
X156420331Y-105713841D01*
X156417950Y-105721544D01*
X156416885Y-105729737D01*
X156416457Y-105738759D01*
X156416423Y-105742564D01*
X156416647Y-105750552D01*
X156417523Y-105758742D01*
X156417595Y-105759173D01*
X156419298Y-105766886D01*
X156420526Y-105769919D01*
X156425216Y-105775195D01*
X156431664Y-105775390D01*
X156682941Y-105726542D01*
X156691304Y-105725086D01*
X156699249Y-105724014D01*
X156709189Y-105723184D01*
X156718385Y-105723037D01*
X156726836Y-105723574D01*
X156736352Y-105725208D01*
X156744704Y-105727910D01*
X156750547Y-105730841D01*
X156756852Y-105735565D01*
X156762088Y-105741435D01*
X156766255Y-105748449D01*
X156769354Y-105756608D01*
X156771384Y-105765912D01*
X156772239Y-105774180D01*
X156772431Y-105780862D01*
X156772040Y-105789196D01*
X156770865Y-105797201D01*
X156768907Y-105804877D01*
X156766167Y-105812222D01*
X156762643Y-105819238D01*
X156761294Y-105821504D01*
X156756843Y-105828160D01*
X156751842Y-105834500D01*
X156746291Y-105840525D01*
X156740191Y-105846233D01*
X156733542Y-105851626D01*
X156731203Y-105853353D01*
X156723876Y-105858397D01*
X156716109Y-105863126D01*
X156707903Y-105867538D01*
X156700728Y-105870974D01*
X156693248Y-105874190D01*
X156687044Y-105876605D01*
X156679101Y-105879450D01*
X156671023Y-105882123D01*
X156662813Y-105884625D01*
X156654468Y-105886955D01*
X156645990Y-105889113D01*
X156637379Y-105891099D01*
X156633897Y-105891845D01*
X156625132Y-105893657D01*
X156616300Y-105895307D01*
X156607401Y-105896794D01*
X156598436Y-105898119D01*
X156589404Y-105899282D01*
X156580305Y-105900283D01*
X156576646Y-105900638D01*
X156567540Y-105901483D01*
X156558538Y-105902184D01*
X156549641Y-105902742D01*
X156540850Y-105903157D01*
X156532163Y-105903429D01*
X156523581Y-105903558D01*
X156520177Y-105903569D01*
X156511354Y-105903454D01*
X156502617Y-105903109D01*
X156493966Y-105902534D01*
X156485400Y-105901728D01*
X156476921Y-105900693D01*
X156468527Y-105899427D01*
X156460219Y-105897931D01*
X156451997Y-105896205D01*
X156443861Y-105894249D01*
X156435811Y-105892063D01*
X156430491Y-105890478D01*
X156422596Y-105887898D01*
X156414882Y-105884996D01*
X156407350Y-105881771D01*
X156400001Y-105878223D01*
X156392833Y-105874352D01*
X156385848Y-105870158D01*
X156379044Y-105865642D01*
X156372423Y-105860802D01*
X156365983Y-105855640D01*
X156359726Y-105850155D01*
X156355655Y-105846319D01*
X156349691Y-105840270D01*
X156343959Y-105833846D01*
X156338462Y-105827048D01*
X156333197Y-105819876D01*
X156328167Y-105812330D01*
X156323370Y-105804409D01*
X156318806Y-105796114D01*
X156314476Y-105787444D01*
X156310380Y-105778400D01*
X156306517Y-105768981D01*
X156304071Y-105762494D01*
X156300614Y-105752441D01*
X156297497Y-105741916D01*
X156294721Y-105730921D01*
X156292284Y-105719456D01*
X156290848Y-105711551D01*
X156289563Y-105703437D01*
X156288430Y-105695113D01*
X156287448Y-105686581D01*
X156286616Y-105677839D01*
X156285936Y-105668888D01*
X156285407Y-105659729D01*
X156285030Y-105650360D01*
X156284803Y-105640781D01*
X156284727Y-105630994D01*
X156284783Y-105622941D01*
X156284950Y-105614999D01*
X156285229Y-105607169D01*
X156285856Y-105595633D01*
X156286733Y-105584347D01*
X156287861Y-105573312D01*
X156289240Y-105562528D01*
X156290870Y-105551994D01*
X156292751Y-105541711D01*
X156294882Y-105531679D01*
X156297264Y-105521898D01*
X156298991Y-105515516D01*
X156301720Y-105506134D01*
X156304631Y-105496964D01*
X156307724Y-105488008D01*
X156310999Y-105479264D01*
X156314456Y-105470734D01*
X156318095Y-105462416D01*
X156321916Y-105454312D01*
X156325919Y-105446420D01*
X156330104Y-105438741D01*
X156334471Y-105431275D01*
X156337484Y-105426416D01*
X156342092Y-105419295D01*
X156346831Y-105412366D01*
X156351700Y-105405630D01*
X156356700Y-105399086D01*
X156361830Y-105392734D01*
X156367091Y-105386574D01*
X156372482Y-105380607D01*
X156378004Y-105374832D01*
X156383656Y-105369250D01*
X156389439Y-105363860D01*
X156393367Y-105360373D01*
X156399338Y-105355318D01*
X156407411Y-105348807D01*
X156415613Y-105342559D01*
X156423944Y-105336574D01*
X156432402Y-105330851D01*
X156440989Y-105325390D01*
X156449704Y-105320193D01*
X156458547Y-105315257D01*
X156460778Y-105314065D01*
X156469741Y-105309442D01*
X156478754Y-105305052D01*
X156487815Y-105300894D01*
X156496926Y-105296968D01*
X156506085Y-105293273D01*
X156515293Y-105289811D01*
X156524549Y-105286581D01*
X156533855Y-105283583D01*
X156543145Y-105280787D01*
X156552356Y-105278161D01*
X156561488Y-105275706D01*
X156570540Y-105273423D01*
X156579513Y-105271310D01*
X156588407Y-105269368D01*
X156597221Y-105267597D01*
X156605956Y-105265998D01*
X156614541Y-105264547D01*
X156623004Y-105263225D01*
X156631345Y-105262032D01*
X156639563Y-105260966D01*
X156647660Y-105260029D01*
X156655635Y-105259220D01*
X156663487Y-105258539D01*
X156671217Y-105257986D01*
X156680518Y-105257424D01*
X156689371Y-105256956D01*
X156697776Y-105256584D01*
X156705732Y-105256307D01*
X156714687Y-105256101D01*
X156722997Y-105256033D01*
X156734263Y-105256156D01*
X156745347Y-105256527D01*
X156756249Y-105257145D01*
X156766970Y-105258011D01*
X156777508Y-105259124D01*
X156787864Y-105260484D01*
X156798038Y-105262091D01*
X156808030Y-105263946D01*
X156817840Y-105266048D01*
X156827468Y-105268397D01*
X156833785Y-105270101D01*
X156843081Y-105272919D01*
X156852136Y-105276098D01*
X156860950Y-105279637D01*
X156869524Y-105283537D01*
X156877858Y-105287798D01*
X156885951Y-105292419D01*
X156893804Y-105297401D01*
X156901416Y-105302744D01*
X156908788Y-105308447D01*
X156915920Y-105314511D01*
X156920540Y-105318754D01*
X156927247Y-105325447D01*
X156933665Y-105332555D01*
X156939795Y-105340078D01*
X156945636Y-105348017D01*
X156951189Y-105356372D01*
X156956453Y-105365143D01*
X156961429Y-105374329D01*
X156966116Y-105383930D01*
X156970515Y-105393947D01*
X156974625Y-105404380D01*
X156977205Y-105411566D01*
X156979665Y-105418986D01*
X156981967Y-105426639D01*
X156984111Y-105434526D01*
X156986095Y-105442646D01*
X156987921Y-105451000D01*
X156989588Y-105459588D01*
X156991096Y-105468409D01*
X156992445Y-105477463D01*
X156993636Y-105486751D01*
X156994668Y-105496273D01*
X156995541Y-105506028D01*
X156996256Y-105516017D01*
X156996811Y-105526239D01*
X156997208Y-105536695D01*
X156997446Y-105547384D01*
X156997526Y-105558307D01*
X156997462Y-105568248D01*
X156997269Y-105577945D01*
X156996949Y-105587397D01*
X156996500Y-105596605D01*
X156995923Y-105605568D01*
X156995218Y-105614288D01*
X156994384Y-105622763D01*
X156993422Y-105630994D01*
X156992436Y-105638969D01*
X156991178Y-105648559D01*
X156989891Y-105657730D01*
X156988575Y-105666480D01*
X156987231Y-105674811D01*
X156985858Y-105682722D01*
X156985020Y-105687268D01*
X156983349Y-105695891D01*
X156981705Y-105703882D01*
X156979821Y-105712407D01*
X156977976Y-105720071D01*
X156976423Y-105725956D01*
X156974534Y-105733567D01*
X156972977Y-105741407D01*
X156972515Y-105746277D01*
X156974469Y-105751943D01*
X156980722Y-105755851D01*
X156988489Y-105757463D01*
X156991664Y-105757805D01*
X156999605Y-105758262D01*
X157007469Y-105758391D01*
X157008077Y-105758391D01*
X157016162Y-105758268D01*
X157021168Y-105758000D01*
X157029096Y-105757038D01*
X157030743Y-105756633D01*
X157038155Y-105753823D01*
X157038363Y-105753702D01*
X157044444Y-105748632D01*
X157044616Y-105748426D01*
X157048408Y-105740890D01*
X157050942Y-105733231D01*
X157052041Y-105729473D01*
X157054385Y-105720961D01*
X157056437Y-105712371D01*
X157058196Y-105704160D01*
X157059954Y-105695166D01*
X157061420Y-105687072D01*
X157062847Y-105678544D01*
X157064198Y-105669567D01*
X157065473Y-105660142D01*
X157066437Y-105652279D01*
X157067353Y-105644128D01*
X157068220Y-105635691D01*
X157069038Y-105626967D01*
X157069235Y-105624742D01*
X157070014Y-105615735D01*
X157070689Y-105606497D01*
X157071260Y-105597026D01*
X157071727Y-105587324D01*
X157072090Y-105577389D01*
X157072349Y-105567222D01*
X157072505Y-105556824D01*
X157072554Y-105548872D01*
X157072557Y-105546193D01*
X157072462Y-105533492D01*
X157072178Y-105521036D01*
X157071705Y-105508824D01*
X157071043Y-105496856D01*
X157070191Y-105485132D01*
X157069150Y-105473653D01*
X157067920Y-105462418D01*
X157066500Y-105451427D01*
X157064891Y-105440680D01*
X157063093Y-105430178D01*
X157061105Y-105419919D01*
X157058928Y-105409905D01*
X157056562Y-105400136D01*
X157054007Y-105390610D01*
X157051262Y-105381329D01*
X157048328Y-105372292D01*
X157045218Y-105363505D01*
X157041944Y-105354923D01*
X157038507Y-105346548D01*
X157034907Y-105338379D01*
X157031143Y-105330416D01*
X157027216Y-105322659D01*
X157023126Y-105315108D01*
X157018872Y-105307763D01*
X157014456Y-105300624D01*
X157009875Y-105293692D01*
X157005132Y-105286965D01*
X157000225Y-105280445D01*
X156995154Y-105274130D01*
X156989921Y-105268022D01*
X156984524Y-105262119D01*
X156978963Y-105256423D01*
X156973274Y-105250927D01*
X156967441Y-105245625D01*
X156961465Y-105240516D01*
X156955345Y-105235602D01*
X156949082Y-105230881D01*
X156942675Y-105226354D01*
X156936125Y-105222021D01*
X156929431Y-105217882D01*
X156922593Y-105213936D01*
X156915613Y-105210185D01*
X156908488Y-105206628D01*
X156901221Y-105203264D01*
X156893809Y-105200094D01*
X156886255Y-105197118D01*
X156878557Y-105194336D01*
X156870715Y-105191748D01*
X156862744Y-105189358D01*
X156854659Y-105187122D01*
X156846459Y-105185041D01*
X156838145Y-105183114D01*
X156829716Y-105181341D01*
X156821173Y-105179722D01*
X156812516Y-105178257D01*
X156803743Y-105176947D01*
X156794857Y-105175790D01*
X156785856Y-105174788D01*
X156776740Y-105173940D01*
X156767510Y-105173246D01*
X156758165Y-105172707D01*
X156748706Y-105172321D01*
X156739133Y-105172090D01*
X156729445Y-105172013D01*
X156720264Y-105172085D01*
X156710672Y-105172299D01*
X156702704Y-105172574D01*
X156694473Y-105172940D01*
X156685979Y-105173398D01*
X156677223Y-105173948D01*
X156668205Y-105174589D01*
X156663597Y-105174944D01*
X156654239Y-105175808D01*
X156644729Y-105176837D01*
X156635066Y-105178030D01*
X156625251Y-105179389D01*
X156615283Y-105180913D01*
X156605162Y-105182601D01*
X156594888Y-105184454D01*
X156587083Y-105185952D01*
X156584462Y-105186472D01*
X156576570Y-105188144D01*
X156568647Y-105189937D01*
X156560693Y-105191849D01*
X156552708Y-105193882D01*
X156544692Y-105196035D01*
X156536645Y-105198308D01*
X156528567Y-105200701D01*
X156520458Y-105203215D01*
X156512319Y-105205849D01*
X156504148Y-105208603D01*
X156498684Y-105210506D01*
X156490495Y-105213479D01*
X156482340Y-105216610D01*
X156474219Y-105219899D01*
X156466133Y-105223347D01*
X156458081Y-105226952D01*
X156450063Y-105230715D01*
X156442080Y-105234636D01*
X156434131Y-105238716D01*
X156426216Y-105242953D01*
X156418336Y-105247348D01*
X156413101Y-105250366D01*
X156405304Y-105255037D01*
X156397593Y-105259889D01*
X156389967Y-105264924D01*
X156382428Y-105270141D01*
X156374974Y-105275539D01*
X156367606Y-105281120D01*
X156360324Y-105286883D01*
X156353128Y-105292828D01*
X156346017Y-105298955D01*
X156338993Y-105305263D01*
X156334357Y-105309571D01*
X156327479Y-105316238D01*
X156320765Y-105323126D01*
X156314217Y-105330233D01*
X156307833Y-105337561D01*
X156301614Y-105345108D01*
X156295560Y-105352875D01*
X156289670Y-105360862D01*
X156283946Y-105369068D01*
X156278386Y-105377494D01*
X156272991Y-105386141D01*
X156269487Y-105392027D01*
X156264354Y-105401085D01*
X156259434Y-105410379D01*
X156254728Y-105419911D01*
X156250234Y-105429680D01*
X156245953Y-105439686D01*
X156241886Y-105449929D01*
X156238031Y-105460408D01*
X156234389Y-105471125D01*
X156230960Y-105482079D01*
X156227744Y-105493269D01*
X156225718Y-105500862D01*
X156223778Y-105508594D01*
X156221963Y-105516453D01*
X156220273Y-105524439D01*
X156218709Y-105532552D01*
X156217269Y-105540791D01*
X156215955Y-105549158D01*
X156214766Y-105557650D01*
X156213702Y-105566270D01*
X156212763Y-105575016D01*
X156211949Y-105583889D01*
X156211261Y-105592888D01*
X156210697Y-105602015D01*
X156210259Y-105611268D01*
X156209946Y-105620647D01*
X156209759Y-105630154D01*
X156209696Y-105639787D01*
X155832894Y-105639787D01*
X155832894Y-104832728D01*
X158630791Y-104832728D01*
X158630791Y-112393868D01*
G37*
G36*
X129544857Y-97342055D02*
G01*
X127434143Y-97342055D01*
X127434143Y-96659383D01*
X128428071Y-96659383D01*
X128437314Y-96690861D01*
X128470600Y-96719703D01*
X128514195Y-96725971D01*
X128554259Y-96707675D01*
X128578071Y-96670623D01*
X128578071Y-95875915D01*
X128568828Y-95844437D01*
X128535542Y-95815595D01*
X128491947Y-95809327D01*
X128451883Y-95827623D01*
X128428071Y-95864675D01*
X128428071Y-96659383D01*
X127434143Y-96659383D01*
X127434143Y-95193246D01*
X129544857Y-95193246D01*
X129544857Y-97342055D01*
G37*
G36*
X129563905Y-103758357D02*
G01*
X127415096Y-103758357D01*
X127415096Y-102700552D01*
X128031177Y-102700552D01*
X128049473Y-102740616D01*
X128086525Y-102764428D01*
X128414499Y-102764428D01*
X128414499Y-103081162D01*
X128423742Y-103112640D01*
X128457028Y-103141482D01*
X128500623Y-103147750D01*
X128540687Y-103129454D01*
X128564499Y-103092402D01*
X128564499Y-102764428D01*
X128881233Y-102764428D01*
X128912711Y-102755185D01*
X128941553Y-102721899D01*
X128947821Y-102678304D01*
X128929525Y-102638240D01*
X128892473Y-102614428D01*
X128564499Y-102614428D01*
X128564499Y-102297694D01*
X128555256Y-102266216D01*
X128521970Y-102237374D01*
X128478375Y-102231106D01*
X128438311Y-102249402D01*
X128414499Y-102286454D01*
X128414499Y-102614428D01*
X128097765Y-102614428D01*
X128066287Y-102623671D01*
X128037445Y-102656957D01*
X128031177Y-102700552D01*
X127415096Y-102700552D01*
X127415096Y-101647643D01*
X129563905Y-101647643D01*
X129563905Y-103758357D01*
G37*
D11*
%TO.C,J4*%
X151223250Y-101975800D02*
X148563250Y-101975800D01*
X151223250Y-99375800D02*
X151223250Y-101975800D01*
X151223250Y-99375800D02*
X148563250Y-99375800D01*
X151223250Y-98105800D02*
X151223250Y-96775800D01*
X151223250Y-96775800D02*
X149893250Y-96775800D01*
X148563250Y-99375800D02*
X148563250Y-101975800D01*
%TO.C,D2*%
X154530000Y-104510000D02*
X154530000Y-96850000D01*
X158830000Y-104510000D02*
X154530000Y-104510000D01*
X158830000Y-104510000D02*
X158830000Y-96850000D01*
%TD*%
M02*
