%TF.GenerationSoftware,KiCad,Pcbnew,(7.0.0)*%
%TF.CreationDate,2023-03-03T15:02:14-06:00*%
%TF.ProjectId,Banana to USB Adapter,42616e61-6e61-4207-946f-205553422041,rev?*%
%TF.SameCoordinates,Original*%
%TF.FileFunction,Soldermask,Top*%
%TF.FilePolarity,Negative*%
%FSLAX46Y46*%
G04 Gerber Fmt 4.6, Leading zero omitted, Abs format (unit mm)*
G04 Created by KiCad (PCBNEW (7.0.0)) date 2023-03-03 15:02:14*
%MOMM*%
%LPD*%
G01*
G04 APERTURE LIST*
G04 Aperture macros list*
%AMRoundRect*
0 Rectangle with rounded corners*
0 $1 Rounding radius*
0 $2 $3 $4 $5 $6 $7 $8 $9 X,Y pos of 4 corners*
0 Add a 4 corners polygon primitive as box body*
4,1,4,$2,$3,$4,$5,$6,$7,$8,$9,$2,$3,0*
0 Add four circle primitives for the rounded corners*
1,1,$1+$1,$2,$3*
1,1,$1+$1,$4,$5*
1,1,$1+$1,$6,$7*
1,1,$1+$1,$8,$9*
0 Add four rect primitives between the rounded corners*
20,1,$1+$1,$2,$3,$4,$5,0*
20,1,$1+$1,$4,$5,$6,$7,0*
20,1,$1+$1,$6,$7,$8,$9,0*
20,1,$1+$1,$8,$9,$2,$3,0*%
G04 Aperture macros list end*
%ADD10C,0.150000*%
%ADD11C,0.635000*%
%ADD12R,1.700000X1.700000*%
%ADD13C,0.800000*%
%ADD14C,6.400000*%
%ADD15R,1.524000X1.524000*%
%ADD16C,1.524000*%
%ADD17O,2.250000X1.200000*%
%ADD18RoundRect,0.250000X0.625000X-0.400000X0.625000X0.400000X-0.625000X0.400000X-0.625000X-0.400000X0*%
%ADD19RoundRect,0.250001X-0.624999X0.462499X-0.624999X-0.462499X0.624999X-0.462499X0.624999X0.462499X0*%
%ADD20O,1.700000X1.700000*%
G04 APERTURE END LIST*
D10*
X132020200Y-105377200D02*
X137220000Y-105377200D01*
X137220000Y-105377200D02*
X137220000Y-112540000D01*
X137220000Y-112540000D02*
X132020200Y-112540000D01*
X132020200Y-112540000D02*
X132020200Y-105377200D01*
G36*
X132020200Y-105377200D02*
G01*
X137220000Y-105377200D01*
X137220000Y-112540000D01*
X132020200Y-112540000D01*
X132020200Y-105377200D01*
G37*
X137433800Y-103528400D02*
X144373600Y-103528400D01*
X144373600Y-103528400D02*
X144373600Y-112972400D01*
X144373600Y-112972400D02*
X137433800Y-112972400D01*
X137433800Y-112972400D02*
X137433800Y-103528400D01*
G36*
X137433800Y-103528400D02*
G01*
X144373600Y-103528400D01*
X144373600Y-112972400D01*
X137433800Y-112972400D01*
X137433800Y-103528400D01*
G37*
X132045700Y-86212200D02*
X137245500Y-86212200D01*
X137245500Y-86212200D02*
X137245500Y-93375000D01*
X137245500Y-93375000D02*
X132045700Y-93375000D01*
X132045700Y-93375000D02*
X132045700Y-86212200D01*
G36*
X132045700Y-86212200D02*
G01*
X137245500Y-86212200D01*
X137245500Y-93375000D01*
X132045700Y-93375000D01*
X132045700Y-86212200D01*
G37*
X137384600Y-86058000D02*
X144424400Y-86058000D01*
X144424400Y-86058000D02*
X144424400Y-95520600D01*
X144424400Y-95520600D02*
X137384600Y-95520600D01*
X137384600Y-95520600D02*
X137384600Y-86058000D01*
G36*
X137384600Y-86058000D02*
G01*
X144424400Y-86058000D01*
X144424400Y-95520600D01*
X137384600Y-95520600D01*
X137384600Y-86058000D01*
G37*
D11*
%TO.C,REF\u002A\u002A*%
X132923000Y-98421800D03*
%TD*%
%TO.C,*%
X137075000Y-96172884D03*
%TD*%
%TO.C,REF\u002A\u002A*%
X131816024Y-99340000D03*
%TD*%
%TO.C,REF\u002A\u002A*%
X132923000Y-97349920D03*
%TD*%
D12*
%TO.C,J3*%
X152882599Y-88671399D03*
%TD*%
D11*
%TO.C,REF\u002A\u002A*%
X132923000Y-99396800D03*
%TD*%
D13*
%TO.C,H1*%
X126600138Y-108968250D03*
X127303082Y-107271194D03*
X127303082Y-110665306D03*
X129000138Y-106568250D03*
D14*
X129000138Y-108968250D03*
D13*
X129000138Y-111368250D03*
X130697194Y-107271194D03*
X130697194Y-110665306D03*
X131400138Y-108968250D03*
%TD*%
D11*
%TO.C,*%
X137075000Y-102797952D03*
%TD*%
%TO.C,*%
X137075000Y-98316644D03*
%TD*%
D15*
%TO.C,J1*%
X153306499Y-102864799D03*
D16*
X153306500Y-100364800D03*
X153306500Y-98364800D03*
X153306500Y-95864800D03*
D17*
X154506499Y-105934799D03*
X154506499Y-92794799D03*
%TD*%
D11*
%TO.C,*%
X137075000Y-97244764D03*
%TD*%
%TO.C,*%
X137075000Y-99363124D03*
%TD*%
D12*
%TO.C,J2*%
X152882599Y-110337599D03*
%TD*%
D11*
%TO.C,REF\u002A\u002A*%
X130654518Y-99340000D03*
%TD*%
%TO.C,*%
X137075000Y-101661476D03*
%TD*%
D18*
%TO.C,R1*%
X146790000Y-103820000D03*
X146790000Y-100720000D03*
%TD*%
D11*
%TO.C,REF\u002A\u002A*%
X132923000Y-102903108D03*
%TD*%
%TO.C,REF\u002A\u002A*%
X132923000Y-96278040D03*
%TD*%
D13*
%TO.C,H2*%
X126600138Y-89918250D03*
X127303082Y-88221194D03*
X127303082Y-91615306D03*
X129000138Y-87518250D03*
D14*
X129000138Y-89918250D03*
D13*
X129000138Y-92318250D03*
X130697194Y-88221194D03*
X130697194Y-91615306D03*
X131400138Y-89918250D03*
%TD*%
D11*
%TO.C,REF\u002A\u002A*%
X128331506Y-99340000D03*
%TD*%
%TO.C,*%
X137075000Y-100525000D03*
%TD*%
%TO.C,REF\u002A\u002A*%
X126008494Y-99340000D03*
%TD*%
%TO.C,REF\u002A\u002A*%
X127170000Y-99340000D03*
%TD*%
%TO.C,REF\u002A\u002A*%
X132923000Y-100630156D03*
%TD*%
%TO.C,REF\u002A\u002A*%
X132923000Y-101766632D03*
%TD*%
D19*
%TO.C,D1*%
X146790000Y-95432500D03*
X146790000Y-98407500D03*
%TD*%
D11*
%TO.C,REF\u002A\u002A*%
X129493012Y-99340000D03*
%TD*%
D12*
%TO.C,J4*%
X149893249Y-98105799D03*
D20*
X149893249Y-100645799D03*
%TD*%
M02*
