%TF.GenerationSoftware,KiCad,Pcbnew,(7.0.0)*%
%TF.CreationDate,2023-03-03T15:02:14-06:00*%
%TF.ProjectId,Banana to USB Adapter,42616e61-6e61-4207-946f-205553422041,rev?*%
%TF.SameCoordinates,Original*%
%TF.FileFunction,Soldermask,Bot*%
%TF.FilePolarity,Negative*%
%FSLAX46Y46*%
G04 Gerber Fmt 4.6, Leading zero omitted, Abs format (unit mm)*
G04 Created by KiCad (PCBNEW (7.0.0)) date 2023-03-03 15:02:14*
%MOMM*%
%LPD*%
G01*
G04 APERTURE LIST*
G04 Aperture macros list*
%AMOutline4P*
0 Free polygon, 4 corners , with rotation*
0 The origin of the aperture is its center*
0 number of corners: always 4*
0 $1 to $8 corner X, Y*
0 $9 Rotation angle, in degrees counterclockwise*
0 create outline with 4 corners*
4,1,4,$1,$2,$3,$4,$5,$6,$7,$8,$1,$2,$9*%
G04 Aperture macros list end*
%ADD10C,0.150000*%
%ADD11C,0.635000*%
%ADD12R,1.700000X1.700000*%
%ADD13C,0.800000*%
%ADD14C,6.400000*%
%ADD15R,1.524000X1.524000*%
%ADD16C,1.524000*%
%ADD17O,2.250000X1.200000*%
%ADD18O,1.700000X1.700000*%
%ADD19Outline4P,-1.800000X-1.150000X1.800000X-0.550000X1.800000X0.550000X-1.800000X1.150000X90.000000*%
%ADD20Outline4P,-1.800000X-1.150000X1.800000X-0.550000X1.800000X0.550000X-1.800000X1.150000X270.000000*%
G04 APERTURE END LIST*
D10*
X132050000Y-86168600D02*
X137249800Y-86168600D01*
X137249800Y-86168600D02*
X137249800Y-93331400D01*
X137249800Y-93331400D02*
X132050000Y-93331400D01*
X132050000Y-93331400D02*
X132050000Y-86168600D01*
G36*
X132050000Y-86168600D02*
G01*
X137249800Y-86168600D01*
X137249800Y-93331400D01*
X132050000Y-93331400D01*
X132050000Y-86168600D01*
G37*
X132075000Y-105368600D02*
X137274800Y-105368600D01*
X137274800Y-105368600D02*
X137274800Y-112531400D01*
X137274800Y-112531400D02*
X132075000Y-112531400D01*
X132075000Y-112531400D02*
X132075000Y-105368600D01*
G36*
X132075000Y-105368600D02*
G01*
X137274800Y-105368600D01*
X137274800Y-112531400D01*
X132075000Y-112531400D01*
X132075000Y-105368600D01*
G37*
X137477600Y-103516000D02*
X144422400Y-103516000D01*
X144422400Y-103516000D02*
X144422400Y-112925000D01*
X144422400Y-112925000D02*
X137477600Y-112925000D01*
X137477600Y-112925000D02*
X137477600Y-103516000D01*
G36*
X137477600Y-103516000D02*
G01*
X144422400Y-103516000D01*
X144422400Y-112925000D01*
X137477600Y-112925000D01*
X137477600Y-103516000D01*
G37*
X137439400Y-86133000D02*
X144424200Y-86133000D01*
X144424200Y-86133000D02*
X144424200Y-95511000D01*
X144424200Y-95511000D02*
X137439400Y-95511000D01*
X137439400Y-95511000D02*
X137439400Y-86133000D01*
G36*
X137439400Y-86133000D02*
G01*
X144424200Y-86133000D01*
X144424200Y-95511000D01*
X137439400Y-95511000D01*
X137439400Y-86133000D01*
G37*
D11*
%TO.C,REF\u002A\u002A*%
X132923000Y-98421800D03*
%TD*%
%TO.C,*%
X137075000Y-96172884D03*
%TD*%
%TO.C,REF\u002A\u002A*%
X131816024Y-99340000D03*
%TD*%
%TO.C,REF\u002A\u002A*%
X132923000Y-97349920D03*
%TD*%
D12*
%TO.C,J3*%
X152882599Y-88671399D03*
%TD*%
D11*
%TO.C,REF\u002A\u002A*%
X132923000Y-99396800D03*
%TD*%
D13*
%TO.C,H1*%
X126600138Y-108968250D03*
X127303082Y-107271194D03*
X127303082Y-110665306D03*
X129000138Y-106568250D03*
D14*
X129000138Y-108968250D03*
D13*
X129000138Y-111368250D03*
X130697194Y-107271194D03*
X130697194Y-110665306D03*
X131400138Y-108968250D03*
%TD*%
D11*
%TO.C,*%
X137075000Y-102797952D03*
%TD*%
%TO.C,*%
X137075000Y-98316644D03*
%TD*%
D15*
%TO.C,J1*%
X153306499Y-102864799D03*
D16*
X153306500Y-100364800D03*
X153306500Y-98364800D03*
X153306500Y-95864800D03*
D17*
X154506499Y-105934799D03*
X154506499Y-92794799D03*
%TD*%
D11*
%TO.C,*%
X137075000Y-97244764D03*
%TD*%
%TO.C,*%
X137075000Y-99363124D03*
%TD*%
D12*
%TO.C,J2*%
X152882599Y-110337599D03*
%TD*%
D11*
%TO.C,REF\u002A\u002A*%
X130654518Y-99340000D03*
%TD*%
%TO.C,*%
X137075000Y-101661476D03*
%TD*%
%TO.C,REF\u002A\u002A*%
X132923000Y-102903108D03*
%TD*%
%TO.C,REF\u002A\u002A*%
X132923000Y-96278040D03*
%TD*%
D13*
%TO.C,H2*%
X126600138Y-89918250D03*
X127303082Y-88221194D03*
X127303082Y-91615306D03*
X129000138Y-87518250D03*
D14*
X129000138Y-89918250D03*
D13*
X129000138Y-92318250D03*
X130697194Y-88221194D03*
X130697194Y-91615306D03*
X131400138Y-89918250D03*
%TD*%
D11*
%TO.C,REF\u002A\u002A*%
X128331506Y-99340000D03*
%TD*%
%TO.C,*%
X137075000Y-100525000D03*
%TD*%
%TO.C,REF\u002A\u002A*%
X126008494Y-99340000D03*
%TD*%
%TO.C,REF\u002A\u002A*%
X127170000Y-99340000D03*
%TD*%
%TO.C,REF\u002A\u002A*%
X132923000Y-100630156D03*
%TD*%
%TO.C,REF\u002A\u002A*%
X132923000Y-101766632D03*
%TD*%
%TO.C,REF\u002A\u002A*%
X129493012Y-99340000D03*
%TD*%
D12*
%TO.C,J4*%
X149893249Y-98105799D03*
D18*
X149893249Y-100645799D03*
%TD*%
D19*
%TO.C,D2*%
X156680000Y-102450000D03*
D20*
X156680000Y-96650000D03*
%TD*%
M02*
