M48
; DRILL file {KiCad (7.0.0)} date Fri Mar  3 15:02:17 2023
; FORMAT={-:-/ absolute / inch / decimal}
; #@! TF.CreationDate,2023-03-03T15:02:17-06:00
; #@! TF.GenerationSoftware,Kicad,Pcbnew,(7.0.0)
; #@! TF.FileFunction,NonPlated,1,2,NPTH
FMAT,2
INCH
; #@! TA.AperFunction,NonPlated,NPTH,ComponentDrill
T1C0.0250
%
G90
G05
T1
X4.961Y-3.911
X5.0067Y-3.911
X5.0524Y-3.911
X5.0982Y-3.911
X5.1439Y-3.911
X5.1896Y-3.911
X5.2332Y-3.7905
X5.2332Y-3.8327
X5.2332Y-3.8749
X5.2332Y-3.9133
X5.2332Y-3.9618
X5.2332Y-4.0066
X5.2332Y-4.0513
X5.3967Y-3.7863
X5.3967Y-3.8285
X5.3967Y-3.8707
X5.3967Y-3.9119
X5.3967Y-3.9577
X5.3967Y-4.0024
X5.3967Y-4.0472
T0
M30
