%TF.GenerationSoftware,KiCad,Pcbnew,(7.0.0)*%
%TF.CreationDate,2023-03-03T15:02:14-06:00*%
%TF.ProjectId,Banana to USB Adapter,42616e61-6e61-4207-946f-205553422041,rev?*%
%TF.SameCoordinates,Original*%
%TF.FileFunction,Legend,Top*%
%TF.FilePolarity,Positive*%
%FSLAX46Y46*%
G04 Gerber Fmt 4.6, Leading zero omitted, Abs format (unit mm)*
G04 Created by KiCad (PCBNEW (7.0.0)) date 2023-03-03 15:02:14*
%MOMM*%
%LPD*%
G01*
G04 APERTURE LIST*
%ADD10C,0.150000*%
%ADD11C,0.322487*%
%ADD12C,0.120000*%
G04 APERTURE END LIST*
D10*
X139575000Y-103075000D02*
X139400000Y-103250000D01*
D11*
X131911243Y-96100000D02*
G75*
G03*
X131911243Y-96100000I-161243J0D01*
G01*
X131911243Y-103025000D02*
G75*
G03*
X131911243Y-103025000I-161243J0D01*
G01*
X142461243Y-96025000D02*
G75*
G03*
X142461243Y-96025000I-161243J0D01*
G01*
D10*
X139375000Y-95850000D02*
X139375000Y-96200000D01*
X139575000Y-103075000D02*
X139400000Y-102900000D01*
D11*
X142411243Y-103025000D02*
G75*
G03*
X142411243Y-103025000I-161243J0D01*
G01*
D10*
X139400000Y-103250000D02*
X139400000Y-103225000D01*
X139550000Y-96025000D02*
X139375000Y-95850000D01*
X139400000Y-102900000D02*
X139400000Y-103250000D01*
X139550000Y-96025000D02*
X139375000Y-96200000D01*
X139375000Y-96200000D02*
X139375000Y-96175000D01*
G36*
X129563905Y-103712132D02*
G01*
X127415096Y-103712132D01*
X127415096Y-102654327D01*
X128031178Y-102654327D01*
X128049474Y-102694391D01*
X128086526Y-102718203D01*
X128414500Y-102718203D01*
X128414500Y-103034937D01*
X128423743Y-103066415D01*
X128457029Y-103095257D01*
X128500624Y-103101525D01*
X128540688Y-103083229D01*
X128564500Y-103046177D01*
X128564500Y-102718203D01*
X128881235Y-102718203D01*
X128912713Y-102708960D01*
X128941555Y-102675674D01*
X128947823Y-102632079D01*
X128929527Y-102592015D01*
X128892475Y-102568203D01*
X128564500Y-102568203D01*
X128564500Y-102251469D01*
X128555257Y-102219991D01*
X128521971Y-102191149D01*
X128478376Y-102184881D01*
X128438312Y-102203177D01*
X128414500Y-102240229D01*
X128414500Y-102568203D01*
X128097766Y-102568203D01*
X128066288Y-102577446D01*
X128037446Y-102610732D01*
X128031178Y-102654327D01*
X127415096Y-102654327D01*
X127415096Y-101601418D01*
X129563905Y-101601418D01*
X129563905Y-103712132D01*
G37*
G36*
X149684914Y-91677709D02*
G01*
X146288486Y-91677709D01*
X146288486Y-90701586D01*
X147902057Y-90701586D01*
X147911300Y-90733064D01*
X147944586Y-90761906D01*
X147988181Y-90768174D01*
X148028245Y-90749878D01*
X148052057Y-90712826D01*
X148052057Y-89156213D01*
X148042814Y-89124735D01*
X148009528Y-89095893D01*
X147965933Y-89089625D01*
X147925869Y-89107921D01*
X147902057Y-89144973D01*
X147902057Y-90701586D01*
X146288486Y-90701586D01*
X146288486Y-88205091D01*
X149684914Y-88205091D01*
X149684914Y-91677709D01*
G37*
G36*
X149723009Y-110689614D02*
G01*
X146250391Y-110689614D01*
X146250391Y-108992881D01*
X147159925Y-108992881D01*
X147178221Y-109032945D01*
X147215273Y-109056757D01*
X147924200Y-109056757D01*
X147924200Y-109754443D01*
X147933443Y-109785921D01*
X147966729Y-109814763D01*
X148010324Y-109821031D01*
X148050388Y-109802735D01*
X148074200Y-109765683D01*
X148074200Y-109056757D01*
X148771887Y-109056757D01*
X148803365Y-109047514D01*
X148832207Y-109014228D01*
X148838475Y-108970633D01*
X148820179Y-108930569D01*
X148783127Y-108906757D01*
X148074200Y-108906757D01*
X148074200Y-108209070D01*
X148064957Y-108177592D01*
X148031671Y-108148750D01*
X147988076Y-108142482D01*
X147948012Y-108160778D01*
X147924200Y-108197830D01*
X147924200Y-108906757D01*
X147226513Y-108906757D01*
X147195035Y-108916000D01*
X147166193Y-108949286D01*
X147159925Y-108992881D01*
X146250391Y-108992881D01*
X146250391Y-107293186D01*
X149723009Y-107293186D01*
X149723009Y-110689614D01*
G37*
G36*
X129544857Y-97295829D02*
G01*
X127434143Y-97295829D01*
X127434143Y-96613158D01*
X128400928Y-96613158D01*
X128410171Y-96644636D01*
X128443457Y-96673478D01*
X128487052Y-96679746D01*
X128527116Y-96661450D01*
X128550928Y-96624398D01*
X128550928Y-95829690D01*
X128541685Y-95798212D01*
X128508399Y-95769370D01*
X128464804Y-95763102D01*
X128424740Y-95781398D01*
X128400928Y-95818450D01*
X128400928Y-96613158D01*
X127434143Y-96613158D01*
X127434143Y-95147020D01*
X129544857Y-95147020D01*
X129544857Y-97295829D01*
G37*
%TO.C,*%
D12*
%TO.C,J3*%
X151552600Y-87341400D02*
X152882600Y-87341400D01*
X151552600Y-88671400D02*
X151552600Y-87341400D01*
X151552600Y-89941400D02*
X151552600Y-90001400D01*
X151552600Y-89941400D02*
X154212600Y-89941400D01*
X151552600Y-90001400D02*
X154212600Y-90001400D01*
X154212600Y-89941400D02*
X154212600Y-90001400D01*
%TO.C,J1*%
X152186500Y-106724800D02*
X153357300Y-106724800D01*
X152186500Y-106724800D02*
X152186500Y-92004800D01*
X155719500Y-106724800D02*
X162186500Y-106724800D01*
X162186500Y-106724800D02*
X162186500Y-92004800D01*
X151306500Y-103364800D02*
X151806500Y-102864800D01*
X151806500Y-102864800D02*
X151306500Y-102364800D01*
X151306500Y-102364800D02*
X151306500Y-103364800D01*
X153357300Y-92004800D02*
X152186500Y-92004800D01*
X155719500Y-92004800D02*
X162186500Y-92004800D01*
%TO.C,J2*%
X151552600Y-109007600D02*
X152882600Y-109007600D01*
X151552600Y-110337600D02*
X151552600Y-109007600D01*
X151552600Y-111607600D02*
X151552600Y-111667600D01*
X151552600Y-111607600D02*
X154212600Y-111607600D01*
X151552600Y-111667600D02*
X154212600Y-111667600D01*
X154212600Y-111607600D02*
X154212600Y-111667600D01*
%TO.C,R1*%
X145880000Y-102997064D02*
X145880000Y-101542936D01*
X147700000Y-102997064D02*
X147700000Y-101542936D01*
%TO.C,D1*%
X147925000Y-94460000D02*
X145655000Y-94460000D01*
X145655000Y-94460000D02*
X145655000Y-98520000D01*
X147925000Y-98520000D02*
X147925000Y-94460000D01*
%TD*%
M02*
