%TF.GenerationSoftware,KiCad,Pcbnew,(7.0.0)*%
%TF.CreationDate,2023-03-03T15:02:14-06:00*%
%TF.ProjectId,Banana to USB Adapter,42616e61-6e61-4207-946f-205553422041,rev?*%
%TF.SameCoordinates,Original*%
%TF.FileFunction,Copper,L1,Top*%
%TF.FilePolarity,Positive*%
%FSLAX46Y46*%
G04 Gerber Fmt 4.6, Leading zero omitted, Abs format (unit mm)*
G04 Created by KiCad (PCBNEW (7.0.0)) date 2023-03-03 15:02:14*
%MOMM*%
%LPD*%
G01*
G04 APERTURE LIST*
G04 Aperture macros list*
%AMRoundRect*
0 Rectangle with rounded corners*
0 $1 Rounding radius*
0 $2 $3 $4 $5 $6 $7 $8 $9 X,Y pos of 4 corners*
0 Add a 4 corners polygon primitive as box body*
4,1,4,$2,$3,$4,$5,$6,$7,$8,$9,$2,$3,0*
0 Add four circle primitives for the rounded corners*
1,1,$1+$1,$2,$3*
1,1,$1+$1,$4,$5*
1,1,$1+$1,$6,$7*
1,1,$1+$1,$8,$9*
0 Add four rect primitives between the rounded corners*
20,1,$1+$1,$2,$3,$4,$5,0*
20,1,$1+$1,$4,$5,$6,$7,0*
20,1,$1+$1,$6,$7,$8,$9,0*
20,1,$1+$1,$8,$9,$2,$3,0*%
G04 Aperture macros list end*
%TA.AperFunction,ComponentPad*%
%ADD10R,1.700000X1.700000*%
%TD*%
%TA.AperFunction,ComponentPad*%
%ADD11C,0.800000*%
%TD*%
%TA.AperFunction,ComponentPad*%
%ADD12C,6.400000*%
%TD*%
%TA.AperFunction,ComponentPad*%
%ADD13R,1.524000X1.524000*%
%TD*%
%TA.AperFunction,ComponentPad*%
%ADD14C,1.524000*%
%TD*%
%TA.AperFunction,ComponentPad*%
%ADD15O,2.250000X1.200000*%
%TD*%
%TA.AperFunction,SMDPad,CuDef*%
%ADD16RoundRect,0.250000X0.625000X-0.400000X0.625000X0.400000X-0.625000X0.400000X-0.625000X-0.400000X0*%
%TD*%
%TA.AperFunction,SMDPad,CuDef*%
%ADD17RoundRect,0.250001X-0.624999X0.462499X-0.624999X-0.462499X0.624999X-0.462499X0.624999X0.462499X0*%
%TD*%
%TA.AperFunction,ComponentPad*%
%ADD18O,1.700000X1.700000*%
%TD*%
%TA.AperFunction,ViaPad*%
%ADD19C,0.800000*%
%TD*%
%TA.AperFunction,Conductor*%
%ADD20C,0.250000*%
%TD*%
%TA.AperFunction,Conductor*%
%ADD21C,0.500000*%
%TD*%
G04 APERTURE END LIST*
D10*
%TO.P,J3,1,Pin_1*%
%TO.N,GND*%
X152882599Y-88671399D03*
%TD*%
D11*
%TO.P,H1,1,1*%
%TO.N,/Positive*%
X126600138Y-108968250D03*
X127303082Y-107271194D03*
X127303082Y-110665306D03*
X129000138Y-106568250D03*
D12*
X129000138Y-108968250D03*
D11*
X129000138Y-111368250D03*
X130697194Y-107271194D03*
X130697194Y-110665306D03*
X131400138Y-108968250D03*
%TD*%
D13*
%TO.P,J1,1,VBUS*%
%TO.N,/Positive*%
X153306499Y-102864799D03*
D14*
%TO.P,J1,2,D-*%
%TO.N,Net-(J1-D-)*%
X153306500Y-100364800D03*
%TO.P,J1,3,D+*%
%TO.N,Net-(J1-D+)*%
X153306500Y-98364800D03*
%TO.P,J1,4,GND*%
%TO.N,GND*%
X153306500Y-95864800D03*
D15*
%TO.P,J1,5,Shield*%
X154506499Y-105934799D03*
X154506499Y-92794799D03*
%TD*%
D10*
%TO.P,J2,1,Pin_1*%
%TO.N,/Positive*%
X152882599Y-110337599D03*
%TD*%
D16*
%TO.P,R1,1*%
%TO.N,/Positive*%
X146790000Y-103820000D03*
%TO.P,R1,2*%
%TO.N,Net-(D1-A)*%
X146790000Y-100720000D03*
%TD*%
D11*
%TO.P,H2,1,1*%
%TO.N,GND*%
X126600138Y-89918250D03*
X127303082Y-88221194D03*
X127303082Y-91615306D03*
X129000138Y-87518250D03*
D12*
X129000138Y-89918250D03*
D11*
X129000138Y-92318250D03*
X130697194Y-88221194D03*
X130697194Y-91615306D03*
X131400138Y-89918250D03*
%TD*%
D17*
%TO.P,D1,1,K*%
%TO.N,GND*%
X146790000Y-95432500D03*
%TO.P,D1,2,A*%
%TO.N,Net-(D1-A)*%
X146790000Y-98407500D03*
%TD*%
D10*
%TO.P,J4,1,Pin_1*%
%TO.N,Net-(J1-D+)*%
X149893249Y-98105799D03*
D18*
%TO.P,J4,2,Pin_2*%
%TO.N,Net-(J1-D-)*%
X149893249Y-100645799D03*
%TD*%
D19*
%TO.N,GND*%
X144856200Y-86588600D03*
X144856200Y-95250000D03*
X144856200Y-88320880D03*
X144856200Y-90053160D03*
X144856200Y-91785440D03*
X144856200Y-93517720D03*
%TO.N,/Positive*%
X144856200Y-110535720D03*
X144856200Y-105415080D03*
X144856200Y-107121960D03*
X144856200Y-103708200D03*
X144856200Y-108828840D03*
X144856200Y-112242600D03*
%TD*%
D20*
%TO.N,GND*%
X138500000Y-88450000D02*
X138500000Y-91250000D01*
%TO.N,Net-(J1-D-)*%
X149893250Y-100645800D02*
X153025500Y-100645800D01*
X153025500Y-100645800D02*
X153306500Y-100364800D01*
%TO.N,Net-(J1-D+)*%
X149893250Y-98105800D02*
X153047500Y-98105800D01*
X153047500Y-98105800D02*
X153306500Y-98364800D01*
D21*
%TO.N,Net-(D1-A)*%
X146790000Y-98407500D02*
X146790000Y-100720000D01*
%TD*%
%TA.AperFunction,Conductor*%
%TO.N,/Positive*%
G36*
X132524500Y-105299500D02*
G01*
X132524500Y-105299901D01*
X132524459Y-105300000D01*
X132524500Y-105300099D01*
X132524617Y-105300383D01*
X132525000Y-105300541D01*
X132525099Y-105300500D01*
X132525500Y-105300500D01*
X133225000Y-106000000D01*
X133225000Y-112689248D01*
X125455557Y-112688955D01*
X125393642Y-112672388D01*
X125348269Y-112627118D01*
X125331562Y-112565240D01*
X125314242Y-105035755D01*
X125575000Y-104775000D01*
X132000000Y-104775000D01*
X132524500Y-105299500D01*
G37*
%TD.AperFunction*%
%TD*%
%TA.AperFunction,Conductor*%
%TO.N,GND*%
G36*
X133325000Y-92575000D02*
G01*
X131875000Y-94025000D01*
X125288916Y-94025000D01*
X125281067Y-90613308D01*
X125270986Y-86230705D01*
X125287491Y-86168610D01*
X125332860Y-86123109D01*
X125394908Y-86106423D01*
X133325000Y-86101608D01*
X133325000Y-92575000D01*
G37*
%TD.AperFunction*%
%TD*%
%TA.AperFunction,Conductor*%
%TO.N,/Positive*%
G36*
X145638000Y-99716613D02*
G01*
X145683387Y-99762000D01*
X145700000Y-99824000D01*
X145700000Y-100268810D01*
X145704380Y-100268804D01*
X145710269Y-100290766D01*
X145714500Y-100322883D01*
X145714500Y-101174266D01*
X145714769Y-101177141D01*
X145714770Y-101177149D01*
X145716649Y-101197187D01*
X145716649Y-101197191D01*
X145717354Y-101204699D01*
X145719842Y-101211811D01*
X145719844Y-101211817D01*
X145759138Y-101324113D01*
X145759139Y-101324116D01*
X145762207Y-101332882D01*
X145767722Y-101340355D01*
X145767724Y-101340358D01*
X145798851Y-101382533D01*
X145842850Y-101442150D01*
X145952118Y-101522793D01*
X146080301Y-101567646D01*
X146110734Y-101570500D01*
X147466373Y-101570500D01*
X147469266Y-101570500D01*
X147499699Y-101567646D01*
X147627882Y-101522793D01*
X147737150Y-101442150D01*
X147817793Y-101332882D01*
X147862646Y-101204699D01*
X147865500Y-101174266D01*
X147865500Y-100390151D01*
X147882089Y-100328193D01*
X147927417Y-100282812D01*
X147989355Y-100266151D01*
X148743574Y-100265274D01*
X148799369Y-100278465D01*
X148843268Y-100315345D01*
X148865883Y-100368032D01*
X148862379Y-100425260D01*
X148859718Y-100434032D01*
X148859714Y-100434047D01*
X148857950Y-100439866D01*
X148857353Y-100445918D01*
X148857353Y-100445923D01*
X148846185Y-100559313D01*
X148837667Y-100645800D01*
X148838264Y-100651861D01*
X148857352Y-100845669D01*
X148857353Y-100845675D01*
X148857950Y-100851734D01*
X148859717Y-100857559D01*
X148859718Y-100857564D01*
X148897083Y-100980739D01*
X148918018Y-101049754D01*
X148920888Y-101055123D01*
X148920890Y-101055128D01*
X149004643Y-101211817D01*
X149015565Y-101232250D01*
X149019428Y-101236957D01*
X149132737Y-101375026D01*
X149146840Y-101392210D01*
X149306800Y-101523485D01*
X149489296Y-101621032D01*
X149687316Y-101681100D01*
X149893250Y-101701383D01*
X150099184Y-101681100D01*
X150297204Y-101621032D01*
X150479700Y-101523485D01*
X150639660Y-101392210D01*
X150770935Y-101232250D01*
X150868482Y-101049754D01*
X150869421Y-101046655D01*
X150895507Y-101007617D01*
X150935735Y-100980739D01*
X150983187Y-100971300D01*
X152500463Y-100971300D01*
X152553480Y-100983205D01*
X152596315Y-101016634D01*
X152622617Y-101048683D01*
X152769176Y-101168962D01*
X152774548Y-101171833D01*
X152774552Y-101171836D01*
X152896386Y-101236957D01*
X152936385Y-101258337D01*
X153117817Y-101313373D01*
X153306500Y-101331957D01*
X153495183Y-101313373D01*
X153676615Y-101258337D01*
X153843824Y-101168962D01*
X153990383Y-101048683D01*
X154110662Y-100902124D01*
X154200037Y-100734915D01*
X154255073Y-100553483D01*
X154273090Y-100370552D01*
X154293364Y-100313857D01*
X154337955Y-100273395D01*
X154396347Y-100258708D01*
X158623000Y-100253800D01*
X158699200Y-100177600D01*
X158699200Y-99824000D01*
X158715813Y-99762000D01*
X158761200Y-99716613D01*
X158823200Y-99700000D01*
X159456500Y-99700000D01*
X159518500Y-99716613D01*
X159563887Y-99762000D01*
X159580500Y-99824000D01*
X159580500Y-112575300D01*
X159563887Y-112637300D01*
X159518500Y-112682687D01*
X159456500Y-112699300D01*
X141856347Y-112699300D01*
X141794391Y-112682712D01*
X141749010Y-112637388D01*
X141732347Y-112575452D01*
X141732335Y-112565318D01*
X141730703Y-111232118D01*
X151532600Y-111232118D01*
X151532953Y-111238714D01*
X151538173Y-111287267D01*
X151541711Y-111302241D01*
X151586147Y-111421377D01*
X151594562Y-111436789D01*
X151670098Y-111537692D01*
X151682507Y-111550101D01*
X151783410Y-111625637D01*
X151798822Y-111634052D01*
X151917958Y-111678488D01*
X151932932Y-111682026D01*
X151981485Y-111687246D01*
X151988082Y-111687600D01*
X152616274Y-111687600D01*
X152629149Y-111684149D01*
X152632600Y-111671274D01*
X153132600Y-111671274D01*
X153136050Y-111684149D01*
X153148926Y-111687600D01*
X153777118Y-111687600D01*
X153783714Y-111687246D01*
X153832267Y-111682026D01*
X153847241Y-111678488D01*
X153966377Y-111634052D01*
X153981789Y-111625637D01*
X154082692Y-111550101D01*
X154095101Y-111537692D01*
X154170637Y-111436789D01*
X154179052Y-111421377D01*
X154223488Y-111302241D01*
X154227026Y-111287267D01*
X154232246Y-111238714D01*
X154232600Y-111232118D01*
X154232600Y-110603926D01*
X154229149Y-110591050D01*
X154216274Y-110587600D01*
X153148926Y-110587600D01*
X153136050Y-110591050D01*
X153132600Y-110603926D01*
X153132600Y-111671274D01*
X152632600Y-111671274D01*
X152632600Y-110603926D01*
X152629149Y-110591050D01*
X152616274Y-110587600D01*
X151548926Y-110587600D01*
X151536050Y-110591050D01*
X151532600Y-110603926D01*
X151532600Y-111232118D01*
X141730703Y-111232118D01*
X141729282Y-110071274D01*
X151532600Y-110071274D01*
X151536050Y-110084149D01*
X151548926Y-110087600D01*
X152616274Y-110087600D01*
X152629149Y-110084149D01*
X152632600Y-110071274D01*
X153132600Y-110071274D01*
X153136050Y-110084149D01*
X153148926Y-110087600D01*
X154216274Y-110087600D01*
X154229149Y-110084149D01*
X154232600Y-110071274D01*
X154232600Y-109443082D01*
X154232246Y-109436485D01*
X154227026Y-109387932D01*
X154223488Y-109372958D01*
X154179052Y-109253822D01*
X154170637Y-109238410D01*
X154095101Y-109137507D01*
X154082692Y-109125098D01*
X153981789Y-109049562D01*
X153966377Y-109041147D01*
X153847241Y-108996711D01*
X153832267Y-108993173D01*
X153783714Y-108987953D01*
X153777118Y-108987600D01*
X153148926Y-108987600D01*
X153136050Y-108991050D01*
X153132600Y-109003926D01*
X153132600Y-110071274D01*
X152632600Y-110071274D01*
X152632600Y-109003926D01*
X152629149Y-108991050D01*
X152616274Y-108987600D01*
X151988082Y-108987600D01*
X151981485Y-108987953D01*
X151932932Y-108993173D01*
X151917958Y-108996711D01*
X151798822Y-109041147D01*
X151783410Y-109049562D01*
X151682507Y-109125098D01*
X151670098Y-109137507D01*
X151594562Y-109238410D01*
X151586147Y-109253822D01*
X151541711Y-109372958D01*
X151538173Y-109387932D01*
X151532953Y-109436485D01*
X151532600Y-109443082D01*
X151532600Y-110071274D01*
X141729282Y-110071274D01*
X141724219Y-105934800D01*
X153175935Y-105934800D01*
X153196132Y-106114055D01*
X153198428Y-106120619D01*
X153198430Y-106120624D01*
X153253413Y-106277756D01*
X153255711Y-106284322D01*
X153351684Y-106437062D01*
X153479238Y-106564616D01*
X153631978Y-106660589D01*
X153802245Y-106720168D01*
X153936546Y-106735300D01*
X155072970Y-106735300D01*
X155076454Y-106735300D01*
X155210755Y-106720168D01*
X155381022Y-106660589D01*
X155533762Y-106564616D01*
X155661316Y-106437062D01*
X155757289Y-106284322D01*
X155816868Y-106114055D01*
X155837065Y-105934800D01*
X155816868Y-105755545D01*
X155757289Y-105585278D01*
X155661316Y-105432538D01*
X155533762Y-105304984D01*
X155525672Y-105299901D01*
X155386912Y-105212712D01*
X155381022Y-105209011D01*
X155374459Y-105206714D01*
X155374456Y-105206713D01*
X155217325Y-105151731D01*
X155210755Y-105149432D01*
X155203833Y-105148652D01*
X155079918Y-105134690D01*
X155079912Y-105134689D01*
X155076454Y-105134300D01*
X153936546Y-105134300D01*
X153933088Y-105134689D01*
X153933081Y-105134690D01*
X153809166Y-105148652D01*
X153809164Y-105148652D01*
X153802245Y-105149432D01*
X153795676Y-105151730D01*
X153795674Y-105151731D01*
X153638543Y-105206713D01*
X153638536Y-105206715D01*
X153631978Y-105209011D01*
X153626090Y-105212710D01*
X153626087Y-105212712D01*
X153485138Y-105301276D01*
X153485133Y-105301279D01*
X153479238Y-105304984D01*
X153474313Y-105309908D01*
X153474309Y-105309912D01*
X153356612Y-105427609D01*
X153356608Y-105427613D01*
X153351684Y-105432538D01*
X153347979Y-105438433D01*
X153347976Y-105438438D01*
X153259412Y-105579387D01*
X153259410Y-105579390D01*
X153255711Y-105585278D01*
X153253415Y-105591836D01*
X153253413Y-105591843D01*
X153198430Y-105748975D01*
X153198428Y-105748982D01*
X153196132Y-105755545D01*
X153175935Y-105934800D01*
X141724219Y-105934800D01*
X141722178Y-104266829D01*
X145415001Y-104266829D01*
X145415321Y-104273111D01*
X145424805Y-104365959D01*
X145427623Y-104379122D01*
X145478370Y-104532267D01*
X145484432Y-104545266D01*
X145568890Y-104682194D01*
X145577794Y-104693455D01*
X145691544Y-104807205D01*
X145702805Y-104816109D01*
X145839733Y-104900567D01*
X145852732Y-104906629D01*
X146005874Y-104957375D01*
X146019041Y-104960194D01*
X146111890Y-104969680D01*
X146118168Y-104970000D01*
X146523674Y-104970000D01*
X146536549Y-104966549D01*
X146540000Y-104953674D01*
X146540000Y-104953673D01*
X147040000Y-104953673D01*
X147043450Y-104966548D01*
X147056326Y-104969999D01*
X147461829Y-104969999D01*
X147468111Y-104969678D01*
X147560959Y-104960194D01*
X147574122Y-104957376D01*
X147727267Y-104906629D01*
X147740266Y-104900567D01*
X147877194Y-104816109D01*
X147888455Y-104807205D01*
X148002205Y-104693455D01*
X148011109Y-104682194D01*
X148095567Y-104545266D01*
X148101629Y-104532267D01*
X148152375Y-104379125D01*
X148155194Y-104365958D01*
X148164680Y-104273109D01*
X148165000Y-104266832D01*
X148165000Y-104086326D01*
X148161549Y-104073450D01*
X148148674Y-104070000D01*
X147056326Y-104070000D01*
X147043450Y-104073450D01*
X147040000Y-104086326D01*
X147040000Y-104953673D01*
X146540000Y-104953673D01*
X146540000Y-104086326D01*
X146536549Y-104073450D01*
X146523674Y-104070000D01*
X145431327Y-104070000D01*
X145418451Y-104073450D01*
X145415001Y-104086326D01*
X145415001Y-104266829D01*
X141722178Y-104266829D01*
X141721449Y-103671318D01*
X152044500Y-103671318D01*
X152044853Y-103677914D01*
X152050073Y-103726467D01*
X152053611Y-103741441D01*
X152098047Y-103860577D01*
X152106462Y-103875989D01*
X152181998Y-103976892D01*
X152194407Y-103989301D01*
X152295310Y-104064837D01*
X152310722Y-104073252D01*
X152429858Y-104117688D01*
X152444832Y-104121226D01*
X152493385Y-104126446D01*
X152499982Y-104126800D01*
X153040174Y-104126800D01*
X153053049Y-104123349D01*
X153056500Y-104110474D01*
X153556500Y-104110474D01*
X153559950Y-104123349D01*
X153572826Y-104126800D01*
X154113018Y-104126800D01*
X154119614Y-104126446D01*
X154168167Y-104121226D01*
X154183141Y-104117688D01*
X154302277Y-104073252D01*
X154317689Y-104064837D01*
X154418592Y-103989301D01*
X154431001Y-103976892D01*
X154506537Y-103875989D01*
X154514952Y-103860577D01*
X154559388Y-103741441D01*
X154562926Y-103726467D01*
X154568146Y-103677914D01*
X154568500Y-103671318D01*
X154568500Y-103131126D01*
X154565049Y-103118250D01*
X154552174Y-103114800D01*
X153572826Y-103114800D01*
X153559950Y-103118250D01*
X153556500Y-103131126D01*
X153556500Y-104110474D01*
X153056500Y-104110474D01*
X153056500Y-103131126D01*
X153053049Y-103118250D01*
X153040174Y-103114800D01*
X152060826Y-103114800D01*
X152047950Y-103118250D01*
X152044500Y-103131126D01*
X152044500Y-103671318D01*
X141721449Y-103671318D01*
X141721305Y-103553674D01*
X145415000Y-103553674D01*
X145418450Y-103566549D01*
X145431326Y-103570000D01*
X146523674Y-103570000D01*
X146536549Y-103566549D01*
X146540000Y-103553674D01*
X147040000Y-103553674D01*
X147043450Y-103566549D01*
X147056326Y-103570000D01*
X148148673Y-103570000D01*
X148161548Y-103566549D01*
X148164999Y-103553674D01*
X148164999Y-103373171D01*
X148164678Y-103366888D01*
X148155194Y-103274040D01*
X148152376Y-103260877D01*
X148101629Y-103107732D01*
X148095567Y-103094733D01*
X148011109Y-102957805D01*
X148002205Y-102946544D01*
X147888455Y-102832794D01*
X147877194Y-102823890D01*
X147740266Y-102739432D01*
X147727267Y-102733370D01*
X147574125Y-102682624D01*
X147560958Y-102679805D01*
X147468109Y-102670319D01*
X147461832Y-102670000D01*
X147056326Y-102670000D01*
X147043450Y-102673450D01*
X147040000Y-102686326D01*
X147040000Y-103553674D01*
X146540000Y-103553674D01*
X146540000Y-102686327D01*
X146536549Y-102673451D01*
X146523674Y-102670001D01*
X146118171Y-102670001D01*
X146111888Y-102670321D01*
X146019040Y-102679805D01*
X146005877Y-102682623D01*
X145852732Y-102733370D01*
X145839733Y-102739432D01*
X145702805Y-102823890D01*
X145691544Y-102832794D01*
X145577794Y-102946544D01*
X145568890Y-102957805D01*
X145484432Y-103094733D01*
X145478370Y-103107732D01*
X145427624Y-103260874D01*
X145424805Y-103274041D01*
X145415319Y-103366890D01*
X145415000Y-103373168D01*
X145415000Y-103553674D01*
X141721305Y-103553674D01*
X141721178Y-103450098D01*
X141721219Y-103450000D01*
X141721061Y-103449617D01*
X141720777Y-103449500D01*
X141720677Y-103449459D01*
X141720578Y-103449500D01*
X139725099Y-103449500D01*
X139724999Y-103449459D01*
X139724801Y-103449541D01*
X139724617Y-103449617D01*
X139724616Y-103449617D01*
X139724616Y-103449618D01*
X139724557Y-103449761D01*
X139724459Y-103450000D01*
X139724500Y-103450100D01*
X139724531Y-103461726D01*
X139724531Y-103461729D01*
X139749162Y-112575165D01*
X139732661Y-112637306D01*
X139687259Y-112682831D01*
X139625162Y-112699500D01*
X137499509Y-112699500D01*
X137437506Y-112682886D01*
X137392119Y-112637495D01*
X137375509Y-112575491D01*
X137375526Y-112354170D01*
X137376208Y-103432699D01*
X137376250Y-103432600D01*
X137376092Y-103432217D01*
X137375808Y-103432100D01*
X137375709Y-103432059D01*
X137375610Y-103432100D01*
X137373124Y-103432100D01*
X137372694Y-103431455D01*
X137352305Y-103373384D01*
X137362348Y-103312662D01*
X137400351Y-103264249D01*
X137403595Y-103261760D01*
X137480102Y-103203054D01*
X137571147Y-103084403D01*
X137628380Y-102946230D01*
X137647901Y-102797952D01*
X137628380Y-102649674D01*
X137607172Y-102598474D01*
X152044500Y-102598474D01*
X152047950Y-102611349D01*
X152060826Y-102614800D01*
X153040174Y-102614800D01*
X153053049Y-102611349D01*
X153056500Y-102598474D01*
X153556500Y-102598474D01*
X153559950Y-102611349D01*
X153572826Y-102614800D01*
X154552174Y-102614800D01*
X154565049Y-102611349D01*
X154568500Y-102598474D01*
X154568500Y-102058282D01*
X154568146Y-102051685D01*
X154562926Y-102003132D01*
X154559388Y-101988158D01*
X154514952Y-101869022D01*
X154506537Y-101853610D01*
X154431001Y-101752707D01*
X154418592Y-101740298D01*
X154317689Y-101664762D01*
X154302277Y-101656347D01*
X154183141Y-101611911D01*
X154168167Y-101608373D01*
X154119614Y-101603153D01*
X154113018Y-101602800D01*
X153572826Y-101602800D01*
X153559950Y-101606250D01*
X153556500Y-101619126D01*
X153556500Y-102598474D01*
X153056500Y-102598474D01*
X153056500Y-101619126D01*
X153053049Y-101606250D01*
X153040174Y-101602800D01*
X152499982Y-101602800D01*
X152493385Y-101603153D01*
X152444832Y-101608373D01*
X152429858Y-101611911D01*
X152310722Y-101656347D01*
X152295310Y-101664762D01*
X152194407Y-101740298D01*
X152181998Y-101752707D01*
X152106462Y-101853610D01*
X152098047Y-101869022D01*
X152053611Y-101988158D01*
X152050073Y-102003132D01*
X152044853Y-102051685D01*
X152044500Y-102058282D01*
X152044500Y-102598474D01*
X137607172Y-102598474D01*
X137571147Y-102511502D01*
X137480102Y-102392850D01*
X137395704Y-102328089D01*
X137359979Y-102284558D01*
X137347191Y-102229714D01*
X137359979Y-102174870D01*
X137395705Y-102131338D01*
X137403595Y-102125284D01*
X137480102Y-102066578D01*
X137571147Y-101947927D01*
X137628380Y-101809754D01*
X137647901Y-101661476D01*
X137628380Y-101513198D01*
X137571147Y-101375026D01*
X137480102Y-101256374D01*
X137395704Y-101191613D01*
X137359979Y-101148082D01*
X137347191Y-101093238D01*
X137359979Y-101038394D01*
X137395705Y-100994862D01*
X137403595Y-100988808D01*
X137480102Y-100930102D01*
X137571147Y-100811451D01*
X137628380Y-100673278D01*
X137647901Y-100525000D01*
X137628380Y-100376722D01*
X137571147Y-100238550D01*
X137480102Y-100119898D01*
X137379153Y-100042437D01*
X137343428Y-99998906D01*
X137330640Y-99944062D01*
X137343428Y-99889218D01*
X137379154Y-99845686D01*
X137480102Y-99768226D01*
X137495226Y-99748515D01*
X137538760Y-99712788D01*
X137593604Y-99700000D01*
X145576000Y-99700000D01*
X145638000Y-99716613D01*
G37*
%TD.AperFunction*%
%TA.AperFunction,Conductor*%
G36*
X132432762Y-100112349D02*
G01*
X132478493Y-100162807D01*
X132490684Y-100229805D01*
X132465656Y-100293137D01*
X132431801Y-100337255D01*
X132431796Y-100337261D01*
X132426853Y-100343705D01*
X132423744Y-100351209D01*
X132423742Y-100351214D01*
X132372730Y-100474368D01*
X132372728Y-100474373D01*
X132369620Y-100481878D01*
X132368560Y-100489929D01*
X132368558Y-100489937D01*
X132351521Y-100619347D01*
X132350099Y-100630156D01*
X132351160Y-100638215D01*
X132368558Y-100770374D01*
X132368559Y-100770380D01*
X132369620Y-100778434D01*
X132372729Y-100785940D01*
X132372730Y-100785943D01*
X132423742Y-100909096D01*
X132426853Y-100916606D01*
X132477956Y-100983205D01*
X132482256Y-100988808D01*
X132501299Y-101024436D01*
X132507880Y-101064295D01*
X132507880Y-101332494D01*
X132501299Y-101372353D01*
X132482255Y-101407981D01*
X132431801Y-101473731D01*
X132431796Y-101473737D01*
X132426853Y-101480181D01*
X132423744Y-101487685D01*
X132423742Y-101487690D01*
X132372730Y-101610844D01*
X132372728Y-101610849D01*
X132369620Y-101618354D01*
X132368560Y-101626405D01*
X132368558Y-101626413D01*
X132358689Y-101701383D01*
X132350099Y-101766632D01*
X132351160Y-101774691D01*
X132368558Y-101906850D01*
X132368559Y-101906856D01*
X132369620Y-101914910D01*
X132426853Y-102053082D01*
X132431798Y-102059526D01*
X132431799Y-102059528D01*
X132482256Y-102125284D01*
X132501299Y-102160912D01*
X132507880Y-102200771D01*
X132507880Y-102468970D01*
X132501299Y-102508829D01*
X132482255Y-102544457D01*
X132431801Y-102610207D01*
X132431796Y-102610213D01*
X132426853Y-102616657D01*
X132423744Y-102624161D01*
X132423742Y-102624166D01*
X132372730Y-102747320D01*
X132372728Y-102747325D01*
X132369620Y-102754830D01*
X132368560Y-102762881D01*
X132368558Y-102762889D01*
X132351521Y-102892299D01*
X132350099Y-102903108D01*
X132351160Y-102911167D01*
X132368558Y-103043326D01*
X132368559Y-103043332D01*
X132369620Y-103051386D01*
X132372729Y-103058892D01*
X132372730Y-103058895D01*
X132423742Y-103182048D01*
X132426853Y-103189558D01*
X132431798Y-103196002D01*
X132431799Y-103196004D01*
X132482256Y-103261760D01*
X132501299Y-103297388D01*
X132507880Y-103337247D01*
X132507880Y-103405650D01*
X132512255Y-103405650D01*
X132520268Y-103435556D01*
X132518223Y-103436103D01*
X132524500Y-103467657D01*
X132524500Y-105299901D01*
X132524459Y-105300000D01*
X132524500Y-105300099D01*
X132524617Y-105300383D01*
X132525000Y-105300541D01*
X132525099Y-105300500D01*
X135075500Y-105300500D01*
X135137500Y-105317113D01*
X135182887Y-105362500D01*
X135199500Y-105424500D01*
X135199500Y-112565318D01*
X135182886Y-112627319D01*
X135137497Y-112672707D01*
X135075495Y-112689318D01*
X130300517Y-112689138D01*
X130235176Y-112670523D01*
X130189452Y-112620270D01*
X130177072Y-112553467D01*
X130201753Y-112490167D01*
X130256084Y-112449374D01*
X130504097Y-112354170D01*
X130510021Y-112351533D01*
X130849783Y-112178416D01*
X130855404Y-112175170D01*
X131175199Y-111967492D01*
X131180453Y-111963675D01*
X131421944Y-111768120D01*
X131429831Y-111756856D01*
X131423165Y-111744830D01*
X129011680Y-109333345D01*
X129000138Y-109326681D01*
X128988595Y-109333345D01*
X126577109Y-111744830D01*
X126570443Y-111756856D01*
X126578329Y-111768119D01*
X126819822Y-111963675D01*
X126825076Y-111967492D01*
X127144871Y-112175170D01*
X127150492Y-112178416D01*
X127490254Y-112351533D01*
X127496178Y-112354170D01*
X127743935Y-112449276D01*
X127798267Y-112490071D01*
X127822947Y-112553373D01*
X127810564Y-112620177D01*
X127764836Y-112670429D01*
X127699492Y-112689040D01*
X125455557Y-112688955D01*
X125393642Y-112672388D01*
X125348269Y-112627118D01*
X125331562Y-112565240D01*
X125331535Y-112553373D01*
X125326563Y-110392172D01*
X125345056Y-110326743D01*
X125395275Y-110280899D01*
X125462118Y-110268431D01*
X125525487Y-110293086D01*
X125566327Y-110347453D01*
X125614217Y-110472209D01*
X125616854Y-110478133D01*
X125789971Y-110817895D01*
X125793217Y-110823516D01*
X126000895Y-111143311D01*
X126004712Y-111148565D01*
X126200267Y-111390057D01*
X126211530Y-111397943D01*
X126223556Y-111391277D01*
X128635042Y-108979792D01*
X128641706Y-108968250D01*
X129358569Y-108968250D01*
X129365233Y-108979792D01*
X131776718Y-111391277D01*
X131788744Y-111397943D01*
X131800008Y-111390056D01*
X131995563Y-111148565D01*
X131999380Y-111143311D01*
X132207058Y-110823516D01*
X132210304Y-110817895D01*
X132383421Y-110478133D01*
X132386058Y-110472209D01*
X132522716Y-110116205D01*
X132524715Y-110110052D01*
X132623411Y-109741712D01*
X132624759Y-109735370D01*
X132684411Y-109358741D01*
X132685088Y-109352298D01*
X132705046Y-108971494D01*
X132705046Y-108965006D01*
X132685088Y-108584201D01*
X132684411Y-108577758D01*
X132624759Y-108201129D01*
X132623411Y-108194787D01*
X132524715Y-107826447D01*
X132522716Y-107820294D01*
X132386058Y-107464290D01*
X132383421Y-107458366D01*
X132210304Y-107118604D01*
X132207058Y-107112983D01*
X131999380Y-106793188D01*
X131995563Y-106787934D01*
X131800007Y-106546441D01*
X131788744Y-106538555D01*
X131776718Y-106545221D01*
X129365233Y-108956707D01*
X129358569Y-108968250D01*
X128641706Y-108968250D01*
X128635042Y-108956707D01*
X126223556Y-106545221D01*
X126211531Y-106538555D01*
X126200265Y-106546444D01*
X126004716Y-106787928D01*
X126000894Y-106793189D01*
X125793217Y-107112983D01*
X125789971Y-107118604D01*
X125616854Y-107458366D01*
X125614217Y-107464290D01*
X125559816Y-107606008D01*
X125519067Y-107660306D01*
X125455835Y-107685009D01*
X125389070Y-107672714D01*
X125338786Y-107627106D01*
X125320053Y-107561860D01*
X125316874Y-106179643D01*
X126570443Y-106179643D01*
X126577109Y-106191668D01*
X128988595Y-108603154D01*
X129000138Y-108609818D01*
X129011680Y-108603154D01*
X131423165Y-106191668D01*
X131429831Y-106179642D01*
X131421945Y-106168379D01*
X131180453Y-105972824D01*
X131175199Y-105969007D01*
X130855404Y-105761329D01*
X130849783Y-105758083D01*
X130510021Y-105584966D01*
X130504097Y-105582329D01*
X130148093Y-105445671D01*
X130141940Y-105443672D01*
X129773600Y-105344976D01*
X129767258Y-105343628D01*
X129390629Y-105283976D01*
X129384186Y-105283299D01*
X129003382Y-105263342D01*
X128996894Y-105263342D01*
X128616089Y-105283299D01*
X128609646Y-105283976D01*
X128233017Y-105343628D01*
X128226675Y-105344976D01*
X127858335Y-105443672D01*
X127852182Y-105445671D01*
X127496178Y-105582329D01*
X127490254Y-105584966D01*
X127150492Y-105758083D01*
X127144871Y-105761329D01*
X126825077Y-105969006D01*
X126819816Y-105972828D01*
X126578332Y-106168377D01*
X126570443Y-106179643D01*
X125316874Y-106179643D01*
X125303499Y-100364800D01*
X125303161Y-100217935D01*
X125319679Y-100155815D01*
X125365079Y-100110310D01*
X125427161Y-100093650D01*
X132367281Y-100093650D01*
X132432762Y-100112349D01*
G37*
%TD.AperFunction*%
%TD*%
%TA.AperFunction,Conductor*%
%TO.N,GND*%
G36*
X159518500Y-86123113D02*
G01*
X159563887Y-86168500D01*
X159580500Y-86230500D01*
X159580500Y-99370500D01*
X159563887Y-99432500D01*
X159518500Y-99477887D01*
X159456500Y-99494500D01*
X158823200Y-99494500D01*
X158761200Y-99477887D01*
X158715813Y-99432500D01*
X158699200Y-99370500D01*
X158699200Y-98492126D01*
X158699200Y-98475800D01*
X158682874Y-98475800D01*
X154396977Y-98475800D01*
X154338524Y-98461158D01*
X154293875Y-98420691D01*
X154273574Y-98363955D01*
X154255670Y-98182181D01*
X154255073Y-98176117D01*
X154200037Y-97994685D01*
X154152951Y-97906593D01*
X154113536Y-97832852D01*
X154113533Y-97832848D01*
X154110662Y-97827476D01*
X153990383Y-97680917D01*
X153843824Y-97560638D01*
X153838453Y-97557767D01*
X153838447Y-97557763D01*
X153681987Y-97474134D01*
X153681983Y-97474132D01*
X153676615Y-97471263D01*
X153670791Y-97469496D01*
X153670788Y-97469495D01*
X153501013Y-97417995D01*
X153501008Y-97417994D01*
X153495183Y-97416227D01*
X153489124Y-97415630D01*
X153489118Y-97415629D01*
X153312561Y-97398240D01*
X153306500Y-97397643D01*
X153300439Y-97398240D01*
X153123881Y-97415629D01*
X153123873Y-97415630D01*
X153117817Y-97416227D01*
X153111993Y-97417993D01*
X153111986Y-97417995D01*
X152942211Y-97469495D01*
X152942204Y-97469497D01*
X152936385Y-97471263D01*
X152931019Y-97474130D01*
X152931012Y-97474134D01*
X152774552Y-97557763D01*
X152774541Y-97557770D01*
X152769176Y-97560638D01*
X152764464Y-97564504D01*
X152764464Y-97564505D01*
X152627323Y-97677054D01*
X152627318Y-97677058D01*
X152622617Y-97680917D01*
X152618758Y-97685618D01*
X152618754Y-97685623D01*
X152599921Y-97708572D01*
X152585736Y-97725857D01*
X152578261Y-97734965D01*
X152535425Y-97768395D01*
X152482408Y-97780300D01*
X151067750Y-97780300D01*
X151005750Y-97763687D01*
X150960363Y-97718300D01*
X150943750Y-97656300D01*
X150943750Y-97242148D01*
X150943750Y-97236052D01*
X150932117Y-97177569D01*
X150887802Y-97111248D01*
X150865709Y-97096486D01*
X150831634Y-97073717D01*
X150831633Y-97073716D01*
X150821481Y-97066933D01*
X150809503Y-97064550D01*
X150809502Y-97064550D01*
X150768978Y-97056489D01*
X150768973Y-97056488D01*
X150762998Y-97055300D01*
X149023502Y-97055300D01*
X149017527Y-97056488D01*
X149017521Y-97056489D01*
X148976997Y-97064550D01*
X148976995Y-97064550D01*
X148965019Y-97066933D01*
X148954868Y-97073715D01*
X148954865Y-97073717D01*
X148908851Y-97104463D01*
X148908848Y-97104465D01*
X148898698Y-97111248D01*
X148891915Y-97121398D01*
X148891913Y-97121401D01*
X148861167Y-97167415D01*
X148861165Y-97167418D01*
X148854383Y-97177569D01*
X148852000Y-97189545D01*
X148852000Y-97189547D01*
X148843939Y-97230071D01*
X148843938Y-97230077D01*
X148842750Y-97236052D01*
X148842750Y-97242148D01*
X148842750Y-98351800D01*
X148826137Y-98413800D01*
X148780750Y-98459187D01*
X148718750Y-98475800D01*
X147989500Y-98475800D01*
X147927500Y-98459187D01*
X147882113Y-98413800D01*
X147865500Y-98351800D01*
X147865499Y-97893638D01*
X147865499Y-97893628D01*
X147865499Y-97890736D01*
X147862646Y-97860302D01*
X147817793Y-97732118D01*
X147800415Y-97708572D01*
X147760737Y-97654809D01*
X147737150Y-97622850D01*
X147658095Y-97564505D01*
X147635358Y-97547724D01*
X147635355Y-97547722D01*
X147627882Y-97542207D01*
X147619116Y-97539139D01*
X147619113Y-97539138D01*
X147545655Y-97513435D01*
X147499698Y-97497354D01*
X147492190Y-97496649D01*
X147492186Y-97496649D01*
X147472148Y-97494770D01*
X147472140Y-97494769D01*
X147469265Y-97494500D01*
X147466372Y-97494500D01*
X146113638Y-97494500D01*
X146113616Y-97494500D01*
X146110736Y-97494501D01*
X146107862Y-97494770D01*
X146107849Y-97494771D01*
X146087811Y-97496649D01*
X146087802Y-97496650D01*
X146080302Y-97497354D01*
X146073184Y-97499844D01*
X146073182Y-97499845D01*
X145960886Y-97539138D01*
X145960880Y-97539140D01*
X145952118Y-97542207D01*
X145944646Y-97547720D01*
X145944641Y-97547724D01*
X145850327Y-97617331D01*
X145850324Y-97617333D01*
X145842850Y-97622850D01*
X145837333Y-97630324D01*
X145837331Y-97630327D01*
X145767724Y-97724641D01*
X145767720Y-97724646D01*
X145762207Y-97732118D01*
X145759140Y-97740880D01*
X145759138Y-97740886D01*
X145731282Y-97820497D01*
X145717354Y-97860302D01*
X145716650Y-97867808D01*
X145716649Y-97867813D01*
X145714770Y-97887851D01*
X145714500Y-97890735D01*
X145714500Y-97893627D01*
X145714500Y-97893628D01*
X145714500Y-98421682D01*
X145710275Y-98453774D01*
X145704373Y-98475800D01*
X145700000Y-98475800D01*
X145700000Y-98492123D01*
X145700000Y-99370500D01*
X145683387Y-99432500D01*
X145638000Y-99477887D01*
X145576000Y-99494500D01*
X137770840Y-99494500D01*
X137708840Y-99477887D01*
X137663453Y-99432500D01*
X137646900Y-99370725D01*
X137647901Y-99363124D01*
X137628380Y-99214846D01*
X137571147Y-99076674D01*
X137480102Y-98958022D01*
X137454346Y-98938258D01*
X137418621Y-98894728D01*
X137405833Y-98839884D01*
X137418621Y-98785040D01*
X137454346Y-98741509D01*
X137480102Y-98721746D01*
X137571147Y-98603095D01*
X137628380Y-98464922D01*
X137647901Y-98316644D01*
X137628380Y-98168366D01*
X137571147Y-98030194D01*
X137480102Y-97911542D01*
X137473655Y-97906595D01*
X137473653Y-97906593D01*
X137437795Y-97879078D01*
X137402069Y-97835546D01*
X137389282Y-97780701D01*
X137402071Y-97725857D01*
X137437793Y-97682330D01*
X137480102Y-97649866D01*
X137571147Y-97531215D01*
X137628380Y-97393042D01*
X137647901Y-97244764D01*
X137628380Y-97096486D01*
X137571147Y-96958314D01*
X137538846Y-96916218D01*
X152612003Y-96916218D01*
X152619436Y-96924330D01*
X152668651Y-96958791D01*
X152677999Y-96964188D01*
X152868319Y-97052935D01*
X152878443Y-97056621D01*
X153081286Y-97110973D01*
X153091918Y-97112847D01*
X153301105Y-97131149D01*
X153311895Y-97131149D01*
X153521081Y-97112847D01*
X153531713Y-97110973D01*
X153734556Y-97056621D01*
X153744680Y-97052935D01*
X153934994Y-96964191D01*
X153944351Y-96958789D01*
X153993564Y-96924328D01*
X154000996Y-96916219D01*
X153995082Y-96906936D01*
X153318042Y-96229895D01*
X153306500Y-96223231D01*
X153294957Y-96229895D01*
X152617916Y-96906936D01*
X152612003Y-96916218D01*
X137538846Y-96916218D01*
X137480102Y-96839662D01*
X137437794Y-96807198D01*
X137402070Y-96763668D01*
X137389282Y-96708824D01*
X137402070Y-96653980D01*
X137437794Y-96610449D01*
X137480102Y-96577986D01*
X137571147Y-96459335D01*
X137628380Y-96321162D01*
X137647901Y-96172884D01*
X137628380Y-96024606D01*
X137594093Y-95941831D01*
X145415000Y-95941831D01*
X145415319Y-95948108D01*
X145424805Y-96040957D01*
X145427624Y-96054124D01*
X145478370Y-96207266D01*
X145484432Y-96220265D01*
X145568890Y-96357193D01*
X145577794Y-96368454D01*
X145691545Y-96482205D01*
X145702806Y-96491109D01*
X145839734Y-96575567D01*
X145852733Y-96581629D01*
X146005875Y-96632375D01*
X146019042Y-96635194D01*
X146111891Y-96644680D01*
X146118169Y-96645000D01*
X146523674Y-96645000D01*
X146536549Y-96641549D01*
X146540000Y-96628674D01*
X147040000Y-96628674D01*
X147043450Y-96641549D01*
X147056326Y-96645000D01*
X147461831Y-96645000D01*
X147468108Y-96644680D01*
X147560957Y-96635194D01*
X147574124Y-96632375D01*
X147727266Y-96581629D01*
X147740265Y-96575567D01*
X147877193Y-96491109D01*
X147888454Y-96482205D01*
X148002205Y-96368454D01*
X148011109Y-96357193D01*
X148095567Y-96220265D01*
X148101629Y-96207266D01*
X148152375Y-96054124D01*
X148155194Y-96040957D01*
X148164680Y-95948108D01*
X148165000Y-95941831D01*
X148165000Y-95870195D01*
X152040151Y-95870195D01*
X152058452Y-96079381D01*
X152060326Y-96090013D01*
X152114678Y-96292856D01*
X152118364Y-96302980D01*
X152207109Y-96493296D01*
X152212508Y-96502648D01*
X152246970Y-96551865D01*
X152255079Y-96559296D01*
X152264362Y-96553382D01*
X152941403Y-95876342D01*
X152948067Y-95864800D01*
X153664931Y-95864800D01*
X153671595Y-95876342D01*
X154348636Y-96553382D01*
X154357919Y-96559296D01*
X154366028Y-96551864D01*
X154400489Y-96502651D01*
X154405891Y-96493294D01*
X154494635Y-96302980D01*
X154498321Y-96292856D01*
X154552673Y-96090013D01*
X154554547Y-96079381D01*
X154572849Y-95870195D01*
X154572849Y-95859405D01*
X154554547Y-95650218D01*
X154552673Y-95639586D01*
X154498322Y-95436749D01*
X154494634Y-95426615D01*
X154405888Y-95236300D01*
X154400490Y-95226950D01*
X154366029Y-95177735D01*
X154357918Y-95170302D01*
X154348639Y-95176213D01*
X153671595Y-95853257D01*
X153664931Y-95864800D01*
X152948067Y-95864800D01*
X152941403Y-95853257D01*
X152264359Y-95176213D01*
X152255081Y-95170302D01*
X152246968Y-95177736D01*
X152212506Y-95226954D01*
X152207112Y-95236298D01*
X152118365Y-95426615D01*
X152114677Y-95436749D01*
X152060326Y-95639586D01*
X152058452Y-95650218D01*
X152040151Y-95859405D01*
X152040151Y-95870195D01*
X148165000Y-95870195D01*
X148165000Y-95698826D01*
X148161549Y-95685950D01*
X148148674Y-95682500D01*
X147056326Y-95682500D01*
X147043450Y-95685950D01*
X147040000Y-95698826D01*
X147040000Y-96628674D01*
X146540000Y-96628674D01*
X146540000Y-95698826D01*
X146536549Y-95685950D01*
X146523674Y-95682500D01*
X145431326Y-95682500D01*
X145418450Y-95685950D01*
X145415000Y-95698826D01*
X145415000Y-95941831D01*
X137594093Y-95941831D01*
X137571147Y-95886434D01*
X137480102Y-95767782D01*
X137419451Y-95721243D01*
X137378855Y-95666462D01*
X137373519Y-95600496D01*
X137374899Y-95600499D01*
X137375000Y-95600541D01*
X137375238Y-95600442D01*
X137375382Y-95600384D01*
X137375382Y-95600383D01*
X137375383Y-95600383D01*
X137375500Y-95600099D01*
X137375541Y-95600001D01*
X137375499Y-95599901D01*
X137373902Y-86273912D01*
X137390513Y-86211895D01*
X137435915Y-86166497D01*
X137497934Y-86149892D01*
X139650536Y-86150465D01*
X139712519Y-86167089D01*
X139757893Y-86212474D01*
X139774500Y-86274465D01*
X139774511Y-94799901D01*
X139774511Y-94799906D01*
X139774500Y-95573373D01*
X139774500Y-95599900D01*
X139774459Y-95600000D01*
X139774499Y-95600099D01*
X139774500Y-95600099D01*
X139774617Y-95600383D01*
X139775000Y-95600541D01*
X139775099Y-95600500D01*
X141731901Y-95600500D01*
X141732000Y-95600541D01*
X141732383Y-95600383D01*
X141732500Y-95600099D01*
X141732541Y-95600000D01*
X141732500Y-95599901D01*
X141732500Y-95166174D01*
X145415000Y-95166174D01*
X145418450Y-95179049D01*
X145431326Y-95182500D01*
X146523674Y-95182500D01*
X146536549Y-95179049D01*
X146540000Y-95166174D01*
X147040000Y-95166174D01*
X147043450Y-95179049D01*
X147056326Y-95182500D01*
X148148674Y-95182500D01*
X148161549Y-95179049D01*
X148165000Y-95166174D01*
X148165000Y-94923169D01*
X148164680Y-94916891D01*
X148155194Y-94824042D01*
X148152912Y-94813381D01*
X152612002Y-94813381D01*
X152617913Y-94822659D01*
X153294957Y-95499703D01*
X153306500Y-95506367D01*
X153318042Y-95499703D01*
X153995082Y-94822662D01*
X154000996Y-94813379D01*
X153993565Y-94805270D01*
X153944348Y-94770808D01*
X153934996Y-94765409D01*
X153744680Y-94676664D01*
X153734556Y-94672978D01*
X153531713Y-94618626D01*
X153521081Y-94616752D01*
X153311895Y-94598451D01*
X153301105Y-94598451D01*
X153091918Y-94616752D01*
X153081286Y-94618626D01*
X152878449Y-94672977D01*
X152868315Y-94676665D01*
X152677998Y-94765412D01*
X152668654Y-94770806D01*
X152619436Y-94805268D01*
X152612002Y-94813381D01*
X148152912Y-94813381D01*
X148152375Y-94810875D01*
X148101629Y-94657733D01*
X148095567Y-94644734D01*
X148011109Y-94507806D01*
X148002205Y-94496545D01*
X147888454Y-94382794D01*
X147877193Y-94373890D01*
X147740265Y-94289432D01*
X147727266Y-94283370D01*
X147574124Y-94232624D01*
X147560957Y-94229805D01*
X147468108Y-94220319D01*
X147461831Y-94220000D01*
X147056326Y-94220000D01*
X147043450Y-94223450D01*
X147040000Y-94236326D01*
X147040000Y-95166174D01*
X146540000Y-95166174D01*
X146540000Y-94236326D01*
X146536549Y-94223450D01*
X146523674Y-94220000D01*
X146118169Y-94220000D01*
X146111891Y-94220319D01*
X146019042Y-94229805D01*
X146005875Y-94232624D01*
X145852733Y-94283370D01*
X145839734Y-94289432D01*
X145702806Y-94373890D01*
X145691545Y-94382794D01*
X145577794Y-94496545D01*
X145568890Y-94507806D01*
X145484432Y-94644734D01*
X145478370Y-94657733D01*
X145427624Y-94810875D01*
X145424805Y-94824042D01*
X145415319Y-94916891D01*
X145415000Y-94923169D01*
X145415000Y-95166174D01*
X141732500Y-95166174D01*
X141732500Y-93047305D01*
X152913427Y-93047305D01*
X152913560Y-93058479D01*
X152935877Y-93150470D01*
X152939725Y-93161588D01*
X153022080Y-93341921D01*
X153027968Y-93352119D01*
X153142963Y-93513606D01*
X153150672Y-93522503D01*
X153294158Y-93659317D01*
X153303399Y-93666584D01*
X153470185Y-93773771D01*
X153480643Y-93779163D01*
X153664701Y-93852849D01*
X153675984Y-93856162D01*
X153870665Y-93893682D01*
X153882366Y-93894800D01*
X154240174Y-93894800D01*
X154253049Y-93891349D01*
X154256500Y-93878474D01*
X154756500Y-93878474D01*
X154759950Y-93891349D01*
X154772826Y-93894800D01*
X155080950Y-93894800D01*
X155086839Y-93894519D01*
X155234742Y-93880396D01*
X155246293Y-93878169D01*
X155436526Y-93822312D01*
X155447432Y-93817946D01*
X155623659Y-93727095D01*
X155633555Y-93720735D01*
X155789394Y-93598182D01*
X155797908Y-93590064D01*
X155927743Y-93440227D01*
X155934562Y-93430650D01*
X156033691Y-93258953D01*
X156038579Y-93248250D01*
X156103424Y-93060895D01*
X156104779Y-93055311D01*
X156104193Y-93047118D01*
X156093536Y-93044800D01*
X154772826Y-93044800D01*
X154759950Y-93048250D01*
X154756500Y-93061126D01*
X154756500Y-93878474D01*
X154256500Y-93878474D01*
X154256500Y-93061126D01*
X154253049Y-93048250D01*
X154240174Y-93044800D01*
X152924319Y-93044800D01*
X152913427Y-93047305D01*
X141732500Y-93047305D01*
X141732500Y-92534288D01*
X152908220Y-92534288D01*
X152908806Y-92542481D01*
X152919464Y-92544800D01*
X154240174Y-92544800D01*
X154253049Y-92541349D01*
X154256500Y-92528474D01*
X154756500Y-92528474D01*
X154759950Y-92541349D01*
X154772826Y-92544800D01*
X156088681Y-92544800D01*
X156099572Y-92542294D01*
X156099439Y-92531120D01*
X156077122Y-92439129D01*
X156073274Y-92428011D01*
X155990919Y-92247678D01*
X155985031Y-92237480D01*
X155870036Y-92075993D01*
X155862327Y-92067096D01*
X155718841Y-91930282D01*
X155709600Y-91923015D01*
X155542814Y-91815828D01*
X155532356Y-91810436D01*
X155348298Y-91736750D01*
X155337015Y-91733437D01*
X155142334Y-91695917D01*
X155130634Y-91694800D01*
X154772826Y-91694800D01*
X154759950Y-91698250D01*
X154756500Y-91711126D01*
X154756500Y-92528474D01*
X154256500Y-92528474D01*
X154256500Y-91711126D01*
X154253049Y-91698250D01*
X154240174Y-91694800D01*
X153932050Y-91694800D01*
X153926160Y-91695080D01*
X153778257Y-91709203D01*
X153766706Y-91711430D01*
X153576473Y-91767287D01*
X153565567Y-91771653D01*
X153389340Y-91862504D01*
X153379444Y-91868864D01*
X153223605Y-91991417D01*
X153215091Y-91999535D01*
X153085256Y-92149372D01*
X153078437Y-92158949D01*
X152979308Y-92330646D01*
X152974420Y-92341349D01*
X152909575Y-92528704D01*
X152908220Y-92534288D01*
X141732500Y-92534288D01*
X141732500Y-89565918D01*
X151532600Y-89565918D01*
X151532953Y-89572514D01*
X151538173Y-89621067D01*
X151541711Y-89636041D01*
X151586147Y-89755177D01*
X151594562Y-89770589D01*
X151670098Y-89871492D01*
X151682507Y-89883901D01*
X151783410Y-89959437D01*
X151798822Y-89967852D01*
X151917958Y-90012288D01*
X151932932Y-90015826D01*
X151981485Y-90021046D01*
X151988082Y-90021400D01*
X152616274Y-90021400D01*
X152629149Y-90017949D01*
X152632600Y-90005074D01*
X153132600Y-90005074D01*
X153136050Y-90017949D01*
X153148926Y-90021400D01*
X153777118Y-90021400D01*
X153783714Y-90021046D01*
X153832267Y-90015826D01*
X153847241Y-90012288D01*
X153966377Y-89967852D01*
X153981789Y-89959437D01*
X154082692Y-89883901D01*
X154095101Y-89871492D01*
X154170637Y-89770589D01*
X154179052Y-89755177D01*
X154223488Y-89636041D01*
X154227026Y-89621067D01*
X154232246Y-89572514D01*
X154232600Y-89565918D01*
X154232600Y-88937726D01*
X154229149Y-88924850D01*
X154216274Y-88921400D01*
X153148926Y-88921400D01*
X153136050Y-88924850D01*
X153132600Y-88937726D01*
X153132600Y-90005074D01*
X152632600Y-90005074D01*
X152632600Y-88937726D01*
X152629149Y-88924850D01*
X152616274Y-88921400D01*
X151548926Y-88921400D01*
X151536050Y-88924850D01*
X151532600Y-88937726D01*
X151532600Y-89565918D01*
X141732500Y-89565918D01*
X141732500Y-88405074D01*
X151532600Y-88405074D01*
X151536050Y-88417949D01*
X151548926Y-88421400D01*
X152616274Y-88421400D01*
X152629149Y-88417949D01*
X152632600Y-88405074D01*
X153132600Y-88405074D01*
X153136050Y-88417949D01*
X153148926Y-88421400D01*
X154216274Y-88421400D01*
X154229149Y-88417949D01*
X154232600Y-88405074D01*
X154232600Y-87776882D01*
X154232246Y-87770285D01*
X154227026Y-87721732D01*
X154223488Y-87706758D01*
X154179052Y-87587622D01*
X154170637Y-87572210D01*
X154095101Y-87471307D01*
X154082692Y-87458898D01*
X153981789Y-87383362D01*
X153966377Y-87374947D01*
X153847241Y-87330511D01*
X153832267Y-87326973D01*
X153783714Y-87321753D01*
X153777118Y-87321400D01*
X153148926Y-87321400D01*
X153136050Y-87324850D01*
X153132600Y-87337726D01*
X153132600Y-88405074D01*
X152632600Y-88405074D01*
X152632600Y-87337726D01*
X152629149Y-87324850D01*
X152616274Y-87321400D01*
X151988082Y-87321400D01*
X151981485Y-87321753D01*
X151932932Y-87326973D01*
X151917958Y-87330511D01*
X151798822Y-87374947D01*
X151783410Y-87383362D01*
X151682507Y-87458898D01*
X151670098Y-87471307D01*
X151594562Y-87572210D01*
X151586147Y-87587622D01*
X151541711Y-87706758D01*
X151538173Y-87721732D01*
X151532953Y-87770285D01*
X151532600Y-87776882D01*
X151532600Y-88405074D01*
X141732500Y-88405074D01*
X141732500Y-86230500D01*
X141749113Y-86168500D01*
X141794500Y-86123113D01*
X141856500Y-86106500D01*
X159456500Y-86106500D01*
X159518500Y-86123113D01*
G37*
%TD.AperFunction*%
%TA.AperFunction,Conductor*%
G36*
X135087754Y-86117094D02*
G01*
X135133154Y-86162313D01*
X135149917Y-86224159D01*
X135174080Y-93423284D01*
X135157607Y-93485460D01*
X135112201Y-93531018D01*
X135050081Y-93547700D01*
X132500097Y-93547700D01*
X132499995Y-93547659D01*
X132499780Y-93547749D01*
X132499617Y-93547817D01*
X132499616Y-93547819D01*
X132499614Y-93547820D01*
X132499535Y-93548015D01*
X132499459Y-93548200D01*
X132499500Y-93548301D01*
X132499596Y-93559436D01*
X132499596Y-93559437D01*
X132516545Y-95523621D01*
X132512325Y-95556783D01*
X132512253Y-95557050D01*
X132507880Y-95557050D01*
X132507880Y-95573373D01*
X132507880Y-95843902D01*
X132501299Y-95883761D01*
X132482255Y-95919389D01*
X132431801Y-95985139D01*
X132431796Y-95985145D01*
X132426853Y-95991589D01*
X132423744Y-95999093D01*
X132423742Y-95999098D01*
X132372730Y-96122252D01*
X132372728Y-96122257D01*
X132369620Y-96129762D01*
X132368560Y-96137813D01*
X132368558Y-96137821D01*
X132356437Y-96229895D01*
X132350099Y-96278040D01*
X132351160Y-96286099D01*
X132368558Y-96418258D01*
X132368559Y-96418264D01*
X132369620Y-96426318D01*
X132372729Y-96433824D01*
X132372730Y-96433827D01*
X132422252Y-96553382D01*
X132426853Y-96564490D01*
X132481106Y-96635194D01*
X132482256Y-96636692D01*
X132501299Y-96672320D01*
X132507880Y-96712179D01*
X132507880Y-96915782D01*
X132501299Y-96955641D01*
X132482255Y-96991269D01*
X132431801Y-97057019D01*
X132431796Y-97057025D01*
X132426853Y-97063469D01*
X132423744Y-97070973D01*
X132423742Y-97070978D01*
X132372730Y-97194132D01*
X132372728Y-97194137D01*
X132369620Y-97201642D01*
X132368560Y-97209693D01*
X132368558Y-97209701D01*
X132351521Y-97339111D01*
X132350099Y-97349920D01*
X132351160Y-97357979D01*
X132368558Y-97490138D01*
X132368559Y-97490144D01*
X132369620Y-97498198D01*
X132372729Y-97505704D01*
X132372730Y-97505707D01*
X132421253Y-97622850D01*
X132426853Y-97636370D01*
X132431798Y-97642814D01*
X132431799Y-97642816D01*
X132482256Y-97708572D01*
X132501299Y-97744200D01*
X132507880Y-97784059D01*
X132507880Y-97987662D01*
X132501299Y-98027521D01*
X132482255Y-98063149D01*
X132431801Y-98128899D01*
X132431796Y-98128905D01*
X132426853Y-98135349D01*
X132423744Y-98142853D01*
X132423742Y-98142858D01*
X132372730Y-98266012D01*
X132372728Y-98266017D01*
X132369620Y-98273522D01*
X132368560Y-98281573D01*
X132368558Y-98281581D01*
X132357714Y-98363955D01*
X132350099Y-98421800D01*
X132351160Y-98429859D01*
X132351160Y-98437985D01*
X132349797Y-98437985D01*
X132340551Y-98498056D01*
X132294794Y-98550231D01*
X132228169Y-98569650D01*
X125423085Y-98569650D01*
X125361167Y-98553085D01*
X125315793Y-98507815D01*
X125299085Y-98445935D01*
X125299067Y-98437985D01*
X125285883Y-92706856D01*
X126570443Y-92706856D01*
X126578329Y-92718119D01*
X126819822Y-92913675D01*
X126825076Y-92917492D01*
X127144871Y-93125170D01*
X127150492Y-93128416D01*
X127490254Y-93301533D01*
X127496178Y-93304170D01*
X127852182Y-93440828D01*
X127858335Y-93442827D01*
X128226675Y-93541523D01*
X128233017Y-93542871D01*
X128609646Y-93602523D01*
X128616089Y-93603200D01*
X128996894Y-93623158D01*
X129003382Y-93623158D01*
X129384186Y-93603200D01*
X129390629Y-93602523D01*
X129767258Y-93542871D01*
X129773600Y-93541523D01*
X130141940Y-93442827D01*
X130148093Y-93440828D01*
X130504097Y-93304170D01*
X130510021Y-93301533D01*
X130849783Y-93128416D01*
X130855404Y-93125170D01*
X131175199Y-92917492D01*
X131180453Y-92913675D01*
X131421944Y-92718120D01*
X131429831Y-92706856D01*
X131423165Y-92694830D01*
X129011680Y-90283345D01*
X129000137Y-90276681D01*
X128988595Y-90283345D01*
X126577109Y-92694830D01*
X126570443Y-92706856D01*
X125285883Y-92706856D01*
X125282480Y-91227334D01*
X125300973Y-91161903D01*
X125351192Y-91116059D01*
X125418036Y-91103591D01*
X125481405Y-91128247D01*
X125522244Y-91182613D01*
X125614217Y-91422209D01*
X125616854Y-91428133D01*
X125789971Y-91767895D01*
X125793217Y-91773516D01*
X126000895Y-92093311D01*
X126004712Y-92098565D01*
X126200267Y-92340057D01*
X126211530Y-92347943D01*
X126223556Y-92341277D01*
X128635042Y-89929792D01*
X128641706Y-89918249D01*
X129358569Y-89918249D01*
X129365233Y-89929792D01*
X131776718Y-92341277D01*
X131788744Y-92347943D01*
X131800008Y-92340056D01*
X131995563Y-92098565D01*
X131999380Y-92093311D01*
X132207058Y-91773516D01*
X132210304Y-91767895D01*
X132383421Y-91428133D01*
X132386058Y-91422209D01*
X132522716Y-91066205D01*
X132524715Y-91060052D01*
X132623411Y-90691712D01*
X132624759Y-90685370D01*
X132684411Y-90308741D01*
X132685088Y-90302298D01*
X132705046Y-89921494D01*
X132705046Y-89915006D01*
X132685088Y-89534201D01*
X132684411Y-89527758D01*
X132624759Y-89151129D01*
X132623411Y-89144787D01*
X132524715Y-88776447D01*
X132522716Y-88770294D01*
X132386058Y-88414290D01*
X132383421Y-88408366D01*
X132210304Y-88068604D01*
X132207058Y-88062983D01*
X131999380Y-87743188D01*
X131995563Y-87737934D01*
X131800007Y-87496441D01*
X131788744Y-87488555D01*
X131776718Y-87495221D01*
X129365233Y-89906707D01*
X129358569Y-89918249D01*
X128641706Y-89918249D01*
X128635042Y-89906707D01*
X126223556Y-87495221D01*
X126211531Y-87488555D01*
X126200265Y-87496444D01*
X126004716Y-87737928D01*
X126000894Y-87743189D01*
X125793217Y-88062983D01*
X125789971Y-88068604D01*
X125616854Y-88408366D01*
X125614217Y-88414290D01*
X125516259Y-88669479D01*
X125475511Y-88723776D01*
X125412278Y-88748480D01*
X125345514Y-88736185D01*
X125295229Y-88690577D01*
X125276495Y-88625326D01*
X125276018Y-88417949D01*
X125270986Y-86230705D01*
X125287491Y-86168610D01*
X125332860Y-86123109D01*
X125394908Y-86106423D01*
X127994306Y-86104845D01*
X128051582Y-86118827D01*
X128095927Y-86157680D01*
X128117315Y-86212622D01*
X128110911Y-86271232D01*
X128078163Y-86320259D01*
X128026474Y-86348620D01*
X127858335Y-86393672D01*
X127852182Y-86395671D01*
X127496178Y-86532329D01*
X127490254Y-86534966D01*
X127150492Y-86708083D01*
X127144871Y-86711329D01*
X126825077Y-86919006D01*
X126819816Y-86922828D01*
X126578332Y-87118377D01*
X126570443Y-87129643D01*
X126577109Y-87141668D01*
X128988595Y-89553154D01*
X129000137Y-89559818D01*
X129011680Y-89553154D01*
X131423165Y-87141668D01*
X131429831Y-87129642D01*
X131421945Y-87118379D01*
X131180453Y-86922824D01*
X131175199Y-86919007D01*
X130855404Y-86711329D01*
X130849783Y-86708083D01*
X130510021Y-86534966D01*
X130504097Y-86532329D01*
X130148093Y-86395671D01*
X130141945Y-86393674D01*
X129969252Y-86347401D01*
X129917582Y-86319057D01*
X129884833Y-86270060D01*
X129878402Y-86211478D01*
X129899742Y-86156544D01*
X129944034Y-86117666D01*
X130001269Y-86103626D01*
X135025843Y-86100575D01*
X135087754Y-86117094D01*
G37*
%TD.AperFunction*%
%TD*%
M02*
