M48
; DRILL file {KiCad (7.0.0)} date Fri Mar  3 15:02:17 2023
; FORMAT={-:-/ absolute / inch / decimal}
; #@! TF.CreationDate,2023-03-03T15:02:17-06:00
; #@! TF.GenerationSoftware,Kicad,Pcbnew,(7.0.0)
; #@! TF.FileFunction,Plated,1,2,PTH
FMAT,2
INCH
; #@! TA.AperFunction,Plated,PTH,ViaDrill
T1C0.0157
; #@! TA.AperFunction,Plated,PTH,ComponentDrill
T2C0.0197
; #@! TA.AperFunction,Plated,PTH,ComponentDrill
T3C0.0256
; #@! TA.AperFunction,Plated,PTH,ComponentDrill
T4C0.0362
; #@! TA.AperFunction,Plated,PTH,ComponentDrill
T5C0.0394
; #@! TA.AperFunction,Plated,PTH,ComponentDrill
T6C0.1260
%
G90
G05
T1
X5.703Y-3.409
X5.703Y-3.4772
X5.703Y-3.5454
X5.703Y-3.6136
X5.703Y-3.6818
X5.703Y-3.75
X5.703Y-4.083
X5.703Y-4.1502
X5.703Y-4.2174
X5.703Y-4.2846
X5.703Y-4.3518
X5.703Y-4.419
T2
X4.9843Y-3.5401
X4.9843Y-4.2901
X5.0119Y-3.4733
X5.0119Y-3.6069
X5.0119Y-4.2233
X5.0119Y-4.3569
X5.0787Y-3.4456
X5.0787Y-3.6346
X5.0787Y-4.1956
X5.0787Y-4.3846
X5.1456Y-3.4733
X5.1456Y-3.6069
X5.1456Y-4.2233
X5.1456Y-4.3569
X5.1732Y-3.5401
X5.1732Y-4.2901
T4
X6.0357Y-3.7742
X6.0357Y-3.8726
X6.0357Y-3.9514
X6.0357Y-4.0498
T5
X5.9013Y-3.8624
X5.9013Y-3.9624
X6.019Y-3.491
X6.019Y-4.344
T6
X5.0787Y-3.5401
X5.0787Y-4.2901
T3
G00X6.0632Y-3.6533
M15
G01X6.1026Y-3.6533
M16
G05
G00X6.0632Y-4.1707
M15
G01X6.1026Y-4.1707
M16
G05
T0
M30
