M48
; DRILL file {KiCad 8.0.3} date 2024-07-10T14:42:51-0500
; FORMAT={-:-/ absolute / inch / decimal}
; #@! TF.CreationDate,2024-07-10T14:42:51-05:00
; #@! TF.GenerationSoftware,Kicad,Pcbnew,8.0.3
; #@! TF.FileFunction,Plated,1,2,PTH
FMAT,2
INCH
; #@! TA.AperFunction,Plated,PTH,ViaDrill
T1C0.0157
; #@! TA.AperFunction,Plated,PTH,ComponentDrill
T2C0.0197
; #@! TA.AperFunction,Plated,PTH,ComponentDrill
T3C0.0394
; #@! TA.AperFunction,Plated,PTH,ComponentDrill
T4C0.1260
%
G90
G05
T1
X5.703Y-3.409
X5.703Y-3.4772
X5.703Y-3.5454
X5.703Y-3.6136
X5.703Y-3.6818
X5.703Y-3.75
X5.703Y-4.083
X5.703Y-4.1502
X5.703Y-4.2174
X5.703Y-4.2846
X5.703Y-4.3518
X5.703Y-4.419
T2
X4.9843Y-3.5401
X4.9843Y-4.2901
X5.0119Y-3.4733
X5.0119Y-3.6069
X5.0119Y-4.2233
X5.0119Y-4.3569
X5.0787Y-3.4456
X5.0787Y-3.6346
X5.0787Y-4.1956
X5.0787Y-4.3846
X5.1456Y-3.4733
X5.1456Y-3.6069
X5.1456Y-4.2233
X5.1456Y-4.3569
X5.1732Y-3.5401
X5.1732Y-4.2901
T3
X6.019Y-3.491
X6.019Y-4.344
T4
X5.0787Y-3.5401
X5.0787Y-4.2901
M30
