%TF.GenerationSoftware,KiCad,Pcbnew,8.0.3*%
%TF.CreationDate,2024-07-10T14:42:46-05:00*%
%TF.ProjectId,banana to jst ph,62616e61-6e61-4207-946f-206a73742070,2*%
%TF.SameCoordinates,Original*%
%TF.FileFunction,Soldermask,Top*%
%TF.FilePolarity,Negative*%
%FSLAX46Y46*%
G04 Gerber Fmt 4.6, Leading zero omitted, Abs format (unit mm)*
G04 Created by KiCad (PCBNEW 8.0.3) date 2024-07-10 14:42:46*
%MOMM*%
%LPD*%
G01*
G04 APERTURE LIST*
G04 Aperture macros list*
%AMRoundRect*
0 Rectangle with rounded corners*
0 $1 Rounding radius*
0 $2 $3 $4 $5 $6 $7 $8 $9 X,Y pos of 4 corners*
0 Add a 4 corners polygon primitive as box body*
4,1,4,$2,$3,$4,$5,$6,$7,$8,$9,$2,$3,0*
0 Add four circle primitives for the rounded corners*
1,1,$1+$1,$2,$3*
1,1,$1+$1,$4,$5*
1,1,$1+$1,$6,$7*
1,1,$1+$1,$8,$9*
0 Add four rect primitives between the rounded corners*
20,1,$1+$1,$2,$3,$4,$5,0*
20,1,$1+$1,$4,$5,$6,$7,0*
20,1,$1+$1,$6,$7,$8,$9,0*
20,1,$1+$1,$8,$9,$2,$3,0*%
G04 Aperture macros list end*
%ADD10C,0.150000*%
%ADD11C,0.635000*%
%ADD12R,1.700000X1.700000*%
%ADD13C,0.800000*%
%ADD14C,6.400000*%
%ADD15RoundRect,0.250000X1.500000X-0.250000X1.500000X0.250000X-1.500000X0.250000X-1.500000X-0.250000X0*%
%ADD16RoundRect,0.250001X1.449999X-0.499999X1.449999X0.499999X-1.449999X0.499999X-1.449999X-0.499999X0*%
%ADD17RoundRect,0.250000X0.625000X-0.400000X0.625000X0.400000X-0.625000X0.400000X-0.625000X-0.400000X0*%
%ADD18RoundRect,0.250001X-0.624999X0.462499X-0.624999X-0.462499X0.624999X-0.462499X0.624999X0.462499X0*%
G04 APERTURE END LIST*
D10*
X132020200Y-105377200D02*
X137220000Y-105377200D01*
X137220000Y-112540000D01*
X132020200Y-112540000D01*
X132020200Y-105377200D01*
G36*
X132020200Y-105377200D02*
G01*
X137220000Y-105377200D01*
X137220000Y-112540000D01*
X132020200Y-112540000D01*
X132020200Y-105377200D01*
G37*
X137433800Y-103528400D02*
X144373600Y-103528400D01*
X144373600Y-112972400D01*
X137433800Y-112972400D01*
X137433800Y-103528400D01*
G36*
X137433800Y-103528400D02*
G01*
X144373600Y-103528400D01*
X144373600Y-112972400D01*
X137433800Y-112972400D01*
X137433800Y-103528400D01*
G37*
X132045700Y-86212200D02*
X137245500Y-86212200D01*
X137245500Y-93375000D01*
X132045700Y-93375000D01*
X132045700Y-86212200D01*
G36*
X132045700Y-86212200D02*
G01*
X137245500Y-86212200D01*
X137245500Y-93375000D01*
X132045700Y-93375000D01*
X132045700Y-86212200D01*
G37*
X137384600Y-86058000D02*
X144424400Y-86058000D01*
X144424400Y-95520600D01*
X137384600Y-95520600D01*
X137384600Y-86058000D01*
G36*
X137384600Y-86058000D02*
G01*
X144424400Y-86058000D01*
X144424400Y-95520600D01*
X137384600Y-95520600D01*
X137384600Y-86058000D01*
G37*
D11*
%TO.C,*%
X136890000Y-96122884D03*
%TD*%
%TO.C,REF\u002A\u002A*%
X132891494Y-99346800D03*
%TD*%
D12*
%TO.C,J3*%
X152882600Y-88671400D03*
%TD*%
D11*
%TO.C,REF\u002A\u002A*%
X132891494Y-102853108D03*
%TD*%
D13*
%TO.C,H1*%
X126600138Y-108968250D03*
X127303082Y-107271194D03*
X127303082Y-110665306D03*
X129000138Y-106568250D03*
D14*
X129000138Y-108968250D03*
D13*
X129000138Y-111368250D03*
X130697194Y-107271194D03*
X130697194Y-110665306D03*
X131400138Y-108968250D03*
%TD*%
D11*
%TO.C,REF\u002A\u002A*%
X132891494Y-96228040D03*
%TD*%
D15*
%TO.C,J1*%
X151836000Y-100568000D03*
X151836000Y-98568000D03*
D16*
X157586000Y-102918000D03*
X157586000Y-96218000D03*
%TD*%
D11*
%TO.C,REF\u002A\u002A*%
X128300000Y-99290000D03*
%TD*%
%TO.C,REF\u002A\u002A*%
X127138494Y-99290000D03*
%TD*%
%TO.C,REF\u002A\u002A*%
X129461506Y-99290000D03*
%TD*%
D12*
%TO.C,J2*%
X152882600Y-110337600D03*
%TD*%
D11*
%TO.C,REF\u002A\u002A*%
X130623012Y-99290000D03*
%TD*%
D17*
%TO.C,R1*%
X146790000Y-103820000D03*
X146790000Y-100720000D03*
%TD*%
D11*
%TO.C,REF\u002A\u002A*%
X132891494Y-100580156D03*
%TD*%
%TO.C,REF\u002A\u002A*%
X131784518Y-99290000D03*
%TD*%
%TO.C,*%
X136890000Y-102747952D03*
%TD*%
%TO.C,REF\u002A\u002A*%
X125976988Y-99290000D03*
%TD*%
D13*
%TO.C,H2*%
X126600138Y-89918250D03*
X127303082Y-88221194D03*
X127303082Y-91615306D03*
X129000138Y-87518250D03*
D14*
X129000138Y-89918250D03*
D13*
X129000138Y-92318250D03*
X130697194Y-88221194D03*
X130697194Y-91615306D03*
X131400138Y-89918250D03*
%TD*%
D11*
%TO.C,*%
X136890000Y-97194764D03*
%TD*%
%TO.C,REF\u002A\u002A*%
X132891494Y-97299920D03*
%TD*%
%TO.C,*%
X136890000Y-99313124D03*
%TD*%
%TO.C,*%
X136890000Y-101611476D03*
%TD*%
%TO.C,REF\u002A\u002A*%
X132891494Y-101716632D03*
%TD*%
%TO.C,*%
X136890000Y-98266644D03*
%TD*%
%TO.C,REF\u002A\u002A*%
X132891494Y-98371800D03*
%TD*%
%TO.C,*%
X136890000Y-100475000D03*
%TD*%
D18*
%TO.C,D1*%
X146790000Y-95432500D03*
X146790000Y-98407500D03*
%TD*%
M02*
