%TF.GenerationSoftware,KiCad,Pcbnew,8.0.1*%
%TF.CreationDate,2024-04-06T16:57:38-05:00*%
%TF.ProjectId,Banana to Barrel Jack Adapter,42616e61-6e61-4207-946f-204261727265,2*%
%TF.SameCoordinates,Original*%
%TF.FileFunction,Legend,Bot*%
%TF.FilePolarity,Positive*%
%FSLAX46Y46*%
G04 Gerber Fmt 4.6, Leading zero omitted, Abs format (unit mm)*
G04 Created by KiCad (PCBNEW 8.0.1) date 2024-04-06 16:57:38*
%MOMM*%
%LPD*%
G01*
G04 APERTURE LIST*
%ADD10C,0.150000*%
%ADD11C,0.300000*%
%ADD12C,0.120000*%
%ADD13C,0.500000*%
G04 APERTURE END LIST*
G36*
X127750000Y-95650000D02*
G01*
X129050000Y-95650000D01*
X129050000Y-95750000D01*
X127750000Y-95750000D01*
X127750000Y-95650000D01*
G37*
G36*
X127750000Y-96750000D02*
G01*
X129050000Y-96750000D01*
X129050000Y-96850000D01*
X127750000Y-96850000D01*
X127750000Y-96750000D01*
G37*
D10*
X131725000Y-95925000D02*
X131725000Y-96275000D01*
X131725000Y-95950000D02*
X131725000Y-95925000D01*
X131725000Y-103175000D02*
X131900000Y-103000000D01*
X131725000Y-96275000D02*
X131900000Y-96100000D01*
X131725000Y-95925000D02*
X131900000Y-96100000D01*
X131725000Y-102825000D02*
X131725000Y-103175000D01*
G36*
X127750000Y-95675000D02*
G01*
X128200000Y-95675000D01*
X128200000Y-96825000D01*
X127750000Y-96825000D01*
X127750000Y-95675000D01*
G37*
G36*
X146850000Y-88750000D02*
G01*
X147550000Y-88750000D01*
X147550000Y-90900000D01*
X146850000Y-90900000D01*
X146850000Y-88750000D01*
G37*
G36*
X128550000Y-95675000D02*
G01*
X129050000Y-95675000D01*
X129050000Y-96825000D01*
X128550000Y-96825000D01*
X128550000Y-95675000D01*
G37*
X131725000Y-102850000D02*
X131725000Y-102825000D01*
G36*
X148100000Y-88750000D02*
G01*
X148800000Y-88750000D01*
X148800000Y-90900000D01*
X148100000Y-90900000D01*
X148100000Y-88750000D01*
G37*
G36*
X146850000Y-90700000D02*
G01*
X148750000Y-90700000D01*
X148750000Y-90900000D01*
X146850000Y-90900000D01*
X146850000Y-90700000D01*
G37*
G36*
X146850000Y-88750000D02*
G01*
X148750000Y-88750000D01*
X148750000Y-88950000D01*
X146850000Y-88950000D01*
X146850000Y-88750000D01*
G37*
X131725000Y-102825000D02*
X131900000Y-103000000D01*
D11*
X147654510Y-106320600D02*
X148797368Y-106320600D01*
X148225939Y-105749171D02*
X148225939Y-106892028D01*
D10*
G36*
X148958601Y-110215724D02*
G01*
X146843230Y-110215724D01*
X146843230Y-109172670D01*
X147065452Y-109172670D01*
X147076651Y-109199706D01*
X147097343Y-109220398D01*
X147124379Y-109231597D01*
X147139011Y-109233038D01*
X147826698Y-109232393D01*
X147827356Y-109934575D01*
X147838555Y-109961611D01*
X147859247Y-109982303D01*
X147886283Y-109993502D01*
X147915547Y-109993502D01*
X147942583Y-109982303D01*
X147963275Y-109961611D01*
X147974474Y-109934575D01*
X147975915Y-109919943D01*
X147975270Y-109232254D01*
X148677452Y-109231597D01*
X148704488Y-109220398D01*
X148725180Y-109199706D01*
X148736379Y-109172670D01*
X148736379Y-109143406D01*
X148725180Y-109116370D01*
X148704488Y-109095678D01*
X148677452Y-109084479D01*
X148662820Y-109083038D01*
X147975131Y-109083682D01*
X147974474Y-108381501D01*
X147963275Y-108354465D01*
X147942583Y-108333773D01*
X147915547Y-108322574D01*
X147886283Y-108322574D01*
X147859247Y-108333773D01*
X147838555Y-108354465D01*
X147827356Y-108381501D01*
X147825915Y-108396133D01*
X147826559Y-109083821D01*
X147124379Y-109084479D01*
X147097343Y-109095678D01*
X147076651Y-109116370D01*
X147065452Y-109143406D01*
X147065452Y-109172670D01*
X146843230Y-109172670D01*
X146843230Y-108100352D01*
X148958601Y-108100352D01*
X148958601Y-110215724D01*
G37*
G36*
X148136288Y-90881506D02*
G01*
X147541844Y-90881506D01*
X147541844Y-89061916D01*
X147764066Y-89061916D01*
X147765507Y-90600357D01*
X147776706Y-90627393D01*
X147797398Y-90648085D01*
X147824434Y-90659284D01*
X147853698Y-90659284D01*
X147880734Y-90648085D01*
X147901426Y-90627393D01*
X147912625Y-90600357D01*
X147914066Y-90585725D01*
X147912625Y-89047284D01*
X147901426Y-89020248D01*
X147880734Y-88999556D01*
X147853698Y-88988357D01*
X147824434Y-88988357D01*
X147797398Y-88999556D01*
X147776706Y-89020248D01*
X147765507Y-89047284D01*
X147764066Y-89061916D01*
X147541844Y-89061916D01*
X147541844Y-88766135D01*
X148136288Y-88766135D01*
X148136288Y-90881506D01*
G37*
G36*
X156612990Y-111538936D02*
G01*
X156573804Y-111536619D01*
X156534237Y-111524822D01*
X156507477Y-111507477D01*
X156482681Y-111475167D01*
X156471012Y-111435898D01*
X156469180Y-111408803D01*
X156474313Y-111368311D01*
X156481099Y-111349989D01*
X156503374Y-111316687D01*
X156512752Y-111307589D01*
X156545799Y-111286376D01*
X156558475Y-111281210D01*
X156597144Y-111272148D01*
X156612990Y-111270855D01*
X156612990Y-111538936D01*
G37*
G36*
X156612990Y-110981671D02*
G01*
X156573804Y-110979355D01*
X156534237Y-110967558D01*
X156507477Y-110950213D01*
X156482681Y-110917903D01*
X156471012Y-110878633D01*
X156469180Y-110851538D01*
X156474313Y-110811047D01*
X156481099Y-110792725D01*
X156503374Y-110759422D01*
X156512752Y-110750324D01*
X156545799Y-110729112D01*
X156558475Y-110723946D01*
X156597144Y-110714883D01*
X156612990Y-110713590D01*
X156612990Y-110981671D01*
G37*
G36*
X157028764Y-109327515D02*
G01*
X157044811Y-109349543D01*
X157057367Y-109386803D01*
X157062532Y-109427433D01*
X157063178Y-109450757D01*
X157060917Y-109490757D01*
X157055167Y-109519731D01*
X157039735Y-109556525D01*
X157034260Y-109564476D01*
X157004169Y-109588901D01*
X156968803Y-109596326D01*
X156930950Y-109582800D01*
X156920150Y-109570143D01*
X156905379Y-109532739D01*
X156901782Y-109499605D01*
X156897484Y-109371622D01*
X156923471Y-109342704D01*
X156946723Y-109324923D01*
X156968803Y-109315739D01*
X156991273Y-109313395D01*
X157028764Y-109327515D01*
G37*
G36*
X156614472Y-109346456D02*
G01*
X156648747Y-109368105D01*
X156669634Y-109403872D01*
X156675490Y-109442767D01*
X156675516Y-109445872D01*
X156670098Y-109484728D01*
X156667309Y-109492376D01*
X156644644Y-109525202D01*
X156611231Y-109544351D01*
X156571762Y-109550799D01*
X156531055Y-109544702D01*
X156496339Y-109523053D01*
X156475969Y-109489445D01*
X156469286Y-109450421D01*
X156469180Y-109444113D01*
X156475161Y-109404469D01*
X156477581Y-109398196D01*
X156500833Y-109365760D01*
X156534832Y-109346612D01*
X156573583Y-109340365D01*
X156574888Y-109340359D01*
X156614472Y-109346456D01*
G37*
G36*
X156612990Y-108464211D02*
G01*
X156573804Y-108461895D01*
X156534237Y-108450098D01*
X156507477Y-108432753D01*
X156482681Y-108400443D01*
X156471012Y-108361173D01*
X156469180Y-108334079D01*
X156474313Y-108293587D01*
X156481099Y-108275265D01*
X156503374Y-108241962D01*
X156512752Y-108232864D01*
X156545799Y-108211652D01*
X156558475Y-108206486D01*
X156597144Y-108197423D01*
X156612990Y-108196130D01*
X156612990Y-108464211D01*
G37*
G36*
X157956990Y-108364952D02*
G01*
X157917804Y-108362635D01*
X157878237Y-108350838D01*
X157851477Y-108333493D01*
X157826681Y-108301183D01*
X157815012Y-108261914D01*
X157813180Y-108234819D01*
X157818313Y-108194327D01*
X157825099Y-108176005D01*
X157847374Y-108142703D01*
X157856752Y-108133605D01*
X157889799Y-108112392D01*
X157902475Y-108107227D01*
X157941144Y-108098164D01*
X157956990Y-108096871D01*
X157956990Y-108364952D01*
G37*
G36*
X156708316Y-107609202D02*
G01*
X156742732Y-107613269D01*
X156780925Y-107622522D01*
X156807212Y-107633395D01*
X156839345Y-107656155D01*
X156852348Y-107671301D01*
X156867338Y-107707549D01*
X156869347Y-107730701D01*
X156864462Y-107765481D01*
X156847658Y-107799871D01*
X156822867Y-107830659D01*
X156817177Y-107836605D01*
X156787321Y-107864219D01*
X156771064Y-107877442D01*
X156570785Y-107877442D01*
X156539012Y-107850102D01*
X156511599Y-107821290D01*
X156499856Y-107806123D01*
X156481538Y-107771148D01*
X156475432Y-107734609D01*
X156481996Y-107695255D01*
X156492236Y-107675600D01*
X156520152Y-107646710D01*
X156536200Y-107636326D01*
X156573218Y-107620725D01*
X156598140Y-107614441D01*
X156637419Y-107608912D01*
X156668482Y-107607603D01*
X156708316Y-107609202D01*
G37*
G36*
X156831812Y-106820372D02*
G01*
X156852934Y-106836186D01*
X156871859Y-106872078D01*
X156875600Y-106904574D01*
X156869262Y-106945176D01*
X156857623Y-106970813D01*
X156832912Y-107004082D01*
X156804445Y-107032805D01*
X156802131Y-107034902D01*
X156697400Y-107034902D01*
X156697400Y-106957330D01*
X156699673Y-106916457D01*
X156703848Y-106892460D01*
X156717315Y-106855322D01*
X156722411Y-106846933D01*
X156752110Y-106820164D01*
X156790376Y-106811770D01*
X156791775Y-106811762D01*
X156831812Y-106820372D01*
G37*
G36*
X156805768Y-106282139D02*
G01*
X156833181Y-106310969D01*
X156844923Y-106326012D01*
X156863241Y-106360743D01*
X156869347Y-106396940D01*
X156862783Y-106435622D01*
X156852543Y-106455167D01*
X156824358Y-106484141D01*
X156808189Y-106494441D01*
X156770987Y-106510042D01*
X156746249Y-106516326D01*
X156707251Y-106522013D01*
X156676493Y-106523360D01*
X156636201Y-106521705D01*
X156601657Y-106517498D01*
X156563429Y-106508341D01*
X156537372Y-106497372D01*
X156505411Y-106474612D01*
X156492431Y-106459466D01*
X156477092Y-106421685D01*
X156475432Y-106400848D01*
X156480512Y-106366067D01*
X156497316Y-106331483D01*
X156521969Y-106300833D01*
X156527602Y-106294944D01*
X156557559Y-106267683D01*
X156574106Y-106254497D01*
X156773995Y-106254497D01*
X156805768Y-106282139D01*
G37*
G36*
X156728616Y-105457370D02*
G01*
X156750938Y-105467254D01*
X156771403Y-105502435D01*
X156772431Y-105516688D01*
X156768133Y-105543457D01*
X156754455Y-105572571D01*
X156731344Y-105604129D01*
X156730422Y-105605202D01*
X156703693Y-105634521D01*
X156695055Y-105643499D01*
X156553004Y-105669878D01*
X156520834Y-105647333D01*
X156500052Y-105626891D01*
X156482833Y-105590657D01*
X156481685Y-105577065D01*
X156490832Y-105538806D01*
X156492822Y-105535251D01*
X156519178Y-105504568D01*
X156521350Y-105502815D01*
X156555373Y-105482021D01*
X156560819Y-105479564D01*
X156598913Y-105465911D01*
X156606151Y-105463932D01*
X156645602Y-105456025D01*
X156651092Y-105455335D01*
X156689584Y-105452795D01*
X156728616Y-105457370D01*
G37*
G36*
X158380394Y-112143470D02*
G01*
X156083291Y-112143470D01*
X156083291Y-111982481D01*
X156397274Y-111982481D01*
X156398056Y-111998698D01*
X156400987Y-112017651D01*
X156405872Y-112035432D01*
X156411343Y-112046765D01*
X156416618Y-112051064D01*
X156422871Y-112053018D01*
X156433813Y-112054190D01*
X156453548Y-112054581D01*
X156473674Y-112053995D01*
X156486374Y-112051650D01*
X156493408Y-112047547D01*
X156495949Y-112040708D01*
X156493408Y-112029961D01*
X156488524Y-112015698D01*
X156483834Y-111997917D01*
X156481685Y-111976423D01*
X156487547Y-111949459D01*
X156506500Y-111921713D01*
X156536142Y-111895213D01*
X156541475Y-111891231D01*
X156574234Y-111868944D01*
X156594818Y-111856060D01*
X156918000Y-111856060D01*
X156925425Y-111853911D01*
X156930701Y-111846681D01*
X156934023Y-111833004D01*
X156935000Y-111810534D01*
X156934023Y-111788454D01*
X156930701Y-111774386D01*
X156925425Y-111767351D01*
X156918000Y-111765397D01*
X156426779Y-111765397D01*
X156419354Y-111766961D01*
X156413883Y-111773604D01*
X156410561Y-111786305D01*
X156409780Y-111806626D01*
X156410561Y-111826751D01*
X156413883Y-111839061D01*
X156419354Y-111845314D01*
X156426779Y-111847268D01*
X156498293Y-111847268D01*
X156465533Y-111870503D01*
X156447882Y-111885370D01*
X156420890Y-111914174D01*
X156417205Y-111919173D01*
X156401573Y-111950827D01*
X156397274Y-111982481D01*
X156083291Y-111982481D01*
X156083291Y-111412711D01*
X156397274Y-111412711D01*
X156399885Y-111453936D01*
X156408604Y-111493077D01*
X156415837Y-111511776D01*
X156436030Y-111547024D01*
X156463721Y-111577524D01*
X156465662Y-111579187D01*
X156499661Y-111602048D01*
X156536504Y-111617092D01*
X156539131Y-111617875D01*
X156579986Y-111626710D01*
X156620442Y-111630076D01*
X156629403Y-111630185D01*
X156645621Y-111630185D01*
X156675907Y-111619438D01*
X156684895Y-111595014D01*
X156684895Y-111270855D01*
X156725732Y-111272906D01*
X156762271Y-111279061D01*
X156799733Y-111292664D01*
X156821475Y-111306416D01*
X156848908Y-111336686D01*
X156859382Y-111356437D01*
X156869968Y-111395496D01*
X156872473Y-111431859D01*
X156870260Y-111472770D01*
X156866807Y-111494386D01*
X156856813Y-111532902D01*
X156853715Y-111542062D01*
X156840819Y-111575083D01*
X156834958Y-111594623D01*
X156836912Y-111601266D01*
X156842773Y-111605956D01*
X156853715Y-111608496D01*
X156870715Y-111609277D01*
X156883415Y-111608691D01*
X156892990Y-111607324D01*
X156900415Y-111604588D01*
X156906863Y-111599703D01*
X156917023Y-111581922D01*
X156930090Y-111544899D01*
X156930505Y-111543430D01*
X156939518Y-111503789D01*
X156942229Y-111488719D01*
X156946763Y-111448282D01*
X156947505Y-111422481D01*
X156945473Y-111382346D01*
X156938622Y-111342619D01*
X156930310Y-111315600D01*
X156911952Y-111278227D01*
X156887311Y-111246464D01*
X156879117Y-111238419D01*
X156846077Y-111213981D01*
X156809503Y-111196513D01*
X156793925Y-111191134D01*
X156753194Y-111181489D01*
X156711754Y-111176559D01*
X156674930Y-111175307D01*
X156632147Y-111177246D01*
X156592457Y-111183065D01*
X156559061Y-111191720D01*
X156522571Y-111206091D01*
X156488002Y-111226310D01*
X156471524Y-111239201D01*
X156443282Y-111268853D01*
X156421473Y-111303443D01*
X156416423Y-111314232D01*
X156404025Y-111351694D01*
X156397948Y-111392639D01*
X156397405Y-111408803D01*
X156397274Y-111412711D01*
X156083291Y-111412711D01*
X156083291Y-110855446D01*
X156397274Y-110855446D01*
X156399885Y-110896671D01*
X156408604Y-110935813D01*
X156415837Y-110954511D01*
X156436030Y-110989759D01*
X156463721Y-111020259D01*
X156465662Y-111021922D01*
X156499661Y-111044783D01*
X156536504Y-111059827D01*
X156539131Y-111060610D01*
X156579986Y-111069446D01*
X156620442Y-111072812D01*
X156629403Y-111072920D01*
X156645621Y-111072920D01*
X156675907Y-111062173D01*
X156684895Y-111037749D01*
X156684895Y-110713590D01*
X156725732Y-110715642D01*
X156762271Y-110721797D01*
X156799733Y-110735399D01*
X156821475Y-110749152D01*
X156848908Y-110779422D01*
X156859382Y-110799173D01*
X156869968Y-110838232D01*
X156872473Y-110874595D01*
X156870260Y-110915506D01*
X156866807Y-110937121D01*
X156856813Y-110975637D01*
X156853715Y-110984797D01*
X156840819Y-111017819D01*
X156834958Y-111037358D01*
X156836912Y-111044002D01*
X156842773Y-111048691D01*
X156853715Y-111051231D01*
X156870715Y-111052013D01*
X156883415Y-111051427D01*
X156892990Y-111050059D01*
X156900415Y-111047324D01*
X156906863Y-111042439D01*
X156917023Y-111024658D01*
X156930090Y-110987634D01*
X156930505Y-110986165D01*
X156939518Y-110946524D01*
X156942229Y-110931455D01*
X156946763Y-110891017D01*
X156947505Y-110865216D01*
X156945473Y-110825082D01*
X156938622Y-110785354D01*
X156930310Y-110758335D01*
X156911952Y-110720962D01*
X156887311Y-110689199D01*
X156879117Y-110681155D01*
X156846077Y-110656717D01*
X156809503Y-110639248D01*
X156793925Y-110633869D01*
X156753194Y-110624225D01*
X156711754Y-110619294D01*
X156674930Y-110618042D01*
X156632147Y-110619982D01*
X156592457Y-110625800D01*
X156559061Y-110634455D01*
X156522571Y-110648826D01*
X156488002Y-110669045D01*
X156471524Y-110681936D01*
X156443282Y-110711589D01*
X156421473Y-110746178D01*
X156416423Y-110756968D01*
X156404025Y-110794429D01*
X156397948Y-110835374D01*
X156397405Y-110851538D01*
X156397274Y-110855446D01*
X156083291Y-110855446D01*
X156083291Y-110311273D01*
X156397274Y-110311273D01*
X156400491Y-110351633D01*
X156412044Y-110390248D01*
X156414078Y-110394511D01*
X156436569Y-110428459D01*
X156459019Y-110449222D01*
X156493702Y-110468971D01*
X156524867Y-110479117D01*
X156563570Y-110485709D01*
X156605735Y-110488220D01*
X156615530Y-110488300D01*
X156918000Y-110488300D01*
X156925425Y-110486151D01*
X156930701Y-110478922D01*
X156934023Y-110465244D01*
X156935000Y-110443164D01*
X156934023Y-110420694D01*
X156930701Y-110406821D01*
X156925425Y-110399787D01*
X156917805Y-110397638D01*
X156627058Y-110397638D01*
X156586695Y-110395763D01*
X156558866Y-110390994D01*
X156521409Y-110376200D01*
X156514120Y-110371650D01*
X156487343Y-110342726D01*
X156485397Y-110339019D01*
X156475675Y-110300797D01*
X156475432Y-110292711D01*
X156483098Y-110254304D01*
X156499661Y-110224518D01*
X156525200Y-110194096D01*
X156553996Y-110166949D01*
X156570785Y-110153004D01*
X156917805Y-110153004D01*
X156925425Y-110150855D01*
X156930701Y-110143625D01*
X156934023Y-110129947D01*
X156935000Y-110107477D01*
X156934023Y-110085397D01*
X156930701Y-110071329D01*
X156925425Y-110064295D01*
X156918000Y-110062341D01*
X156426779Y-110062341D01*
X156419354Y-110063904D01*
X156413883Y-110070548D01*
X156410561Y-110083248D01*
X156409780Y-110103569D01*
X156410561Y-110123695D01*
X156413883Y-110136005D01*
X156419354Y-110142257D01*
X156426779Y-110144211D01*
X156491650Y-110144211D01*
X156461160Y-110172912D01*
X156434956Y-110204117D01*
X156420136Y-110227449D01*
X156404508Y-110263978D01*
X156397475Y-110303365D01*
X156397274Y-110311273D01*
X156083291Y-110311273D01*
X156083291Y-109851706D01*
X156200317Y-109851706D01*
X156207798Y-109890175D01*
X156211650Y-109895279D01*
X156250588Y-109907151D01*
X156254441Y-109907198D01*
X156293099Y-109899200D01*
X156298210Y-109895083D01*
X156309636Y-109856437D01*
X156309728Y-109851120D01*
X156409780Y-109851120D01*
X156410952Y-109873590D01*
X156414274Y-109887268D01*
X156419745Y-109894497D01*
X156426779Y-109896647D01*
X156918000Y-109896647D01*
X156925425Y-109894497D01*
X156930701Y-109887268D01*
X156934023Y-109873590D01*
X156935000Y-109851120D01*
X156934023Y-109829040D01*
X156930701Y-109814972D01*
X156925425Y-109807938D01*
X156918000Y-109805984D01*
X156426779Y-109805984D01*
X156419745Y-109807938D01*
X156414274Y-109814972D01*
X156410952Y-109829040D01*
X156409780Y-109851120D01*
X156309728Y-109851120D01*
X156309738Y-109850534D01*
X156302256Y-109811936D01*
X156298405Y-109806765D01*
X156259467Y-109795087D01*
X156255614Y-109795042D01*
X156217085Y-109803039D01*
X156212041Y-109807156D01*
X156200420Y-109845803D01*
X156200317Y-109851706D01*
X156083291Y-109851706D01*
X156083291Y-109445872D01*
X156397274Y-109445872D01*
X156400194Y-109485428D01*
X156400596Y-109487882D01*
X156409780Y-109524421D01*
X156409780Y-109673897D01*
X156419159Y-109687770D01*
X156447491Y-109692460D01*
X156476018Y-109687184D01*
X156484811Y-109673897D01*
X156484811Y-109602969D01*
X156516920Y-109626475D01*
X156525062Y-109629738D01*
X156563573Y-109637363D01*
X156570980Y-109637554D01*
X156610938Y-109634086D01*
X156646011Y-109623681D01*
X156681084Y-109603237D01*
X156701113Y-109584407D01*
X156724076Y-109550798D01*
X156735502Y-109523834D01*
X156744802Y-109484314D01*
X156747421Y-109445872D01*
X156743727Y-109405614D01*
X156739605Y-109388231D01*
X156724007Y-109352222D01*
X156719675Y-109346221D01*
X156743513Y-109330003D01*
X156774190Y-109323751D01*
X156807993Y-109341531D01*
X156819063Y-109371622D01*
X156821587Y-109378482D01*
X156822452Y-109389208D01*
X156827923Y-109518363D01*
X156831777Y-109557773D01*
X156838279Y-109585774D01*
X156853699Y-109622676D01*
X156864462Y-109639117D01*
X156892936Y-109666450D01*
X156906277Y-109674288D01*
X156944007Y-109685748D01*
X156963722Y-109686989D01*
X157003552Y-109681960D01*
X157029375Y-109672725D01*
X157063744Y-109650414D01*
X157084085Y-109628956D01*
X157105237Y-109595544D01*
X157120541Y-109556767D01*
X157121406Y-109553925D01*
X157130261Y-109514193D01*
X157134429Y-109472652D01*
X157135083Y-109446263D01*
X157133627Y-109403893D01*
X157128763Y-109363573D01*
X157124727Y-109344267D01*
X157112662Y-109306019D01*
X157097897Y-109277443D01*
X157553696Y-109277443D01*
X157556115Y-109317227D01*
X157564916Y-109357841D01*
X157568351Y-109367715D01*
X157585692Y-109403228D01*
X157608406Y-109432000D01*
X157639641Y-109456716D01*
X157667611Y-109470297D01*
X157706842Y-109480567D01*
X157739321Y-109482998D01*
X157780089Y-109480862D01*
X157807904Y-109476940D01*
X157845627Y-109466700D01*
X157881568Y-109451344D01*
X157917861Y-109430918D01*
X157951768Y-109408112D01*
X157969690Y-109394875D01*
X158001408Y-109369550D01*
X158032400Y-109342711D01*
X158061896Y-109315637D01*
X158081260Y-109297178D01*
X158197715Y-109184631D01*
X158197715Y-109493940D01*
X158200256Y-109502537D01*
X158207876Y-109509571D01*
X158220381Y-109514065D01*
X158237771Y-109515433D01*
X158255552Y-109514065D01*
X158268644Y-109510157D01*
X158276459Y-109503514D01*
X158279000Y-109494526D01*
X158279000Y-109101588D01*
X158277046Y-109088106D01*
X158270793Y-109078141D01*
X158257897Y-109072083D01*
X158237381Y-109070325D01*
X158218036Y-109071106D01*
X158203187Y-109074624D01*
X158190486Y-109081462D01*
X158176808Y-109092209D01*
X158032217Y-109230157D01*
X158001270Y-109258207D01*
X157969654Y-109284742D01*
X157940577Y-109306752D01*
X157906399Y-109329512D01*
X157870727Y-109349296D01*
X157866522Y-109351302D01*
X157829049Y-109366076D01*
X157805950Y-109371818D01*
X157766896Y-109376581D01*
X157754757Y-109376899D01*
X157715327Y-109370915D01*
X157710011Y-109369083D01*
X157675902Y-109349494D01*
X157672886Y-109346808D01*
X157649302Y-109314342D01*
X157647485Y-109310269D01*
X157638555Y-109272020D01*
X157638106Y-109259857D01*
X157642152Y-109220595D01*
X157648462Y-109199676D01*
X157664985Y-109163442D01*
X157670933Y-109152977D01*
X157692754Y-109120218D01*
X157693403Y-109119369D01*
X157703759Y-109099439D01*
X157701414Y-109092404D01*
X157693989Y-109087520D01*
X157680116Y-109084393D01*
X157659404Y-109083416D01*
X157644359Y-109084003D01*
X157633417Y-109085956D01*
X157624819Y-109089474D01*
X157614659Y-109098266D01*
X157598246Y-109121127D01*
X157579603Y-109157262D01*
X157577729Y-109161769D01*
X157564840Y-109199403D01*
X157560730Y-109215503D01*
X157554527Y-109255490D01*
X157553696Y-109277443D01*
X157097897Y-109277443D01*
X157096786Y-109275293D01*
X157069281Y-109245412D01*
X157054581Y-109236409D01*
X157016969Y-109225253D01*
X157001043Y-109224295D01*
X156965676Y-109228594D01*
X156933046Y-109242076D01*
X156903346Y-109264742D01*
X156876271Y-109294714D01*
X156875404Y-109295809D01*
X156851165Y-109264316D01*
X156839647Y-109255949D01*
X156802081Y-109243506D01*
X156792752Y-109243053D01*
X156752346Y-109248396D01*
X156730812Y-109256730D01*
X156697349Y-109277543D01*
X156681769Y-109290729D01*
X156648722Y-109269187D01*
X156636437Y-109263765D01*
X156596699Y-109254949D01*
X156575279Y-109253995D01*
X156535662Y-109257561D01*
X156500443Y-109268259D01*
X156466412Y-109287768D01*
X156444560Y-109307728D01*
X156421201Y-109341405D01*
X156409584Y-109368496D01*
X156399979Y-109408045D01*
X156397400Y-109444113D01*
X156397274Y-109445872D01*
X156083291Y-109445872D01*
X156083291Y-108939605D01*
X156397274Y-108939605D01*
X156400491Y-108979965D01*
X156412044Y-109018580D01*
X156414078Y-109022843D01*
X156436569Y-109056792D01*
X156459019Y-109077554D01*
X156493702Y-109097303D01*
X156524867Y-109107449D01*
X156563570Y-109114041D01*
X156605735Y-109116552D01*
X156615530Y-109116633D01*
X156918000Y-109116633D01*
X156925425Y-109114483D01*
X156930701Y-109107254D01*
X156934023Y-109093576D01*
X156935000Y-109071497D01*
X156934023Y-109049026D01*
X156930701Y-109035153D01*
X156925425Y-109028119D01*
X156917805Y-109025970D01*
X156627058Y-109025970D01*
X156586695Y-109024095D01*
X156558866Y-109019326D01*
X156521409Y-109004532D01*
X156514120Y-108999982D01*
X156487343Y-108971058D01*
X156485397Y-108967351D01*
X156480775Y-108949180D01*
X157753780Y-108949180D01*
X157754366Y-108970088D01*
X157757101Y-108982984D01*
X157762377Y-108989627D01*
X157769607Y-108991581D01*
X157774296Y-108991190D01*
X157779376Y-108990409D01*
X157785434Y-108989041D01*
X157792468Y-108987087D01*
X158259265Y-108818462D01*
X158269230Y-108812600D01*
X158275287Y-108801853D01*
X158278218Y-108783877D01*
X158279000Y-108756326D01*
X158278023Y-108728776D01*
X158274701Y-108710995D01*
X158268644Y-108700248D01*
X158259265Y-108694191D01*
X157792468Y-108526152D01*
X157781135Y-108522439D01*
X157773710Y-108520876D01*
X157769607Y-108520681D01*
X157761986Y-108522830D01*
X157756906Y-108530255D01*
X157754366Y-108543933D01*
X157753780Y-108565035D01*
X157754561Y-108590632D01*
X157757688Y-108605482D01*
X157763159Y-108613102D01*
X157771170Y-108617792D01*
X158176222Y-108757499D01*
X158182866Y-108759648D01*
X158176222Y-108761407D01*
X157771170Y-108899160D01*
X157763159Y-108903067D01*
X157757688Y-108911079D01*
X157754561Y-108925342D01*
X157753780Y-108949180D01*
X156480775Y-108949180D01*
X156475675Y-108929129D01*
X156475432Y-108921043D01*
X156483098Y-108882637D01*
X156499661Y-108852850D01*
X156525200Y-108822428D01*
X156553996Y-108795281D01*
X156570785Y-108781336D01*
X156917805Y-108781336D01*
X156925425Y-108779187D01*
X156930701Y-108771957D01*
X156934023Y-108758280D01*
X156935000Y-108735809D01*
X156934023Y-108713730D01*
X156930701Y-108699661D01*
X156925425Y-108692627D01*
X156918000Y-108690673D01*
X156426779Y-108690673D01*
X156419354Y-108692236D01*
X156413883Y-108698880D01*
X156410561Y-108711580D01*
X156409780Y-108731901D01*
X156410561Y-108752027D01*
X156413883Y-108764337D01*
X156419354Y-108770589D01*
X156426779Y-108772543D01*
X156491650Y-108772543D01*
X156461160Y-108801245D01*
X156434956Y-108832450D01*
X156420136Y-108855781D01*
X156404508Y-108892310D01*
X156397475Y-108931697D01*
X156397274Y-108939605D01*
X156083291Y-108939605D01*
X156083291Y-108337986D01*
X156397274Y-108337986D01*
X156399885Y-108379212D01*
X156408604Y-108418353D01*
X156415837Y-108437051D01*
X156436030Y-108472300D01*
X156463721Y-108502799D01*
X156465662Y-108504462D01*
X156499661Y-108527324D01*
X156536504Y-108542367D01*
X156539131Y-108543150D01*
X156579986Y-108551986D01*
X156620442Y-108555352D01*
X156629403Y-108555460D01*
X156645621Y-108555460D01*
X156675907Y-108544714D01*
X156684895Y-108520289D01*
X156684895Y-108196130D01*
X156725732Y-108198182D01*
X156762271Y-108204337D01*
X156799733Y-108217940D01*
X156821475Y-108231692D01*
X156848908Y-108261962D01*
X156859382Y-108281713D01*
X156869968Y-108320772D01*
X156872473Y-108357135D01*
X156870260Y-108398046D01*
X156866807Y-108419661D01*
X156856813Y-108458177D01*
X156853715Y-108467337D01*
X156840819Y-108500359D01*
X156834958Y-108519899D01*
X156836912Y-108526542D01*
X156842773Y-108531231D01*
X156853715Y-108533772D01*
X156870715Y-108534553D01*
X156883415Y-108533967D01*
X156892990Y-108532599D01*
X156900415Y-108529864D01*
X156906863Y-108524979D01*
X156917023Y-108507198D01*
X156930090Y-108470174D01*
X156930505Y-108468705D01*
X156939518Y-108429065D01*
X156942229Y-108413995D01*
X156946763Y-108373557D01*
X156947505Y-108347756D01*
X156945473Y-108307622D01*
X156938622Y-108267894D01*
X156930310Y-108240875D01*
X156929255Y-108238727D01*
X157741274Y-108238727D01*
X157743885Y-108279952D01*
X157752604Y-108319093D01*
X157759837Y-108337792D01*
X157780030Y-108373040D01*
X157807721Y-108403540D01*
X157809662Y-108405203D01*
X157843661Y-108428064D01*
X157880504Y-108443108D01*
X157883131Y-108443891D01*
X157923986Y-108452727D01*
X157964442Y-108456093D01*
X157973403Y-108456201D01*
X157989621Y-108456201D01*
X158019907Y-108445454D01*
X158028895Y-108421030D01*
X158028895Y-108096871D01*
X158069732Y-108098922D01*
X158106271Y-108105077D01*
X158143733Y-108118680D01*
X158165475Y-108132432D01*
X158192908Y-108162702D01*
X158203382Y-108182453D01*
X158213968Y-108221512D01*
X158216473Y-108257876D01*
X158214260Y-108298786D01*
X158210807Y-108320402D01*
X158200813Y-108358918D01*
X158197715Y-108368078D01*
X158184819Y-108401100D01*
X158178958Y-108420639D01*
X158180912Y-108427282D01*
X158186773Y-108431972D01*
X158197715Y-108434512D01*
X158214715Y-108435294D01*
X158227415Y-108434707D01*
X158236990Y-108433340D01*
X158244415Y-108430604D01*
X158250863Y-108425719D01*
X158261023Y-108407938D01*
X158274090Y-108370915D01*
X158274505Y-108369446D01*
X158283518Y-108329805D01*
X158286229Y-108314735D01*
X158290763Y-108274298D01*
X158291505Y-108248497D01*
X158289473Y-108208362D01*
X158282622Y-108168635D01*
X158274310Y-108141616D01*
X158255952Y-108104243D01*
X158231311Y-108072480D01*
X158223117Y-108064435D01*
X158190077Y-108039997D01*
X158153503Y-108022529D01*
X158137925Y-108017150D01*
X158097194Y-108007505D01*
X158055754Y-108002575D01*
X158018930Y-108001323D01*
X157976147Y-108003262D01*
X157936457Y-108009081D01*
X157903061Y-108017736D01*
X157866571Y-108032107D01*
X157832002Y-108052326D01*
X157815524Y-108065217D01*
X157787282Y-108094869D01*
X157765473Y-108129459D01*
X157760423Y-108140248D01*
X157748025Y-108177710D01*
X157741948Y-108218655D01*
X157741405Y-108234819D01*
X157741274Y-108238727D01*
X156929255Y-108238727D01*
X156911952Y-108203503D01*
X156887311Y-108171740D01*
X156879117Y-108163695D01*
X156846077Y-108139257D01*
X156809503Y-108121788D01*
X156793925Y-108116409D01*
X156753194Y-108106765D01*
X156711754Y-108101834D01*
X156674930Y-108100582D01*
X156632147Y-108102522D01*
X156592457Y-108108340D01*
X156559061Y-108116996D01*
X156522571Y-108131366D01*
X156488002Y-108151585D01*
X156471524Y-108164476D01*
X156443282Y-108194129D01*
X156421473Y-108228718D01*
X156416423Y-108239508D01*
X156404025Y-108276970D01*
X156397948Y-108317914D01*
X156397405Y-108334079D01*
X156397274Y-108337986D01*
X156083291Y-108337986D01*
X156083291Y-107922578D01*
X156172180Y-107922578D01*
X156173548Y-107945049D01*
X156176870Y-107958726D01*
X156182341Y-107966151D01*
X156189766Y-107968691D01*
X156918000Y-107968691D01*
X156925816Y-107966737D01*
X156930896Y-107960094D01*
X156934023Y-107947784D01*
X156935000Y-107929026D01*
X156934023Y-107909682D01*
X156931092Y-107897177D01*
X156926207Y-107889947D01*
X156918782Y-107887798D01*
X156856842Y-107887798D01*
X156868496Y-107876075D01*
X157741274Y-107876075D01*
X157742056Y-107892293D01*
X157744987Y-107911246D01*
X157749872Y-107929027D01*
X157755343Y-107940360D01*
X157760618Y-107944658D01*
X157766871Y-107946612D01*
X157777813Y-107947785D01*
X157797548Y-107948176D01*
X157817674Y-107947589D01*
X157830374Y-107945245D01*
X157837408Y-107941141D01*
X157839949Y-107934303D01*
X157837408Y-107923556D01*
X157832524Y-107909292D01*
X157827834Y-107891511D01*
X157825685Y-107870018D01*
X157831547Y-107843053D01*
X157850500Y-107815307D01*
X157880142Y-107788807D01*
X157885475Y-107784826D01*
X157918234Y-107762538D01*
X157938818Y-107749655D01*
X158262000Y-107749655D01*
X158269425Y-107747506D01*
X158274701Y-107740276D01*
X158278023Y-107726598D01*
X158279000Y-107704128D01*
X158278023Y-107682049D01*
X158274701Y-107667980D01*
X158269425Y-107660946D01*
X158262000Y-107658992D01*
X157770779Y-107658992D01*
X157763354Y-107660555D01*
X157757883Y-107667199D01*
X157754561Y-107679899D01*
X157753780Y-107700220D01*
X157754561Y-107720346D01*
X157757883Y-107732656D01*
X157763354Y-107738908D01*
X157770779Y-107740862D01*
X157842293Y-107740862D01*
X157809533Y-107764098D01*
X157791882Y-107778964D01*
X157764890Y-107807769D01*
X157761205Y-107812767D01*
X157745573Y-107844421D01*
X157741274Y-107876075D01*
X156868496Y-107876075D01*
X156886297Y-107858168D01*
X156912254Y-107825015D01*
X156923667Y-107806709D01*
X156939962Y-107768417D01*
X156947132Y-107727059D01*
X156947505Y-107714679D01*
X156943990Y-107673156D01*
X156932342Y-107634282D01*
X156926207Y-107621866D01*
X156902794Y-107589000D01*
X156872855Y-107562573D01*
X156868370Y-107559536D01*
X156831324Y-107539978D01*
X156791713Y-107526760D01*
X156782592Y-107524560D01*
X156741714Y-107517475D01*
X156702435Y-107514142D01*
X156678838Y-107513618D01*
X156639656Y-107514954D01*
X156599421Y-107519508D01*
X156562187Y-107527296D01*
X156522473Y-107540696D01*
X156485330Y-107559887D01*
X156473478Y-107567938D01*
X156442775Y-107596050D01*
X156419543Y-107629830D01*
X156417009Y-107634762D01*
X156403519Y-107671997D01*
X156397756Y-107710790D01*
X156397274Y-107726793D01*
X156398117Y-107734609D01*
X156401482Y-107765828D01*
X156415245Y-107803869D01*
X156416423Y-107806123D01*
X156438368Y-107839797D01*
X156466054Y-107870839D01*
X156472892Y-107877442D01*
X156189570Y-107877442D01*
X156182145Y-107879396D01*
X156176870Y-107886821D01*
X156173548Y-107900694D01*
X156172180Y-107922578D01*
X156083291Y-107922578D01*
X156083291Y-107333660D01*
X156172180Y-107333660D01*
X156173353Y-107356130D01*
X156176479Y-107369808D01*
X156181950Y-107377037D01*
X156189570Y-107379187D01*
X156918000Y-107379187D01*
X156925621Y-107377037D01*
X156930701Y-107369808D01*
X156934023Y-107356130D01*
X156935000Y-107333660D01*
X156934023Y-107311580D01*
X156930701Y-107297512D01*
X156925621Y-107290478D01*
X156918000Y-107288524D01*
X156189570Y-107288524D01*
X156181950Y-107290478D01*
X156176479Y-107297512D01*
X156173353Y-107311580D01*
X156172180Y-107333660D01*
X156083291Y-107333660D01*
X156083291Y-106929975D01*
X156397274Y-106929975D01*
X156399274Y-106970672D01*
X156406550Y-107011058D01*
X156409389Y-107020638D01*
X156425459Y-107056265D01*
X156444951Y-107081015D01*
X156476790Y-107103917D01*
X156503178Y-107114427D01*
X156543233Y-107122660D01*
X156584071Y-107124979D01*
X156918391Y-107124979D01*
X156928356Y-107120485D01*
X156933436Y-107108370D01*
X156935000Y-107086095D01*
X156933436Y-107063039D01*
X156928356Y-107050729D01*
X156918391Y-107047016D01*
X156868956Y-107047016D01*
X156896921Y-107017214D01*
X156919948Y-106984570D01*
X156925621Y-106974721D01*
X156941328Y-106936321D01*
X156947419Y-106895861D01*
X156947505Y-106890310D01*
X156944582Y-106851037D01*
X156937149Y-106819773D01*
X156920540Y-106783869D01*
X156907058Y-106765844D01*
X156875767Y-106739926D01*
X156858796Y-106731259D01*
X156819839Y-106720681D01*
X156793534Y-106718949D01*
X156753576Y-106723199D01*
X156719284Y-106735949D01*
X156687294Y-106759772D01*
X156667114Y-106784797D01*
X156648845Y-106820213D01*
X156636508Y-106859892D01*
X156635851Y-106862760D01*
X156629146Y-106902256D01*
X156625991Y-106942034D01*
X156625495Y-106966709D01*
X156625495Y-107034902D01*
X156587393Y-107034902D01*
X156547365Y-107031205D01*
X156537568Y-107028845D01*
X156502319Y-107010141D01*
X156501420Y-107009305D01*
X156480190Y-106975665D01*
X156479731Y-106974330D01*
X156472661Y-106934969D01*
X156472306Y-106921769D01*
X156475359Y-106882430D01*
X156480122Y-106861392D01*
X156493288Y-106823806D01*
X156497316Y-106814693D01*
X156514511Y-106781280D01*
X156522327Y-106761155D01*
X156520177Y-106753534D01*
X156513339Y-106747672D01*
X156501810Y-106744155D01*
X156486179Y-106743178D01*
X156463904Y-106744937D01*
X156448468Y-106754316D01*
X156431859Y-106779912D01*
X156416498Y-106817342D01*
X156415055Y-106821727D01*
X156404980Y-106859609D01*
X156402355Y-106873311D01*
X156397771Y-106912184D01*
X156397274Y-106929975D01*
X156083291Y-106929975D01*
X156083291Y-106208970D01*
X156172180Y-106208970D01*
X156173353Y-106231441D01*
X156176479Y-106245118D01*
X156181950Y-106252348D01*
X156189375Y-106254497D01*
X156479535Y-106254497D01*
X156451611Y-106284118D01*
X156441238Y-106297093D01*
X156419836Y-106330105D01*
X156416032Y-106337540D01*
X156402351Y-106374543D01*
X156401769Y-106377009D01*
X156399038Y-106400848D01*
X156397292Y-106416096D01*
X156397274Y-106418824D01*
X156400854Y-106460029D01*
X156412715Y-106498561D01*
X156418963Y-106510855D01*
X156442559Y-106543581D01*
X156472681Y-106569954D01*
X156477191Y-106572990D01*
X156514053Y-106592645D01*
X156553494Y-106605799D01*
X156562578Y-106607966D01*
X156603203Y-106615050D01*
X156642362Y-106618384D01*
X156665942Y-106618908D01*
X156705349Y-106617534D01*
X156745787Y-106612849D01*
X156783178Y-106604839D01*
X156822892Y-106591342D01*
X156860036Y-106571830D01*
X156871887Y-106563611D01*
X156902547Y-106535401D01*
X156925651Y-106501695D01*
X156928161Y-106496786D01*
X156942045Y-106457250D01*
X156947335Y-106415779D01*
X156947505Y-106406319D01*
X156943653Y-106366355D01*
X156942815Y-106362550D01*
X156928871Y-106325673D01*
X156927575Y-106323276D01*
X156904921Y-106289616D01*
X156901001Y-106284783D01*
X156874256Y-106256046D01*
X156861922Y-106244141D01*
X156918977Y-106244141D01*
X156926207Y-106241797D01*
X156931092Y-106234762D01*
X156934023Y-106222453D01*
X156935000Y-106203499D01*
X156934023Y-106184742D01*
X156930896Y-106172041D01*
X156925816Y-106165397D01*
X156918000Y-106163834D01*
X156189570Y-106163834D01*
X156181950Y-106165788D01*
X156176479Y-106172822D01*
X156173353Y-106186891D01*
X156172180Y-106208970D01*
X156083291Y-106208970D01*
X156083291Y-105639787D01*
X156209696Y-105639787D01*
X156211051Y-105683299D01*
X156215118Y-105723758D01*
X156222934Y-105765624D01*
X156231385Y-105795516D01*
X156246696Y-105834316D01*
X156265518Y-105868652D01*
X156290277Y-105901263D01*
X156292739Y-105903960D01*
X156321929Y-105930904D01*
X156355229Y-105952631D01*
X156389068Y-105967854D01*
X156429683Y-105979757D01*
X156469250Y-105986291D01*
X156511336Y-105988741D01*
X156515683Y-105988761D01*
X156555833Y-105987438D01*
X156592083Y-105984072D01*
X156632845Y-105977435D01*
X156667896Y-105968831D01*
X156705823Y-105955898D01*
X156737456Y-105941280D01*
X156771693Y-105919683D01*
X156794902Y-105899466D01*
X156820418Y-105867406D01*
X156833590Y-105842215D01*
X156844807Y-105802414D01*
X156847463Y-105767184D01*
X156842998Y-105727800D01*
X156842383Y-105725370D01*
X156827337Y-105691371D01*
X156801936Y-105666360D01*
X156765983Y-105652292D01*
X156793119Y-105622756D01*
X156803499Y-105609696D01*
X156824971Y-105576744D01*
X156828900Y-105569250D01*
X156842878Y-105531747D01*
X156843164Y-105530561D01*
X156847463Y-105493437D01*
X156843341Y-105454110D01*
X156842773Y-105451818D01*
X156829096Y-105419578D01*
X156807016Y-105395544D01*
X156777512Y-105379131D01*
X156741559Y-105369947D01*
X156701637Y-105367223D01*
X156698768Y-105367212D01*
X156657957Y-105369478D01*
X156645034Y-105370924D01*
X156606413Y-105377717D01*
X156582508Y-105383625D01*
X156544705Y-105396340D01*
X156519396Y-105407658D01*
X156485077Y-105428606D01*
X156464295Y-105445956D01*
X156438597Y-105476065D01*
X156424825Y-105500080D01*
X156412659Y-105538686D01*
X156409780Y-105573157D01*
X156410254Y-105577065D01*
X156413883Y-105606961D01*
X156426779Y-105638028D01*
X156448663Y-105666556D01*
X156478612Y-105693802D01*
X156479731Y-105694693D01*
X156431664Y-105704072D01*
X156420331Y-105713841D01*
X156416423Y-105742564D01*
X156417595Y-105759173D01*
X156420526Y-105769919D01*
X156425216Y-105775195D01*
X156431664Y-105775390D01*
X156682941Y-105726542D01*
X156722704Y-105723220D01*
X156750547Y-105730841D01*
X156771384Y-105765912D01*
X156772431Y-105780862D01*
X156762643Y-105819238D01*
X156761294Y-105821504D01*
X156734688Y-105850749D01*
X156731203Y-105853353D01*
X156696277Y-105872930D01*
X156687044Y-105876605D01*
X156649398Y-105888270D01*
X156633897Y-105891845D01*
X156594831Y-105898604D01*
X156576646Y-105900638D01*
X156537362Y-105903283D01*
X156520177Y-105903569D01*
X156479738Y-105901063D01*
X156441168Y-105893546D01*
X156430491Y-105890478D01*
X156392833Y-105874352D01*
X156359726Y-105850155D01*
X156355655Y-105846319D01*
X156329818Y-105814887D01*
X156310380Y-105778400D01*
X156304071Y-105762494D01*
X156293058Y-105723330D01*
X156287013Y-105682236D01*
X156284803Y-105640781D01*
X156284727Y-105630994D01*
X156286120Y-105591843D01*
X156290870Y-105551994D01*
X156298991Y-105515516D01*
X156312131Y-105476397D01*
X156330104Y-105438741D01*
X156337484Y-105426416D01*
X156361830Y-105392734D01*
X156389439Y-105363860D01*
X156393367Y-105360373D01*
X156426046Y-105335118D01*
X156460778Y-105314065D01*
X156496926Y-105296968D01*
X156533855Y-105283583D01*
X156572791Y-105272878D01*
X156605956Y-105265998D01*
X156645647Y-105260251D01*
X156671217Y-105257986D01*
X156710290Y-105256187D01*
X156722997Y-105256033D01*
X156763416Y-105257695D01*
X156804719Y-105263300D01*
X156833785Y-105270101D01*
X156872329Y-105284917D01*
X156906357Y-105306506D01*
X156920540Y-105318754D01*
X156947519Y-105350756D01*
X156967614Y-105387223D01*
X156977205Y-105411566D01*
X156987921Y-105451000D01*
X156994172Y-105491483D01*
X156997030Y-105531438D01*
X156997526Y-105558307D01*
X156996368Y-105598869D01*
X156993422Y-105630994D01*
X156988041Y-105669863D01*
X156985020Y-105687268D01*
X156976423Y-105725956D01*
X156972515Y-105746277D01*
X156974469Y-105751943D01*
X156980722Y-105755851D01*
X156991664Y-105757805D01*
X157008077Y-105758391D01*
X157021168Y-105758000D01*
X157030743Y-105756633D01*
X157038363Y-105753702D01*
X157044616Y-105748426D01*
X157052041Y-105729473D01*
X157060833Y-105690375D01*
X157061420Y-105687072D01*
X157066901Y-105648239D01*
X157069235Y-105624742D01*
X157071827Y-105584862D01*
X157072557Y-105546193D01*
X157071398Y-105502809D01*
X157067920Y-105462418D01*
X157061105Y-105419919D01*
X157051262Y-105381329D01*
X157048328Y-105372292D01*
X157033046Y-105334372D01*
X157012186Y-105297132D01*
X156987242Y-105265045D01*
X156978963Y-105256423D01*
X156949082Y-105230881D01*
X156915613Y-105210185D01*
X156878557Y-105194336D01*
X156870715Y-105191748D01*
X156829716Y-105181341D01*
X156790371Y-105175270D01*
X156748706Y-105172321D01*
X156729445Y-105172013D01*
X156690259Y-105173158D01*
X156663597Y-105174944D01*
X156622773Y-105179755D01*
X156584462Y-105186472D01*
X156544692Y-105196035D01*
X156506875Y-105207671D01*
X156498684Y-105210506D01*
X156460761Y-105225733D01*
X156423586Y-105244400D01*
X156413101Y-105250366D01*
X156379933Y-105271920D01*
X156348378Y-105296892D01*
X156334357Y-105309571D01*
X156305741Y-105340052D01*
X156282074Y-105371852D01*
X156269487Y-105392027D01*
X156250234Y-105429680D01*
X156235579Y-105467526D01*
X156225718Y-105500862D01*
X156217269Y-105540791D01*
X156211949Y-105583889D01*
X156209837Y-105625385D01*
X156209696Y-105639787D01*
X156083291Y-105639787D01*
X156083291Y-105083124D01*
X158380394Y-105083124D01*
X158380394Y-112143470D01*
G37*
G36*
X128601744Y-96815621D02*
G01*
X128229522Y-96815621D01*
X128229522Y-95869047D01*
X128340633Y-95869047D01*
X128342074Y-96645583D01*
X128353273Y-96672619D01*
X128373965Y-96693311D01*
X128401001Y-96704510D01*
X128430265Y-96704510D01*
X128457301Y-96693311D01*
X128477993Y-96672619D01*
X128489192Y-96645583D01*
X128490633Y-96630951D01*
X128489192Y-95854415D01*
X128477993Y-95827379D01*
X128457301Y-95806687D01*
X128430265Y-95795488D01*
X128401001Y-95795488D01*
X128373965Y-95806687D01*
X128353273Y-95827379D01*
X128342074Y-95854415D01*
X128340633Y-95869047D01*
X128229522Y-95869047D01*
X128229522Y-95684377D01*
X128601744Y-95684377D01*
X128601744Y-96815621D01*
G37*
G36*
X129055121Y-103289489D02*
G01*
X127923877Y-103289489D01*
X127923877Y-102738498D01*
X128034988Y-102738498D01*
X128046187Y-102765534D01*
X128066879Y-102786226D01*
X128093915Y-102797425D01*
X128108547Y-102798866D01*
X128415344Y-102798296D01*
X128415940Y-103119451D01*
X128427139Y-103146487D01*
X128447831Y-103167179D01*
X128474867Y-103178378D01*
X128504131Y-103178378D01*
X128531167Y-103167179D01*
X128551859Y-103146487D01*
X128563058Y-103119451D01*
X128564499Y-103104819D01*
X128563929Y-102798020D01*
X128885083Y-102797425D01*
X128912119Y-102786226D01*
X128932811Y-102765534D01*
X128944010Y-102738498D01*
X128944010Y-102709234D01*
X128932811Y-102682198D01*
X128912119Y-102661506D01*
X128885083Y-102650307D01*
X128870451Y-102648866D01*
X128563653Y-102649435D01*
X128563058Y-102328282D01*
X128551859Y-102301246D01*
X128531167Y-102280554D01*
X128504131Y-102269355D01*
X128474867Y-102269355D01*
X128447831Y-102280554D01*
X128427139Y-102301246D01*
X128415940Y-102328282D01*
X128414499Y-102342914D01*
X128415068Y-102649711D01*
X128093915Y-102650307D01*
X128066879Y-102661506D01*
X128046187Y-102682198D01*
X128034988Y-102709234D01*
X128034988Y-102738498D01*
X127923877Y-102738498D01*
X127923877Y-102158244D01*
X129055121Y-102158244D01*
X129055121Y-103289489D01*
G37*
D11*
X153654510Y-106320600D02*
X154797368Y-106320600D01*
D12*
%TO.C,R2*%
X145880000Y-101542936D02*
X145880000Y-102997064D01*
X147700000Y-101542936D02*
X147700000Y-102997064D01*
%TO.C,D3*%
X152600000Y-96800000D02*
X152600000Y-104460000D01*
X152600000Y-104460000D02*
X156900000Y-104460000D01*
X156900000Y-96800000D02*
X156900000Y-104460000D01*
%TO.C,D2*%
X145655000Y-94460000D02*
X145655000Y-98520000D01*
X147925000Y-94460000D02*
X145655000Y-94460000D01*
X147925000Y-98520000D02*
X147925000Y-94460000D01*
D10*
%TO.C,REF\u002A\u002A*%
X149200000Y-106325000D02*
X151200000Y-106325000D01*
X152300000Y-106325000D02*
X153200000Y-106325000D01*
X150525001Y-105575001D02*
G75*
G02*
X150450001Y-106999999I674999J-749999D01*
G01*
X149125000Y-106325000D02*
G75*
G02*
X147275000Y-106325000I-925000J0D01*
G01*
X147275000Y-106325000D02*
G75*
G02*
X149125000Y-106325000I925000J0D01*
G01*
D13*
X151375000Y-106325000D02*
G75*
G02*
X151025000Y-106325000I-175000J0D01*
G01*
X151025000Y-106325000D02*
G75*
G02*
X151375000Y-106325000I175000J0D01*
G01*
D10*
X155125000Y-106325000D02*
G75*
G02*
X153275000Y-106325000I-925000J0D01*
G01*
X153275000Y-106325000D02*
G75*
G02*
X155125000Y-106325000I925000J0D01*
G01*
%TD*%
M02*
