%TF.GenerationSoftware,KiCad,Pcbnew,8.0.1*%
%TF.CreationDate,2024-04-06T18:31:26-05:00*%
%TF.ProjectId,Banana to Screw Terminal,42616e61-6e61-4207-946f-205363726577,2*%
%TF.SameCoordinates,Original*%
%TF.FileFunction,Legend,Bot*%
%TF.FilePolarity,Positive*%
%FSLAX46Y46*%
G04 Gerber Fmt 4.6, Leading zero omitted, Abs format (unit mm)*
G04 Created by KiCad (PCBNEW 8.0.1) date 2024-04-06 18:31:26*
%MOMM*%
%LPD*%
G01*
G04 APERTURE LIST*
%ADD10C,0.150000*%
%ADD11C,0.120000*%
G04 APERTURE END LIST*
G36*
X127750000Y-95650000D02*
G01*
X129050000Y-95650000D01*
X129050000Y-95750000D01*
X127750000Y-95750000D01*
X127750000Y-95650000D01*
G37*
G36*
X127750000Y-96750000D02*
G01*
X129050000Y-96750000D01*
X129050000Y-96850000D01*
X127750000Y-96850000D01*
X127750000Y-96750000D01*
G37*
D10*
X131725000Y-95925000D02*
X131725000Y-96275000D01*
X131725000Y-95950000D02*
X131725000Y-95925000D01*
X131725000Y-103175000D02*
X131900000Y-103000000D01*
X131725000Y-96275000D02*
X131900000Y-96100000D01*
X131725000Y-95925000D02*
X131900000Y-96100000D01*
X131725000Y-102825000D02*
X131725000Y-103175000D01*
G36*
X127750000Y-95675000D02*
G01*
X128200000Y-95675000D01*
X128200000Y-96825000D01*
X127750000Y-96825000D01*
X127750000Y-95675000D01*
G37*
G36*
X146850000Y-88750000D02*
G01*
X147550000Y-88750000D01*
X147550000Y-90900000D01*
X146850000Y-90900000D01*
X146850000Y-88750000D01*
G37*
G36*
X128550000Y-95675000D02*
G01*
X129050000Y-95675000D01*
X129050000Y-96825000D01*
X128550000Y-96825000D01*
X128550000Y-95675000D01*
G37*
X131725000Y-102850000D02*
X131725000Y-102825000D01*
G36*
X148100000Y-88750000D02*
G01*
X148800000Y-88750000D01*
X148800000Y-90900000D01*
X148100000Y-90900000D01*
X148100000Y-88750000D01*
G37*
G36*
X146850000Y-90700000D02*
G01*
X148750000Y-90700000D01*
X148750000Y-90900000D01*
X146850000Y-90900000D01*
X146850000Y-90700000D01*
G37*
G36*
X146850000Y-88750000D02*
G01*
X148750000Y-88750000D01*
X148750000Y-88950000D01*
X146850000Y-88950000D01*
X146850000Y-88750000D01*
G37*
X131725000Y-102825000D02*
X131900000Y-103000000D01*
G36*
X148958601Y-110215724D02*
G01*
X146843230Y-110215724D01*
X146843230Y-109172670D01*
X147065452Y-109172670D01*
X147076651Y-109199706D01*
X147097343Y-109220398D01*
X147124379Y-109231597D01*
X147139011Y-109233038D01*
X147826698Y-109232393D01*
X147827356Y-109934575D01*
X147838555Y-109961611D01*
X147859247Y-109982303D01*
X147886283Y-109993502D01*
X147915547Y-109993502D01*
X147942583Y-109982303D01*
X147963275Y-109961611D01*
X147974474Y-109934575D01*
X147975915Y-109919943D01*
X147975270Y-109232254D01*
X148677452Y-109231597D01*
X148704488Y-109220398D01*
X148725180Y-109199706D01*
X148736379Y-109172670D01*
X148736379Y-109143406D01*
X148725180Y-109116370D01*
X148704488Y-109095678D01*
X148677452Y-109084479D01*
X148662820Y-109083038D01*
X147975131Y-109083682D01*
X147974474Y-108381501D01*
X147963275Y-108354465D01*
X147942583Y-108333773D01*
X147915547Y-108322574D01*
X147886283Y-108322574D01*
X147859247Y-108333773D01*
X147838555Y-108354465D01*
X147827356Y-108381501D01*
X147825915Y-108396133D01*
X147826559Y-109083821D01*
X147124379Y-109084479D01*
X147097343Y-109095678D01*
X147076651Y-109116370D01*
X147065452Y-109143406D01*
X147065452Y-109172670D01*
X146843230Y-109172670D01*
X146843230Y-108100352D01*
X148958601Y-108100352D01*
X148958601Y-110215724D01*
G37*
G36*
X148136288Y-90881506D02*
G01*
X147541844Y-90881506D01*
X147541844Y-89061916D01*
X147764066Y-89061916D01*
X147765507Y-90600357D01*
X147776706Y-90627393D01*
X147797398Y-90648085D01*
X147824434Y-90659284D01*
X147853698Y-90659284D01*
X147880734Y-90648085D01*
X147901426Y-90627393D01*
X147912625Y-90600357D01*
X147914066Y-90585725D01*
X147912625Y-89047284D01*
X147901426Y-89020248D01*
X147880734Y-88999556D01*
X147853698Y-88988357D01*
X147824434Y-88988357D01*
X147797398Y-88999556D01*
X147776706Y-89020248D01*
X147765507Y-89047284D01*
X147764066Y-89061916D01*
X147541844Y-89061916D01*
X147541844Y-88766135D01*
X148136288Y-88766135D01*
X148136288Y-90881506D01*
G37*
G36*
X157452990Y-92752936D02*
G01*
X157413804Y-92750619D01*
X157374237Y-92738822D01*
X157347477Y-92721477D01*
X157322681Y-92689167D01*
X157311012Y-92649898D01*
X157309180Y-92622803D01*
X157314313Y-92582311D01*
X157321099Y-92563989D01*
X157343374Y-92530687D01*
X157352752Y-92521589D01*
X157385799Y-92500376D01*
X157398475Y-92495210D01*
X157437144Y-92486148D01*
X157452990Y-92484855D01*
X157452990Y-92752936D01*
G37*
G36*
X157452990Y-92195671D02*
G01*
X157413804Y-92193355D01*
X157374237Y-92181558D01*
X157347477Y-92164213D01*
X157322681Y-92131903D01*
X157311012Y-92092633D01*
X157309180Y-92065538D01*
X157314313Y-92025047D01*
X157321099Y-92006725D01*
X157343374Y-91973422D01*
X157352752Y-91964324D01*
X157385799Y-91943112D01*
X157398475Y-91937946D01*
X157437144Y-91928883D01*
X157452990Y-91927590D01*
X157452990Y-92195671D01*
G37*
G36*
X157868764Y-90541515D02*
G01*
X157884811Y-90563543D01*
X157897367Y-90600803D01*
X157902532Y-90641433D01*
X157903178Y-90664757D01*
X157900917Y-90704757D01*
X157895167Y-90733731D01*
X157879735Y-90770525D01*
X157874260Y-90778476D01*
X157844169Y-90802901D01*
X157808803Y-90810326D01*
X157770950Y-90796800D01*
X157760150Y-90784143D01*
X157745379Y-90746739D01*
X157741782Y-90713605D01*
X157737484Y-90585622D01*
X157763471Y-90556704D01*
X157786723Y-90538923D01*
X157808803Y-90529739D01*
X157831273Y-90527395D01*
X157868764Y-90541515D01*
G37*
G36*
X157454472Y-90560456D02*
G01*
X157488747Y-90582105D01*
X157509634Y-90617872D01*
X157515490Y-90656767D01*
X157515516Y-90659872D01*
X157510098Y-90698728D01*
X157507309Y-90706376D01*
X157484644Y-90739202D01*
X157451231Y-90758351D01*
X157411762Y-90764799D01*
X157371055Y-90758702D01*
X157336339Y-90737053D01*
X157315969Y-90703445D01*
X157309286Y-90664421D01*
X157309180Y-90658113D01*
X157315161Y-90618469D01*
X157317581Y-90612196D01*
X157340833Y-90579760D01*
X157374832Y-90560612D01*
X157413583Y-90554365D01*
X157414888Y-90554359D01*
X157454472Y-90560456D01*
G37*
G36*
X157452990Y-89678211D02*
G01*
X157413804Y-89675895D01*
X157374237Y-89664098D01*
X157347477Y-89646753D01*
X157322681Y-89614443D01*
X157311012Y-89575173D01*
X157309180Y-89548079D01*
X157314313Y-89507587D01*
X157321099Y-89489265D01*
X157343374Y-89455962D01*
X157352752Y-89446864D01*
X157385799Y-89425652D01*
X157398475Y-89420486D01*
X157437144Y-89411423D01*
X157452990Y-89410130D01*
X157452990Y-89678211D01*
G37*
G36*
X158796990Y-89578952D02*
G01*
X158757804Y-89576635D01*
X158718237Y-89564838D01*
X158691477Y-89547493D01*
X158666681Y-89515183D01*
X158655012Y-89475914D01*
X158653180Y-89448819D01*
X158658313Y-89408327D01*
X158665099Y-89390005D01*
X158687374Y-89356703D01*
X158696752Y-89347605D01*
X158729799Y-89326392D01*
X158742475Y-89321227D01*
X158781144Y-89312164D01*
X158796990Y-89310871D01*
X158796990Y-89578952D01*
G37*
G36*
X157548316Y-88823202D02*
G01*
X157582732Y-88827269D01*
X157620925Y-88836522D01*
X157647212Y-88847395D01*
X157679345Y-88870155D01*
X157692348Y-88885301D01*
X157707338Y-88921549D01*
X157709347Y-88944701D01*
X157704462Y-88979481D01*
X157687658Y-89013871D01*
X157662867Y-89044659D01*
X157657177Y-89050605D01*
X157627321Y-89078219D01*
X157611064Y-89091442D01*
X157410785Y-89091442D01*
X157379012Y-89064102D01*
X157351599Y-89035290D01*
X157339856Y-89020123D01*
X157321538Y-88985148D01*
X157315432Y-88948609D01*
X157321996Y-88909255D01*
X157332236Y-88889600D01*
X157360152Y-88860710D01*
X157376200Y-88850326D01*
X157413218Y-88834725D01*
X157438140Y-88828441D01*
X157477419Y-88822912D01*
X157508482Y-88821603D01*
X157548316Y-88823202D01*
G37*
G36*
X157671812Y-88034372D02*
G01*
X157692934Y-88050186D01*
X157711859Y-88086078D01*
X157715600Y-88118574D01*
X157709262Y-88159176D01*
X157697623Y-88184813D01*
X157672912Y-88218082D01*
X157644445Y-88246805D01*
X157642131Y-88248902D01*
X157537400Y-88248902D01*
X157537400Y-88171330D01*
X157539673Y-88130457D01*
X157543848Y-88106460D01*
X157557315Y-88069322D01*
X157562411Y-88060933D01*
X157592110Y-88034164D01*
X157630376Y-88025770D01*
X157631775Y-88025762D01*
X157671812Y-88034372D01*
G37*
G36*
X157645768Y-87496139D02*
G01*
X157673181Y-87524969D01*
X157684923Y-87540012D01*
X157703241Y-87574743D01*
X157709347Y-87610940D01*
X157702783Y-87649622D01*
X157692543Y-87669167D01*
X157664358Y-87698141D01*
X157648189Y-87708441D01*
X157610987Y-87724042D01*
X157586249Y-87730326D01*
X157547251Y-87736013D01*
X157516493Y-87737360D01*
X157476201Y-87735705D01*
X157441657Y-87731498D01*
X157403429Y-87722341D01*
X157377372Y-87711372D01*
X157345411Y-87688612D01*
X157332431Y-87673466D01*
X157317092Y-87635685D01*
X157315432Y-87614848D01*
X157320512Y-87580067D01*
X157337316Y-87545483D01*
X157361969Y-87514833D01*
X157367602Y-87508944D01*
X157397559Y-87481683D01*
X157414106Y-87468497D01*
X157613995Y-87468497D01*
X157645768Y-87496139D01*
G37*
G36*
X157568616Y-86671370D02*
G01*
X157590938Y-86681254D01*
X157611403Y-86716435D01*
X157612431Y-86730688D01*
X157608133Y-86757457D01*
X157594455Y-86786571D01*
X157571344Y-86818129D01*
X157570422Y-86819202D01*
X157543693Y-86848521D01*
X157535055Y-86857499D01*
X157393004Y-86883878D01*
X157360834Y-86861333D01*
X157340052Y-86840891D01*
X157322833Y-86804657D01*
X157321685Y-86791065D01*
X157330832Y-86752806D01*
X157332822Y-86749251D01*
X157359178Y-86718568D01*
X157361350Y-86716815D01*
X157395373Y-86696021D01*
X157400819Y-86693564D01*
X157438913Y-86679911D01*
X157446151Y-86677932D01*
X157485602Y-86670025D01*
X157491092Y-86669335D01*
X157529584Y-86666795D01*
X157568616Y-86671370D01*
G37*
G36*
X159220394Y-93357470D02*
G01*
X156923291Y-93357470D01*
X156923291Y-93196481D01*
X157237274Y-93196481D01*
X157238056Y-93212698D01*
X157240987Y-93231651D01*
X157245872Y-93249432D01*
X157251343Y-93260765D01*
X157256618Y-93265064D01*
X157262871Y-93267018D01*
X157273813Y-93268190D01*
X157293548Y-93268581D01*
X157313674Y-93267995D01*
X157326374Y-93265650D01*
X157333408Y-93261547D01*
X157335949Y-93254708D01*
X157333408Y-93243961D01*
X157328524Y-93229698D01*
X157323834Y-93211917D01*
X157321685Y-93190423D01*
X157327547Y-93163459D01*
X157346500Y-93135713D01*
X157376142Y-93109213D01*
X157381475Y-93105231D01*
X157414234Y-93082944D01*
X157434818Y-93070060D01*
X157758000Y-93070060D01*
X157765425Y-93067911D01*
X157770701Y-93060681D01*
X157774023Y-93047004D01*
X157775000Y-93024534D01*
X157774023Y-93002454D01*
X157770701Y-92988386D01*
X157765425Y-92981351D01*
X157758000Y-92979397D01*
X157266779Y-92979397D01*
X157259354Y-92980961D01*
X157253883Y-92987604D01*
X157250561Y-93000305D01*
X157249780Y-93020626D01*
X157250561Y-93040751D01*
X157253883Y-93053061D01*
X157259354Y-93059314D01*
X157266779Y-93061268D01*
X157338293Y-93061268D01*
X157305533Y-93084503D01*
X157287882Y-93099370D01*
X157260890Y-93128174D01*
X157257205Y-93133173D01*
X157241573Y-93164827D01*
X157237274Y-93196481D01*
X156923291Y-93196481D01*
X156923291Y-92626711D01*
X157237274Y-92626711D01*
X157239885Y-92667936D01*
X157248604Y-92707077D01*
X157255837Y-92725776D01*
X157276030Y-92761024D01*
X157303721Y-92791524D01*
X157305662Y-92793187D01*
X157339661Y-92816048D01*
X157376504Y-92831092D01*
X157379131Y-92831875D01*
X157419986Y-92840710D01*
X157460442Y-92844076D01*
X157469403Y-92844185D01*
X157485621Y-92844185D01*
X157515907Y-92833438D01*
X157524895Y-92809014D01*
X157524895Y-92484855D01*
X157565732Y-92486906D01*
X157602271Y-92493061D01*
X157639733Y-92506664D01*
X157661475Y-92520416D01*
X157688908Y-92550686D01*
X157699382Y-92570437D01*
X157709968Y-92609496D01*
X157712473Y-92645859D01*
X157710260Y-92686770D01*
X157706807Y-92708386D01*
X157696813Y-92746902D01*
X157693715Y-92756062D01*
X157680819Y-92789083D01*
X157674958Y-92808623D01*
X157676912Y-92815266D01*
X157682773Y-92819956D01*
X157693715Y-92822496D01*
X157710715Y-92823277D01*
X157723415Y-92822691D01*
X157732990Y-92821324D01*
X157740415Y-92818588D01*
X157746863Y-92813703D01*
X157757023Y-92795922D01*
X157770090Y-92758899D01*
X157770505Y-92757430D01*
X157779518Y-92717789D01*
X157782229Y-92702719D01*
X157786763Y-92662282D01*
X157787505Y-92636481D01*
X157785473Y-92596346D01*
X157778622Y-92556619D01*
X157770310Y-92529600D01*
X157751952Y-92492227D01*
X157727311Y-92460464D01*
X157719117Y-92452419D01*
X157686077Y-92427981D01*
X157649503Y-92410513D01*
X157633925Y-92405134D01*
X157593194Y-92395489D01*
X157551754Y-92390559D01*
X157514930Y-92389307D01*
X157472147Y-92391246D01*
X157432457Y-92397065D01*
X157399061Y-92405720D01*
X157362571Y-92420091D01*
X157328002Y-92440310D01*
X157311524Y-92453201D01*
X157283282Y-92482853D01*
X157261473Y-92517443D01*
X157256423Y-92528232D01*
X157244025Y-92565694D01*
X157237948Y-92606639D01*
X157237405Y-92622803D01*
X157237274Y-92626711D01*
X156923291Y-92626711D01*
X156923291Y-92069446D01*
X157237274Y-92069446D01*
X157239885Y-92110671D01*
X157248604Y-92149813D01*
X157255837Y-92168511D01*
X157276030Y-92203759D01*
X157303721Y-92234259D01*
X157305662Y-92235922D01*
X157339661Y-92258783D01*
X157376504Y-92273827D01*
X157379131Y-92274610D01*
X157419986Y-92283446D01*
X157460442Y-92286812D01*
X157469403Y-92286920D01*
X157485621Y-92286920D01*
X157515907Y-92276173D01*
X157524895Y-92251749D01*
X157524895Y-91927590D01*
X157565732Y-91929642D01*
X157602271Y-91935797D01*
X157639733Y-91949399D01*
X157661475Y-91963152D01*
X157688908Y-91993422D01*
X157699382Y-92013173D01*
X157709968Y-92052232D01*
X157712473Y-92088595D01*
X157710260Y-92129506D01*
X157706807Y-92151121D01*
X157696813Y-92189637D01*
X157693715Y-92198797D01*
X157680819Y-92231819D01*
X157674958Y-92251358D01*
X157676912Y-92258002D01*
X157682773Y-92262691D01*
X157693715Y-92265231D01*
X157710715Y-92266013D01*
X157723415Y-92265427D01*
X157732990Y-92264059D01*
X157740415Y-92261324D01*
X157746863Y-92256439D01*
X157757023Y-92238658D01*
X157770090Y-92201634D01*
X157770505Y-92200165D01*
X157779518Y-92160524D01*
X157782229Y-92145455D01*
X157786763Y-92105017D01*
X157787505Y-92079216D01*
X157785473Y-92039082D01*
X157778622Y-91999354D01*
X157770310Y-91972335D01*
X157751952Y-91934962D01*
X157727311Y-91903199D01*
X157719117Y-91895155D01*
X157686077Y-91870717D01*
X157649503Y-91853248D01*
X157633925Y-91847869D01*
X157593194Y-91838225D01*
X157551754Y-91833294D01*
X157514930Y-91832042D01*
X157472147Y-91833982D01*
X157432457Y-91839800D01*
X157399061Y-91848455D01*
X157362571Y-91862826D01*
X157328002Y-91883045D01*
X157311524Y-91895936D01*
X157283282Y-91925589D01*
X157261473Y-91960178D01*
X157256423Y-91970968D01*
X157244025Y-92008429D01*
X157237948Y-92049374D01*
X157237405Y-92065538D01*
X157237274Y-92069446D01*
X156923291Y-92069446D01*
X156923291Y-91525273D01*
X157237274Y-91525273D01*
X157240491Y-91565633D01*
X157252044Y-91604248D01*
X157254078Y-91608511D01*
X157276569Y-91642459D01*
X157299019Y-91663222D01*
X157333702Y-91682971D01*
X157364867Y-91693117D01*
X157403570Y-91699709D01*
X157445735Y-91702220D01*
X157455530Y-91702300D01*
X157758000Y-91702300D01*
X157765425Y-91700151D01*
X157770701Y-91692922D01*
X157774023Y-91679244D01*
X157775000Y-91657164D01*
X157774023Y-91634694D01*
X157770701Y-91620821D01*
X157765425Y-91613787D01*
X157757805Y-91611638D01*
X157467058Y-91611638D01*
X157426695Y-91609763D01*
X157398866Y-91604994D01*
X157361409Y-91590200D01*
X157354120Y-91585650D01*
X157327343Y-91556726D01*
X157325397Y-91553019D01*
X157315675Y-91514797D01*
X157315432Y-91506711D01*
X157323098Y-91468304D01*
X157339661Y-91438518D01*
X157365200Y-91408096D01*
X157393996Y-91380949D01*
X157410785Y-91367004D01*
X157757805Y-91367004D01*
X157765425Y-91364855D01*
X157770701Y-91357625D01*
X157774023Y-91343947D01*
X157775000Y-91321477D01*
X157774023Y-91299397D01*
X157770701Y-91285329D01*
X157765425Y-91278295D01*
X157758000Y-91276341D01*
X157266779Y-91276341D01*
X157259354Y-91277904D01*
X157253883Y-91284548D01*
X157250561Y-91297248D01*
X157249780Y-91317569D01*
X157250561Y-91337695D01*
X157253883Y-91350005D01*
X157259354Y-91356257D01*
X157266779Y-91358211D01*
X157331650Y-91358211D01*
X157301160Y-91386912D01*
X157274956Y-91418117D01*
X157260136Y-91441449D01*
X157244508Y-91477978D01*
X157237475Y-91517365D01*
X157237274Y-91525273D01*
X156923291Y-91525273D01*
X156923291Y-91065706D01*
X157040317Y-91065706D01*
X157047798Y-91104175D01*
X157051650Y-91109279D01*
X157090588Y-91121151D01*
X157094441Y-91121198D01*
X157133099Y-91113200D01*
X157138210Y-91109083D01*
X157149636Y-91070437D01*
X157149728Y-91065120D01*
X157249780Y-91065120D01*
X157250952Y-91087590D01*
X157254274Y-91101268D01*
X157259745Y-91108497D01*
X157266779Y-91110647D01*
X157758000Y-91110647D01*
X157765425Y-91108497D01*
X157770701Y-91101268D01*
X157774023Y-91087590D01*
X157775000Y-91065120D01*
X157774023Y-91043040D01*
X157770701Y-91028972D01*
X157765425Y-91021938D01*
X157758000Y-91019984D01*
X157266779Y-91019984D01*
X157259745Y-91021938D01*
X157254274Y-91028972D01*
X157250952Y-91043040D01*
X157249780Y-91065120D01*
X157149728Y-91065120D01*
X157149738Y-91064534D01*
X157142256Y-91025936D01*
X157138405Y-91020765D01*
X157099467Y-91009087D01*
X157095614Y-91009042D01*
X157057085Y-91017039D01*
X157052041Y-91021156D01*
X157040420Y-91059803D01*
X157040317Y-91065706D01*
X156923291Y-91065706D01*
X156923291Y-90659872D01*
X157237274Y-90659872D01*
X157240194Y-90699428D01*
X157240596Y-90701882D01*
X157249780Y-90738421D01*
X157249780Y-90887897D01*
X157259159Y-90901770D01*
X157287491Y-90906460D01*
X157316018Y-90901184D01*
X157324811Y-90887897D01*
X157324811Y-90816969D01*
X157356920Y-90840475D01*
X157365062Y-90843738D01*
X157403573Y-90851363D01*
X157410980Y-90851554D01*
X157450938Y-90848086D01*
X157486011Y-90837681D01*
X157521084Y-90817237D01*
X157541113Y-90798407D01*
X157564076Y-90764798D01*
X157575502Y-90737834D01*
X157584802Y-90698314D01*
X157587421Y-90659872D01*
X157583727Y-90619614D01*
X157579605Y-90602231D01*
X157564007Y-90566222D01*
X157559675Y-90560221D01*
X157583513Y-90544003D01*
X157614190Y-90537751D01*
X157647993Y-90555531D01*
X157659063Y-90585622D01*
X157661587Y-90592482D01*
X157662452Y-90603208D01*
X157667923Y-90732363D01*
X157671777Y-90771773D01*
X157678279Y-90799774D01*
X157693699Y-90836676D01*
X157704462Y-90853117D01*
X157732936Y-90880450D01*
X157746277Y-90888288D01*
X157784007Y-90899748D01*
X157803722Y-90900989D01*
X157843552Y-90895960D01*
X157869375Y-90886725D01*
X157903744Y-90864414D01*
X157924085Y-90842956D01*
X157945237Y-90809544D01*
X157960541Y-90770767D01*
X157961406Y-90767925D01*
X157970261Y-90728193D01*
X157974429Y-90686652D01*
X157975083Y-90660263D01*
X157973627Y-90617893D01*
X157968763Y-90577573D01*
X157964727Y-90558267D01*
X157952662Y-90520019D01*
X157937897Y-90491443D01*
X158393696Y-90491443D01*
X158396115Y-90531227D01*
X158404916Y-90571841D01*
X158408351Y-90581715D01*
X158425692Y-90617228D01*
X158448406Y-90646000D01*
X158479641Y-90670716D01*
X158507611Y-90684297D01*
X158546842Y-90694567D01*
X158579321Y-90696998D01*
X158620089Y-90694862D01*
X158647904Y-90690940D01*
X158685627Y-90680700D01*
X158721568Y-90665344D01*
X158757861Y-90644918D01*
X158791768Y-90622112D01*
X158809690Y-90608875D01*
X158841408Y-90583550D01*
X158872400Y-90556711D01*
X158901896Y-90529637D01*
X158921260Y-90511178D01*
X159037715Y-90398631D01*
X159037715Y-90707940D01*
X159040256Y-90716537D01*
X159047876Y-90723571D01*
X159060381Y-90728065D01*
X159077771Y-90729433D01*
X159095552Y-90728065D01*
X159108644Y-90724157D01*
X159116459Y-90717514D01*
X159119000Y-90708526D01*
X159119000Y-90315588D01*
X159117046Y-90302106D01*
X159110793Y-90292141D01*
X159097897Y-90286083D01*
X159077381Y-90284325D01*
X159058036Y-90285106D01*
X159043187Y-90288624D01*
X159030486Y-90295462D01*
X159016808Y-90306209D01*
X158872217Y-90444157D01*
X158841270Y-90472207D01*
X158809654Y-90498742D01*
X158780577Y-90520752D01*
X158746399Y-90543512D01*
X158710727Y-90563296D01*
X158706522Y-90565302D01*
X158669049Y-90580076D01*
X158645950Y-90585818D01*
X158606896Y-90590581D01*
X158594757Y-90590899D01*
X158555327Y-90584915D01*
X158550011Y-90583083D01*
X158515902Y-90563494D01*
X158512886Y-90560808D01*
X158489302Y-90528342D01*
X158487485Y-90524269D01*
X158478555Y-90486020D01*
X158478106Y-90473857D01*
X158482152Y-90434595D01*
X158488462Y-90413676D01*
X158504985Y-90377442D01*
X158510933Y-90366977D01*
X158532754Y-90334218D01*
X158533403Y-90333369D01*
X158543759Y-90313439D01*
X158541414Y-90306404D01*
X158533989Y-90301520D01*
X158520116Y-90298393D01*
X158499404Y-90297416D01*
X158484359Y-90298003D01*
X158473417Y-90299956D01*
X158464819Y-90303474D01*
X158454659Y-90312266D01*
X158438246Y-90335127D01*
X158419603Y-90371262D01*
X158417729Y-90375769D01*
X158404840Y-90413403D01*
X158400730Y-90429503D01*
X158394527Y-90469490D01*
X158393696Y-90491443D01*
X157937897Y-90491443D01*
X157936786Y-90489293D01*
X157909281Y-90459412D01*
X157894581Y-90450409D01*
X157856969Y-90439253D01*
X157841043Y-90438295D01*
X157805676Y-90442594D01*
X157773046Y-90456076D01*
X157743346Y-90478742D01*
X157716271Y-90508714D01*
X157715404Y-90509809D01*
X157691165Y-90478316D01*
X157679647Y-90469949D01*
X157642081Y-90457506D01*
X157632752Y-90457053D01*
X157592346Y-90462396D01*
X157570812Y-90470730D01*
X157537349Y-90491543D01*
X157521769Y-90504729D01*
X157488722Y-90483187D01*
X157476437Y-90477765D01*
X157436699Y-90468949D01*
X157415279Y-90467995D01*
X157375662Y-90471561D01*
X157340443Y-90482259D01*
X157306412Y-90501768D01*
X157284560Y-90521728D01*
X157261201Y-90555405D01*
X157249584Y-90582496D01*
X157239979Y-90622045D01*
X157237400Y-90658113D01*
X157237274Y-90659872D01*
X156923291Y-90659872D01*
X156923291Y-90153605D01*
X157237274Y-90153605D01*
X157240491Y-90193965D01*
X157252044Y-90232580D01*
X157254078Y-90236843D01*
X157276569Y-90270792D01*
X157299019Y-90291554D01*
X157333702Y-90311303D01*
X157364867Y-90321449D01*
X157403570Y-90328041D01*
X157445735Y-90330552D01*
X157455530Y-90330633D01*
X157758000Y-90330633D01*
X157765425Y-90328483D01*
X157770701Y-90321254D01*
X157774023Y-90307576D01*
X157775000Y-90285497D01*
X157774023Y-90263026D01*
X157770701Y-90249153D01*
X157765425Y-90242119D01*
X157757805Y-90239970D01*
X157467058Y-90239970D01*
X157426695Y-90238095D01*
X157398866Y-90233326D01*
X157361409Y-90218532D01*
X157354120Y-90213982D01*
X157327343Y-90185058D01*
X157325397Y-90181351D01*
X157320775Y-90163180D01*
X158593780Y-90163180D01*
X158594366Y-90184088D01*
X158597101Y-90196984D01*
X158602377Y-90203627D01*
X158609607Y-90205581D01*
X158614296Y-90205190D01*
X158619376Y-90204409D01*
X158625434Y-90203041D01*
X158632468Y-90201087D01*
X159099265Y-90032462D01*
X159109230Y-90026600D01*
X159115287Y-90015853D01*
X159118218Y-89997877D01*
X159119000Y-89970326D01*
X159118023Y-89942776D01*
X159114701Y-89924995D01*
X159108644Y-89914248D01*
X159099265Y-89908191D01*
X158632468Y-89740152D01*
X158621135Y-89736439D01*
X158613710Y-89734876D01*
X158609607Y-89734681D01*
X158601986Y-89736830D01*
X158596906Y-89744255D01*
X158594366Y-89757933D01*
X158593780Y-89779035D01*
X158594561Y-89804632D01*
X158597688Y-89819482D01*
X158603159Y-89827102D01*
X158611170Y-89831792D01*
X159016222Y-89971499D01*
X159022866Y-89973648D01*
X159016222Y-89975407D01*
X158611170Y-90113160D01*
X158603159Y-90117067D01*
X158597688Y-90125079D01*
X158594561Y-90139342D01*
X158593780Y-90163180D01*
X157320775Y-90163180D01*
X157315675Y-90143129D01*
X157315432Y-90135043D01*
X157323098Y-90096637D01*
X157339661Y-90066850D01*
X157365200Y-90036428D01*
X157393996Y-90009281D01*
X157410785Y-89995336D01*
X157757805Y-89995336D01*
X157765425Y-89993187D01*
X157770701Y-89985957D01*
X157774023Y-89972280D01*
X157775000Y-89949809D01*
X157774023Y-89927730D01*
X157770701Y-89913661D01*
X157765425Y-89906627D01*
X157758000Y-89904673D01*
X157266779Y-89904673D01*
X157259354Y-89906236D01*
X157253883Y-89912880D01*
X157250561Y-89925580D01*
X157249780Y-89945901D01*
X157250561Y-89966027D01*
X157253883Y-89978337D01*
X157259354Y-89984589D01*
X157266779Y-89986543D01*
X157331650Y-89986543D01*
X157301160Y-90015245D01*
X157274956Y-90046450D01*
X157260136Y-90069781D01*
X157244508Y-90106310D01*
X157237475Y-90145697D01*
X157237274Y-90153605D01*
X156923291Y-90153605D01*
X156923291Y-89551986D01*
X157237274Y-89551986D01*
X157239885Y-89593212D01*
X157248604Y-89632353D01*
X157255837Y-89651051D01*
X157276030Y-89686300D01*
X157303721Y-89716799D01*
X157305662Y-89718462D01*
X157339661Y-89741324D01*
X157376504Y-89756367D01*
X157379131Y-89757150D01*
X157419986Y-89765986D01*
X157460442Y-89769352D01*
X157469403Y-89769460D01*
X157485621Y-89769460D01*
X157515907Y-89758714D01*
X157524895Y-89734289D01*
X157524895Y-89410130D01*
X157565732Y-89412182D01*
X157602271Y-89418337D01*
X157639733Y-89431940D01*
X157661475Y-89445692D01*
X157688908Y-89475962D01*
X157699382Y-89495713D01*
X157709968Y-89534772D01*
X157712473Y-89571135D01*
X157710260Y-89612046D01*
X157706807Y-89633661D01*
X157696813Y-89672177D01*
X157693715Y-89681337D01*
X157680819Y-89714359D01*
X157674958Y-89733899D01*
X157676912Y-89740542D01*
X157682773Y-89745231D01*
X157693715Y-89747772D01*
X157710715Y-89748553D01*
X157723415Y-89747967D01*
X157732990Y-89746599D01*
X157740415Y-89743864D01*
X157746863Y-89738979D01*
X157757023Y-89721198D01*
X157770090Y-89684174D01*
X157770505Y-89682705D01*
X157779518Y-89643065D01*
X157782229Y-89627995D01*
X157786763Y-89587557D01*
X157787505Y-89561756D01*
X157785473Y-89521622D01*
X157778622Y-89481894D01*
X157770310Y-89454875D01*
X157769255Y-89452727D01*
X158581274Y-89452727D01*
X158583885Y-89493952D01*
X158592604Y-89533093D01*
X158599837Y-89551792D01*
X158620030Y-89587040D01*
X158647721Y-89617540D01*
X158649662Y-89619203D01*
X158683661Y-89642064D01*
X158720504Y-89657108D01*
X158723131Y-89657891D01*
X158763986Y-89666727D01*
X158804442Y-89670093D01*
X158813403Y-89670201D01*
X158829621Y-89670201D01*
X158859907Y-89659454D01*
X158868895Y-89635030D01*
X158868895Y-89310871D01*
X158909732Y-89312922D01*
X158946271Y-89319077D01*
X158983733Y-89332680D01*
X159005475Y-89346432D01*
X159032908Y-89376702D01*
X159043382Y-89396453D01*
X159053968Y-89435512D01*
X159056473Y-89471876D01*
X159054260Y-89512786D01*
X159050807Y-89534402D01*
X159040813Y-89572918D01*
X159037715Y-89582078D01*
X159024819Y-89615100D01*
X159018958Y-89634639D01*
X159020912Y-89641282D01*
X159026773Y-89645972D01*
X159037715Y-89648512D01*
X159054715Y-89649294D01*
X159067415Y-89648707D01*
X159076990Y-89647340D01*
X159084415Y-89644604D01*
X159090863Y-89639719D01*
X159101023Y-89621938D01*
X159114090Y-89584915D01*
X159114505Y-89583446D01*
X159123518Y-89543805D01*
X159126229Y-89528735D01*
X159130763Y-89488298D01*
X159131505Y-89462497D01*
X159129473Y-89422362D01*
X159122622Y-89382635D01*
X159114310Y-89355616D01*
X159095952Y-89318243D01*
X159071311Y-89286480D01*
X159063117Y-89278435D01*
X159030077Y-89253997D01*
X158993503Y-89236529D01*
X158977925Y-89231150D01*
X158937194Y-89221505D01*
X158895754Y-89216575D01*
X158858930Y-89215323D01*
X158816147Y-89217262D01*
X158776457Y-89223081D01*
X158743061Y-89231736D01*
X158706571Y-89246107D01*
X158672002Y-89266326D01*
X158655524Y-89279217D01*
X158627282Y-89308869D01*
X158605473Y-89343459D01*
X158600423Y-89354248D01*
X158588025Y-89391710D01*
X158581948Y-89432655D01*
X158581405Y-89448819D01*
X158581274Y-89452727D01*
X157769255Y-89452727D01*
X157751952Y-89417503D01*
X157727311Y-89385740D01*
X157719117Y-89377695D01*
X157686077Y-89353257D01*
X157649503Y-89335788D01*
X157633925Y-89330409D01*
X157593194Y-89320765D01*
X157551754Y-89315834D01*
X157514930Y-89314582D01*
X157472147Y-89316522D01*
X157432457Y-89322340D01*
X157399061Y-89330996D01*
X157362571Y-89345366D01*
X157328002Y-89365585D01*
X157311524Y-89378476D01*
X157283282Y-89408129D01*
X157261473Y-89442718D01*
X157256423Y-89453508D01*
X157244025Y-89490970D01*
X157237948Y-89531914D01*
X157237405Y-89548079D01*
X157237274Y-89551986D01*
X156923291Y-89551986D01*
X156923291Y-89136578D01*
X157012180Y-89136578D01*
X157013548Y-89159049D01*
X157016870Y-89172726D01*
X157022341Y-89180151D01*
X157029766Y-89182691D01*
X157758000Y-89182691D01*
X157765816Y-89180737D01*
X157770896Y-89174094D01*
X157774023Y-89161784D01*
X157775000Y-89143026D01*
X157774023Y-89123682D01*
X157771092Y-89111177D01*
X157766207Y-89103947D01*
X157758782Y-89101798D01*
X157696842Y-89101798D01*
X157708496Y-89090075D01*
X158581274Y-89090075D01*
X158582056Y-89106293D01*
X158584987Y-89125246D01*
X158589872Y-89143027D01*
X158595343Y-89154360D01*
X158600618Y-89158658D01*
X158606871Y-89160612D01*
X158617813Y-89161785D01*
X158637548Y-89162176D01*
X158657674Y-89161589D01*
X158670374Y-89159245D01*
X158677408Y-89155141D01*
X158679949Y-89148303D01*
X158677408Y-89137556D01*
X158672524Y-89123292D01*
X158667834Y-89105511D01*
X158665685Y-89084018D01*
X158671547Y-89057053D01*
X158690500Y-89029307D01*
X158720142Y-89002807D01*
X158725475Y-88998826D01*
X158758234Y-88976538D01*
X158778818Y-88963655D01*
X159102000Y-88963655D01*
X159109425Y-88961506D01*
X159114701Y-88954276D01*
X159118023Y-88940598D01*
X159119000Y-88918128D01*
X159118023Y-88896049D01*
X159114701Y-88881980D01*
X159109425Y-88874946D01*
X159102000Y-88872992D01*
X158610779Y-88872992D01*
X158603354Y-88874555D01*
X158597883Y-88881199D01*
X158594561Y-88893899D01*
X158593780Y-88914220D01*
X158594561Y-88934346D01*
X158597883Y-88946656D01*
X158603354Y-88952908D01*
X158610779Y-88954862D01*
X158682293Y-88954862D01*
X158649533Y-88978098D01*
X158631882Y-88992964D01*
X158604890Y-89021769D01*
X158601205Y-89026767D01*
X158585573Y-89058421D01*
X158581274Y-89090075D01*
X157708496Y-89090075D01*
X157726297Y-89072168D01*
X157752254Y-89039015D01*
X157763667Y-89020709D01*
X157779962Y-88982417D01*
X157787132Y-88941059D01*
X157787505Y-88928679D01*
X157783990Y-88887156D01*
X157772342Y-88848282D01*
X157766207Y-88835866D01*
X157742794Y-88803000D01*
X157712855Y-88776573D01*
X157708370Y-88773536D01*
X157671324Y-88753978D01*
X157631713Y-88740760D01*
X157622592Y-88738560D01*
X157581714Y-88731475D01*
X157542435Y-88728142D01*
X157518838Y-88727618D01*
X157479656Y-88728954D01*
X157439421Y-88733508D01*
X157402187Y-88741296D01*
X157362473Y-88754696D01*
X157325330Y-88773887D01*
X157313478Y-88781938D01*
X157282775Y-88810050D01*
X157259543Y-88843830D01*
X157257009Y-88848762D01*
X157243519Y-88885997D01*
X157237756Y-88924790D01*
X157237274Y-88940793D01*
X157238117Y-88948609D01*
X157241482Y-88979828D01*
X157255245Y-89017869D01*
X157256423Y-89020123D01*
X157278368Y-89053797D01*
X157306054Y-89084839D01*
X157312892Y-89091442D01*
X157029570Y-89091442D01*
X157022145Y-89093396D01*
X157016870Y-89100821D01*
X157013548Y-89114694D01*
X157012180Y-89136578D01*
X156923291Y-89136578D01*
X156923291Y-88547660D01*
X157012180Y-88547660D01*
X157013353Y-88570130D01*
X157016479Y-88583808D01*
X157021950Y-88591037D01*
X157029570Y-88593187D01*
X157758000Y-88593187D01*
X157765621Y-88591037D01*
X157770701Y-88583808D01*
X157774023Y-88570130D01*
X157775000Y-88547660D01*
X157774023Y-88525580D01*
X157770701Y-88511512D01*
X157765621Y-88504478D01*
X157758000Y-88502524D01*
X157029570Y-88502524D01*
X157021950Y-88504478D01*
X157016479Y-88511512D01*
X157013353Y-88525580D01*
X157012180Y-88547660D01*
X156923291Y-88547660D01*
X156923291Y-88143975D01*
X157237274Y-88143975D01*
X157239274Y-88184672D01*
X157246550Y-88225058D01*
X157249389Y-88234638D01*
X157265459Y-88270265D01*
X157284951Y-88295015D01*
X157316790Y-88317917D01*
X157343178Y-88328427D01*
X157383233Y-88336660D01*
X157424071Y-88338979D01*
X157758391Y-88338979D01*
X157768356Y-88334485D01*
X157773436Y-88322370D01*
X157775000Y-88300095D01*
X157773436Y-88277039D01*
X157768356Y-88264729D01*
X157758391Y-88261016D01*
X157708956Y-88261016D01*
X157736921Y-88231214D01*
X157759948Y-88198570D01*
X157765621Y-88188721D01*
X157781328Y-88150321D01*
X157787419Y-88109861D01*
X157787505Y-88104310D01*
X157784582Y-88065037D01*
X157777149Y-88033773D01*
X157760540Y-87997869D01*
X157747058Y-87979844D01*
X157715767Y-87953926D01*
X157698796Y-87945259D01*
X157659839Y-87934681D01*
X157633534Y-87932949D01*
X157593576Y-87937199D01*
X157559284Y-87949949D01*
X157527294Y-87973772D01*
X157507114Y-87998797D01*
X157488845Y-88034213D01*
X157476508Y-88073892D01*
X157475851Y-88076760D01*
X157469146Y-88116256D01*
X157465991Y-88156034D01*
X157465495Y-88180709D01*
X157465495Y-88248902D01*
X157427393Y-88248902D01*
X157387365Y-88245205D01*
X157377568Y-88242845D01*
X157342319Y-88224141D01*
X157341420Y-88223305D01*
X157320190Y-88189665D01*
X157319731Y-88188330D01*
X157312661Y-88148969D01*
X157312306Y-88135769D01*
X157315359Y-88096430D01*
X157320122Y-88075392D01*
X157333288Y-88037806D01*
X157337316Y-88028693D01*
X157354511Y-87995280D01*
X157362327Y-87975155D01*
X157360177Y-87967534D01*
X157353339Y-87961672D01*
X157341810Y-87958155D01*
X157326179Y-87957178D01*
X157303904Y-87958937D01*
X157288468Y-87968316D01*
X157271859Y-87993912D01*
X157256498Y-88031342D01*
X157255055Y-88035727D01*
X157244980Y-88073609D01*
X157242355Y-88087311D01*
X157237771Y-88126184D01*
X157237274Y-88143975D01*
X156923291Y-88143975D01*
X156923291Y-87422970D01*
X157012180Y-87422970D01*
X157013353Y-87445441D01*
X157016479Y-87459118D01*
X157021950Y-87466348D01*
X157029375Y-87468497D01*
X157319535Y-87468497D01*
X157291611Y-87498118D01*
X157281238Y-87511093D01*
X157259836Y-87544105D01*
X157256032Y-87551540D01*
X157242351Y-87588543D01*
X157241769Y-87591009D01*
X157239038Y-87614848D01*
X157237292Y-87630096D01*
X157237274Y-87632824D01*
X157240854Y-87674029D01*
X157252715Y-87712561D01*
X157258963Y-87724855D01*
X157282559Y-87757581D01*
X157312681Y-87783954D01*
X157317191Y-87786990D01*
X157354053Y-87806645D01*
X157393494Y-87819799D01*
X157402578Y-87821966D01*
X157443203Y-87829050D01*
X157482362Y-87832384D01*
X157505942Y-87832908D01*
X157545349Y-87831534D01*
X157585787Y-87826849D01*
X157623178Y-87818839D01*
X157662892Y-87805342D01*
X157700036Y-87785830D01*
X157711887Y-87777611D01*
X157742547Y-87749401D01*
X157765651Y-87715695D01*
X157768161Y-87710786D01*
X157782045Y-87671250D01*
X157787335Y-87629779D01*
X157787505Y-87620319D01*
X157783653Y-87580355D01*
X157782815Y-87576550D01*
X157768871Y-87539673D01*
X157767575Y-87537276D01*
X157744921Y-87503616D01*
X157741001Y-87498783D01*
X157714256Y-87470046D01*
X157701922Y-87458141D01*
X157758977Y-87458141D01*
X157766207Y-87455797D01*
X157771092Y-87448762D01*
X157774023Y-87436453D01*
X157775000Y-87417499D01*
X157774023Y-87398742D01*
X157770896Y-87386041D01*
X157765816Y-87379397D01*
X157758000Y-87377834D01*
X157029570Y-87377834D01*
X157021950Y-87379788D01*
X157016479Y-87386822D01*
X157013353Y-87400891D01*
X157012180Y-87422970D01*
X156923291Y-87422970D01*
X156923291Y-86853787D01*
X157049696Y-86853787D01*
X157051051Y-86897299D01*
X157055118Y-86937758D01*
X157062934Y-86979624D01*
X157071385Y-87009516D01*
X157086696Y-87048316D01*
X157105518Y-87082652D01*
X157130277Y-87115263D01*
X157132739Y-87117960D01*
X157161929Y-87144904D01*
X157195229Y-87166631D01*
X157229068Y-87181854D01*
X157269683Y-87193757D01*
X157309250Y-87200291D01*
X157351336Y-87202741D01*
X157355683Y-87202761D01*
X157395833Y-87201438D01*
X157432083Y-87198072D01*
X157472845Y-87191435D01*
X157507896Y-87182831D01*
X157545823Y-87169898D01*
X157577456Y-87155280D01*
X157611693Y-87133683D01*
X157634902Y-87113466D01*
X157660418Y-87081406D01*
X157673590Y-87056215D01*
X157684807Y-87016414D01*
X157687463Y-86981184D01*
X157682998Y-86941800D01*
X157682383Y-86939370D01*
X157667337Y-86905371D01*
X157641936Y-86880360D01*
X157605983Y-86866292D01*
X157633119Y-86836756D01*
X157643499Y-86823696D01*
X157664971Y-86790744D01*
X157668900Y-86783250D01*
X157682878Y-86745747D01*
X157683164Y-86744561D01*
X157687463Y-86707437D01*
X157683341Y-86668110D01*
X157682773Y-86665818D01*
X157669096Y-86633578D01*
X157647016Y-86609544D01*
X157617512Y-86593131D01*
X157581559Y-86583947D01*
X157541637Y-86581223D01*
X157538768Y-86581212D01*
X157497957Y-86583478D01*
X157485034Y-86584924D01*
X157446413Y-86591717D01*
X157422508Y-86597625D01*
X157384705Y-86610340D01*
X157359396Y-86621658D01*
X157325077Y-86642606D01*
X157304295Y-86659956D01*
X157278597Y-86690065D01*
X157264825Y-86714080D01*
X157252659Y-86752686D01*
X157249780Y-86787157D01*
X157250254Y-86791065D01*
X157253883Y-86820961D01*
X157266779Y-86852028D01*
X157288663Y-86880556D01*
X157318612Y-86907802D01*
X157319731Y-86908693D01*
X157271664Y-86918072D01*
X157260331Y-86927841D01*
X157256423Y-86956564D01*
X157257595Y-86973173D01*
X157260526Y-86983919D01*
X157265216Y-86989195D01*
X157271664Y-86989390D01*
X157522941Y-86940542D01*
X157562704Y-86937220D01*
X157590547Y-86944841D01*
X157611384Y-86979912D01*
X157612431Y-86994862D01*
X157602643Y-87033238D01*
X157601294Y-87035504D01*
X157574688Y-87064749D01*
X157571203Y-87067353D01*
X157536277Y-87086930D01*
X157527044Y-87090605D01*
X157489398Y-87102270D01*
X157473897Y-87105845D01*
X157434831Y-87112604D01*
X157416646Y-87114638D01*
X157377362Y-87117283D01*
X157360177Y-87117569D01*
X157319738Y-87115063D01*
X157281168Y-87107546D01*
X157270491Y-87104478D01*
X157232833Y-87088352D01*
X157199726Y-87064155D01*
X157195655Y-87060319D01*
X157169818Y-87028887D01*
X157150380Y-86992400D01*
X157144071Y-86976494D01*
X157133058Y-86937330D01*
X157127013Y-86896236D01*
X157124803Y-86854781D01*
X157124727Y-86844994D01*
X157126120Y-86805843D01*
X157130870Y-86765994D01*
X157138991Y-86729516D01*
X157152131Y-86690397D01*
X157170104Y-86652741D01*
X157177484Y-86640416D01*
X157201830Y-86606734D01*
X157229439Y-86577860D01*
X157233367Y-86574373D01*
X157266046Y-86549118D01*
X157300778Y-86528065D01*
X157336926Y-86510968D01*
X157373855Y-86497583D01*
X157412791Y-86486878D01*
X157445956Y-86479998D01*
X157485647Y-86474251D01*
X157511217Y-86471986D01*
X157550290Y-86470187D01*
X157562997Y-86470033D01*
X157603416Y-86471695D01*
X157644719Y-86477300D01*
X157673785Y-86484101D01*
X157712329Y-86498917D01*
X157746357Y-86520506D01*
X157760540Y-86532754D01*
X157787519Y-86564756D01*
X157807614Y-86601223D01*
X157817205Y-86625566D01*
X157827921Y-86665000D01*
X157834172Y-86705483D01*
X157837030Y-86745438D01*
X157837526Y-86772307D01*
X157836368Y-86812869D01*
X157833422Y-86844994D01*
X157828041Y-86883863D01*
X157825020Y-86901268D01*
X157816423Y-86939956D01*
X157812515Y-86960277D01*
X157814469Y-86965943D01*
X157820722Y-86969851D01*
X157831664Y-86971805D01*
X157848077Y-86972391D01*
X157861168Y-86972000D01*
X157870743Y-86970633D01*
X157878363Y-86967702D01*
X157884616Y-86962426D01*
X157892041Y-86943473D01*
X157900833Y-86904375D01*
X157901420Y-86901072D01*
X157906901Y-86862239D01*
X157909235Y-86838742D01*
X157911827Y-86798862D01*
X157912557Y-86760193D01*
X157911398Y-86716809D01*
X157907920Y-86676418D01*
X157901105Y-86633919D01*
X157891262Y-86595329D01*
X157888328Y-86586292D01*
X157873046Y-86548372D01*
X157852186Y-86511132D01*
X157827242Y-86479045D01*
X157818963Y-86470423D01*
X157789082Y-86444881D01*
X157755613Y-86424185D01*
X157718557Y-86408336D01*
X157710715Y-86405748D01*
X157669716Y-86395341D01*
X157630371Y-86389270D01*
X157588706Y-86386321D01*
X157569445Y-86386013D01*
X157530259Y-86387158D01*
X157503597Y-86388944D01*
X157462773Y-86393755D01*
X157424462Y-86400472D01*
X157384692Y-86410035D01*
X157346875Y-86421671D01*
X157338684Y-86424506D01*
X157300761Y-86439733D01*
X157263586Y-86458400D01*
X157253101Y-86464366D01*
X157219933Y-86485920D01*
X157188378Y-86510892D01*
X157174357Y-86523571D01*
X157145741Y-86554052D01*
X157122074Y-86585852D01*
X157109487Y-86606027D01*
X157090234Y-86643680D01*
X157075579Y-86681526D01*
X157065718Y-86714862D01*
X157057269Y-86754791D01*
X157051949Y-86797889D01*
X157049837Y-86839385D01*
X157049696Y-86853787D01*
X156923291Y-86853787D01*
X156923291Y-86297124D01*
X159220394Y-86297124D01*
X159220394Y-93357470D01*
G37*
G36*
X128601744Y-96815621D02*
G01*
X128229522Y-96815621D01*
X128229522Y-95869047D01*
X128340633Y-95869047D01*
X128342074Y-96645583D01*
X128353273Y-96672619D01*
X128373965Y-96693311D01*
X128401001Y-96704510D01*
X128430265Y-96704510D01*
X128457301Y-96693311D01*
X128477993Y-96672619D01*
X128489192Y-96645583D01*
X128490633Y-96630951D01*
X128489192Y-95854415D01*
X128477993Y-95827379D01*
X128457301Y-95806687D01*
X128430265Y-95795488D01*
X128401001Y-95795488D01*
X128373965Y-95806687D01*
X128353273Y-95827379D01*
X128342074Y-95854415D01*
X128340633Y-95869047D01*
X128229522Y-95869047D01*
X128229522Y-95684377D01*
X128601744Y-95684377D01*
X128601744Y-96815621D01*
G37*
G36*
X129055121Y-103289489D02*
G01*
X127923877Y-103289489D01*
X127923877Y-102738498D01*
X128034988Y-102738498D01*
X128046187Y-102765534D01*
X128066879Y-102786226D01*
X128093915Y-102797425D01*
X128108547Y-102798866D01*
X128415344Y-102798296D01*
X128415940Y-103119451D01*
X128427139Y-103146487D01*
X128447831Y-103167179D01*
X128474867Y-103178378D01*
X128504131Y-103178378D01*
X128531167Y-103167179D01*
X128551859Y-103146487D01*
X128563058Y-103119451D01*
X128564499Y-103104819D01*
X128563929Y-102798020D01*
X128885083Y-102797425D01*
X128912119Y-102786226D01*
X128932811Y-102765534D01*
X128944010Y-102738498D01*
X128944010Y-102709234D01*
X128932811Y-102682198D01*
X128912119Y-102661506D01*
X128885083Y-102650307D01*
X128870451Y-102648866D01*
X128563653Y-102649435D01*
X128563058Y-102328282D01*
X128551859Y-102301246D01*
X128531167Y-102280554D01*
X128504131Y-102269355D01*
X128474867Y-102269355D01*
X128447831Y-102280554D01*
X128427139Y-102301246D01*
X128415940Y-102328282D01*
X128414499Y-102342914D01*
X128415068Y-102649711D01*
X128093915Y-102650307D01*
X128066879Y-102661506D01*
X128046187Y-102682198D01*
X128034988Y-102709234D01*
X128034988Y-102738498D01*
X127923877Y-102738498D01*
X127923877Y-102158244D01*
X129055121Y-102158244D01*
X129055121Y-103289489D01*
G37*
D11*
%TO.C,R2*%
X145880000Y-101542936D02*
X145880000Y-102997064D01*
X147700000Y-101542936D02*
X147700000Y-102997064D01*
%TO.C,D3*%
X149996000Y-96741000D02*
X149996000Y-104401000D01*
X149996000Y-104401000D02*
X154296000Y-104401000D01*
X154296000Y-96741000D02*
X154296000Y-104401000D01*
%TO.C,D2*%
X145655000Y-94460000D02*
X145655000Y-98520000D01*
X147925000Y-94460000D02*
X145655000Y-94460000D01*
X147925000Y-98520000D02*
X147925000Y-94460000D01*
%TD*%
M02*
