%TF.GenerationSoftware,KiCad,Pcbnew,8.0.1*%
%TF.CreationDate,2024-04-06T17:54:05-05:00*%
%TF.ProjectId,Banana to USB-C Adapter,42616e61-6e61-4207-946f-205553422d43,2*%
%TF.SameCoordinates,Original*%
%TF.FileFunction,Copper,L1,Top*%
%TF.FilePolarity,Positive*%
%FSLAX46Y46*%
G04 Gerber Fmt 4.6, Leading zero omitted, Abs format (unit mm)*
G04 Created by KiCad (PCBNEW 8.0.1) date 2024-04-06 17:54:05*
%MOMM*%
%LPD*%
G01*
G04 APERTURE LIST*
G04 Aperture macros list*
%AMRoundRect*
0 Rectangle with rounded corners*
0 $1 Rounding radius*
0 $2 $3 $4 $5 $6 $7 $8 $9 X,Y pos of 4 corners*
0 Add a 4 corners polygon primitive as box body*
4,1,4,$2,$3,$4,$5,$6,$7,$8,$9,$2,$3,0*
0 Add four circle primitives for the rounded corners*
1,1,$1+$1,$2,$3*
1,1,$1+$1,$4,$5*
1,1,$1+$1,$6,$7*
1,1,$1+$1,$8,$9*
0 Add four rect primitives between the rounded corners*
20,1,$1+$1,$2,$3,$4,$5,0*
20,1,$1+$1,$4,$5,$6,$7,0*
20,1,$1+$1,$6,$7,$8,$9,0*
20,1,$1+$1,$8,$9,$2,$3,0*%
G04 Aperture macros list end*
%TA.AperFunction,ComponentPad*%
%ADD10R,1.700000X1.700000*%
%TD*%
%TA.AperFunction,ComponentPad*%
%ADD11C,0.800000*%
%TD*%
%TA.AperFunction,ComponentPad*%
%ADD12C,6.400000*%
%TD*%
%TA.AperFunction,SMDPad,CuDef*%
%ADD13RoundRect,0.250000X0.625000X-0.400000X0.625000X0.400000X-0.625000X0.400000X-0.625000X-0.400000X0*%
%TD*%
%TA.AperFunction,SMDPad,CuDef*%
%ADD14RoundRect,0.175000X0.425000X-0.175000X0.425000X0.175000X-0.425000X0.175000X-0.425000X-0.175000X0*%
%TD*%
%TA.AperFunction,SMDPad,CuDef*%
%ADD15RoundRect,0.190000X-0.410000X0.190000X-0.410000X-0.190000X0.410000X-0.190000X0.410000X0.190000X0*%
%TD*%
%TA.AperFunction,SMDPad,CuDef*%
%ADD16RoundRect,0.200000X-0.400000X0.200000X-0.400000X-0.200000X0.400000X-0.200000X0.400000X0.200000X0*%
%TD*%
%TA.AperFunction,SMDPad,CuDef*%
%ADD17RoundRect,0.175000X-0.425000X0.175000X-0.425000X-0.175000X0.425000X-0.175000X0.425000X0.175000X0*%
%TD*%
%TA.AperFunction,SMDPad,CuDef*%
%ADD18RoundRect,0.190000X0.410000X-0.190000X0.410000X0.190000X-0.410000X0.190000X-0.410000X-0.190000X0*%
%TD*%
%TA.AperFunction,SMDPad,CuDef*%
%ADD19RoundRect,0.200000X0.400000X-0.200000X0.400000X0.200000X-0.400000X0.200000X-0.400000X-0.200000X0*%
%TD*%
%TA.AperFunction,ComponentPad*%
%ADD20O,1.700000X1.100000*%
%TD*%
%TA.AperFunction,SMDPad,CuDef*%
%ADD21RoundRect,0.250001X-0.624999X0.462499X-0.624999X-0.462499X0.624999X-0.462499X0.624999X0.462499X0*%
%TD*%
%TA.AperFunction,ViaPad*%
%ADD22C,0.800000*%
%TD*%
%TA.AperFunction,Conductor*%
%ADD23C,0.250000*%
%TD*%
%TA.AperFunction,Conductor*%
%ADD24C,0.500000*%
%TD*%
G04 APERTURE END LIST*
D10*
%TO.P,J3,1,Pin_1*%
%TO.N,GND*%
X152882600Y-88671400D03*
%TD*%
D11*
%TO.P,H1,1,1*%
%TO.N,/Positive*%
X126600138Y-108968250D03*
X127303082Y-107271194D03*
X127303082Y-110665306D03*
X129000138Y-106568250D03*
D12*
X129000138Y-108968250D03*
D11*
X129000138Y-111368250D03*
X130697194Y-107271194D03*
X130697194Y-110665306D03*
X131400138Y-108968250D03*
%TD*%
D10*
%TO.P,J2,1,Pin_1*%
%TO.N,/Positive*%
X152882600Y-110337600D03*
%TD*%
D13*
%TO.P,R1,1*%
%TO.N,/Positive*%
X146790000Y-103820000D03*
%TO.P,R1,2*%
%TO.N,Net-(D1-A)*%
X146790000Y-100720000D03*
%TD*%
D14*
%TO.P,J1,A5,CC1*%
%TO.N,Net-(J1-CC1)*%
X153110000Y-99660000D03*
D15*
%TO.P,J1,A9,VBUS*%
%TO.N,/Positive*%
X153110000Y-97640000D03*
D16*
%TO.P,J1,A12,GND*%
%TO.N,GND*%
X153110000Y-96410000D03*
D17*
%TO.P,J1,B5,CC2*%
%TO.N,Net-(J1-CC2)*%
X153110000Y-98660000D03*
D18*
%TO.P,J1,B9,VBUS*%
%TO.N,/Positive*%
X153110000Y-100680000D03*
D19*
%TO.P,J1,B12,GND*%
%TO.N,GND*%
X153110000Y-101910000D03*
D20*
%TO.P,J1,S1,SHIELD*%
X153190000Y-103480000D03*
X156990000Y-103480000D03*
X153190000Y-94840000D03*
X156990000Y-94840000D03*
%TD*%
D11*
%TO.P,H2,1,1*%
%TO.N,GND*%
X126600138Y-89918250D03*
X127303082Y-88221194D03*
X127303082Y-91615306D03*
X129000138Y-87518250D03*
D12*
X129000138Y-89918250D03*
D11*
X129000138Y-92318250D03*
X130697194Y-88221194D03*
X130697194Y-91615306D03*
X131400138Y-89918250D03*
%TD*%
D21*
%TO.P,D1,1,K*%
%TO.N,GND*%
X146790000Y-95432500D03*
%TO.P,D1,2,A*%
%TO.N,Net-(D1-A)*%
X146790000Y-98407500D03*
%TD*%
D22*
%TO.N,GND*%
X144856200Y-86588600D03*
X144856200Y-95250000D03*
X144856200Y-88320880D03*
X144856200Y-90053160D03*
X144856200Y-91785440D03*
X144856200Y-93517720D03*
%TO.N,/Positive*%
X154051000Y-100711000D03*
X144856200Y-110535720D03*
X144856200Y-105415080D03*
X152146000Y-97663000D03*
X144856200Y-107121960D03*
X144856200Y-103708200D03*
X144856200Y-108828840D03*
X144856200Y-112242600D03*
X152146000Y-100711000D03*
%TO.N,Net-(J1-CC2)*%
X149987000Y-97663000D03*
%TO.N,Net-(J1-CC1)*%
X150114000Y-101600000D03*
%TD*%
D23*
%TO.N,GND*%
X138500000Y-88450000D02*
X138500000Y-91250000D01*
%TO.N,/Positive*%
X154020000Y-100680000D02*
X154051000Y-100711000D01*
X152169000Y-97640000D02*
X152146000Y-97663000D01*
X153110000Y-100680000D02*
X152177000Y-100680000D01*
X153110000Y-100680000D02*
X154020000Y-100680000D01*
X152177000Y-100680000D02*
X152146000Y-100711000D01*
X153110000Y-97640000D02*
X152169000Y-97640000D01*
D24*
%TO.N,Net-(D1-A)*%
X146790000Y-98407500D02*
X146790000Y-100720000D01*
D23*
%TO.N,Net-(J1-CC2)*%
X150222000Y-98660000D02*
X149987000Y-98425000D01*
X153110000Y-98660000D02*
X150222000Y-98660000D01*
X149987000Y-98425000D02*
X149987000Y-97663000D01*
%TO.N,Net-(J1-CC1)*%
X150114000Y-99949000D02*
X150114000Y-101600000D01*
X150403000Y-99660000D02*
X150114000Y-99949000D01*
X153110000Y-99660000D02*
X150403000Y-99660000D01*
%TD*%
%TA.AperFunction,Conductor*%
%TO.N,GND*%
G36*
X156192641Y-93909500D02*
G01*
X156192631Y-93909505D01*
X156020664Y-94024410D01*
X156020660Y-94024413D01*
X155874413Y-94170660D01*
X155874410Y-94170664D01*
X155759505Y-94342631D01*
X155759500Y-94342641D01*
X155680351Y-94533723D01*
X155680350Y-94533725D01*
X155669157Y-94590000D01*
X156523012Y-94590000D01*
X156505795Y-94599940D01*
X156449940Y-94655795D01*
X156410444Y-94724204D01*
X156390000Y-94800504D01*
X156390000Y-94879496D01*
X156410444Y-94955796D01*
X156449940Y-95024205D01*
X156505795Y-95080060D01*
X156523012Y-95090000D01*
X155669157Y-95090000D01*
X155680350Y-95146274D01*
X155680351Y-95146276D01*
X155759500Y-95337358D01*
X155759505Y-95337368D01*
X155874410Y-95509335D01*
X155874413Y-95509339D01*
X156020660Y-95655586D01*
X156020664Y-95655589D01*
X156192631Y-95770494D01*
X156192641Y-95770499D01*
X156383725Y-95849649D01*
X156383733Y-95849651D01*
X156586579Y-95889999D01*
X156586583Y-95890000D01*
X156740000Y-95890000D01*
X156740000Y-95140000D01*
X157240000Y-95140000D01*
X157240000Y-95890000D01*
X157393417Y-95890000D01*
X157393420Y-95889999D01*
X157596266Y-95849651D01*
X157596274Y-95849649D01*
X157787358Y-95770499D01*
X157787368Y-95770494D01*
X157959335Y-95655589D01*
X157959339Y-95655586D01*
X158105586Y-95509339D01*
X158105589Y-95509335D01*
X158220494Y-95337368D01*
X158220499Y-95337358D01*
X158299648Y-95146276D01*
X158299649Y-95146274D01*
X158310843Y-95090000D01*
X157456988Y-95090000D01*
X157474205Y-95080060D01*
X157530060Y-95024205D01*
X157569556Y-94955796D01*
X157590000Y-94879496D01*
X157590000Y-94800504D01*
X157569556Y-94724204D01*
X157530060Y-94655795D01*
X157474205Y-94599940D01*
X157456988Y-94590000D01*
X158310843Y-94590000D01*
X158299649Y-94533725D01*
X158299648Y-94533723D01*
X158220499Y-94342641D01*
X158220494Y-94342631D01*
X158105589Y-94170664D01*
X158105586Y-94170660D01*
X157959339Y-94024413D01*
X157959335Y-94024410D01*
X157787368Y-93909505D01*
X157787358Y-93909500D01*
X157650955Y-93853000D01*
X158496000Y-93853000D01*
X158427964Y-99500000D01*
X158388077Y-102810664D01*
X158387893Y-102825895D01*
X158367402Y-102892692D01*
X158314051Y-102937808D01*
X158244778Y-102946917D01*
X158181576Y-102917129D01*
X158160800Y-102893292D01*
X158105589Y-102810664D01*
X158105586Y-102810660D01*
X157959339Y-102664413D01*
X157959335Y-102664410D01*
X157787368Y-102549505D01*
X157787358Y-102549500D01*
X157596274Y-102470350D01*
X157596266Y-102470348D01*
X157393420Y-102430000D01*
X157240000Y-102430000D01*
X157240000Y-103180000D01*
X156740000Y-103180000D01*
X156740000Y-102430000D01*
X156586579Y-102430000D01*
X156383733Y-102470348D01*
X156383725Y-102470350D01*
X156192641Y-102549500D01*
X156192631Y-102549505D01*
X156020664Y-102664410D01*
X156020660Y-102664413D01*
X155874413Y-102810660D01*
X155874410Y-102810664D01*
X155759505Y-102982631D01*
X155759500Y-102982641D01*
X155680351Y-103173723D01*
X155680350Y-103173725D01*
X155669157Y-103230000D01*
X156523012Y-103230000D01*
X156505795Y-103239940D01*
X156449940Y-103295795D01*
X156410444Y-103364204D01*
X156390000Y-103440504D01*
X156390000Y-103519496D01*
X156410444Y-103595796D01*
X156449940Y-103664205D01*
X156505795Y-103720060D01*
X156523012Y-103730000D01*
X155669157Y-103730000D01*
X155680350Y-103786274D01*
X155680351Y-103786276D01*
X155759500Y-103977358D01*
X155759505Y-103977368D01*
X155874410Y-104149335D01*
X155874413Y-104149339D01*
X155907393Y-104182319D01*
X155940878Y-104243642D01*
X155935894Y-104313334D01*
X155894022Y-104369267D01*
X155828558Y-104393684D01*
X155819712Y-104394000D01*
X154360288Y-104394000D01*
X154293249Y-104374315D01*
X154247494Y-104321511D01*
X154237550Y-104252353D01*
X154266575Y-104188797D01*
X154272607Y-104182319D01*
X154305586Y-104149339D01*
X154305589Y-104149335D01*
X154420494Y-103977368D01*
X154420499Y-103977358D01*
X154499648Y-103786276D01*
X154499649Y-103786274D01*
X154510843Y-103730000D01*
X153656988Y-103730000D01*
X153674205Y-103720060D01*
X153730060Y-103664205D01*
X153769556Y-103595796D01*
X153790000Y-103519496D01*
X153790000Y-103440504D01*
X153769556Y-103364204D01*
X153730060Y-103295795D01*
X153674205Y-103239940D01*
X153656988Y-103230000D01*
X154510843Y-103230000D01*
X154499649Y-103173725D01*
X154499648Y-103173723D01*
X154420499Y-102982641D01*
X154420494Y-102982631D01*
X154305589Y-102810664D01*
X154305586Y-102810660D01*
X154159337Y-102664411D01*
X154139254Y-102650992D01*
X154094450Y-102597379D01*
X154085744Y-102528054D01*
X154102031Y-102483740D01*
X154153018Y-102399398D01*
X154153019Y-102399396D01*
X154203590Y-102237106D01*
X154210000Y-102166572D01*
X154210000Y-102160000D01*
X153360000Y-102160000D01*
X153360000Y-102387000D01*
X153378290Y-102405290D01*
X153383039Y-102406685D01*
X153428794Y-102459489D01*
X153440000Y-102511000D01*
X153440000Y-103180000D01*
X152940000Y-103180000D01*
X152940000Y-102853000D01*
X152921709Y-102834709D01*
X152916961Y-102833315D01*
X152871206Y-102780511D01*
X152860000Y-102729000D01*
X152860000Y-101784000D01*
X152879685Y-101716961D01*
X152932489Y-101671206D01*
X152984000Y-101660000D01*
X154209999Y-101660000D01*
X154209999Y-101653417D01*
X154203591Y-101582897D01*
X154203590Y-101582892D01*
X154158590Y-101438482D01*
X154157438Y-101368622D01*
X154194239Y-101309229D01*
X154229521Y-101287030D01*
X154353841Y-101235536D01*
X154479282Y-101139282D01*
X154575536Y-101013841D01*
X154636044Y-100867762D01*
X154656682Y-100711000D01*
X154636044Y-100554238D01*
X154575536Y-100408159D01*
X154479282Y-100282718D01*
X154372778Y-100200995D01*
X154331577Y-100144568D01*
X154324284Y-100100486D01*
X154334638Y-99500000D01*
X154406034Y-95359008D01*
X154420494Y-95337368D01*
X154420499Y-95337358D01*
X154499648Y-95146276D01*
X154499649Y-95146274D01*
X154510843Y-95090000D01*
X154410672Y-95090000D01*
X154419293Y-94590000D01*
X154510843Y-94590000D01*
X154499649Y-94533725D01*
X154499648Y-94533723D01*
X154423435Y-94349730D01*
X154432000Y-93853000D01*
X156329045Y-93853000D01*
X156192641Y-93909500D01*
G37*
%TD.AperFunction*%
%TD*%
%TA.AperFunction,Conductor*%
%TO.N,/Positive*%
G36*
X133225000Y-106000000D02*
G01*
X133225000Y-112689747D01*
X125455059Y-112689455D01*
X125388021Y-112669768D01*
X125342268Y-112616962D01*
X125331064Y-112565740D01*
X125315796Y-105928517D01*
X125313744Y-105036255D01*
X125575000Y-104775000D01*
X132000000Y-104775000D01*
X133225000Y-106000000D01*
G37*
%TD.AperFunction*%
%TD*%
%TA.AperFunction,Conductor*%
%TO.N,/Positive*%
G36*
X149574175Y-97013685D02*
G01*
X149619930Y-97066489D01*
X149629874Y-97135647D01*
X149600849Y-97199203D01*
X149582628Y-97216371D01*
X149558718Y-97234718D01*
X149462463Y-97360160D01*
X149401956Y-97506237D01*
X149401955Y-97506239D01*
X149381318Y-97662998D01*
X149381318Y-97663001D01*
X149401955Y-97819760D01*
X149401956Y-97819762D01*
X149462464Y-97965841D01*
X149558718Y-98091282D01*
X149612987Y-98132924D01*
X149654189Y-98189349D01*
X149661500Y-98231298D01*
X149661500Y-98467852D01*
X149683682Y-98550640D01*
X149705108Y-98587750D01*
X149726535Y-98624862D01*
X150022138Y-98920465D01*
X150096361Y-98963318D01*
X150179147Y-98985500D01*
X152263201Y-98985500D01*
X152330240Y-99005185D01*
X152368594Y-99048288D01*
X152369206Y-99047852D01*
X152373262Y-99053534D01*
X152374600Y-99055037D01*
X152375174Y-99056211D01*
X152375176Y-99056214D01*
X152391281Y-99072319D01*
X152424766Y-99133642D01*
X152419782Y-99203334D01*
X152391281Y-99247681D01*
X152375174Y-99263788D01*
X152374600Y-99264963D01*
X152373390Y-99266286D01*
X152369206Y-99272148D01*
X152368497Y-99271642D01*
X152327471Y-99316544D01*
X152263201Y-99334500D01*
X150453465Y-99334500D01*
X150453449Y-99334499D01*
X150445853Y-99334499D01*
X150360147Y-99334499D01*
X150304956Y-99349287D01*
X150277360Y-99356682D01*
X150258805Y-99367395D01*
X150240250Y-99378108D01*
X150203138Y-99399535D01*
X150149604Y-99453069D01*
X150149603Y-99453068D01*
X150149601Y-99453071D01*
X149853537Y-99749135D01*
X149853533Y-99749141D01*
X149810681Y-99823361D01*
X149810682Y-99823362D01*
X149788500Y-99906147D01*
X149788500Y-101031699D01*
X149768815Y-101098738D01*
X149739988Y-101130074D01*
X149685720Y-101171715D01*
X149589463Y-101297160D01*
X149528956Y-101443237D01*
X149528955Y-101443239D01*
X149508318Y-101599998D01*
X149508318Y-101600001D01*
X149528955Y-101756760D01*
X149528956Y-101756762D01*
X149585842Y-101894098D01*
X149589464Y-101902841D01*
X149685718Y-102028282D01*
X149811159Y-102124536D01*
X149957238Y-102185044D01*
X150035619Y-102195363D01*
X150113999Y-102205682D01*
X150114000Y-102205682D01*
X150114001Y-102205682D01*
X150181542Y-102196790D01*
X150270762Y-102185044D01*
X150416841Y-102124536D01*
X150542282Y-102028282D01*
X150638536Y-101902841D01*
X150699044Y-101756762D01*
X150719682Y-101600000D01*
X150717667Y-101584698D01*
X150705923Y-101495492D01*
X150699044Y-101443238D01*
X150638536Y-101297159D01*
X150542282Y-101171718D01*
X150542280Y-101171716D01*
X150542279Y-101171715D01*
X150488012Y-101130074D01*
X150446810Y-101073646D01*
X150439500Y-101031699D01*
X150439500Y-100135188D01*
X150459185Y-100068149D01*
X150475819Y-100047507D01*
X150501507Y-100021819D01*
X150562830Y-99988334D01*
X150589188Y-99985500D01*
X152263201Y-99985500D01*
X152330240Y-100005185D01*
X152374600Y-100055036D01*
X152379253Y-100064553D01*
X152391014Y-100133425D01*
X152367625Y-100192650D01*
X152303018Y-100280189D01*
X152296087Y-100299999D01*
X152296087Y-100300000D01*
X153366000Y-100300000D01*
X153433039Y-100319685D01*
X153478794Y-100372489D01*
X153490000Y-100424000D01*
X153490000Y-100936000D01*
X153470315Y-101003039D01*
X153417511Y-101048794D01*
X153366000Y-101060000D01*
X152296087Y-101060000D01*
X152303018Y-101079810D01*
X152382498Y-101187501D01*
X152429740Y-101222368D01*
X152471991Y-101278016D01*
X152477449Y-101347672D01*
X152444381Y-101409221D01*
X152443788Y-101409819D01*
X152381951Y-101471655D01*
X152381951Y-101471657D01*
X152324352Y-101584698D01*
X152309500Y-101678475D01*
X152309500Y-101867818D01*
X152289815Y-101934857D01*
X152237011Y-101980612D01*
X152167853Y-101990556D01*
X152110181Y-101966322D01*
X152055572Y-101924566D01*
X152055569Y-101924565D01*
X151992014Y-101895540D01*
X151968549Y-101886515D01*
X151968546Y-101886514D01*
X151877403Y-101879061D01*
X151877401Y-101879061D01*
X151808245Y-101889005D01*
X151783627Y-101894098D01*
X151783626Y-101894098D01*
X151702916Y-101937107D01*
X151702913Y-101937109D01*
X151650104Y-101982868D01*
X151632160Y-102000450D01*
X151632154Y-102000457D01*
X151587511Y-102080267D01*
X151587509Y-102080272D01*
X151567826Y-102147304D01*
X151567825Y-102147309D01*
X151567825Y-102147310D01*
X151560711Y-102196790D01*
X151559500Y-102205211D01*
X151559500Y-102616000D01*
X148082000Y-102616000D01*
X148082000Y-97118000D01*
X148101685Y-97050961D01*
X148154489Y-97005206D01*
X148206000Y-96994000D01*
X149507136Y-96994000D01*
X149574175Y-97013685D01*
G37*
%TD.AperFunction*%
%TA.AperFunction,Conductor*%
G36*
X152306123Y-97013685D02*
G01*
X152351878Y-97066489D01*
X152361822Y-97135647D01*
X152338854Y-97191633D01*
X152303019Y-97240187D01*
X152296087Y-97259999D01*
X152296087Y-97260000D01*
X153366000Y-97260000D01*
X153433039Y-97279685D01*
X153478794Y-97332489D01*
X153490000Y-97384000D01*
X153490000Y-97896000D01*
X153470315Y-97963039D01*
X153417511Y-98008794D01*
X153366000Y-98020000D01*
X152296087Y-98020000D01*
X152303019Y-98039812D01*
X152367623Y-98127348D01*
X152391594Y-98192977D01*
X152379256Y-98255436D01*
X152374603Y-98264955D01*
X152327478Y-98316540D01*
X152263200Y-98334500D01*
X150463606Y-98334500D01*
X150396567Y-98314815D01*
X150350812Y-98262011D01*
X150340868Y-98192853D01*
X150369893Y-98129297D01*
X150388114Y-98112128D01*
X150415282Y-98091282D01*
X150511536Y-97965841D01*
X150572044Y-97819762D01*
X150592682Y-97663000D01*
X150572044Y-97506238D01*
X150511536Y-97360159D01*
X150415282Y-97234718D01*
X150391375Y-97216373D01*
X150350175Y-97159948D01*
X150346020Y-97090202D01*
X150380233Y-97029281D01*
X150441950Y-96996529D01*
X150466864Y-96994000D01*
X152239084Y-96994000D01*
X152306123Y-97013685D01*
G37*
%TD.AperFunction*%
%TD*%
%TA.AperFunction,Conductor*%
%TO.N,GND*%
G36*
X133325000Y-92575000D02*
G01*
X131875000Y-94025000D01*
X125288416Y-94025000D01*
X125270485Y-86230206D01*
X125290016Y-86163125D01*
X125342714Y-86117248D01*
X125394407Y-86105924D01*
X133325000Y-86101108D01*
X133325000Y-92575000D01*
G37*
%TD.AperFunction*%
%TD*%
%TA.AperFunction,Conductor*%
%TO.N,/Positive*%
G36*
X145936631Y-99719685D02*
G01*
X145982386Y-99772489D01*
X145992330Y-99841647D01*
X145963305Y-99905203D01*
X145943225Y-99923770D01*
X145842851Y-99997848D01*
X145762207Y-100107117D01*
X145762206Y-100107119D01*
X145717353Y-100235299D01*
X145714500Y-100265730D01*
X145714500Y-101174269D01*
X145717353Y-101204699D01*
X145717353Y-101204701D01*
X145759223Y-101324354D01*
X145762207Y-101332882D01*
X145842850Y-101442150D01*
X145952118Y-101522793D01*
X145991854Y-101536697D01*
X146080299Y-101567646D01*
X146110730Y-101570500D01*
X146110734Y-101570500D01*
X147469270Y-101570500D01*
X147499699Y-101567646D01*
X147499701Y-101567646D01*
X147573483Y-101541828D01*
X147627882Y-101522793D01*
X147737150Y-101442150D01*
X147817793Y-101332882D01*
X147843161Y-101260384D01*
X147862646Y-101204701D01*
X147862646Y-101204699D01*
X147865500Y-101174269D01*
X147865500Y-100265730D01*
X147862646Y-100235299D01*
X147817793Y-100107119D01*
X147817792Y-100107117D01*
X147737150Y-99997850D01*
X147737148Y-99997849D01*
X147737148Y-99997848D01*
X147636775Y-99923770D01*
X147594524Y-99868123D01*
X147589065Y-99798467D01*
X147622132Y-99736917D01*
X147683226Y-99703016D01*
X147710408Y-99700000D01*
X148082000Y-99700000D01*
X149902673Y-99700000D01*
X149853537Y-99749135D01*
X149853533Y-99749141D01*
X149810681Y-99823362D01*
X149810680Y-99823363D01*
X149801401Y-99857998D01*
X149788500Y-99906145D01*
X149788500Y-101031699D01*
X149768815Y-101098738D01*
X149739988Y-101130074D01*
X149685720Y-101171715D01*
X149589463Y-101297160D01*
X149528956Y-101443237D01*
X149528955Y-101443239D01*
X149508318Y-101599998D01*
X149508318Y-101600001D01*
X149528955Y-101756760D01*
X149528956Y-101756762D01*
X149585842Y-101894098D01*
X149589464Y-101902841D01*
X149685718Y-102028282D01*
X149811159Y-102124536D01*
X149957238Y-102185044D01*
X150035619Y-102195363D01*
X150113999Y-102205682D01*
X150114000Y-102205682D01*
X150114001Y-102205682D01*
X150181542Y-102196790D01*
X150270762Y-102185044D01*
X150416841Y-102124536D01*
X150542282Y-102028282D01*
X150638536Y-101902841D01*
X150699044Y-101756762D01*
X150719682Y-101600000D01*
X150717667Y-101584697D01*
X150702958Y-101472969D01*
X150699044Y-101443238D01*
X150638536Y-101297159D01*
X150542282Y-101171718D01*
X150542280Y-101171716D01*
X150542279Y-101171715D01*
X150488012Y-101130074D01*
X150446810Y-101073646D01*
X150439500Y-101031699D01*
X150439500Y-100135188D01*
X150459185Y-100068149D01*
X150475819Y-100047507D01*
X150501507Y-100021819D01*
X150562830Y-99988334D01*
X150589188Y-99985500D01*
X151978843Y-99985500D01*
X152045882Y-100005185D01*
X152091637Y-100057989D01*
X152101581Y-100127147D01*
X152084960Y-100173650D01*
X152066167Y-100204737D01*
X152036481Y-100299999D01*
X152036482Y-100300000D01*
X153366000Y-100300000D01*
X153433039Y-100319685D01*
X153478794Y-100372489D01*
X153490000Y-100424000D01*
X153490000Y-100936000D01*
X153470315Y-101003039D01*
X153417511Y-101048794D01*
X153366000Y-101060000D01*
X152036482Y-101060000D01*
X152066167Y-101155264D01*
X152066168Y-101155266D01*
X152152850Y-101298657D01*
X152152853Y-101298661D01*
X152271337Y-101417145D01*
X152278445Y-101421442D01*
X152325633Y-101472969D01*
X152337473Y-101541828D01*
X152327334Y-101575408D01*
X152327368Y-101575420D01*
X152326843Y-101577034D01*
X152324788Y-101583842D01*
X152324354Y-101584692D01*
X152324353Y-101584697D01*
X152309500Y-101678475D01*
X152309500Y-101867818D01*
X152289815Y-101934857D01*
X152237011Y-101980612D01*
X152167853Y-101990556D01*
X152110181Y-101966322D01*
X152055572Y-101924566D01*
X152055569Y-101924565D01*
X151992014Y-101895540D01*
X151968549Y-101886515D01*
X151968546Y-101886514D01*
X151877403Y-101879061D01*
X151877401Y-101879061D01*
X151808245Y-101889005D01*
X151783627Y-101894098D01*
X151783626Y-101894098D01*
X151702916Y-101937107D01*
X151702913Y-101937109D01*
X151650104Y-101982868D01*
X151632160Y-102000450D01*
X151632154Y-102000457D01*
X151587511Y-102080267D01*
X151587509Y-102080272D01*
X151567826Y-102147304D01*
X151567825Y-102147309D01*
X151567825Y-102147310D01*
X151560711Y-102196790D01*
X151559500Y-102205211D01*
X151559500Y-102864955D01*
X151561338Y-102892377D01*
X151561339Y-102892384D01*
X151565757Y-102925189D01*
X151593091Y-103001584D01*
X151594587Y-103005764D01*
X151631298Y-103065193D01*
X151631307Y-103065207D01*
X151645796Y-103085738D01*
X151645800Y-103085743D01*
X151687758Y-103119028D01*
X151717446Y-103142580D01*
X151775473Y-103170342D01*
X151780478Y-103172737D01*
X151793211Y-103177897D01*
X151803770Y-103182176D01*
X151803772Y-103182176D01*
X151803775Y-103182177D01*
X151894768Y-103191257D01*
X151894770Y-103191256D01*
X151894774Y-103191257D01*
X151947673Y-103184613D01*
X151964069Y-103182554D01*
X151964074Y-103182553D01*
X151964099Y-103182550D01*
X151988804Y-103177898D01*
X151988807Y-103177896D01*
X151995515Y-103175607D01*
X152065319Y-103172580D01*
X152125678Y-103207772D01*
X152157430Y-103270010D01*
X152157189Y-103317150D01*
X152139500Y-103406077D01*
X152139500Y-103406080D01*
X152139500Y-103406082D01*
X152139500Y-103553918D01*
X152139500Y-103553920D01*
X152139499Y-103553920D01*
X152168340Y-103698907D01*
X152168343Y-103698917D01*
X152224912Y-103835488D01*
X152224919Y-103835501D01*
X152307048Y-103958415D01*
X152307051Y-103958419D01*
X152411580Y-104062948D01*
X152411584Y-104062951D01*
X152534498Y-104145080D01*
X152534511Y-104145087D01*
X152626001Y-104182983D01*
X152671087Y-104201658D01*
X152671091Y-104201658D01*
X152671092Y-104201659D01*
X152816079Y-104230500D01*
X152816082Y-104230500D01*
X153563920Y-104230500D01*
X153661462Y-104211096D01*
X153708913Y-104201658D01*
X153845495Y-104145084D01*
X153845500Y-104145080D01*
X153850870Y-104142211D01*
X153851748Y-104143854D01*
X153910114Y-104125567D01*
X153977498Y-104144040D01*
X154024197Y-104196011D01*
X154035937Y-104259652D01*
X154034142Y-104281601D01*
X154040812Y-104327993D01*
X154044086Y-104350758D01*
X154049178Y-104375373D01*
X154081751Y-104436500D01*
X154092187Y-104456083D01*
X154092189Y-104456086D01*
X154137948Y-104508895D01*
X154155530Y-104526839D01*
X154155534Y-104526843D01*
X154155535Y-104526844D01*
X154155537Y-104526845D01*
X154235347Y-104571488D01*
X154235351Y-104571490D01*
X154302390Y-104591175D01*
X154360288Y-104599500D01*
X154360292Y-104599500D01*
X155819716Y-104599500D01*
X155820166Y-104599491D01*
X155827048Y-104599369D01*
X155835894Y-104599053D01*
X155900373Y-104586227D01*
X155965837Y-104561810D01*
X155988806Y-104551603D01*
X156058532Y-104492421D01*
X156100404Y-104436488D01*
X156114211Y-104415477D01*
X156140871Y-104327993D01*
X156145855Y-104258301D01*
X156145941Y-104249815D01*
X156166301Y-104182983D01*
X156219565Y-104137764D01*
X156288821Y-104128520D01*
X156328248Y-104143860D01*
X156329130Y-104142211D01*
X156334511Y-104145087D01*
X156426001Y-104182983D01*
X156471087Y-104201658D01*
X156471091Y-104201658D01*
X156471092Y-104201659D01*
X156616079Y-104230500D01*
X156616082Y-104230500D01*
X157363920Y-104230500D01*
X157461462Y-104211096D01*
X157508913Y-104201658D01*
X157645495Y-104145084D01*
X157768416Y-104062951D01*
X157872951Y-103958416D01*
X157955084Y-103835495D01*
X158011658Y-103698913D01*
X158040500Y-103553918D01*
X158040500Y-103406082D01*
X158015951Y-103282669D01*
X158022178Y-103213080D01*
X158065040Y-103157902D01*
X158130930Y-103134657D01*
X158171579Y-103141334D01*
X158171893Y-103140032D01*
X158180509Y-103142108D01*
X158180514Y-103142110D01*
X158271569Y-103150663D01*
X158340842Y-103141554D01*
X158365522Y-103136758D01*
X158446746Y-103094723D01*
X158500097Y-103049607D01*
X158518260Y-103032234D01*
X158563866Y-102952960D01*
X158584357Y-102886163D01*
X158593378Y-102828371D01*
X158629593Y-99822505D01*
X158650084Y-99755709D01*
X158703435Y-99710593D01*
X158753584Y-99700000D01*
X159457000Y-99700000D01*
X159524039Y-99719685D01*
X159569794Y-99772489D01*
X159581000Y-99824000D01*
X159581000Y-112575800D01*
X159561315Y-112642839D01*
X159508511Y-112688594D01*
X159457000Y-112699800D01*
X141855848Y-112699800D01*
X141788809Y-112680115D01*
X141743054Y-112627311D01*
X141731848Y-112575952D01*
X141730691Y-111630954D01*
X141730148Y-111187600D01*
X151532600Y-111187600D01*
X151532600Y-111235444D01*
X151539001Y-111294972D01*
X151539003Y-111294979D01*
X151589245Y-111429686D01*
X151589249Y-111429693D01*
X151675409Y-111544787D01*
X151675412Y-111544790D01*
X151790506Y-111630950D01*
X151790513Y-111630954D01*
X151925220Y-111681196D01*
X151925227Y-111681198D01*
X151984755Y-111687599D01*
X151984772Y-111687600D01*
X152032600Y-111687600D01*
X152032600Y-111187600D01*
X153732600Y-111187600D01*
X153732600Y-111687600D01*
X153780428Y-111687600D01*
X153780444Y-111687599D01*
X153839972Y-111681198D01*
X153839979Y-111681196D01*
X153974686Y-111630954D01*
X153974693Y-111630950D01*
X154089787Y-111544790D01*
X154089790Y-111544787D01*
X154175950Y-111429693D01*
X154175954Y-111429686D01*
X154226196Y-111294979D01*
X154226198Y-111294972D01*
X154232599Y-111235444D01*
X154232600Y-111235427D01*
X154232600Y-111187600D01*
X153732600Y-111187600D01*
X152032600Y-111187600D01*
X151532600Y-111187600D01*
X141730148Y-111187600D01*
X141729189Y-110403426D01*
X152382600Y-110403426D01*
X152416675Y-110530593D01*
X152482501Y-110644607D01*
X152575593Y-110737699D01*
X152689607Y-110803525D01*
X152816774Y-110837600D01*
X152948426Y-110837600D01*
X153075593Y-110803525D01*
X153189607Y-110737699D01*
X153282699Y-110644607D01*
X153348525Y-110530593D01*
X153382600Y-110403426D01*
X153382600Y-110271774D01*
X153348525Y-110144607D01*
X153282699Y-110030593D01*
X153189607Y-109937501D01*
X153075593Y-109871675D01*
X152948426Y-109837600D01*
X152816774Y-109837600D01*
X152689607Y-109871675D01*
X152575593Y-109937501D01*
X152482501Y-110030593D01*
X152416675Y-110144607D01*
X152382600Y-110271774D01*
X152382600Y-110403426D01*
X141729189Y-110403426D01*
X141728068Y-109487600D01*
X151532600Y-109487600D01*
X152032600Y-109487600D01*
X152032600Y-108987600D01*
X153732600Y-108987600D01*
X153732600Y-109487600D01*
X154232600Y-109487600D01*
X154232600Y-109439772D01*
X154232599Y-109439755D01*
X154226198Y-109380227D01*
X154226196Y-109380220D01*
X154175954Y-109245513D01*
X154175950Y-109245506D01*
X154089790Y-109130412D01*
X154089787Y-109130409D01*
X153974693Y-109044249D01*
X153974686Y-109044245D01*
X153839979Y-108994003D01*
X153839972Y-108994001D01*
X153780444Y-108987600D01*
X153732600Y-108987600D01*
X152032600Y-108987600D01*
X151984755Y-108987600D01*
X151925227Y-108994001D01*
X151925220Y-108994003D01*
X151790513Y-109044245D01*
X151790506Y-109044249D01*
X151675412Y-109130409D01*
X151675409Y-109130412D01*
X151589249Y-109245506D01*
X151589245Y-109245513D01*
X151539003Y-109380220D01*
X151539001Y-109380227D01*
X151532600Y-109439755D01*
X151532600Y-109487600D01*
X141728068Y-109487600D01*
X141721926Y-104470000D01*
X145457737Y-104470000D01*
X145480641Y-104539120D01*
X145572684Y-104688345D01*
X145696654Y-104812315D01*
X145845875Y-104904356D01*
X145845880Y-104904358D01*
X146012302Y-104959505D01*
X146012309Y-104959506D01*
X146115019Y-104969999D01*
X146140000Y-104969998D01*
X146140000Y-104470000D01*
X147440000Y-104470000D01*
X147440000Y-104969999D01*
X147464972Y-104969999D01*
X147464986Y-104969998D01*
X147567697Y-104959505D01*
X147734119Y-104904358D01*
X147734124Y-104904356D01*
X147883345Y-104812315D01*
X148007315Y-104688345D01*
X148099358Y-104539120D01*
X148122263Y-104470000D01*
X147440000Y-104470000D01*
X146140000Y-104470000D01*
X145457737Y-104470000D01*
X141721926Y-104470000D01*
X141720678Y-103450000D01*
X139725000Y-103450000D01*
X139747246Y-111681198D01*
X139749664Y-112575665D01*
X139730160Y-112642757D01*
X139677480Y-112688655D01*
X139625664Y-112700000D01*
X137499009Y-112700000D01*
X137431970Y-112680315D01*
X137386215Y-112627511D01*
X137375009Y-112575991D01*
X137375010Y-112575800D01*
X137375709Y-103432600D01*
X137375709Y-103432599D01*
X137362670Y-103419559D01*
X137340041Y-103412915D01*
X137294286Y-103360111D01*
X137283080Y-103308600D01*
X137283080Y-103209507D01*
X137294681Y-103170000D01*
X145457737Y-103170000D01*
X146140000Y-103170000D01*
X146140000Y-102670000D01*
X147440000Y-102670000D01*
X147440000Y-103170000D01*
X148122262Y-103170000D01*
X148099358Y-103100879D01*
X148007315Y-102951654D01*
X147883345Y-102827684D01*
X147734124Y-102735643D01*
X147734119Y-102735641D01*
X147567697Y-102680494D01*
X147567690Y-102680493D01*
X147464986Y-102670000D01*
X147440000Y-102670000D01*
X146140000Y-102670000D01*
X146140000Y-102669999D01*
X146115029Y-102670000D01*
X146115010Y-102670001D01*
X146012302Y-102680494D01*
X145845880Y-102735641D01*
X145845875Y-102735643D01*
X145696654Y-102827684D01*
X145572684Y-102951654D01*
X145480641Y-103100879D01*
X145457737Y-103170000D01*
X137294681Y-103170000D01*
X137302765Y-103142468D01*
X137319399Y-103121826D01*
X137344513Y-103096712D01*
X137419292Y-102967192D01*
X137458000Y-102822731D01*
X137458000Y-102673173D01*
X137419292Y-102528712D01*
X137344513Y-102399192D01*
X137319399Y-102374078D01*
X137285914Y-102312755D01*
X137283080Y-102286397D01*
X137283080Y-102073031D01*
X137302765Y-102005992D01*
X137319399Y-101985350D01*
X137324632Y-101980117D01*
X137344513Y-101960236D01*
X137419292Y-101830716D01*
X137458000Y-101686255D01*
X137458000Y-101536697D01*
X137419292Y-101392236D01*
X137344513Y-101262716D01*
X137319399Y-101237602D01*
X137285914Y-101176279D01*
X137283080Y-101149921D01*
X137283080Y-100936555D01*
X137302765Y-100869516D01*
X137319399Y-100848874D01*
X137344513Y-100823760D01*
X137419292Y-100694240D01*
X137458000Y-100549779D01*
X137458000Y-100400221D01*
X137419292Y-100255760D01*
X137344513Y-100126240D01*
X137319399Y-100101126D01*
X137285914Y-100039803D01*
X137283080Y-100013445D01*
X137283080Y-99824000D01*
X137302765Y-99756961D01*
X137355569Y-99711206D01*
X137407080Y-99700000D01*
X145869592Y-99700000D01*
X145936631Y-99719685D01*
G37*
%TD.AperFunction*%
%TA.AperFunction,Conductor*%
G36*
X132368773Y-100113335D02*
G01*
X132414528Y-100166139D01*
X132424472Y-100235297D01*
X132409121Y-100279651D01*
X132362202Y-100360914D01*
X132343883Y-100429282D01*
X132323494Y-100505377D01*
X132323494Y-100654935D01*
X132342848Y-100727165D01*
X132362202Y-100799397D01*
X132390768Y-100848874D01*
X132436981Y-100928916D01*
X132436983Y-100928918D01*
X132471561Y-100963496D01*
X132505046Y-101024819D01*
X132507880Y-101051177D01*
X132507880Y-101245611D01*
X132488195Y-101312650D01*
X132471561Y-101333292D01*
X132436983Y-101367869D01*
X132436981Y-101367872D01*
X132362202Y-101497390D01*
X132323494Y-101641853D01*
X132323494Y-101791410D01*
X132362202Y-101935873D01*
X132379782Y-101966322D01*
X132436981Y-102065392D01*
X132436983Y-102065394D01*
X132471561Y-102099972D01*
X132505046Y-102161295D01*
X132507880Y-102187653D01*
X132507880Y-102382087D01*
X132488195Y-102449126D01*
X132471561Y-102469768D01*
X132436983Y-102504345D01*
X132436981Y-102504348D01*
X132362202Y-102633866D01*
X132332229Y-102745728D01*
X132323494Y-102778329D01*
X132323494Y-102927887D01*
X132327185Y-102941661D01*
X132362202Y-103072349D01*
X132379909Y-103103017D01*
X132436981Y-103201868D01*
X132436983Y-103201870D01*
X132471561Y-103236448D01*
X132505046Y-103297771D01*
X132507880Y-103324129D01*
X132507880Y-103421611D01*
X132522166Y-103447774D01*
X132525000Y-103474132D01*
X132525000Y-105300000D01*
X135076000Y-105300000D01*
X135143039Y-105319685D01*
X135188794Y-105372489D01*
X135200000Y-105424000D01*
X135200000Y-112565818D01*
X135180315Y-112632857D01*
X135127511Y-112678612D01*
X135075995Y-112689818D01*
X130572141Y-112689647D01*
X130572139Y-112689648D01*
X130572138Y-112689648D01*
X129185951Y-112689596D01*
X129000139Y-112503784D01*
X129000138Y-112503784D01*
X128831780Y-112672140D01*
X128814337Y-112689582D01*
X127428016Y-112689530D01*
X125455059Y-112689455D01*
X125388021Y-112669768D01*
X125342268Y-112616962D01*
X125331064Y-112565740D01*
X125323114Y-109109737D01*
X125338678Y-109094173D01*
X127400138Y-109094173D01*
X127439535Y-109342918D01*
X127517359Y-109582437D01*
X127631695Y-109806833D01*
X127779726Y-110010580D01*
X127957808Y-110188662D01*
X128161555Y-110336693D01*
X128385951Y-110451029D01*
X128625470Y-110528853D01*
X128874215Y-110568250D01*
X129126061Y-110568250D01*
X129374806Y-110528853D01*
X129614325Y-110451029D01*
X129838721Y-110336693D01*
X130042468Y-110188662D01*
X130220550Y-110010580D01*
X130368581Y-109806833D01*
X130482917Y-109582437D01*
X130560741Y-109342918D01*
X130600138Y-109094173D01*
X130600138Y-108968251D01*
X132535672Y-108968251D01*
X132696771Y-109129350D01*
X132705216Y-108968250D01*
X132696771Y-108807149D01*
X132535672Y-108968250D01*
X132535672Y-108968251D01*
X130600138Y-108968251D01*
X130600138Y-108842327D01*
X130560741Y-108593582D01*
X130482917Y-108354063D01*
X130368581Y-108129667D01*
X130220550Y-107925920D01*
X130042468Y-107747838D01*
X129838721Y-107599807D01*
X129614325Y-107485471D01*
X129374806Y-107407647D01*
X129126061Y-107368250D01*
X128874215Y-107368250D01*
X128625470Y-107407647D01*
X128385951Y-107485471D01*
X128161555Y-107599807D01*
X127957808Y-107747838D01*
X127779726Y-107925920D01*
X127631695Y-108129667D01*
X127517359Y-108354063D01*
X127439535Y-108593582D01*
X127400138Y-108842327D01*
X127400138Y-109094173D01*
X125338678Y-109094173D01*
X125464603Y-108968249D01*
X125322462Y-108826108D01*
X125314286Y-105271614D01*
X128839036Y-105271614D01*
X129000137Y-105432715D01*
X129161238Y-105271614D01*
X129000139Y-105263172D01*
X129000136Y-105263172D01*
X128839036Y-105271614D01*
X125314286Y-105271614D01*
X125302661Y-100217933D01*
X125322192Y-100150851D01*
X125374890Y-100104974D01*
X125426661Y-100093650D01*
X132301734Y-100093650D01*
X132368773Y-100113335D01*
G37*
%TD.AperFunction*%
%TD*%
%TA.AperFunction,Conductor*%
%TO.N,GND*%
G36*
X159524039Y-86125685D02*
G01*
X159569794Y-86178489D01*
X159581000Y-86230000D01*
X159581000Y-99370500D01*
X159561315Y-99437539D01*
X159508511Y-99483294D01*
X159457000Y-99494500D01*
X158753584Y-99494500D01*
X158711113Y-99498937D01*
X158711106Y-99498938D01*
X158707904Y-99499273D01*
X158707872Y-99498967D01*
X158694663Y-99500000D01*
X158427964Y-99500000D01*
X158496000Y-93853000D01*
X157650956Y-93853000D01*
X157596272Y-93830349D01*
X157596267Y-93830347D01*
X157540000Y-93819155D01*
X157540000Y-93853000D01*
X156440000Y-93853000D01*
X156440000Y-93819156D01*
X156439999Y-93819155D01*
X156383732Y-93830347D01*
X156383727Y-93830349D01*
X156329043Y-93853000D01*
X154432000Y-93853000D01*
X154334638Y-99500000D01*
X154025120Y-99500000D01*
X153958081Y-99480315D01*
X153912326Y-99427511D01*
X153902416Y-99393881D01*
X153899866Y-99376375D01*
X153875488Y-99326509D01*
X153844827Y-99263789D01*
X153828719Y-99247681D01*
X153795234Y-99186358D01*
X153800218Y-99116666D01*
X153828719Y-99072319D01*
X153844825Y-99056212D01*
X153844827Y-99056210D01*
X153889727Y-98964364D01*
X153899866Y-98943625D01*
X153910500Y-98870636D01*
X153910500Y-98449364D01*
X153899866Y-98376375D01*
X153882778Y-98341421D01*
X153844827Y-98263789D01*
X153829325Y-98248287D01*
X153795840Y-98186964D01*
X153800824Y-98117272D01*
X153829325Y-98072924D01*
X153839859Y-98062391D01*
X153896017Y-97952175D01*
X153896017Y-97952173D01*
X153896018Y-97952172D01*
X153896018Y-97952171D01*
X153901449Y-97917881D01*
X153910500Y-97860735D01*
X153910499Y-97419266D01*
X153910499Y-97419260D01*
X153896018Y-97327829D01*
X153893002Y-97318547D01*
X153894476Y-97318067D01*
X153883582Y-97260066D01*
X153909856Y-97195325D01*
X153938967Y-97169707D01*
X153938965Y-97169705D01*
X153939013Y-97169666D01*
X153942825Y-97166313D01*
X153944872Y-97165075D01*
X154065073Y-97044875D01*
X154153018Y-96899396D01*
X154153020Y-96899392D01*
X154180876Y-96810000D01*
X152359681Y-96810000D01*
X152324746Y-96804977D01*
X152296990Y-96796827D01*
X152296988Y-96796826D01*
X152296982Y-96796825D01*
X152239084Y-96788500D01*
X150466864Y-96788500D01*
X150466837Y-96788500D01*
X150446120Y-96789550D01*
X150446118Y-96789550D01*
X150421198Y-96792079D01*
X150345622Y-96815005D01*
X150345614Y-96815008D01*
X150283902Y-96847757D01*
X150262460Y-96860877D01*
X150262454Y-96860881D01*
X150201056Y-96928651D01*
X150166850Y-96989560D01*
X150166831Y-96989597D01*
X150164272Y-96994888D01*
X150117358Y-97046665D01*
X150049899Y-97064860D01*
X150036463Y-97063829D01*
X149987003Y-97057318D01*
X149986997Y-97057318D01*
X149936763Y-97063931D01*
X149867728Y-97053165D01*
X149815473Y-97006784D01*
X149811164Y-96999338D01*
X149775236Y-96931915D01*
X149738494Y-96889513D01*
X149729475Y-96879104D01*
X149711893Y-96861160D01*
X149711892Y-96861159D01*
X149711890Y-96861157D01*
X149711888Y-96861156D01*
X149711886Y-96861154D01*
X149632076Y-96816511D01*
X149632071Y-96816509D01*
X149565039Y-96796826D01*
X149565035Y-96796825D01*
X149565034Y-96796825D01*
X149507136Y-96788500D01*
X148206000Y-96788500D01*
X148205992Y-96788500D01*
X148162313Y-96793197D01*
X148110825Y-96804397D01*
X148100627Y-96806890D01*
X148100624Y-96806891D01*
X148019916Y-96849899D01*
X148019913Y-96849901D01*
X147967104Y-96895660D01*
X147949160Y-96913242D01*
X147949154Y-96913249D01*
X147904511Y-96993059D01*
X147904509Y-96993064D01*
X147884826Y-97060096D01*
X147884825Y-97060101D01*
X147884825Y-97060102D01*
X147881867Y-97080678D01*
X147876500Y-97118003D01*
X147876500Y-97480065D01*
X147856815Y-97547104D01*
X147804011Y-97592859D01*
X147734853Y-97602803D01*
X147678866Y-97579835D01*
X147627881Y-97542206D01*
X147499695Y-97497353D01*
X147499698Y-97497353D01*
X147469268Y-97494500D01*
X146110741Y-97494500D01*
X146080301Y-97497354D01*
X146080300Y-97497354D01*
X145952118Y-97542206D01*
X145842850Y-97622850D01*
X145762206Y-97732118D01*
X145717353Y-97860302D01*
X145714500Y-97890731D01*
X145714500Y-98924258D01*
X145717354Y-98954698D01*
X145717354Y-98954699D01*
X145762206Y-99082881D01*
X145762207Y-99082882D01*
X145842850Y-99192150D01*
X145939918Y-99263789D01*
X145949502Y-99270862D01*
X145991752Y-99326509D01*
X145997211Y-99396165D01*
X145964144Y-99457715D01*
X145903050Y-99491616D01*
X145874021Y-99493792D01*
X145874021Y-99494500D01*
X137582000Y-99494500D01*
X137514961Y-99474815D01*
X137469206Y-99422011D01*
X137458000Y-99370500D01*
X137458000Y-99238347D01*
X137458000Y-99238345D01*
X137419292Y-99093884D01*
X137344513Y-98964364D01*
X137319399Y-98939250D01*
X137285914Y-98877927D01*
X137283080Y-98851569D01*
X137283080Y-98728199D01*
X137302765Y-98661160D01*
X137319399Y-98640518D01*
X137344513Y-98615404D01*
X137419292Y-98485884D01*
X137458000Y-98341423D01*
X137458000Y-98191865D01*
X137419292Y-98047404D01*
X137344513Y-97917884D01*
X137319399Y-97892770D01*
X137285914Y-97831447D01*
X137283080Y-97805089D01*
X137283080Y-97656319D01*
X137302765Y-97589280D01*
X137319399Y-97568638D01*
X137344513Y-97543524D01*
X137419292Y-97414004D01*
X137458000Y-97269543D01*
X137458000Y-97119985D01*
X137419292Y-96975524D01*
X137344513Y-96846004D01*
X137319399Y-96820890D01*
X137285914Y-96759567D01*
X137283080Y-96733209D01*
X137283080Y-96584439D01*
X137302765Y-96517400D01*
X137319399Y-96496758D01*
X137328842Y-96487315D01*
X137344513Y-96471644D01*
X137419292Y-96342124D01*
X137458000Y-96197663D01*
X137458000Y-96145000D01*
X145457737Y-96145000D01*
X145480639Y-96214116D01*
X145572684Y-96363344D01*
X145696655Y-96487315D01*
X145845876Y-96579356D01*
X145845881Y-96579358D01*
X146012303Y-96634505D01*
X146077499Y-96641166D01*
X146077500Y-96641165D01*
X146077500Y-96145000D01*
X147502500Y-96145000D01*
X147502500Y-96641166D01*
X147567696Y-96634505D01*
X147734118Y-96579358D01*
X147734123Y-96579356D01*
X147883344Y-96487315D01*
X148007315Y-96363344D01*
X148099360Y-96214116D01*
X148122262Y-96145000D01*
X147502500Y-96145000D01*
X146077500Y-96145000D01*
X145457737Y-96145000D01*
X137458000Y-96145000D01*
X137458000Y-96048105D01*
X137419292Y-95903644D01*
X137344513Y-95774124D01*
X137344511Y-95774122D01*
X137340449Y-95767086D01*
X137343101Y-95765554D01*
X137323145Y-95713961D01*
X137337171Y-95645513D01*
X137359106Y-95615866D01*
X137374998Y-95599999D01*
X137375000Y-95600000D01*
X137373402Y-86273412D01*
X137393075Y-86206370D01*
X137445871Y-86160606D01*
X137497434Y-86149392D01*
X139651036Y-86149966D01*
X139718067Y-86169668D01*
X139763808Y-86222485D01*
X139775000Y-86273966D01*
X139775012Y-94800000D01*
X139775012Y-94800002D01*
X139774999Y-95599999D01*
X139775000Y-95600000D01*
X141732000Y-95600000D01*
X141732000Y-95390000D01*
X151994673Y-95390000D01*
X152074410Y-95509335D01*
X152074413Y-95509339D01*
X152159881Y-95594807D01*
X152193366Y-95656130D01*
X152188382Y-95725822D01*
X152159886Y-95770165D01*
X152154923Y-95775128D01*
X152066981Y-95920603D01*
X152066979Y-95920607D01*
X152039123Y-96009999D01*
X152039124Y-96010000D01*
X152710000Y-96010000D01*
X153510000Y-96010000D01*
X154180876Y-96010000D01*
X154180876Y-96009999D01*
X154153020Y-95920607D01*
X154153017Y-95920601D01*
X154102030Y-95836258D01*
X154084193Y-95768703D01*
X154105710Y-95702229D01*
X154139259Y-95669002D01*
X154159341Y-95655584D01*
X154305586Y-95509339D01*
X154305589Y-95509335D01*
X154385327Y-95390000D01*
X153740000Y-95390000D01*
X153740000Y-95809000D01*
X153720315Y-95876039D01*
X153667511Y-95921794D01*
X153616000Y-95933000D01*
X153510000Y-95933000D01*
X153510000Y-96010000D01*
X152710000Y-96010000D01*
X152710000Y-95933000D01*
X152676319Y-95899319D01*
X152642834Y-95837996D01*
X152640000Y-95811638D01*
X152640000Y-95390000D01*
X151994673Y-95390000D01*
X141732000Y-95390000D01*
X141732000Y-94879496D01*
X152590000Y-94879496D01*
X152610444Y-94955796D01*
X152649940Y-95024205D01*
X152705795Y-95080060D01*
X152774204Y-95119556D01*
X152850504Y-95140000D01*
X153529496Y-95140000D01*
X153605796Y-95119556D01*
X153674205Y-95080060D01*
X153730060Y-95024205D01*
X153769556Y-94955796D01*
X153790000Y-94879496D01*
X153790000Y-94800504D01*
X153769556Y-94724204D01*
X153730060Y-94655795D01*
X153674205Y-94599940D01*
X153605796Y-94560444D01*
X153529496Y-94540000D01*
X152850504Y-94540000D01*
X152774204Y-94560444D01*
X152705795Y-94599940D01*
X152649940Y-94655795D01*
X152610444Y-94724204D01*
X152590000Y-94800504D01*
X152590000Y-94879496D01*
X141732000Y-94879496D01*
X141732000Y-94719999D01*
X145457737Y-94719999D01*
X145457738Y-94720000D01*
X146077500Y-94720000D01*
X146077500Y-94223833D01*
X147502500Y-94223833D01*
X147502500Y-94720000D01*
X148122262Y-94720000D01*
X148122262Y-94719999D01*
X148099360Y-94650883D01*
X148007315Y-94501655D01*
X147883344Y-94377684D01*
X147741187Y-94290000D01*
X151994673Y-94290000D01*
X152640000Y-94290000D01*
X152640000Y-93819156D01*
X152639999Y-93819155D01*
X153740000Y-93819155D01*
X153740000Y-94290000D01*
X154385327Y-94290000D01*
X154305589Y-94170664D01*
X154305586Y-94170660D01*
X154159339Y-94024413D01*
X154159335Y-94024410D01*
X153987368Y-93909505D01*
X153987358Y-93909500D01*
X153796272Y-93830349D01*
X153796267Y-93830347D01*
X153740000Y-93819155D01*
X152639999Y-93819155D01*
X152583732Y-93830347D01*
X152583727Y-93830349D01*
X152392641Y-93909500D01*
X152392631Y-93909505D01*
X152220664Y-94024410D01*
X152220660Y-94024413D01*
X152074413Y-94170660D01*
X152074410Y-94170664D01*
X151994673Y-94290000D01*
X147741187Y-94290000D01*
X147734123Y-94285643D01*
X147734118Y-94285641D01*
X147567696Y-94230494D01*
X147567689Y-94230493D01*
X147502500Y-94223833D01*
X146077500Y-94223833D01*
X146077499Y-94223833D01*
X146012310Y-94230493D01*
X146012303Y-94230494D01*
X145845881Y-94285641D01*
X145845876Y-94285643D01*
X145696655Y-94377684D01*
X145572684Y-94501655D01*
X145480639Y-94650883D01*
X145457737Y-94719999D01*
X141732000Y-94719999D01*
X141732000Y-89521400D01*
X151532600Y-89521400D01*
X151532600Y-89569244D01*
X151539001Y-89628772D01*
X151539003Y-89628779D01*
X151589245Y-89763486D01*
X151589249Y-89763493D01*
X151675409Y-89878587D01*
X151675412Y-89878590D01*
X151790506Y-89964750D01*
X151790513Y-89964754D01*
X151925220Y-90014996D01*
X151925227Y-90014998D01*
X151984755Y-90021399D01*
X151984772Y-90021400D01*
X152032600Y-90021400D01*
X152032600Y-89521400D01*
X153732600Y-89521400D01*
X153732600Y-90021400D01*
X153780428Y-90021400D01*
X153780444Y-90021399D01*
X153839972Y-90014998D01*
X153839979Y-90014996D01*
X153974686Y-89964754D01*
X153974693Y-89964750D01*
X154089787Y-89878590D01*
X154089790Y-89878587D01*
X154175950Y-89763493D01*
X154175954Y-89763486D01*
X154226196Y-89628779D01*
X154226198Y-89628772D01*
X154232599Y-89569244D01*
X154232600Y-89569227D01*
X154232600Y-89521400D01*
X153732600Y-89521400D01*
X152032600Y-89521400D01*
X151532600Y-89521400D01*
X141732000Y-89521400D01*
X141732000Y-88737226D01*
X152382600Y-88737226D01*
X152416675Y-88864393D01*
X152482501Y-88978407D01*
X152575593Y-89071499D01*
X152689607Y-89137325D01*
X152816774Y-89171400D01*
X152948426Y-89171400D01*
X153075593Y-89137325D01*
X153189607Y-89071499D01*
X153282699Y-88978407D01*
X153348525Y-88864393D01*
X153382600Y-88737226D01*
X153382600Y-88605574D01*
X153348525Y-88478407D01*
X153282699Y-88364393D01*
X153189607Y-88271301D01*
X153075593Y-88205475D01*
X152948426Y-88171400D01*
X152816774Y-88171400D01*
X152689607Y-88205475D01*
X152575593Y-88271301D01*
X152482501Y-88364393D01*
X152416675Y-88478407D01*
X152382600Y-88605574D01*
X152382600Y-88737226D01*
X141732000Y-88737226D01*
X141732000Y-87821400D01*
X151532600Y-87821400D01*
X152032600Y-87821400D01*
X152032600Y-87321400D01*
X153732600Y-87321400D01*
X153732600Y-87821400D01*
X154232600Y-87821400D01*
X154232600Y-87773572D01*
X154232599Y-87773555D01*
X154226198Y-87714027D01*
X154226196Y-87714020D01*
X154175954Y-87579313D01*
X154175950Y-87579306D01*
X154089790Y-87464212D01*
X154089787Y-87464209D01*
X153974693Y-87378049D01*
X153974686Y-87378045D01*
X153839979Y-87327803D01*
X153839972Y-87327801D01*
X153780444Y-87321400D01*
X153732600Y-87321400D01*
X152032600Y-87321400D01*
X151984755Y-87321400D01*
X151925227Y-87327801D01*
X151925220Y-87327803D01*
X151790513Y-87378045D01*
X151790506Y-87378049D01*
X151675412Y-87464209D01*
X151675409Y-87464212D01*
X151589249Y-87579306D01*
X151589245Y-87579313D01*
X151539003Y-87714020D01*
X151539001Y-87714027D01*
X151532600Y-87773555D01*
X151532600Y-87821400D01*
X141732000Y-87821400D01*
X141732000Y-86230000D01*
X141751685Y-86162961D01*
X141804489Y-86117206D01*
X141856000Y-86106000D01*
X159457000Y-86106000D01*
X159524039Y-86125685D01*
G37*
%TD.AperFunction*%
%TA.AperFunction,Conductor*%
G36*
X135093392Y-86119719D02*
G01*
X135139179Y-86172495D01*
X135150415Y-86223659D01*
X135174582Y-93423784D01*
X135155123Y-93490889D01*
X135102473Y-93536821D01*
X135050583Y-93548200D01*
X132500000Y-93548200D01*
X132516804Y-95495688D01*
X132507880Y-95527080D01*
X132507880Y-95757019D01*
X132488195Y-95824058D01*
X132471561Y-95844700D01*
X132436983Y-95879277D01*
X132436981Y-95879280D01*
X132362202Y-96008798D01*
X132323494Y-96153261D01*
X132323494Y-96302818D01*
X132362202Y-96447281D01*
X132385316Y-96487315D01*
X132436981Y-96576800D01*
X132436983Y-96576802D01*
X132471561Y-96611380D01*
X132505046Y-96672703D01*
X132507880Y-96699061D01*
X132507880Y-96828899D01*
X132488195Y-96895938D01*
X132471561Y-96916580D01*
X132436983Y-96951157D01*
X132436981Y-96951160D01*
X132362202Y-97080678D01*
X132323494Y-97225141D01*
X132323494Y-97374698D01*
X132362202Y-97519161D01*
X132390768Y-97568638D01*
X132436981Y-97648680D01*
X132436983Y-97648682D01*
X132471561Y-97683260D01*
X132505046Y-97744583D01*
X132507880Y-97770941D01*
X132507880Y-97900779D01*
X132488195Y-97967818D01*
X132471561Y-97988460D01*
X132436983Y-98023037D01*
X132436981Y-98023040D01*
X132362202Y-98152558D01*
X132323494Y-98297021D01*
X132323494Y-98445650D01*
X132303809Y-98512689D01*
X132251005Y-98558444D01*
X132199494Y-98569650D01*
X125422585Y-98569650D01*
X125355546Y-98549965D01*
X125309791Y-98497161D01*
X125298585Y-98445935D01*
X125287472Y-93614883D01*
X128839037Y-93614883D01*
X129000137Y-93623327D01*
X129161238Y-93614883D01*
X129000139Y-93453784D01*
X128839037Y-93614883D01*
X125287472Y-93614883D01*
X125279395Y-90103457D01*
X125296876Y-90085977D01*
X125296889Y-90085962D01*
X125338678Y-90044173D01*
X127400138Y-90044173D01*
X127439535Y-90292918D01*
X127517359Y-90532437D01*
X127631695Y-90756833D01*
X127779726Y-90960580D01*
X127957808Y-91138662D01*
X128161555Y-91286693D01*
X128385951Y-91401029D01*
X128625470Y-91478853D01*
X128874215Y-91518250D01*
X129126061Y-91518250D01*
X129374806Y-91478853D01*
X129614325Y-91401029D01*
X129838721Y-91286693D01*
X130042468Y-91138662D01*
X130220550Y-90960580D01*
X130368581Y-90756833D01*
X130482917Y-90532437D01*
X130560741Y-90292918D01*
X130600138Y-90044173D01*
X130600138Y-89918251D01*
X132535672Y-89918251D01*
X132696771Y-90079350D01*
X132705216Y-89918250D01*
X132696771Y-89757149D01*
X132535672Y-89918250D01*
X132535672Y-89918251D01*
X130600138Y-89918251D01*
X130600138Y-89792327D01*
X130560741Y-89543582D01*
X130482917Y-89304063D01*
X130368581Y-89079667D01*
X130220550Y-88875920D01*
X130042468Y-88697838D01*
X129838721Y-88549807D01*
X129614325Y-88435471D01*
X129374806Y-88357647D01*
X129126061Y-88318250D01*
X128874215Y-88318250D01*
X128625470Y-88357647D01*
X128385951Y-88435471D01*
X128161555Y-88549807D01*
X127957808Y-88697838D01*
X127779726Y-88875920D01*
X127631695Y-89079667D01*
X127517359Y-89304063D01*
X127439535Y-89543582D01*
X127400138Y-89792327D01*
X127400138Y-90044173D01*
X125338678Y-90044173D01*
X125464603Y-89918249D01*
X125295930Y-89749576D01*
X125295928Y-89749573D01*
X125278541Y-89732186D01*
X125270485Y-86230206D01*
X125290016Y-86163125D01*
X125342714Y-86117248D01*
X125394407Y-86105924D01*
X128721326Y-86103904D01*
X128744134Y-86113343D01*
X128743244Y-86115492D01*
X128770762Y-86123551D01*
X128816554Y-86176323D01*
X128820406Y-86202984D01*
X129000137Y-86382715D01*
X129175347Y-86207505D01*
X129174929Y-86202350D01*
X129207829Y-86140711D01*
X129256694Y-86113421D01*
X129256521Y-86113004D01*
X129260097Y-86111521D01*
X129268831Y-86106644D01*
X129272991Y-86106175D01*
X129279286Y-86103565D01*
X135026341Y-86100075D01*
X135093392Y-86119719D01*
G37*
%TD.AperFunction*%
%TD*%
M02*
