%TF.GenerationSoftware,KiCad,Pcbnew,8.0.1*%
%TF.CreationDate,2024-04-06T17:54:05-05:00*%
%TF.ProjectId,Banana to USB-C Adapter,42616e61-6e61-4207-946f-205553422d43,2*%
%TF.SameCoordinates,Original*%
%TF.FileFunction,Copper,L2,Bot*%
%TF.FilePolarity,Positive*%
%FSLAX46Y46*%
G04 Gerber Fmt 4.6, Leading zero omitted, Abs format (unit mm)*
G04 Created by KiCad (PCBNEW 8.0.1) date 2024-04-06 17:54:05*
%MOMM*%
%LPD*%
G01*
G04 APERTURE LIST*
G04 Aperture macros list*
%AMRoundRect*
0 Rectangle with rounded corners*
0 $1 Rounding radius*
0 $2 $3 $4 $5 $6 $7 $8 $9 X,Y pos of 4 corners*
0 Add a 4 corners polygon primitive as box body*
4,1,4,$2,$3,$4,$5,$6,$7,$8,$9,$2,$3,0*
0 Add four circle primitives for the rounded corners*
1,1,$1+$1,$2,$3*
1,1,$1+$1,$4,$5*
1,1,$1+$1,$6,$7*
1,1,$1+$1,$8,$9*
0 Add four rect primitives between the rounded corners*
20,1,$1+$1,$2,$3,$4,$5,0*
20,1,$1+$1,$4,$5,$6,$7,0*
20,1,$1+$1,$6,$7,$8,$9,0*
20,1,$1+$1,$8,$9,$2,$3,0*%
%AMOutline4P*
0 Free polygon, 4 corners , with rotation*
0 The origin of the aperture is its center*
0 number of corners: always 4*
0 $1 to $8 corner X, Y*
0 $9 Rotation angle, in degrees counterclockwise*
0 create outline with 4 corners*
4,1,4,$1,$2,$3,$4,$5,$6,$7,$8,$1,$2,$9*%
G04 Aperture macros list end*
%TA.AperFunction,ComponentPad*%
%ADD10R,1.700000X1.700000*%
%TD*%
%TA.AperFunction,ComponentPad*%
%ADD11C,0.800000*%
%TD*%
%TA.AperFunction,ComponentPad*%
%ADD12C,6.400000*%
%TD*%
%TA.AperFunction,ComponentPad*%
%ADD13O,1.700000X1.100000*%
%TD*%
%TA.AperFunction,SMDPad,CuDef*%
%ADD14RoundRect,0.250000X0.625000X-0.400000X0.625000X0.400000X-0.625000X0.400000X-0.625000X-0.400000X0*%
%TD*%
%TA.AperFunction,SMDPad,CuDef*%
%ADD15Outline4P,-1.800000X-1.150000X1.800000X-0.550000X1.800000X0.550000X-1.800000X1.150000X90.000000*%
%TD*%
%TA.AperFunction,SMDPad,CuDef*%
%ADD16Outline4P,-1.800000X-1.150000X1.800000X-0.550000X1.800000X0.550000X-1.800000X1.150000X270.000000*%
%TD*%
%TA.AperFunction,SMDPad,CuDef*%
%ADD17RoundRect,0.250001X-0.624999X0.462499X-0.624999X-0.462499X0.624999X-0.462499X0.624999X0.462499X0*%
%TD*%
%TA.AperFunction,SMDPad,CuDef*%
%ADD18RoundRect,0.250000X-0.625000X0.400000X-0.625000X-0.400000X0.625000X-0.400000X0.625000X0.400000X0*%
%TD*%
%TA.AperFunction,ViaPad*%
%ADD19C,0.800000*%
%TD*%
%TA.AperFunction,Conductor*%
%ADD20C,0.250000*%
%TD*%
%TA.AperFunction,Conductor*%
%ADD21C,0.500000*%
%TD*%
G04 APERTURE END LIST*
D10*
%TO.P,J3,1,Pin_1*%
%TO.N,GND*%
X152882600Y-88671400D03*
%TD*%
D11*
%TO.P,H1,1,1*%
%TO.N,/Positive*%
X126600138Y-108968250D03*
X127303082Y-107271194D03*
X127303082Y-110665306D03*
X129000138Y-106568250D03*
D12*
X129000138Y-108968250D03*
D11*
X129000138Y-111368250D03*
X130697194Y-107271194D03*
X130697194Y-110665306D03*
X131400138Y-108968250D03*
%TD*%
D10*
%TO.P,J2,1,Pin_1*%
%TO.N,/Positive*%
X152882600Y-110337600D03*
%TD*%
D13*
%TO.P,J1,S1,SHIELD*%
%TO.N,GND*%
X153190000Y-103480000D03*
X156990000Y-103480000D03*
X153190000Y-94840000D03*
X156990000Y-94840000D03*
%TD*%
D11*
%TO.P,H2,1,1*%
%TO.N,GND*%
X126600138Y-89918250D03*
X127303082Y-88221194D03*
X127303082Y-91615306D03*
X129000138Y-87518250D03*
D12*
X129000138Y-89918250D03*
D11*
X129000138Y-92318250D03*
X130697194Y-88221194D03*
X130697194Y-91615306D03*
X131400138Y-89918250D03*
%TD*%
D14*
%TO.P,R2,1*%
%TO.N,/Positive*%
X146790000Y-103820000D03*
%TO.P,R2,2*%
%TO.N,Net-(D2-A)*%
X146790000Y-100720000D03*
%TD*%
%TO.P,R4,1*%
%TO.N,Net-(J1-CC2)*%
X150030000Y-98451000D03*
%TO.P,R4,2*%
%TO.N,GND*%
X150030000Y-95351000D03*
%TD*%
D15*
%TO.P,D3,1,K*%
%TO.N,/Positive*%
X155067000Y-104119000D03*
D16*
%TO.P,D3,2,A*%
%TO.N,GND*%
X155067000Y-98319000D03*
%TD*%
D17*
%TO.P,D2,1,K*%
%TO.N,GND*%
X146790000Y-95432500D03*
%TO.P,D2,2,A*%
%TO.N,Net-(D2-A)*%
X146790000Y-98407500D03*
%TD*%
D18*
%TO.P,R3,1*%
%TO.N,Net-(J1-CC1)*%
X150030000Y-100720000D03*
%TO.P,R3,2*%
%TO.N,GND*%
X150030000Y-103820000D03*
%TD*%
D19*
%TO.N,GND*%
X144856200Y-86588600D03*
X144856200Y-95250000D03*
X144856200Y-88320880D03*
X144856200Y-90053160D03*
X144856200Y-91785440D03*
X144856200Y-93517720D03*
%TO.N,/Positive*%
X154051000Y-100711000D03*
X144856200Y-110535720D03*
X144856200Y-105415080D03*
X152146000Y-97663000D03*
X144856200Y-107121960D03*
X144856200Y-103708200D03*
X144856200Y-108828840D03*
X144856200Y-112242600D03*
X152146000Y-100711000D03*
%TO.N,Net-(J1-CC2)*%
X149987000Y-97663000D03*
%TO.N,Net-(J1-CC1)*%
X150114000Y-101600000D03*
%TD*%
D20*
%TO.N,GND*%
X138500000Y-88475000D02*
X138500000Y-91275000D01*
X153190000Y-103480000D02*
X150370000Y-103480000D01*
X150370000Y-103480000D02*
X150030000Y-103820000D01*
D21*
%TO.N,Net-(D2-A)*%
X146790000Y-98407500D02*
X146790000Y-100720000D01*
D20*
%TO.N,Net-(J1-CC2)*%
X149987000Y-98408000D02*
X150030000Y-98451000D01*
X149987000Y-97663000D02*
X149987000Y-98408000D01*
X150114000Y-98116000D02*
X150030000Y-98200000D01*
%TO.N,Net-(J1-CC1)*%
X150114000Y-100804000D02*
X150030000Y-100720000D01*
X150114000Y-101600000D02*
X150114000Y-100804000D01*
%TD*%
%TA.AperFunction,Conductor*%
%TO.N,/Positive*%
G36*
X133225000Y-106000000D02*
G01*
X133225000Y-112689747D01*
X125455059Y-112689455D01*
X125388021Y-112669768D01*
X125342268Y-112616962D01*
X125331064Y-112565740D01*
X125315796Y-105928517D01*
X125313744Y-105036255D01*
X125575000Y-104775000D01*
X132000000Y-104775000D01*
X133225000Y-106000000D01*
G37*
%TD.AperFunction*%
%TD*%
%TA.AperFunction,Conductor*%
%TO.N,/Positive*%
G36*
X149574175Y-97013685D02*
G01*
X149619930Y-97066489D01*
X149629874Y-97135647D01*
X149600849Y-97199203D01*
X149582628Y-97216371D01*
X149558718Y-97234718D01*
X149462463Y-97360160D01*
X149401956Y-97506237D01*
X149399853Y-97514088D01*
X149397575Y-97513477D01*
X149374179Y-97566346D01*
X149320473Y-97603293D01*
X149192117Y-97648207D01*
X149082850Y-97728850D01*
X149002207Y-97838117D01*
X149002206Y-97838119D01*
X148957353Y-97966298D01*
X148957353Y-97966300D01*
X148954500Y-97996730D01*
X148954500Y-98905269D01*
X148957353Y-98935699D01*
X148957353Y-98935701D01*
X149002206Y-99063880D01*
X149002207Y-99063882D01*
X149082850Y-99173150D01*
X149192118Y-99253793D01*
X149234845Y-99268744D01*
X149320299Y-99298646D01*
X149350730Y-99301500D01*
X149350734Y-99301500D01*
X150709270Y-99301500D01*
X150739699Y-99298646D01*
X150739701Y-99298646D01*
X150803790Y-99276219D01*
X150867882Y-99253793D01*
X150977150Y-99173150D01*
X151057793Y-99063882D01*
X151080219Y-98999790D01*
X151102646Y-98935701D01*
X151102646Y-98935699D01*
X151105500Y-98905269D01*
X151105500Y-97996730D01*
X151102646Y-97966300D01*
X151102646Y-97966298D01*
X151057793Y-97838119D01*
X151057792Y-97838117D01*
X150977150Y-97728850D01*
X150867882Y-97648207D01*
X150867880Y-97648206D01*
X150739700Y-97603353D01*
X150709270Y-97600500D01*
X150709266Y-97600500D01*
X150692450Y-97600500D01*
X150625411Y-97580815D01*
X150579656Y-97528011D01*
X150572676Y-97508597D01*
X150572044Y-97506239D01*
X150572044Y-97506237D01*
X150511536Y-97360159D01*
X150415282Y-97234718D01*
X150391375Y-97216373D01*
X150350175Y-97159948D01*
X150346020Y-97090202D01*
X150380233Y-97029281D01*
X150441950Y-96996529D01*
X150466864Y-96994000D01*
X153546000Y-96994000D01*
X153613039Y-97013685D01*
X153658794Y-97066489D01*
X153670000Y-97118000D01*
X153670000Y-102616000D01*
X148082000Y-102616000D01*
X148082000Y-101174269D01*
X148954500Y-101174269D01*
X148957353Y-101204699D01*
X148957353Y-101204701D01*
X149002206Y-101332880D01*
X149002207Y-101332882D01*
X149082850Y-101442150D01*
X149192118Y-101522793D01*
X149234845Y-101537744D01*
X149320299Y-101567646D01*
X149350730Y-101570500D01*
X149350734Y-101570500D01*
X149395689Y-101570500D01*
X149462728Y-101590185D01*
X149508483Y-101642989D01*
X149518628Y-101678314D01*
X149528956Y-101756762D01*
X149589464Y-101902841D01*
X149685718Y-102028282D01*
X149811159Y-102124536D01*
X149957238Y-102185044D01*
X150035619Y-102195363D01*
X150113999Y-102205682D01*
X150114000Y-102205682D01*
X150114001Y-102205682D01*
X150166254Y-102198802D01*
X150270762Y-102185044D01*
X150416841Y-102124536D01*
X150542282Y-102028282D01*
X150638536Y-101902841D01*
X150699044Y-101756762D01*
X150713220Y-101649078D01*
X150741486Y-101585184D01*
X150795204Y-101548224D01*
X150867882Y-101522793D01*
X150977150Y-101442150D01*
X151057793Y-101332882D01*
X151080219Y-101268790D01*
X151102646Y-101204701D01*
X151102646Y-101204699D01*
X151105500Y-101174269D01*
X151105500Y-100265730D01*
X151102646Y-100235300D01*
X151102646Y-100235298D01*
X151057793Y-100107119D01*
X151057792Y-100107117D01*
X150977150Y-99997850D01*
X150867882Y-99917207D01*
X150867880Y-99917206D01*
X150739700Y-99872353D01*
X150709270Y-99869500D01*
X150709266Y-99869500D01*
X149350734Y-99869500D01*
X149350730Y-99869500D01*
X149320300Y-99872353D01*
X149320298Y-99872353D01*
X149192119Y-99917206D01*
X149192117Y-99917207D01*
X149082850Y-99997850D01*
X149002207Y-100107117D01*
X149002206Y-100107119D01*
X148957353Y-100235298D01*
X148957353Y-100235300D01*
X148954500Y-100265730D01*
X148954500Y-101174269D01*
X148082000Y-101174269D01*
X148082000Y-97118000D01*
X148101685Y-97050961D01*
X148154489Y-97005206D01*
X148206000Y-96994000D01*
X149507136Y-96994000D01*
X149574175Y-97013685D01*
G37*
%TD.AperFunction*%
%TD*%
%TA.AperFunction,Conductor*%
%TO.N,GND*%
G36*
X133325000Y-92575000D02*
G01*
X131875000Y-94025000D01*
X125288416Y-94025000D01*
X125270485Y-86230206D01*
X125290016Y-86163125D01*
X125342714Y-86117248D01*
X125394407Y-86105924D01*
X133325000Y-86101108D01*
X133325000Y-92575000D01*
G37*
%TD.AperFunction*%
%TD*%
%TA.AperFunction,Conductor*%
%TO.N,/Positive*%
G36*
X145936631Y-99719685D02*
G01*
X145982386Y-99772489D01*
X145992330Y-99841647D01*
X145963305Y-99905203D01*
X145943225Y-99923770D01*
X145842851Y-99997848D01*
X145762207Y-100107117D01*
X145762206Y-100107119D01*
X145717353Y-100235299D01*
X145714500Y-100265730D01*
X145714500Y-101174269D01*
X145717353Y-101204699D01*
X145717353Y-101204701D01*
X145762206Y-101332880D01*
X145762207Y-101332882D01*
X145842850Y-101442150D01*
X145952118Y-101522793D01*
X145991854Y-101536697D01*
X146080299Y-101567646D01*
X146110730Y-101570500D01*
X146110734Y-101570500D01*
X147469270Y-101570500D01*
X147499699Y-101567646D01*
X147499701Y-101567646D01*
X147563790Y-101545219D01*
X147627882Y-101522793D01*
X147737150Y-101442150D01*
X147817793Y-101332882D01*
X147842346Y-101262713D01*
X147862646Y-101204701D01*
X147862646Y-101204699D01*
X147865500Y-101174269D01*
X148954500Y-101174269D01*
X148957353Y-101204699D01*
X148957353Y-101204701D01*
X149002206Y-101332880D01*
X149002207Y-101332882D01*
X149082850Y-101442150D01*
X149192118Y-101522793D01*
X149231854Y-101536697D01*
X149320299Y-101567646D01*
X149350730Y-101570500D01*
X149350734Y-101570500D01*
X149395689Y-101570500D01*
X149462728Y-101590185D01*
X149508483Y-101642989D01*
X149518628Y-101678314D01*
X149524583Y-101723550D01*
X149528956Y-101756762D01*
X149589464Y-101902841D01*
X149685718Y-102028282D01*
X149811159Y-102124536D01*
X149957238Y-102185044D01*
X150035619Y-102195363D01*
X150113999Y-102205682D01*
X150114000Y-102205682D01*
X150114001Y-102205682D01*
X150166254Y-102198802D01*
X150270762Y-102185044D01*
X150416841Y-102124536D01*
X150542282Y-102028282D01*
X150627022Y-101917846D01*
X155917000Y-101917846D01*
X155917000Y-106418999D01*
X156283645Y-106418999D01*
X156283664Y-106418998D01*
X156294471Y-106418165D01*
X156294472Y-106418165D01*
X156431962Y-106376121D01*
X156431962Y-106376120D01*
X156552041Y-106297041D01*
X156552044Y-106297038D01*
X156644975Y-106187337D01*
X156703238Y-106055892D01*
X156703240Y-106055887D01*
X156722109Y-105913361D01*
X156722109Y-105913349D01*
X156721155Y-105902553D01*
X156466029Y-104371796D01*
X156474425Y-104302433D01*
X156518988Y-104248620D01*
X156585571Y-104227442D01*
X156612533Y-104229794D01*
X156616082Y-104230500D01*
X156616086Y-104230500D01*
X157363920Y-104230500D01*
X157461462Y-104211096D01*
X157508913Y-104201658D01*
X157645495Y-104145084D01*
X157768416Y-104062951D01*
X157872951Y-103958416D01*
X157955084Y-103835495D01*
X158011658Y-103698913D01*
X158040500Y-103553918D01*
X158040500Y-103406082D01*
X158040500Y-103406079D01*
X158011659Y-103261092D01*
X158011658Y-103261091D01*
X158011658Y-103261087D01*
X157989304Y-103207119D01*
X157955087Y-103124511D01*
X157955080Y-103124498D01*
X157872951Y-103001584D01*
X157872948Y-103001580D01*
X157768419Y-102897051D01*
X157768415Y-102897048D01*
X157645501Y-102814919D01*
X157645488Y-102814912D01*
X157508917Y-102758343D01*
X157508907Y-102758340D01*
X157363920Y-102729500D01*
X157363918Y-102729500D01*
X156616082Y-102729500D01*
X156616080Y-102729500D01*
X156471092Y-102758340D01*
X156471082Y-102758343D01*
X156358932Y-102804797D01*
X156289463Y-102812266D01*
X156226984Y-102780990D01*
X156191332Y-102720901D01*
X156189167Y-102710622D01*
X156104074Y-102200067D01*
X156104073Y-102200062D01*
X156074120Y-102104036D01*
X155995038Y-101983954D01*
X155995039Y-101983954D01*
X155917000Y-101917846D01*
X150627022Y-101917846D01*
X150638536Y-101902841D01*
X150699044Y-101756762D01*
X150713220Y-101649078D01*
X150741486Y-101585184D01*
X150795204Y-101548224D01*
X150867882Y-101522793D01*
X150977150Y-101442150D01*
X151057793Y-101332882D01*
X151082346Y-101262713D01*
X151102646Y-101204701D01*
X151102646Y-101204699D01*
X151105500Y-101174269D01*
X151105500Y-100265730D01*
X151102646Y-100235299D01*
X151057793Y-100107119D01*
X151057792Y-100107117D01*
X150977150Y-99997850D01*
X150867882Y-99917207D01*
X150867880Y-99917206D01*
X150739700Y-99872353D01*
X150709270Y-99869500D01*
X150709266Y-99869500D01*
X149350734Y-99869500D01*
X149350730Y-99869500D01*
X149320300Y-99872353D01*
X149320298Y-99872353D01*
X149192119Y-99917206D01*
X149192117Y-99917207D01*
X149082850Y-99997850D01*
X149002207Y-100107117D01*
X149002206Y-100107119D01*
X148957353Y-100235299D01*
X148954500Y-100265730D01*
X148954500Y-101174269D01*
X147865500Y-101174269D01*
X147865500Y-100265730D01*
X147862646Y-100235299D01*
X147817793Y-100107119D01*
X147817792Y-100107117D01*
X147737150Y-99997850D01*
X147737148Y-99997849D01*
X147737148Y-99997848D01*
X147636775Y-99923770D01*
X147594524Y-99868123D01*
X147589065Y-99798467D01*
X147622132Y-99736917D01*
X147683226Y-99703016D01*
X147710408Y-99700000D01*
X148082000Y-99700000D01*
X153670000Y-99700000D01*
X154138857Y-99700000D01*
X154205896Y-99719685D01*
X154251651Y-99772489D01*
X154261170Y-99803615D01*
X154323358Y-100176747D01*
X154323358Y-100176748D01*
X154335227Y-100212539D01*
X154335228Y-100212540D01*
X154335229Y-100212542D01*
X154384863Y-100274983D01*
X154384864Y-100274983D01*
X154384864Y-100274984D01*
X154406352Y-100286904D01*
X154454613Y-100313676D01*
X154488656Y-100318997D01*
X154491864Y-100319499D01*
X154491865Y-100319499D01*
X154491871Y-100319500D01*
X154491877Y-100319500D01*
X155642130Y-100319500D01*
X155642134Y-100319500D01*
X155679387Y-100313676D01*
X155749137Y-100274983D01*
X155798771Y-100212543D01*
X155810640Y-100176752D01*
X155872830Y-99803614D01*
X155903268Y-99740723D01*
X155962876Y-99704272D01*
X155995143Y-99700000D01*
X159457000Y-99700000D01*
X159524039Y-99719685D01*
X159569794Y-99772489D01*
X159581000Y-99824000D01*
X159581000Y-112575800D01*
X159561315Y-112642839D01*
X159508511Y-112688594D01*
X159457000Y-112699800D01*
X141855848Y-112699800D01*
X141788809Y-112680115D01*
X141743054Y-112627311D01*
X141731848Y-112575952D01*
X141730691Y-111630954D01*
X141730148Y-111187600D01*
X151532600Y-111187600D01*
X151532600Y-111235444D01*
X151539001Y-111294972D01*
X151539003Y-111294979D01*
X151589245Y-111429686D01*
X151589249Y-111429693D01*
X151675409Y-111544787D01*
X151675412Y-111544790D01*
X151790506Y-111630950D01*
X151790513Y-111630954D01*
X151925220Y-111681196D01*
X151925227Y-111681198D01*
X151984755Y-111687599D01*
X151984772Y-111687600D01*
X152032600Y-111687600D01*
X152032600Y-111187600D01*
X153732600Y-111187600D01*
X153732600Y-111687600D01*
X153780428Y-111687600D01*
X153780444Y-111687599D01*
X153839972Y-111681198D01*
X153839979Y-111681196D01*
X153974686Y-111630954D01*
X153974693Y-111630950D01*
X154089787Y-111544790D01*
X154089790Y-111544787D01*
X154175950Y-111429693D01*
X154175954Y-111429686D01*
X154226196Y-111294979D01*
X154226198Y-111294972D01*
X154232599Y-111235444D01*
X154232600Y-111235427D01*
X154232600Y-111187600D01*
X153732600Y-111187600D01*
X152032600Y-111187600D01*
X151532600Y-111187600D01*
X141730148Y-111187600D01*
X141729189Y-110403426D01*
X152382600Y-110403426D01*
X152416675Y-110530593D01*
X152482501Y-110644607D01*
X152575593Y-110737699D01*
X152689607Y-110803525D01*
X152816774Y-110837600D01*
X152948426Y-110837600D01*
X153075593Y-110803525D01*
X153189607Y-110737699D01*
X153282699Y-110644607D01*
X153348525Y-110530593D01*
X153382600Y-110403426D01*
X153382600Y-110271774D01*
X153348525Y-110144607D01*
X153282699Y-110030593D01*
X153189607Y-109937501D01*
X153075593Y-109871675D01*
X152948426Y-109837600D01*
X152816774Y-109837600D01*
X152689607Y-109871675D01*
X152575593Y-109937501D01*
X152482501Y-110030593D01*
X152416675Y-110144607D01*
X152382600Y-110271774D01*
X152382600Y-110403426D01*
X141729189Y-110403426D01*
X141728068Y-109487600D01*
X151532600Y-109487600D01*
X152032600Y-109487600D01*
X152032600Y-108987600D01*
X153732600Y-108987600D01*
X153732600Y-109487600D01*
X154232600Y-109487600D01*
X154232600Y-109439772D01*
X154232599Y-109439755D01*
X154226198Y-109380227D01*
X154226196Y-109380220D01*
X154175954Y-109245513D01*
X154175950Y-109245506D01*
X154089790Y-109130412D01*
X154089787Y-109130409D01*
X153974693Y-109044249D01*
X153974686Y-109044245D01*
X153839979Y-108994003D01*
X153839972Y-108994001D01*
X153780444Y-108987600D01*
X153732600Y-108987600D01*
X152032600Y-108987600D01*
X151984755Y-108987600D01*
X151925227Y-108994001D01*
X151925220Y-108994003D01*
X151790513Y-109044245D01*
X151790506Y-109044249D01*
X151675412Y-109130409D01*
X151675409Y-109130412D01*
X151589249Y-109245506D01*
X151589245Y-109245513D01*
X151539003Y-109380220D01*
X151539001Y-109380227D01*
X151532600Y-109439755D01*
X151532600Y-109487600D01*
X141728068Y-109487600D01*
X141721926Y-104470000D01*
X145457737Y-104470000D01*
X145480641Y-104539120D01*
X145572684Y-104688345D01*
X145696654Y-104812315D01*
X145845875Y-104904356D01*
X145845880Y-104904358D01*
X146012302Y-104959505D01*
X146012309Y-104959506D01*
X146115019Y-104969999D01*
X146140000Y-104969998D01*
X146140000Y-104470000D01*
X147440000Y-104470000D01*
X147440000Y-104969999D01*
X147464972Y-104969999D01*
X147464986Y-104969998D01*
X147567697Y-104959505D01*
X147734119Y-104904358D01*
X147734124Y-104904356D01*
X147883345Y-104812315D01*
X148007315Y-104688345D01*
X148099358Y-104539120D01*
X148122263Y-104470000D01*
X147440000Y-104470000D01*
X146140000Y-104470000D01*
X145457737Y-104470000D01*
X141721926Y-104470000D01*
X141721687Y-104274269D01*
X148954500Y-104274269D01*
X148957353Y-104304699D01*
X148957353Y-104304701D01*
X149002206Y-104432880D01*
X149002207Y-104432882D01*
X149082850Y-104542150D01*
X149192118Y-104622793D01*
X149234845Y-104637744D01*
X149320299Y-104667646D01*
X149350730Y-104670500D01*
X149350734Y-104670500D01*
X150709270Y-104670500D01*
X150739699Y-104667646D01*
X150739701Y-104667646D01*
X150803790Y-104645219D01*
X150867882Y-104622793D01*
X150977150Y-104542150D01*
X151057793Y-104432882D01*
X151080219Y-104368790D01*
X151102646Y-104304701D01*
X151102646Y-104304699D01*
X151105500Y-104274269D01*
X151105500Y-103929500D01*
X151125185Y-103862461D01*
X151177989Y-103816706D01*
X151229500Y-103805500D01*
X152138595Y-103805500D01*
X152205634Y-103825185D01*
X152241695Y-103860607D01*
X152286466Y-103927612D01*
X152307050Y-103958418D01*
X152411580Y-104062948D01*
X152411584Y-104062951D01*
X152534498Y-104145080D01*
X152534511Y-104145087D01*
X152671082Y-104201656D01*
X152671087Y-104201658D01*
X152671091Y-104201658D01*
X152671092Y-104201659D01*
X152816079Y-104230500D01*
X153545141Y-104230500D01*
X153612180Y-104250185D01*
X153657935Y-104302989D01*
X153667879Y-104372147D01*
X153667454Y-104374885D01*
X153412846Y-105902539D01*
X153412843Y-105902562D01*
X153411890Y-105913349D01*
X153411890Y-105913361D01*
X153430759Y-106055886D01*
X153430761Y-106055894D01*
X153489022Y-106187335D01*
X153581955Y-106297039D01*
X153581957Y-106297041D01*
X153702036Y-106376120D01*
X153702036Y-106376121D01*
X153839518Y-106418163D01*
X153839528Y-106418165D01*
X153850346Y-106418999D01*
X154216999Y-106418999D01*
X154217000Y-106418998D01*
X154217000Y-103684269D01*
X154219383Y-103660077D01*
X154240500Y-103553920D01*
X154240500Y-103406079D01*
X154219383Y-103299921D01*
X154217000Y-103275729D01*
X154217000Y-101917847D01*
X154216999Y-101917847D01*
X154138961Y-101983955D01*
X154059880Y-102104035D01*
X154059879Y-102104036D01*
X154029925Y-102200065D01*
X154029924Y-102200070D01*
X153947802Y-102692798D01*
X153917364Y-102755689D01*
X153857756Y-102792140D01*
X153787904Y-102790579D01*
X153778037Y-102786974D01*
X153763590Y-102780990D01*
X153708913Y-102758342D01*
X153708908Y-102758341D01*
X153708907Y-102758340D01*
X153563920Y-102729500D01*
X153563918Y-102729500D01*
X152816082Y-102729500D01*
X152816080Y-102729500D01*
X152671092Y-102758340D01*
X152671082Y-102758343D01*
X152534511Y-102814912D01*
X152534498Y-102814919D01*
X152411584Y-102897048D01*
X152411580Y-102897051D01*
X152307050Y-103001581D01*
X152269236Y-103058174D01*
X152241696Y-103099391D01*
X152188086Y-103144196D01*
X152138595Y-103154500D01*
X151081557Y-103154500D01*
X151014518Y-103134815D01*
X150981786Y-103104132D01*
X150978286Y-103099390D01*
X150977150Y-103097850D01*
X150867882Y-103017207D01*
X150867880Y-103017206D01*
X150739700Y-102972353D01*
X150709270Y-102969500D01*
X150709266Y-102969500D01*
X149350734Y-102969500D01*
X149350730Y-102969500D01*
X149320300Y-102972353D01*
X149320298Y-102972353D01*
X149192119Y-103017206D01*
X149192117Y-103017207D01*
X149082850Y-103097850D01*
X149002207Y-103207117D01*
X149002206Y-103207119D01*
X148957353Y-103335298D01*
X148957353Y-103335300D01*
X148954500Y-103365730D01*
X148954500Y-104274269D01*
X141721687Y-104274269D01*
X141720678Y-103450000D01*
X139725000Y-103450000D01*
X139747246Y-111681198D01*
X139749664Y-112575665D01*
X139730160Y-112642757D01*
X139677480Y-112688655D01*
X139625664Y-112700000D01*
X137499009Y-112700000D01*
X137431970Y-112680315D01*
X137386215Y-112627511D01*
X137375009Y-112575991D01*
X137375010Y-112575800D01*
X137375709Y-103432600D01*
X137375709Y-103432599D01*
X137362670Y-103419559D01*
X137340041Y-103412915D01*
X137294286Y-103360111D01*
X137283080Y-103308600D01*
X137283080Y-103209507D01*
X137294681Y-103170000D01*
X145457737Y-103170000D01*
X146140000Y-103170000D01*
X146140000Y-102670000D01*
X147440000Y-102670000D01*
X147440000Y-103170000D01*
X148122262Y-103170000D01*
X148099358Y-103100879D01*
X148007315Y-102951654D01*
X147883345Y-102827684D01*
X147734124Y-102735643D01*
X147734119Y-102735641D01*
X147567697Y-102680494D01*
X147567690Y-102680493D01*
X147464986Y-102670000D01*
X147440000Y-102670000D01*
X146140000Y-102670000D01*
X146140000Y-102669999D01*
X146115029Y-102670000D01*
X146115010Y-102670001D01*
X146012302Y-102680494D01*
X145845880Y-102735641D01*
X145845875Y-102735643D01*
X145696654Y-102827684D01*
X145572684Y-102951654D01*
X145480641Y-103100879D01*
X145457737Y-103170000D01*
X137294681Y-103170000D01*
X137302765Y-103142468D01*
X137319399Y-103121826D01*
X137344513Y-103096712D01*
X137419292Y-102967192D01*
X137458000Y-102822731D01*
X137458000Y-102673173D01*
X137419292Y-102528712D01*
X137344513Y-102399192D01*
X137319399Y-102374078D01*
X137285914Y-102312755D01*
X137283080Y-102286397D01*
X137283080Y-102073031D01*
X137302765Y-102005992D01*
X137319399Y-101985350D01*
X137320795Y-101983954D01*
X137344513Y-101960236D01*
X137419292Y-101830716D01*
X137458000Y-101686255D01*
X137458000Y-101536697D01*
X137419292Y-101392236D01*
X137344513Y-101262716D01*
X137319399Y-101237602D01*
X137285914Y-101176279D01*
X137283080Y-101149921D01*
X137283080Y-100936555D01*
X137302765Y-100869516D01*
X137319399Y-100848874D01*
X137344513Y-100823760D01*
X137419292Y-100694240D01*
X137458000Y-100549779D01*
X137458000Y-100400221D01*
X137419292Y-100255760D01*
X137344513Y-100126240D01*
X137319399Y-100101126D01*
X137285914Y-100039803D01*
X137283080Y-100013445D01*
X137283080Y-99824000D01*
X137302765Y-99756961D01*
X137355569Y-99711206D01*
X137407080Y-99700000D01*
X145869592Y-99700000D01*
X145936631Y-99719685D01*
G37*
%TD.AperFunction*%
%TA.AperFunction,Conductor*%
G36*
X132368773Y-100113335D02*
G01*
X132414528Y-100166139D01*
X132424472Y-100235297D01*
X132409121Y-100279651D01*
X132362202Y-100360914D01*
X132323494Y-100505377D01*
X132323494Y-100654934D01*
X132362202Y-100799397D01*
X132390768Y-100848874D01*
X132436981Y-100928916D01*
X132436983Y-100928918D01*
X132471561Y-100963496D01*
X132505046Y-101024819D01*
X132507880Y-101051177D01*
X132507880Y-101245611D01*
X132488195Y-101312650D01*
X132471561Y-101333292D01*
X132436983Y-101367869D01*
X132436981Y-101367872D01*
X132362202Y-101497390D01*
X132323494Y-101641853D01*
X132323494Y-101791410D01*
X132362202Y-101935873D01*
X132389962Y-101983954D01*
X132436981Y-102065392D01*
X132436983Y-102065394D01*
X132471561Y-102099972D01*
X132505046Y-102161295D01*
X132507880Y-102187653D01*
X132507880Y-102382087D01*
X132488195Y-102449126D01*
X132471561Y-102469768D01*
X132436983Y-102504345D01*
X132436981Y-102504348D01*
X132362202Y-102633866D01*
X132323494Y-102778329D01*
X132323494Y-102927886D01*
X132362202Y-103072349D01*
X132398268Y-103134815D01*
X132436981Y-103201868D01*
X132436983Y-103201870D01*
X132471561Y-103236448D01*
X132505046Y-103297771D01*
X132507880Y-103324129D01*
X132507880Y-103421611D01*
X132522166Y-103447774D01*
X132525000Y-103474132D01*
X132525000Y-105300000D01*
X135076000Y-105300000D01*
X135143039Y-105319685D01*
X135188794Y-105372489D01*
X135200000Y-105424000D01*
X135200000Y-112565818D01*
X135180315Y-112632857D01*
X135127511Y-112678612D01*
X135075995Y-112689818D01*
X130572141Y-112689647D01*
X130572139Y-112689648D01*
X130572138Y-112689648D01*
X129185951Y-112689596D01*
X129000139Y-112503784D01*
X129000138Y-112503784D01*
X128831780Y-112672140D01*
X128814337Y-112689582D01*
X127428016Y-112689530D01*
X125455059Y-112689455D01*
X125388021Y-112669768D01*
X125342268Y-112616962D01*
X125331064Y-112565740D01*
X125323114Y-109109737D01*
X125338678Y-109094173D01*
X127400138Y-109094173D01*
X127439535Y-109342918D01*
X127517359Y-109582437D01*
X127631695Y-109806833D01*
X127779726Y-110010580D01*
X127957808Y-110188662D01*
X128161555Y-110336693D01*
X128385951Y-110451029D01*
X128625470Y-110528853D01*
X128874215Y-110568250D01*
X129126061Y-110568250D01*
X129374806Y-110528853D01*
X129614325Y-110451029D01*
X129838721Y-110336693D01*
X130042468Y-110188662D01*
X130220550Y-110010580D01*
X130368581Y-109806833D01*
X130482917Y-109582437D01*
X130560741Y-109342918D01*
X130600138Y-109094173D01*
X130600138Y-108968251D01*
X132535672Y-108968251D01*
X132696771Y-109129350D01*
X132705216Y-108968250D01*
X132696771Y-108807149D01*
X132535672Y-108968250D01*
X132535672Y-108968251D01*
X130600138Y-108968251D01*
X130600138Y-108842327D01*
X130560741Y-108593582D01*
X130482917Y-108354063D01*
X130368581Y-108129667D01*
X130220550Y-107925920D01*
X130042468Y-107747838D01*
X129838721Y-107599807D01*
X129614325Y-107485471D01*
X129374806Y-107407647D01*
X129126061Y-107368250D01*
X128874215Y-107368250D01*
X128625470Y-107407647D01*
X128385951Y-107485471D01*
X128161555Y-107599807D01*
X127957808Y-107747838D01*
X127779726Y-107925920D01*
X127631695Y-108129667D01*
X127517359Y-108354063D01*
X127439535Y-108593582D01*
X127400138Y-108842327D01*
X127400138Y-109094173D01*
X125338678Y-109094173D01*
X125464603Y-108968249D01*
X125322462Y-108826108D01*
X125314286Y-105271614D01*
X128839036Y-105271614D01*
X129000137Y-105432715D01*
X129161238Y-105271614D01*
X129000139Y-105263172D01*
X129000136Y-105263172D01*
X128839036Y-105271614D01*
X125314286Y-105271614D01*
X125302661Y-100217933D01*
X125322192Y-100150851D01*
X125374890Y-100104974D01*
X125426661Y-100093650D01*
X132301734Y-100093650D01*
X132368773Y-100113335D01*
G37*
%TD.AperFunction*%
%TD*%
%TA.AperFunction,Conductor*%
%TO.N,GND*%
G36*
X159524039Y-86125685D02*
G01*
X159569794Y-86178489D01*
X159581000Y-86230000D01*
X159581000Y-99370500D01*
X159561315Y-99437539D01*
X159508511Y-99483294D01*
X159457000Y-99494500D01*
X156374358Y-99494500D01*
X156307319Y-99474815D01*
X156261564Y-99422011D01*
X156251620Y-99352853D01*
X156252045Y-99350114D01*
X156282231Y-99169000D01*
X154341000Y-99169000D01*
X154273961Y-99149315D01*
X154228206Y-99096511D01*
X154217000Y-99045000D01*
X154217000Y-96019000D01*
X154010814Y-96019000D01*
X153943775Y-95999315D01*
X153898020Y-95946511D01*
X153888076Y-95877353D01*
X153917101Y-95813797D01*
X153963364Y-95780438D01*
X153987358Y-95770499D01*
X153987368Y-95770494D01*
X154159335Y-95655589D01*
X154159339Y-95655586D01*
X154305586Y-95509339D01*
X154305589Y-95509335D01*
X154385327Y-95390000D01*
X155794673Y-95390000D01*
X155874410Y-95509335D01*
X155874413Y-95509339D01*
X156020660Y-95655586D01*
X156020664Y-95655589D01*
X156192631Y-95770494D01*
X156192641Y-95770499D01*
X156216637Y-95780439D01*
X156271040Y-95824280D01*
X156293105Y-95890574D01*
X156275826Y-95958274D01*
X156224688Y-96005884D01*
X156169184Y-96019000D01*
X155917000Y-96019000D01*
X155917000Y-97469000D01*
X156565564Y-97469000D01*
X156565564Y-97468999D01*
X156721153Y-96535460D01*
X156721156Y-96535437D01*
X156722109Y-96524650D01*
X156722109Y-96524638D01*
X156703240Y-96382113D01*
X156703238Y-96382105D01*
X156644977Y-96250664D01*
X156552044Y-96140960D01*
X156552042Y-96140958D01*
X156441130Y-96067916D01*
X156395968Y-96014604D01*
X156386798Y-95945339D01*
X156416531Y-95882111D01*
X156430666Y-95868503D01*
X156440000Y-95860842D01*
X156440000Y-95390000D01*
X157540000Y-95390000D01*
X157540000Y-95860842D01*
X157596274Y-95849649D01*
X157596276Y-95849648D01*
X157787358Y-95770499D01*
X157787368Y-95770494D01*
X157959335Y-95655589D01*
X157959339Y-95655586D01*
X158105586Y-95509339D01*
X158105589Y-95509335D01*
X158185327Y-95390000D01*
X157540000Y-95390000D01*
X156440000Y-95390000D01*
X155794673Y-95390000D01*
X154385327Y-95390000D01*
X153740000Y-95390000D01*
X153740000Y-95867214D01*
X153769494Y-95910514D01*
X153771363Y-95980359D01*
X153735175Y-96040127D01*
X153704271Y-96060828D01*
X153702040Y-96061877D01*
X153581958Y-96140958D01*
X153581955Y-96140961D01*
X153489024Y-96250662D01*
X153430761Y-96382107D01*
X153430759Y-96382112D01*
X153411890Y-96524638D01*
X153411890Y-96524651D01*
X153412843Y-96535437D01*
X153412845Y-96535451D01*
X153430956Y-96644115D01*
X153422560Y-96713478D01*
X153377997Y-96767291D01*
X153311414Y-96788469D01*
X153308643Y-96788500D01*
X150466837Y-96788500D01*
X150446120Y-96789550D01*
X150446118Y-96789550D01*
X150421198Y-96792079D01*
X150345622Y-96815005D01*
X150345614Y-96815008D01*
X150283902Y-96847757D01*
X150262460Y-96860877D01*
X150262454Y-96860881D01*
X150201056Y-96928651D01*
X150166850Y-96989560D01*
X150166831Y-96989597D01*
X150164272Y-96994888D01*
X150117358Y-97046665D01*
X150049899Y-97064860D01*
X150036463Y-97063829D01*
X149987003Y-97057318D01*
X149986997Y-97057318D01*
X149936763Y-97063931D01*
X149867728Y-97053165D01*
X149815473Y-97006784D01*
X149811164Y-96999338D01*
X149775236Y-96931915D01*
X149738494Y-96889513D01*
X149729475Y-96879104D01*
X149711893Y-96861160D01*
X149711892Y-96861159D01*
X149711890Y-96861157D01*
X149711888Y-96861156D01*
X149711886Y-96861154D01*
X149632076Y-96816511D01*
X149632071Y-96816509D01*
X149565039Y-96796826D01*
X149565035Y-96796825D01*
X149565034Y-96796825D01*
X149507136Y-96788500D01*
X148206000Y-96788500D01*
X148205992Y-96788500D01*
X148162313Y-96793197D01*
X148110825Y-96804397D01*
X148100627Y-96806890D01*
X148100624Y-96806891D01*
X148019916Y-96849899D01*
X148019913Y-96849901D01*
X147967104Y-96895660D01*
X147949160Y-96913242D01*
X147949154Y-96913249D01*
X147904511Y-96993059D01*
X147904509Y-96993064D01*
X147884826Y-97060096D01*
X147884825Y-97060101D01*
X147884825Y-97060102D01*
X147881867Y-97080678D01*
X147876500Y-97118003D01*
X147876500Y-97480065D01*
X147856815Y-97547104D01*
X147804011Y-97592859D01*
X147734853Y-97602803D01*
X147678866Y-97579835D01*
X147627881Y-97542206D01*
X147499695Y-97497353D01*
X147499698Y-97497353D01*
X147469268Y-97494500D01*
X146110741Y-97494500D01*
X146080301Y-97497354D01*
X146080300Y-97497354D01*
X145952118Y-97542206D01*
X145842850Y-97622850D01*
X145762206Y-97732118D01*
X145717353Y-97860302D01*
X145714500Y-97890731D01*
X145714500Y-98924258D01*
X145717354Y-98954698D01*
X145717354Y-98954699D01*
X145762206Y-99082881D01*
X145783332Y-99111506D01*
X145842850Y-99192150D01*
X145949502Y-99270862D01*
X145991752Y-99326509D01*
X145997211Y-99396165D01*
X145964144Y-99457715D01*
X145903050Y-99491616D01*
X145874021Y-99493792D01*
X145874021Y-99494500D01*
X137582000Y-99494500D01*
X137514961Y-99474815D01*
X137469206Y-99422011D01*
X137458000Y-99370500D01*
X137458000Y-99238347D01*
X137458000Y-99238345D01*
X137419292Y-99093884D01*
X137344513Y-98964364D01*
X137319399Y-98939250D01*
X137285914Y-98877927D01*
X137283080Y-98851569D01*
X137283080Y-98728199D01*
X137302765Y-98661160D01*
X137319399Y-98640518D01*
X137344513Y-98615404D01*
X137419292Y-98485884D01*
X137458000Y-98341423D01*
X137458000Y-98191865D01*
X137419292Y-98047404D01*
X137344513Y-97917884D01*
X137319399Y-97892770D01*
X137285914Y-97831447D01*
X137283080Y-97805089D01*
X137283080Y-97656319D01*
X137302765Y-97589280D01*
X137319399Y-97568638D01*
X137344513Y-97543524D01*
X137419292Y-97414004D01*
X137458000Y-97269543D01*
X137458000Y-97119985D01*
X137419292Y-96975524D01*
X137344513Y-96846004D01*
X137319399Y-96820890D01*
X137285914Y-96759567D01*
X137283080Y-96733209D01*
X137283080Y-96584439D01*
X137302765Y-96517400D01*
X137319399Y-96496758D01*
X137328842Y-96487315D01*
X137344513Y-96471644D01*
X137419292Y-96342124D01*
X137458000Y-96197663D01*
X137458000Y-96145000D01*
X145457737Y-96145000D01*
X145480639Y-96214116D01*
X145572684Y-96363344D01*
X145696655Y-96487315D01*
X145845876Y-96579356D01*
X145845881Y-96579358D01*
X146012303Y-96634505D01*
X146077499Y-96641166D01*
X146077500Y-96641165D01*
X146077500Y-96145000D01*
X147502500Y-96145000D01*
X147502500Y-96641166D01*
X147567696Y-96634505D01*
X147734118Y-96579358D01*
X147734123Y-96579356D01*
X147883344Y-96487315D01*
X148007315Y-96363344D01*
X148099360Y-96214116D01*
X148122262Y-96145000D01*
X147502500Y-96145000D01*
X146077500Y-96145000D01*
X145457737Y-96145000D01*
X137458000Y-96145000D01*
X137458000Y-96048105D01*
X137445378Y-96001000D01*
X148697737Y-96001000D01*
X148720641Y-96070120D01*
X148812684Y-96219345D01*
X148936654Y-96343315D01*
X149085875Y-96435356D01*
X149085880Y-96435358D01*
X149252302Y-96490505D01*
X149252309Y-96490506D01*
X149355019Y-96500999D01*
X149380000Y-96500998D01*
X149380000Y-96001000D01*
X150680000Y-96001000D01*
X150680000Y-96500999D01*
X150704972Y-96500999D01*
X150704986Y-96500998D01*
X150807697Y-96490505D01*
X150974119Y-96435358D01*
X150974124Y-96435356D01*
X151123345Y-96343315D01*
X151247315Y-96219345D01*
X151339358Y-96070120D01*
X151362263Y-96001000D01*
X150680000Y-96001000D01*
X149380000Y-96001000D01*
X148697737Y-96001000D01*
X137445378Y-96001000D01*
X137419292Y-95903644D01*
X137344513Y-95774124D01*
X137344511Y-95774122D01*
X137340449Y-95767086D01*
X137343101Y-95765554D01*
X137323145Y-95713961D01*
X137337171Y-95645513D01*
X137359106Y-95615866D01*
X137374998Y-95599999D01*
X137375000Y-95600000D01*
X137373402Y-86273412D01*
X137393075Y-86206370D01*
X137445871Y-86160606D01*
X137497434Y-86149392D01*
X139651036Y-86149966D01*
X139718067Y-86169668D01*
X139763808Y-86222485D01*
X139775000Y-86273966D01*
X139775012Y-94800000D01*
X139775012Y-94800002D01*
X139774999Y-95599999D01*
X139775000Y-95600000D01*
X141732000Y-95600000D01*
X141732000Y-95390000D01*
X151994673Y-95390000D01*
X152074410Y-95509335D01*
X152074413Y-95509339D01*
X152220660Y-95655586D01*
X152220664Y-95655589D01*
X152392631Y-95770494D01*
X152392641Y-95770499D01*
X152583723Y-95849648D01*
X152583725Y-95849649D01*
X152640000Y-95860842D01*
X152640000Y-95390000D01*
X151994673Y-95390000D01*
X141732000Y-95390000D01*
X141732000Y-94879496D01*
X152590000Y-94879496D01*
X152610444Y-94955796D01*
X152649940Y-95024205D01*
X152705795Y-95080060D01*
X152774204Y-95119556D01*
X152850504Y-95140000D01*
X153529496Y-95140000D01*
X153605796Y-95119556D01*
X153674205Y-95080060D01*
X153730060Y-95024205D01*
X153769556Y-94955796D01*
X153790000Y-94879496D01*
X156390000Y-94879496D01*
X156410444Y-94955796D01*
X156449940Y-95024205D01*
X156505795Y-95080060D01*
X156574204Y-95119556D01*
X156650504Y-95140000D01*
X157329496Y-95140000D01*
X157405796Y-95119556D01*
X157474205Y-95080060D01*
X157530060Y-95024205D01*
X157569556Y-94955796D01*
X157590000Y-94879496D01*
X157590000Y-94800504D01*
X157569556Y-94724204D01*
X157530060Y-94655795D01*
X157474205Y-94599940D01*
X157405796Y-94560444D01*
X157329496Y-94540000D01*
X156650504Y-94540000D01*
X156574204Y-94560444D01*
X156505795Y-94599940D01*
X156449940Y-94655795D01*
X156410444Y-94724204D01*
X156390000Y-94800504D01*
X156390000Y-94879496D01*
X153790000Y-94879496D01*
X153790000Y-94800504D01*
X153769556Y-94724204D01*
X153730060Y-94655795D01*
X153674205Y-94599940D01*
X153605796Y-94560444D01*
X153529496Y-94540000D01*
X152850504Y-94540000D01*
X152774204Y-94560444D01*
X152705795Y-94599940D01*
X152649940Y-94655795D01*
X152610444Y-94724204D01*
X152590000Y-94800504D01*
X152590000Y-94879496D01*
X141732000Y-94879496D01*
X141732000Y-94719999D01*
X145457737Y-94719999D01*
X145457738Y-94720000D01*
X146077500Y-94720000D01*
X146077500Y-94223833D01*
X147502500Y-94223833D01*
X147502500Y-94720000D01*
X148122262Y-94720000D01*
X148122262Y-94719999D01*
X148115967Y-94701000D01*
X148697737Y-94701000D01*
X149380000Y-94701000D01*
X149380000Y-94201000D01*
X150680000Y-94201000D01*
X150680000Y-94701000D01*
X151362262Y-94701000D01*
X151339358Y-94631879D01*
X151247315Y-94482654D01*
X151123345Y-94358684D01*
X151011991Y-94290000D01*
X151994673Y-94290000D01*
X152640000Y-94290000D01*
X152640000Y-93819156D01*
X152639999Y-93819155D01*
X153740000Y-93819155D01*
X153740000Y-94290000D01*
X154385327Y-94290000D01*
X155794673Y-94290000D01*
X156440000Y-94290000D01*
X156440000Y-93819156D01*
X156439999Y-93819155D01*
X157540000Y-93819155D01*
X157540000Y-94290000D01*
X158185327Y-94290000D01*
X158105589Y-94170664D01*
X158105586Y-94170660D01*
X157959339Y-94024413D01*
X157959335Y-94024410D01*
X157787368Y-93909505D01*
X157787358Y-93909500D01*
X157596272Y-93830349D01*
X157596267Y-93830347D01*
X157540000Y-93819155D01*
X156439999Y-93819155D01*
X156383732Y-93830347D01*
X156383727Y-93830349D01*
X156192641Y-93909500D01*
X156192631Y-93909505D01*
X156020664Y-94024410D01*
X156020660Y-94024413D01*
X155874413Y-94170660D01*
X155874410Y-94170664D01*
X155794673Y-94290000D01*
X154385327Y-94290000D01*
X154305589Y-94170664D01*
X154305586Y-94170660D01*
X154159339Y-94024413D01*
X154159335Y-94024410D01*
X153987368Y-93909505D01*
X153987358Y-93909500D01*
X153796272Y-93830349D01*
X153796267Y-93830347D01*
X153740000Y-93819155D01*
X152639999Y-93819155D01*
X152583732Y-93830347D01*
X152583727Y-93830349D01*
X152392641Y-93909500D01*
X152392631Y-93909505D01*
X152220664Y-94024410D01*
X152220660Y-94024413D01*
X152074413Y-94170660D01*
X152074410Y-94170664D01*
X151994673Y-94290000D01*
X151011991Y-94290000D01*
X150974124Y-94266643D01*
X150974119Y-94266641D01*
X150807697Y-94211494D01*
X150807690Y-94211493D01*
X150704986Y-94201000D01*
X150680000Y-94201000D01*
X149380000Y-94201000D01*
X149380000Y-94200999D01*
X149355029Y-94201000D01*
X149355010Y-94201001D01*
X149252302Y-94211494D01*
X149085880Y-94266641D01*
X149085875Y-94266643D01*
X148936654Y-94358684D01*
X148812684Y-94482654D01*
X148720641Y-94631879D01*
X148697737Y-94701000D01*
X148115967Y-94701000D01*
X148099360Y-94650883D01*
X148007315Y-94501655D01*
X147883344Y-94377684D01*
X147734123Y-94285643D01*
X147734118Y-94285641D01*
X147567696Y-94230494D01*
X147567689Y-94230493D01*
X147502500Y-94223833D01*
X146077500Y-94223833D01*
X146077499Y-94223833D01*
X146012310Y-94230493D01*
X146012303Y-94230494D01*
X145845881Y-94285641D01*
X145845876Y-94285643D01*
X145696655Y-94377684D01*
X145572684Y-94501655D01*
X145480639Y-94650883D01*
X145457737Y-94719999D01*
X141732000Y-94719999D01*
X141732000Y-89521400D01*
X151532600Y-89521400D01*
X151532600Y-89569244D01*
X151539001Y-89628772D01*
X151539003Y-89628779D01*
X151589245Y-89763486D01*
X151589249Y-89763493D01*
X151675409Y-89878587D01*
X151675412Y-89878590D01*
X151790506Y-89964750D01*
X151790513Y-89964754D01*
X151925220Y-90014996D01*
X151925227Y-90014998D01*
X151984755Y-90021399D01*
X151984772Y-90021400D01*
X152032600Y-90021400D01*
X152032600Y-89521400D01*
X153732600Y-89521400D01*
X153732600Y-90021400D01*
X153780428Y-90021400D01*
X153780444Y-90021399D01*
X153839972Y-90014998D01*
X153839979Y-90014996D01*
X153974686Y-89964754D01*
X153974693Y-89964750D01*
X154089787Y-89878590D01*
X154089790Y-89878587D01*
X154175950Y-89763493D01*
X154175954Y-89763486D01*
X154226196Y-89628779D01*
X154226198Y-89628772D01*
X154232599Y-89569244D01*
X154232600Y-89569227D01*
X154232600Y-89521400D01*
X153732600Y-89521400D01*
X152032600Y-89521400D01*
X151532600Y-89521400D01*
X141732000Y-89521400D01*
X141732000Y-88737226D01*
X152382600Y-88737226D01*
X152416675Y-88864393D01*
X152482501Y-88978407D01*
X152575593Y-89071499D01*
X152689607Y-89137325D01*
X152816774Y-89171400D01*
X152948426Y-89171400D01*
X153075593Y-89137325D01*
X153189607Y-89071499D01*
X153282699Y-88978407D01*
X153348525Y-88864393D01*
X153382600Y-88737226D01*
X153382600Y-88605574D01*
X153348525Y-88478407D01*
X153282699Y-88364393D01*
X153189607Y-88271301D01*
X153075593Y-88205475D01*
X152948426Y-88171400D01*
X152816774Y-88171400D01*
X152689607Y-88205475D01*
X152575593Y-88271301D01*
X152482501Y-88364393D01*
X152416675Y-88478407D01*
X152382600Y-88605574D01*
X152382600Y-88737226D01*
X141732000Y-88737226D01*
X141732000Y-87821400D01*
X151532600Y-87821400D01*
X152032600Y-87821400D01*
X152032600Y-87321400D01*
X153732600Y-87321400D01*
X153732600Y-87821400D01*
X154232600Y-87821400D01*
X154232600Y-87773572D01*
X154232599Y-87773555D01*
X154226198Y-87714027D01*
X154226196Y-87714020D01*
X154175954Y-87579313D01*
X154175950Y-87579306D01*
X154089790Y-87464212D01*
X154089787Y-87464209D01*
X153974693Y-87378049D01*
X153974686Y-87378045D01*
X153839979Y-87327803D01*
X153839972Y-87327801D01*
X153780444Y-87321400D01*
X153732600Y-87321400D01*
X152032600Y-87321400D01*
X151984755Y-87321400D01*
X151925227Y-87327801D01*
X151925220Y-87327803D01*
X151790513Y-87378045D01*
X151790506Y-87378049D01*
X151675412Y-87464209D01*
X151675409Y-87464212D01*
X151589249Y-87579306D01*
X151589245Y-87579313D01*
X151539003Y-87714020D01*
X151539001Y-87714027D01*
X151532600Y-87773555D01*
X151532600Y-87821400D01*
X141732000Y-87821400D01*
X141732000Y-86230000D01*
X141751685Y-86162961D01*
X141804489Y-86117206D01*
X141856000Y-86106000D01*
X159457000Y-86106000D01*
X159524039Y-86125685D01*
G37*
%TD.AperFunction*%
%TA.AperFunction,Conductor*%
G36*
X135093392Y-86119719D02*
G01*
X135139179Y-86172495D01*
X135150415Y-86223659D01*
X135174582Y-93423784D01*
X135155123Y-93490889D01*
X135102473Y-93536821D01*
X135050583Y-93548200D01*
X132500000Y-93548200D01*
X132516804Y-95495688D01*
X132507880Y-95527080D01*
X132507880Y-95757019D01*
X132488195Y-95824058D01*
X132471561Y-95844700D01*
X132436983Y-95879277D01*
X132436981Y-95879280D01*
X132362202Y-96008798D01*
X132323494Y-96153261D01*
X132323494Y-96302818D01*
X132362202Y-96447281D01*
X132385316Y-96487315D01*
X132436981Y-96576800D01*
X132436983Y-96576802D01*
X132471561Y-96611380D01*
X132505046Y-96672703D01*
X132507880Y-96699061D01*
X132507880Y-96828899D01*
X132488195Y-96895938D01*
X132471561Y-96916580D01*
X132436983Y-96951157D01*
X132436981Y-96951160D01*
X132362202Y-97080678D01*
X132323494Y-97225141D01*
X132323494Y-97374698D01*
X132362202Y-97519161D01*
X132390768Y-97568638D01*
X132436981Y-97648680D01*
X132436983Y-97648682D01*
X132471561Y-97683260D01*
X132505046Y-97744583D01*
X132507880Y-97770941D01*
X132507880Y-97900779D01*
X132488195Y-97967818D01*
X132471561Y-97988460D01*
X132436983Y-98023037D01*
X132436981Y-98023040D01*
X132362202Y-98152558D01*
X132323494Y-98297021D01*
X132323494Y-98445650D01*
X132303809Y-98512689D01*
X132251005Y-98558444D01*
X132199494Y-98569650D01*
X125422585Y-98569650D01*
X125355546Y-98549965D01*
X125309791Y-98497161D01*
X125298585Y-98445935D01*
X125287472Y-93614883D01*
X128839037Y-93614883D01*
X129000137Y-93623327D01*
X129161238Y-93614883D01*
X129000139Y-93453784D01*
X128839037Y-93614883D01*
X125287472Y-93614883D01*
X125279395Y-90103457D01*
X125296876Y-90085977D01*
X125296889Y-90085962D01*
X125338678Y-90044173D01*
X127400138Y-90044173D01*
X127439535Y-90292918D01*
X127517359Y-90532437D01*
X127631695Y-90756833D01*
X127779726Y-90960580D01*
X127957808Y-91138662D01*
X128161555Y-91286693D01*
X128385951Y-91401029D01*
X128625470Y-91478853D01*
X128874215Y-91518250D01*
X129126061Y-91518250D01*
X129374806Y-91478853D01*
X129614325Y-91401029D01*
X129838721Y-91286693D01*
X130042468Y-91138662D01*
X130220550Y-90960580D01*
X130368581Y-90756833D01*
X130482917Y-90532437D01*
X130560741Y-90292918D01*
X130600138Y-90044173D01*
X130600138Y-89918251D01*
X132535672Y-89918251D01*
X132696771Y-90079350D01*
X132705216Y-89918250D01*
X132696771Y-89757149D01*
X132535672Y-89918250D01*
X132535672Y-89918251D01*
X130600138Y-89918251D01*
X130600138Y-89792327D01*
X130560741Y-89543582D01*
X130482917Y-89304063D01*
X130368581Y-89079667D01*
X130220550Y-88875920D01*
X130042468Y-88697838D01*
X129838721Y-88549807D01*
X129614325Y-88435471D01*
X129374806Y-88357647D01*
X129126061Y-88318250D01*
X128874215Y-88318250D01*
X128625470Y-88357647D01*
X128385951Y-88435471D01*
X128161555Y-88549807D01*
X127957808Y-88697838D01*
X127779726Y-88875920D01*
X127631695Y-89079667D01*
X127517359Y-89304063D01*
X127439535Y-89543582D01*
X127400138Y-89792327D01*
X127400138Y-90044173D01*
X125338678Y-90044173D01*
X125464603Y-89918249D01*
X125295930Y-89749576D01*
X125295928Y-89749573D01*
X125278541Y-89732186D01*
X125270485Y-86230206D01*
X125290016Y-86163125D01*
X125342714Y-86117248D01*
X125394407Y-86105924D01*
X128721326Y-86103904D01*
X128744134Y-86113343D01*
X128743244Y-86115492D01*
X128770762Y-86123551D01*
X128816554Y-86176323D01*
X128820406Y-86202984D01*
X129000137Y-86382715D01*
X129175347Y-86207505D01*
X129174929Y-86202350D01*
X129207829Y-86140711D01*
X129256694Y-86113421D01*
X129256521Y-86113004D01*
X129260097Y-86111521D01*
X129268831Y-86106644D01*
X129272991Y-86106175D01*
X129279286Y-86103565D01*
X135026341Y-86100075D01*
X135093392Y-86119719D01*
G37*
%TD.AperFunction*%
%TD*%
M02*
