M48
; DRILL file {KiCad 8.0.1} date 2024-04-06T17:54:08-0500
; FORMAT={-:-/ absolute / inch / decimal}
; #@! TF.CreationDate,2024-04-06T17:54:08-05:00
; #@! TF.GenerationSoftware,Kicad,Pcbnew,8.0.1
; #@! TF.FileFunction,NonPlated,1,2,NPTH
FMAT,2
INCH
; #@! TA.AperFunction,NonPlated,NPTH,ComponentDrill
T1C0.0250
%
G90
G05
T1
X4.9597Y-3.9091
X5.0055Y-3.9091
X5.0512Y-3.9091
X5.0969Y-3.9091
X5.1426Y-3.9091
X5.1884Y-3.9091
X5.2319Y-3.7885
X5.2319Y-3.8307
X5.2319Y-3.8729
X5.2319Y-3.9113
X5.2319Y-3.9598
X5.2319Y-4.0046
X5.2319Y-4.0493
X5.3894Y-3.7844
X5.3894Y-3.8266
X5.3894Y-3.8688
X5.3894Y-3.91
X5.3894Y-3.9557
X5.3894Y-4.0005
X5.3894Y-4.0452
M30
