%TF.GenerationSoftware,KiCad,Pcbnew,8.0.3*%
%TF.CreationDate,2024-07-10T14:42:46-05:00*%
%TF.ProjectId,banana to jst ph,62616e61-6e61-4207-946f-206a73742070,2*%
%TF.SameCoordinates,Original*%
%TF.FileFunction,Copper,L1,Top*%
%TF.FilePolarity,Positive*%
%FSLAX46Y46*%
G04 Gerber Fmt 4.6, Leading zero omitted, Abs format (unit mm)*
G04 Created by KiCad (PCBNEW 8.0.3) date 2024-07-10 14:42:46*
%MOMM*%
%LPD*%
G01*
G04 APERTURE LIST*
G04 Aperture macros list*
%AMRoundRect*
0 Rectangle with rounded corners*
0 $1 Rounding radius*
0 $2 $3 $4 $5 $6 $7 $8 $9 X,Y pos of 4 corners*
0 Add a 4 corners polygon primitive as box body*
4,1,4,$2,$3,$4,$5,$6,$7,$8,$9,$2,$3,0*
0 Add four circle primitives for the rounded corners*
1,1,$1+$1,$2,$3*
1,1,$1+$1,$4,$5*
1,1,$1+$1,$6,$7*
1,1,$1+$1,$8,$9*
0 Add four rect primitives between the rounded corners*
20,1,$1+$1,$2,$3,$4,$5,0*
20,1,$1+$1,$4,$5,$6,$7,0*
20,1,$1+$1,$6,$7,$8,$9,0*
20,1,$1+$1,$8,$9,$2,$3,0*%
G04 Aperture macros list end*
%TA.AperFunction,ComponentPad*%
%ADD10R,1.700000X1.700000*%
%TD*%
%TA.AperFunction,ComponentPad*%
%ADD11C,0.800000*%
%TD*%
%TA.AperFunction,ComponentPad*%
%ADD12C,6.400000*%
%TD*%
%TA.AperFunction,SMDPad,CuDef*%
%ADD13RoundRect,0.250000X1.500000X-0.250000X1.500000X0.250000X-1.500000X0.250000X-1.500000X-0.250000X0*%
%TD*%
%TA.AperFunction,SMDPad,CuDef*%
%ADD14RoundRect,0.250001X1.449999X-0.499999X1.449999X0.499999X-1.449999X0.499999X-1.449999X-0.499999X0*%
%TD*%
%TA.AperFunction,SMDPad,CuDef*%
%ADD15RoundRect,0.250000X0.625000X-0.400000X0.625000X0.400000X-0.625000X0.400000X-0.625000X-0.400000X0*%
%TD*%
%TA.AperFunction,SMDPad,CuDef*%
%ADD16RoundRect,0.250001X-0.624999X0.462499X-0.624999X-0.462499X0.624999X-0.462499X0.624999X0.462499X0*%
%TD*%
%TA.AperFunction,ViaPad*%
%ADD17C,0.800000*%
%TD*%
%TA.AperFunction,Conductor*%
%ADD18C,0.250000*%
%TD*%
%TA.AperFunction,Conductor*%
%ADD19C,0.500000*%
%TD*%
G04 APERTURE END LIST*
D10*
%TO.P,J3,1,Pin_1*%
%TO.N,GND*%
X152882600Y-88671400D03*
%TD*%
D11*
%TO.P,H1,1,1*%
%TO.N,/Positive*%
X126600138Y-108968250D03*
X127303082Y-107271194D03*
X127303082Y-110665306D03*
X129000138Y-106568250D03*
D12*
X129000138Y-108968250D03*
D11*
X129000138Y-111368250D03*
X130697194Y-107271194D03*
X130697194Y-110665306D03*
X131400138Y-108968250D03*
%TD*%
D13*
%TO.P,J1,1,Pin_1*%
%TO.N,/Positive*%
X151836000Y-100568000D03*
%TO.P,J1,2,Pin_2*%
%TO.N,GND*%
X151836000Y-98568000D03*
D14*
%TO.P,J1,MP*%
%TO.N,N/C*%
X157586000Y-102918000D03*
X157586000Y-96218000D03*
%TD*%
D10*
%TO.P,J2,1,Pin_1*%
%TO.N,/Positive*%
X152882600Y-110337600D03*
%TD*%
D15*
%TO.P,R1,1*%
%TO.N,/Positive*%
X146790000Y-103820000D03*
%TO.P,R1,2*%
%TO.N,Net-(D1-A)*%
X146790000Y-100720000D03*
%TD*%
D11*
%TO.P,H2,1,1*%
%TO.N,GND*%
X126600138Y-89918250D03*
X127303082Y-88221194D03*
X127303082Y-91615306D03*
X129000138Y-87518250D03*
D12*
X129000138Y-89918250D03*
D11*
X129000138Y-92318250D03*
X130697194Y-88221194D03*
X130697194Y-91615306D03*
X131400138Y-89918250D03*
%TD*%
D16*
%TO.P,D1,1,K*%
%TO.N,GND*%
X146790000Y-95432500D03*
%TO.P,D1,2,A*%
%TO.N,Net-(D1-A)*%
X146790000Y-98407500D03*
%TD*%
D17*
%TO.N,GND*%
X144856200Y-86588600D03*
X144856200Y-95250000D03*
X144856200Y-88320880D03*
X144856200Y-90053160D03*
X144856200Y-91785440D03*
X144856200Y-93517720D03*
%TO.N,/Positive*%
X144856200Y-110535720D03*
X144856200Y-105415080D03*
X144856200Y-107121960D03*
X144856200Y-103708200D03*
X144856200Y-108828840D03*
X144856200Y-112242600D03*
%TD*%
D18*
%TO.N,GND*%
X138500000Y-88450000D02*
X138500000Y-91250000D01*
D19*
%TO.N,Net-(D1-A)*%
X146790000Y-98407500D02*
X146790000Y-100720000D01*
%TD*%
%TA.AperFunction,Conductor*%
%TO.N,/Positive*%
G36*
X133225000Y-106000000D02*
G01*
X133225000Y-112689747D01*
X125455059Y-112689455D01*
X125388021Y-112669768D01*
X125342268Y-112616962D01*
X125331064Y-112565740D01*
X125315796Y-105928517D01*
X125313744Y-105036255D01*
X125575000Y-104775000D01*
X132000000Y-104775000D01*
X133225000Y-106000000D01*
G37*
%TD.AperFunction*%
%TD*%
%TA.AperFunction,Conductor*%
%TO.N,GND*%
G36*
X133325000Y-92575000D02*
G01*
X131875000Y-94025000D01*
X125288416Y-94025000D01*
X125270485Y-86230206D01*
X125290016Y-86163125D01*
X125342714Y-86117248D01*
X125394407Y-86105924D01*
X133325000Y-86101108D01*
X133325000Y-92575000D01*
G37*
%TD.AperFunction*%
%TD*%
%TA.AperFunction,Conductor*%
%TO.N,/Positive*%
G36*
X146039902Y-99719213D02*
G01*
X146076447Y-99769513D01*
X146076447Y-99831687D01*
X146039902Y-99881987D01*
X146013998Y-99895554D01*
X145998565Y-99900954D01*
X145952121Y-99917205D01*
X145952118Y-99917207D01*
X145842850Y-99997850D01*
X145762207Y-100107118D01*
X145762204Y-100107123D01*
X145718720Y-100231396D01*
X145717354Y-100235301D01*
X145714500Y-100265734D01*
X145714500Y-101174266D01*
X145714602Y-101175350D01*
X145717354Y-101204698D01*
X145762204Y-101332876D01*
X145762206Y-101332879D01*
X145762207Y-101332882D01*
X145842850Y-101442150D01*
X145952118Y-101522793D01*
X145952121Y-101522794D01*
X145952123Y-101522795D01*
X145977793Y-101531777D01*
X146080301Y-101567646D01*
X146110734Y-101570500D01*
X146110740Y-101570500D01*
X147469260Y-101570500D01*
X147469266Y-101570500D01*
X147499699Y-101567646D01*
X147627882Y-101522793D01*
X147737150Y-101442150D01*
X147817793Y-101332882D01*
X147862646Y-101204699D01*
X147865500Y-101174266D01*
X147865500Y-101068000D01*
X149898569Y-101068000D01*
X149978809Y-101175187D01*
X150093912Y-101261354D01*
X150093914Y-101261355D01*
X150228619Y-101311596D01*
X150228624Y-101311597D01*
X150288172Y-101318000D01*
X151336000Y-101318000D01*
X152336000Y-101318000D01*
X153383828Y-101318000D01*
X153443375Y-101311597D01*
X153443380Y-101311596D01*
X153578085Y-101261355D01*
X153578087Y-101261354D01*
X153693190Y-101175187D01*
X153773431Y-101068000D01*
X152336000Y-101068000D01*
X152336000Y-101318000D01*
X151336000Y-101318000D01*
X151336000Y-101068000D01*
X149898569Y-101068000D01*
X147865500Y-101068000D01*
X147865500Y-100265734D01*
X147862646Y-100235301D01*
X147817793Y-100107118D01*
X147737150Y-99997850D01*
X147627882Y-99917207D01*
X147627879Y-99917206D01*
X147627878Y-99917205D01*
X147587328Y-99903016D01*
X147566002Y-99895554D01*
X147516536Y-99857891D01*
X147498654Y-99798343D01*
X147519189Y-99739658D01*
X147570296Y-99704250D01*
X147599229Y-99700000D01*
X150024958Y-99700000D01*
X150084089Y-99719213D01*
X150120634Y-99769513D01*
X150120634Y-99831687D01*
X150085246Y-99881134D01*
X149978809Y-99960812D01*
X149898569Y-100068000D01*
X153773430Y-100068000D01*
X153693190Y-99960812D01*
X153586754Y-99881134D01*
X153550931Y-99830317D01*
X153551820Y-99768149D01*
X153589080Y-99718376D01*
X153647042Y-99700000D01*
X159480400Y-99700000D01*
X159539531Y-99719213D01*
X159576076Y-99769513D01*
X159581000Y-99800600D01*
X159581000Y-102092082D01*
X159561787Y-102151213D01*
X159511487Y-102187758D01*
X159449313Y-102187758D01*
X159399458Y-102151820D01*
X159358150Y-102095850D01*
X159248882Y-102015207D01*
X159248879Y-102015206D01*
X159248876Y-102015204D01*
X159156565Y-101982904D01*
X159120698Y-101970354D01*
X159090265Y-101967500D01*
X159090259Y-101967500D01*
X156081742Y-101967500D01*
X156081739Y-101967500D01*
X156081736Y-101967501D01*
X156063475Y-101969212D01*
X156051300Y-101970354D01*
X155923121Y-102015205D01*
X155923118Y-102015207D01*
X155813850Y-102095850D01*
X155733207Y-102205118D01*
X155733204Y-102205123D01*
X155688354Y-102333302D01*
X155685500Y-102363740D01*
X155685500Y-103472257D01*
X155685501Y-103472260D01*
X155688354Y-103502699D01*
X155733205Y-103630878D01*
X155733206Y-103630879D01*
X155733207Y-103630882D01*
X155813850Y-103740150D01*
X155923118Y-103820793D01*
X155923121Y-103820794D01*
X155923123Y-103820795D01*
X155948795Y-103829777D01*
X156051302Y-103865646D01*
X156081735Y-103868500D01*
X159090264Y-103868499D01*
X159120698Y-103865646D01*
X159248882Y-103820793D01*
X159358150Y-103740150D01*
X159399458Y-103684179D01*
X159450028Y-103648011D01*
X159512201Y-103648475D01*
X159562226Y-103685395D01*
X159581000Y-103743917D01*
X159581000Y-112599200D01*
X159561787Y-112658331D01*
X159511487Y-112694876D01*
X159480400Y-112699800D01*
X141832477Y-112699800D01*
X141773346Y-112680587D01*
X141736801Y-112630287D01*
X141731877Y-112599323D01*
X141730179Y-111212223D01*
X151782600Y-111212223D01*
X151797104Y-111285144D01*
X151852360Y-111367839D01*
X151935055Y-111423095D01*
X152007977Y-111437600D01*
X152032600Y-111437600D01*
X153732600Y-111437600D01*
X153757223Y-111437600D01*
X153830144Y-111423095D01*
X153912839Y-111367839D01*
X153968095Y-111285144D01*
X153982600Y-111212223D01*
X153982600Y-111187600D01*
X153732600Y-111187600D01*
X153732600Y-111437600D01*
X152032600Y-111437600D01*
X152032600Y-111187600D01*
X151782600Y-111187600D01*
X151782600Y-111212223D01*
X141730179Y-111212223D01*
X141729028Y-110271774D01*
X152382600Y-110271774D01*
X152382600Y-110403426D01*
X152416675Y-110530593D01*
X152482501Y-110644607D01*
X152575593Y-110737699D01*
X152689607Y-110803525D01*
X152816774Y-110837600D01*
X152948426Y-110837600D01*
X153075593Y-110803525D01*
X153189607Y-110737699D01*
X153282699Y-110644607D01*
X153348525Y-110530593D01*
X153382600Y-110403426D01*
X153382600Y-110271774D01*
X153348525Y-110144607D01*
X153282699Y-110030593D01*
X153189607Y-109937501D01*
X153075593Y-109871675D01*
X152948426Y-109837600D01*
X152816774Y-109837600D01*
X152689607Y-109871675D01*
X152575593Y-109937501D01*
X152482501Y-110030593D01*
X152416675Y-110144607D01*
X152382600Y-110271774D01*
X141729028Y-110271774D01*
X141728038Y-109462976D01*
X151782600Y-109462976D01*
X151782600Y-109487600D01*
X152032600Y-109487600D01*
X153732600Y-109487600D01*
X153982600Y-109487600D01*
X153982600Y-109462976D01*
X153968095Y-109390055D01*
X153912839Y-109307360D01*
X153830144Y-109252104D01*
X153757223Y-109237600D01*
X153732600Y-109237600D01*
X153732600Y-109487600D01*
X152032600Y-109487600D01*
X152032600Y-109237600D01*
X152007977Y-109237600D01*
X151935055Y-109252104D01*
X151852360Y-109307360D01*
X151797104Y-109390055D01*
X151782600Y-109462976D01*
X141728038Y-109462976D01*
X141721927Y-104470000D01*
X145727569Y-104470000D01*
X145807809Y-104577187D01*
X145922912Y-104663354D01*
X145922914Y-104663355D01*
X146057619Y-104713596D01*
X146057624Y-104713597D01*
X146117172Y-104720000D01*
X146140000Y-104720000D01*
X147440000Y-104720000D01*
X147462828Y-104720000D01*
X147522375Y-104713597D01*
X147522380Y-104713596D01*
X147657085Y-104663355D01*
X147657087Y-104663354D01*
X147772190Y-104577187D01*
X147852431Y-104470000D01*
X147440000Y-104470000D01*
X147440000Y-104720000D01*
X146140000Y-104720000D01*
X146140000Y-104470000D01*
X145727569Y-104470000D01*
X141721927Y-104470000D01*
X141720678Y-103450000D01*
X139725000Y-103450000D01*
X139742004Y-109741541D01*
X139749727Y-112599128D01*
X139730674Y-112658311D01*
X139680473Y-112694992D01*
X139649127Y-112700000D01*
X137475608Y-112700000D01*
X137416477Y-112680787D01*
X137379932Y-112630487D01*
X137375008Y-112599392D01*
X137375226Y-109741541D01*
X137375709Y-103432600D01*
X137375708Y-103432600D01*
X137371872Y-103428763D01*
X137324549Y-103413387D01*
X137288004Y-103363087D01*
X137283080Y-103332000D01*
X137283080Y-103199815D01*
X137292768Y-103170000D01*
X145727569Y-103170000D01*
X146140000Y-103170000D01*
X147440000Y-103170000D01*
X147852430Y-103170000D01*
X147772190Y-103062812D01*
X147657087Y-102976645D01*
X147657085Y-102976644D01*
X147522380Y-102926403D01*
X147522375Y-102926402D01*
X147462828Y-102920000D01*
X147440000Y-102920000D01*
X147440000Y-103170000D01*
X146140000Y-103170000D01*
X146140000Y-102920000D01*
X146117172Y-102920000D01*
X146057624Y-102926402D01*
X146057619Y-102926403D01*
X145922914Y-102976644D01*
X145922912Y-102976645D01*
X145807809Y-103062812D01*
X145727569Y-103170000D01*
X137292768Y-103170000D01*
X137302293Y-103140684D01*
X137312545Y-103128680D01*
X137344513Y-103096712D01*
X137344514Y-103096710D01*
X137358579Y-103072349D01*
X137419292Y-102967192D01*
X137458000Y-102822731D01*
X137458000Y-102673173D01*
X137457999Y-102673171D01*
X137457999Y-102673167D01*
X137419293Y-102528715D01*
X137419291Y-102528710D01*
X137344514Y-102399193D01*
X137312545Y-102367224D01*
X137284319Y-102311826D01*
X137283080Y-102296089D01*
X137283080Y-102063339D01*
X137302293Y-102004208D01*
X137312545Y-101992204D01*
X137344513Y-101960236D01*
X137344514Y-101960234D01*
X137358579Y-101935873D01*
X137419292Y-101830716D01*
X137458000Y-101686255D01*
X137458000Y-101536697D01*
X137457999Y-101536695D01*
X137457999Y-101536691D01*
X137419293Y-101392239D01*
X137419291Y-101392234D01*
X137344514Y-101262717D01*
X137312545Y-101230748D01*
X137284319Y-101175350D01*
X137283080Y-101159613D01*
X137283080Y-100926863D01*
X137302293Y-100867732D01*
X137312545Y-100855728D01*
X137344513Y-100823760D01*
X137344514Y-100823758D01*
X137358579Y-100799397D01*
X137419292Y-100694240D01*
X137458000Y-100549779D01*
X137458000Y-100400221D01*
X137457999Y-100400219D01*
X137457999Y-100400215D01*
X137419293Y-100255763D01*
X137419291Y-100255758D01*
X137344514Y-100126241D01*
X137312545Y-100094272D01*
X137284319Y-100038874D01*
X137283080Y-100023137D01*
X137283080Y-99800600D01*
X137302293Y-99741469D01*
X137352593Y-99704924D01*
X137383680Y-99700000D01*
X145980771Y-99700000D01*
X146039902Y-99719213D01*
G37*
%TD.AperFunction*%
%TA.AperFunction,Conductor*%
G36*
X132401395Y-100112863D02*
G01*
X132437940Y-100163163D01*
X132437940Y-100225337D01*
X132429386Y-100244550D01*
X132362202Y-100360914D01*
X132362200Y-100360919D01*
X132323494Y-100505371D01*
X132323494Y-100654940D01*
X132362200Y-100799392D01*
X132362202Y-100799397D01*
X132436979Y-100928914D01*
X132478415Y-100970350D01*
X132506641Y-101025748D01*
X132507880Y-101041485D01*
X132507880Y-101255303D01*
X132488667Y-101314434D01*
X132478415Y-101326438D01*
X132436981Y-101367872D01*
X132436979Y-101367873D01*
X132362202Y-101497390D01*
X132362200Y-101497395D01*
X132323494Y-101641847D01*
X132323494Y-101791416D01*
X132362200Y-101935868D01*
X132362202Y-101935873D01*
X132436979Y-102065390D01*
X132478415Y-102106826D01*
X132506641Y-102162224D01*
X132507880Y-102177961D01*
X132507880Y-102391779D01*
X132488667Y-102450910D01*
X132478415Y-102462914D01*
X132436981Y-102504348D01*
X132436979Y-102504349D01*
X132362202Y-102633866D01*
X132362200Y-102633871D01*
X132323494Y-102778323D01*
X132323494Y-102927892D01*
X132362200Y-103072344D01*
X132362202Y-103072349D01*
X132436979Y-103201866D01*
X132478415Y-103243302D01*
X132506641Y-103298700D01*
X132507880Y-103314437D01*
X132507880Y-103417534D01*
X132523761Y-103448703D01*
X132525000Y-103464440D01*
X132525000Y-105300000D01*
X135099400Y-105300000D01*
X135158531Y-105319213D01*
X135195076Y-105369513D01*
X135200000Y-105400600D01*
X135200000Y-112589219D01*
X135180787Y-112648350D01*
X135130487Y-112684895D01*
X135099396Y-112689819D01*
X130218601Y-112689634D01*
X130218599Y-112689635D01*
X130218598Y-112689635D01*
X129185950Y-112689596D01*
X128814340Y-112689581D01*
X128814338Y-112689582D01*
X128814337Y-112689582D01*
X127781583Y-112689543D01*
X125431714Y-112689454D01*
X125372584Y-112670239D01*
X125336041Y-112619937D01*
X125331118Y-112589085D01*
X125328469Y-111437600D01*
X125322499Y-108842327D01*
X127400138Y-108842327D01*
X127400138Y-109094173D01*
X127439535Y-109342918D01*
X127517359Y-109582437D01*
X127631695Y-109806833D01*
X127779726Y-110010580D01*
X127957808Y-110188662D01*
X128161555Y-110336693D01*
X128385951Y-110451029D01*
X128625470Y-110528853D01*
X128874215Y-110568250D01*
X129126061Y-110568250D01*
X129374806Y-110528853D01*
X129614325Y-110451029D01*
X129838721Y-110336693D01*
X130042468Y-110188662D01*
X130220550Y-110010580D01*
X130368581Y-109806833D01*
X130482917Y-109582437D01*
X130560741Y-109342918D01*
X130600138Y-109094173D01*
X130600138Y-108842327D01*
X130560741Y-108593582D01*
X130482917Y-108354063D01*
X130368581Y-108129667D01*
X130220550Y-107925920D01*
X130042468Y-107747838D01*
X129838721Y-107599807D01*
X129614325Y-107485471D01*
X129374806Y-107407647D01*
X129126061Y-107368250D01*
X128874215Y-107368250D01*
X128625470Y-107407647D01*
X128385951Y-107485471D01*
X128161555Y-107599807D01*
X127957808Y-107747838D01*
X127779726Y-107925920D01*
X127631695Y-108129667D01*
X127517359Y-108354063D01*
X127439535Y-108593582D01*
X127400138Y-108842327D01*
X125322499Y-108842327D01*
X125302607Y-100194479D01*
X125321684Y-100135306D01*
X125371900Y-100098645D01*
X125403207Y-100093650D01*
X132342264Y-100093650D01*
X132401395Y-100112863D01*
G37*
%TD.AperFunction*%
%TD*%
%TA.AperFunction,Conductor*%
%TO.N,GND*%
G36*
X159539531Y-86125213D02*
G01*
X159576076Y-86175513D01*
X159581000Y-86206600D01*
X159581000Y-95392082D01*
X159561787Y-95451213D01*
X159511487Y-95487758D01*
X159449313Y-95487758D01*
X159399458Y-95451820D01*
X159358150Y-95395850D01*
X159248882Y-95315207D01*
X159248879Y-95315206D01*
X159248876Y-95315204D01*
X159156565Y-95282904D01*
X159120698Y-95270354D01*
X159090265Y-95267500D01*
X159090259Y-95267500D01*
X156081742Y-95267500D01*
X156081739Y-95267500D01*
X156081736Y-95267501D01*
X156063475Y-95269212D01*
X156051300Y-95270354D01*
X155923121Y-95315205D01*
X155923118Y-95315207D01*
X155813850Y-95395850D01*
X155733207Y-95505118D01*
X155733204Y-95505123D01*
X155689691Y-95629482D01*
X155688354Y-95633302D01*
X155686320Y-95655000D01*
X155685500Y-95663740D01*
X155685500Y-96772257D01*
X155685501Y-96772260D01*
X155688354Y-96802699D01*
X155733205Y-96930878D01*
X155733206Y-96930879D01*
X155733207Y-96930882D01*
X155813850Y-97040150D01*
X155923118Y-97120793D01*
X155923121Y-97120794D01*
X155923123Y-97120795D01*
X155948795Y-97129777D01*
X156051302Y-97165646D01*
X156081735Y-97168500D01*
X159090264Y-97168499D01*
X159120698Y-97165646D01*
X159248882Y-97120793D01*
X159358150Y-97040150D01*
X159399458Y-96984179D01*
X159450028Y-96948011D01*
X159512201Y-96948475D01*
X159562226Y-96985395D01*
X159581000Y-97043917D01*
X159581000Y-99393900D01*
X159561787Y-99453031D01*
X159511487Y-99489576D01*
X159480400Y-99494500D01*
X153647041Y-99494500D01*
X153619141Y-99498817D01*
X153603758Y-99500000D01*
X153495839Y-99500000D01*
X153436708Y-99480787D01*
X153400163Y-99430487D01*
X153400163Y-99368313D01*
X153436708Y-99318013D01*
X153460683Y-99305143D01*
X153578087Y-99261354D01*
X153693190Y-99175187D01*
X153773431Y-99068000D01*
X149898569Y-99068000D01*
X149978809Y-99175187D01*
X150093912Y-99261354D01*
X150211317Y-99305143D01*
X150260006Y-99343808D01*
X150276669Y-99403708D01*
X150254941Y-99461962D01*
X150203123Y-99496320D01*
X150176161Y-99500000D01*
X150067599Y-99500000D01*
X150051862Y-99498761D01*
X150038735Y-99496682D01*
X150024960Y-99494500D01*
X150024958Y-99494500D01*
X147599229Y-99494500D01*
X147599214Y-99494500D01*
X147591262Y-99495081D01*
X147530890Y-99480222D01*
X147490782Y-99432715D01*
X147486257Y-99370705D01*
X147519045Y-99317880D01*
X147550712Y-99299795D01*
X147627882Y-99272793D01*
X147737150Y-99192150D01*
X147817793Y-99082882D01*
X147862646Y-98954698D01*
X147865500Y-98924265D01*
X147865499Y-98068000D01*
X149898569Y-98068000D01*
X151336000Y-98068000D01*
X152336000Y-98068000D01*
X153773430Y-98068000D01*
X153693190Y-97960812D01*
X153578087Y-97874645D01*
X153578085Y-97874644D01*
X153443380Y-97824403D01*
X153443375Y-97824402D01*
X153383828Y-97818000D01*
X152336000Y-97818000D01*
X152336000Y-98068000D01*
X151336000Y-98068000D01*
X151336000Y-97818000D01*
X150288172Y-97818000D01*
X150228624Y-97824402D01*
X150228619Y-97824403D01*
X150093914Y-97874644D01*
X150093912Y-97874645D01*
X149978809Y-97960812D01*
X149898569Y-98068000D01*
X147865499Y-98068000D01*
X147865499Y-97890736D01*
X147862646Y-97860302D01*
X147817793Y-97732118D01*
X147737150Y-97622850D01*
X147627882Y-97542207D01*
X147627879Y-97542206D01*
X147627876Y-97542204D01*
X147535565Y-97509904D01*
X147499698Y-97497354D01*
X147469265Y-97494500D01*
X147469259Y-97494500D01*
X146110742Y-97494500D01*
X146110739Y-97494500D01*
X146110736Y-97494501D01*
X146092475Y-97496212D01*
X146080300Y-97497354D01*
X145952121Y-97542205D01*
X145952118Y-97542207D01*
X145842850Y-97622850D01*
X145762207Y-97732118D01*
X145762204Y-97732123D01*
X145717354Y-97860302D01*
X145714500Y-97890740D01*
X145714500Y-98924257D01*
X145714500Y-98924259D01*
X145714501Y-98924264D01*
X145716783Y-98948611D01*
X145717354Y-98954699D01*
X145762205Y-99082878D01*
X145762206Y-99082879D01*
X145762207Y-99082882D01*
X145842850Y-99192150D01*
X145952118Y-99272793D01*
X145952121Y-99272794D01*
X145952123Y-99272795D01*
X145980732Y-99282805D01*
X146030946Y-99300375D01*
X146080413Y-99338039D01*
X146098295Y-99397586D01*
X146077761Y-99456272D01*
X146026654Y-99491679D01*
X145984736Y-99494506D01*
X145984713Y-99494810D01*
X145982647Y-99494647D01*
X145981988Y-99494692D01*
X145980777Y-99494500D01*
X145980771Y-99494500D01*
X137558600Y-99494500D01*
X137499469Y-99475287D01*
X137462924Y-99424987D01*
X137458000Y-99393900D01*
X137458000Y-99238346D01*
X137457999Y-99238339D01*
X137419293Y-99093887D01*
X137419291Y-99093882D01*
X137344514Y-98964365D01*
X137312545Y-98932396D01*
X137284319Y-98876998D01*
X137283080Y-98861261D01*
X137283080Y-98718507D01*
X137302293Y-98659376D01*
X137312545Y-98647372D01*
X137344513Y-98615404D01*
X137344514Y-98615402D01*
X137419291Y-98485885D01*
X137419292Y-98485884D01*
X137458000Y-98341423D01*
X137458000Y-98191865D01*
X137457999Y-98191863D01*
X137457999Y-98191859D01*
X137419293Y-98047407D01*
X137419291Y-98047402D01*
X137344514Y-97917885D01*
X137312545Y-97885916D01*
X137284319Y-97830518D01*
X137283080Y-97814781D01*
X137283080Y-97646627D01*
X137302293Y-97587496D01*
X137312545Y-97575492D01*
X137344513Y-97543524D01*
X137344514Y-97543522D01*
X137345273Y-97542207D01*
X137419292Y-97414004D01*
X137458000Y-97269543D01*
X137458000Y-97119985D01*
X137457999Y-97119983D01*
X137457999Y-97119979D01*
X137419293Y-96975527D01*
X137419291Y-96975522D01*
X137344514Y-96846005D01*
X137312545Y-96814036D01*
X137284319Y-96758638D01*
X137283080Y-96742901D01*
X137283080Y-96574747D01*
X137302293Y-96515616D01*
X137312545Y-96503612D01*
X137344513Y-96471644D01*
X137344514Y-96471642D01*
X137358579Y-96447281D01*
X137419292Y-96342124D01*
X137458000Y-96197663D01*
X137458000Y-96145000D01*
X145727571Y-96145000D01*
X145807811Y-96252188D01*
X145922915Y-96338354D01*
X146057621Y-96388597D01*
X146077500Y-96390733D01*
X147502500Y-96390733D01*
X147522378Y-96388597D01*
X147657084Y-96338354D01*
X147772188Y-96252188D01*
X147852429Y-96145000D01*
X147502500Y-96145000D01*
X147502500Y-96390733D01*
X146077500Y-96390733D01*
X146077500Y-96145000D01*
X145727571Y-96145000D01*
X137458000Y-96145000D01*
X137458000Y-96048105D01*
X137457999Y-96048103D01*
X137457999Y-96048099D01*
X137419293Y-95903647D01*
X137419291Y-95903642D01*
X137344514Y-95774125D01*
X137342195Y-95771806D01*
X137341129Y-95769714D01*
X137340499Y-95768893D01*
X137340651Y-95768776D01*
X137313969Y-95716408D01*
X137323695Y-95655000D01*
X137347338Y-95631356D01*
X137345468Y-95629482D01*
X137374999Y-95600000D01*
X137374998Y-95599999D01*
X137375000Y-95600000D01*
X137373398Y-86250001D01*
X137392601Y-86190868D01*
X137442894Y-86154314D01*
X137474019Y-86149385D01*
X139674427Y-86149973D01*
X139733553Y-86169202D01*
X139770085Y-86219511D01*
X139775000Y-86250573D01*
X139775012Y-94800000D01*
X139775012Y-94800002D01*
X139774999Y-95599999D01*
X139775000Y-95600000D01*
X141732000Y-95600000D01*
X141732000Y-94720000D01*
X145727571Y-94720000D01*
X146077500Y-94720000D01*
X147502500Y-94720000D01*
X147852428Y-94720000D01*
X147772188Y-94612811D01*
X147657084Y-94526645D01*
X147522375Y-94476402D01*
X147502500Y-94474265D01*
X147502500Y-94720000D01*
X146077500Y-94720000D01*
X146077500Y-94474265D01*
X146077499Y-94474265D01*
X146057624Y-94476402D01*
X145922915Y-94526645D01*
X145807811Y-94612811D01*
X145727571Y-94720000D01*
X141732000Y-94720000D01*
X141732000Y-89546023D01*
X151782600Y-89546023D01*
X151797104Y-89618944D01*
X151852360Y-89701639D01*
X151935055Y-89756895D01*
X152007977Y-89771400D01*
X152032600Y-89771400D01*
X153732600Y-89771400D01*
X153757223Y-89771400D01*
X153830144Y-89756895D01*
X153912839Y-89701639D01*
X153968095Y-89618944D01*
X153982600Y-89546023D01*
X153982600Y-89521400D01*
X153732600Y-89521400D01*
X153732600Y-89771400D01*
X152032600Y-89771400D01*
X152032600Y-89521400D01*
X151782600Y-89521400D01*
X151782600Y-89546023D01*
X141732000Y-89546023D01*
X141732000Y-88605574D01*
X152382600Y-88605574D01*
X152382600Y-88737226D01*
X152416675Y-88864393D01*
X152482501Y-88978407D01*
X152575593Y-89071499D01*
X152689607Y-89137325D01*
X152816774Y-89171400D01*
X152948426Y-89171400D01*
X153075593Y-89137325D01*
X153189607Y-89071499D01*
X153282699Y-88978407D01*
X153348525Y-88864393D01*
X153382600Y-88737226D01*
X153382600Y-88605574D01*
X153348525Y-88478407D01*
X153282699Y-88364393D01*
X153189607Y-88271301D01*
X153075593Y-88205475D01*
X152948426Y-88171400D01*
X152816774Y-88171400D01*
X152689607Y-88205475D01*
X152575593Y-88271301D01*
X152482501Y-88364393D01*
X152416675Y-88478407D01*
X152382600Y-88605574D01*
X141732000Y-88605574D01*
X141732000Y-87796776D01*
X151782600Y-87796776D01*
X151782600Y-87821400D01*
X152032600Y-87821400D01*
X153732600Y-87821400D01*
X153982600Y-87821400D01*
X153982600Y-87796776D01*
X153968095Y-87723855D01*
X153912839Y-87641160D01*
X153830144Y-87585904D01*
X153757223Y-87571400D01*
X153732600Y-87571400D01*
X153732600Y-87821400D01*
X152032600Y-87821400D01*
X152032600Y-87571400D01*
X152007977Y-87571400D01*
X151935055Y-87585904D01*
X151852360Y-87641160D01*
X151797104Y-87723855D01*
X151782600Y-87796776D01*
X141732000Y-87796776D01*
X141732000Y-86206600D01*
X141751213Y-86147469D01*
X141801513Y-86110924D01*
X141832600Y-86106000D01*
X159480400Y-86106000D01*
X159539531Y-86125213D01*
G37*
%TD.AperFunction*%
%TA.AperFunction,Conductor*%
G36*
X135108819Y-86119237D02*
G01*
X135145394Y-86169515D01*
X135150336Y-86200322D01*
X135174661Y-93447262D01*
X135155647Y-93506458D01*
X135105470Y-93543171D01*
X135074062Y-93548200D01*
X132500000Y-93548200D01*
X132516889Y-95505498D01*
X132507880Y-95534061D01*
X132507880Y-95766711D01*
X132488667Y-95825842D01*
X132478415Y-95837846D01*
X132436981Y-95879280D01*
X132436979Y-95879281D01*
X132362202Y-96008798D01*
X132362200Y-96008803D01*
X132323494Y-96153255D01*
X132323494Y-96302824D01*
X132362200Y-96447276D01*
X132362202Y-96447281D01*
X132436979Y-96576798D01*
X132478415Y-96618234D01*
X132506641Y-96673632D01*
X132507880Y-96689369D01*
X132507880Y-96838591D01*
X132488667Y-96897722D01*
X132478415Y-96909726D01*
X132436981Y-96951160D01*
X132436979Y-96951161D01*
X132362202Y-97080678D01*
X132362200Y-97080683D01*
X132323494Y-97225135D01*
X132323494Y-97374704D01*
X132362200Y-97519156D01*
X132362202Y-97519161D01*
X132436979Y-97648678D01*
X132478415Y-97690114D01*
X132506641Y-97745512D01*
X132507880Y-97761249D01*
X132507880Y-97910471D01*
X132488667Y-97969602D01*
X132478415Y-97981606D01*
X132436981Y-98023040D01*
X132436979Y-98023041D01*
X132362202Y-98152558D01*
X132362200Y-98152563D01*
X132323494Y-98297015D01*
X132323494Y-98446577D01*
X132324355Y-98453118D01*
X132321992Y-98453428D01*
X132319283Y-98505104D01*
X132280155Y-98553421D01*
X132225366Y-98569650D01*
X125399239Y-98569650D01*
X125340108Y-98550437D01*
X125303563Y-98500137D01*
X125298639Y-98469281D01*
X125298001Y-98191859D01*
X125278679Y-89792327D01*
X127400138Y-89792327D01*
X127400138Y-90044173D01*
X127439535Y-90292918D01*
X127517359Y-90532437D01*
X127631695Y-90756833D01*
X127779726Y-90960580D01*
X127957808Y-91138662D01*
X128161555Y-91286693D01*
X128385951Y-91401029D01*
X128625470Y-91478853D01*
X128874215Y-91518250D01*
X129126061Y-91518250D01*
X129374806Y-91478853D01*
X129614325Y-91401029D01*
X129838721Y-91286693D01*
X130042468Y-91138662D01*
X130220550Y-90960580D01*
X130368581Y-90756833D01*
X130482917Y-90532437D01*
X130560741Y-90292918D01*
X130600138Y-90044173D01*
X130600138Y-89792327D01*
X130560741Y-89543582D01*
X130482917Y-89304063D01*
X130368581Y-89079667D01*
X130220550Y-88875920D01*
X130042468Y-88697838D01*
X129838721Y-88549807D01*
X129614325Y-88435471D01*
X129374806Y-88357647D01*
X129126061Y-88318250D01*
X128874215Y-88318250D01*
X128625470Y-88357647D01*
X128385951Y-88435471D01*
X128161555Y-88549807D01*
X127957808Y-88697838D01*
X127779726Y-88875920D01*
X127631695Y-89079667D01*
X127517359Y-89304063D01*
X127439535Y-89543582D01*
X127400138Y-89792327D01*
X125278679Y-89792327D01*
X125270431Y-86206766D01*
X125289508Y-86147594D01*
X125339724Y-86110933D01*
X125370964Y-86105938D01*
X135049678Y-86100060D01*
X135108819Y-86119237D01*
G37*
%TD.AperFunction*%
%TD*%
M02*
