%TF.GenerationSoftware,KiCad,Pcbnew,(7.0.0-rc1-287-ga9cb8e9a8d)*%
%TF.CreationDate,2023-01-20T15:36:01-06:00*%
%TF.ProjectId,Banana to USB Adapter,42616e61-6e61-4207-946f-205553422041,rev?*%
%TF.SameCoordinates,Original*%
%TF.FileFunction,Soldermask,Top*%
%TF.FilePolarity,Negative*%
%FSLAX46Y46*%
G04 Gerber Fmt 4.6, Leading zero omitted, Abs format (unit mm)*
G04 Created by KiCad (PCBNEW (7.0.0-rc1-287-ga9cb8e9a8d)) date 2023-01-20 15:36:01*
%MOMM*%
%LPD*%
G01*
G04 APERTURE LIST*
%ADD10C,0.150000*%
%ADD11C,0.635000*%
%ADD12R,1.700000X1.700000*%
%ADD13O,1.700000X1.700000*%
%ADD14C,1.524000*%
%ADD15R,1.524000X1.524000*%
%ADD16O,2.250000X1.200000*%
%ADD17C,0.800000*%
%ADD18C,6.400000*%
G04 APERTURE END LIST*
D10*
X137033200Y-105384600D02*
X139573000Y-105384600D01*
X139573000Y-105384600D02*
X139573000Y-112547400D01*
X139573000Y-112547400D02*
X137033200Y-112547400D01*
X137033200Y-112547400D02*
X137033200Y-105384600D01*
G36*
X137033200Y-105384600D02*
G01*
X139573000Y-105384600D01*
X139573000Y-112547400D01*
X137033200Y-112547400D01*
X137033200Y-105384600D01*
G37*
X141833800Y-103403400D02*
X144373600Y-103403400D01*
X144373600Y-103403400D02*
X144373600Y-112547400D01*
X144373600Y-112547400D02*
X141833800Y-112547400D01*
X141833800Y-112547400D02*
X141833800Y-103403400D01*
G36*
X141833800Y-103403400D02*
G01*
X144373600Y-103403400D01*
X144373600Y-112547400D01*
X141833800Y-112547400D01*
X141833800Y-103403400D01*
G37*
X141884600Y-86233000D02*
X144424400Y-86233000D01*
X144424400Y-86233000D02*
X144424400Y-95605600D01*
X144424400Y-95605600D02*
X141884600Y-95605600D01*
X141884600Y-95605600D02*
X141884600Y-86233000D01*
G36*
X141884600Y-86233000D02*
G01*
X144424400Y-86233000D01*
X144424400Y-95605600D01*
X141884600Y-95605600D01*
X141884600Y-86233000D01*
G37*
X137033200Y-86233000D02*
X139573000Y-86233000D01*
X139573000Y-86233000D02*
X139573000Y-93395800D01*
X139573000Y-93395800D02*
X137033200Y-93395800D01*
X137033200Y-93395800D02*
X137033200Y-86233000D01*
G36*
X137033200Y-86233000D02*
G01*
X139573000Y-86233000D01*
X139573000Y-93395800D01*
X137033200Y-93395800D01*
X137033200Y-86233000D01*
G37*
D11*
%TO.C,REF\u002A\u002A*%
X138504392Y-98326670D03*
%TD*%
%TO.C,REF\u002A\u002A*%
X138504392Y-102807978D03*
%TD*%
%TO.C,REF\u002A\u002A*%
X138504392Y-101671502D03*
%TD*%
%TO.C,REF\u002A\u002A*%
X138504392Y-100535026D03*
%TD*%
%TO.C,REF\u002A\u002A*%
X138504392Y-97254790D03*
%TD*%
%TO.C,REF\u002A\u002A*%
X138504392Y-96182910D03*
%TD*%
%TO.C,REF\u002A\u002A*%
X138504392Y-99373150D03*
%TD*%
%TO.C,REF\u002A\u002A*%
X137342886Y-99373150D03*
%TD*%
%TO.C,REF\u002A\u002A*%
X136181380Y-99373150D03*
%TD*%
%TO.C,REF\u002A\u002A*%
X135019874Y-99373150D03*
%TD*%
%TO.C,REF\u002A\u002A*%
X133858368Y-99373150D03*
%TD*%
%TO.C,REF\u002A\u002A*%
X132696862Y-99373150D03*
%TD*%
%TO.C,REF\u002A\u002A*%
X131535356Y-99373150D03*
%TD*%
%TO.C,REF\u002A\u002A*%
X130373850Y-99373150D03*
%TD*%
D12*
%TO.C,J4*%
X145903249Y-98170999D03*
D13*
X145903249Y-100710999D03*
%TD*%
D12*
%TO.C,J3*%
X152882599Y-88671399D03*
%TD*%
%TO.C,J2*%
X152882599Y-110337599D03*
%TD*%
D14*
%TO.C,J1*%
X149316500Y-95930000D03*
X149316500Y-98430000D03*
X149316500Y-100430000D03*
D15*
X149316499Y-102929999D03*
D16*
X150516499Y-105999999D03*
X150516499Y-92859999D03*
%TD*%
D17*
%TO.C,H2*%
X133477000Y-87541400D03*
X135174056Y-91638456D03*
X135174056Y-88244344D03*
X135877000Y-89941400D03*
D18*
X133477000Y-89941400D03*
D17*
X133477000Y-92341400D03*
X131779944Y-88244344D03*
X131779944Y-91638456D03*
X131077000Y-89941400D03*
%TD*%
%TO.C,H1*%
X131077000Y-108991400D03*
X131779944Y-110688456D03*
X131779944Y-107294344D03*
X133477000Y-111391400D03*
D18*
X133477000Y-108991400D03*
D17*
X135877000Y-108991400D03*
X135174056Y-107294344D03*
X135174056Y-110688456D03*
X133477000Y-106591400D03*
%TD*%
M02*
