M48
; DRILL file {KiCad (7.0.0-rc1-287-ga9cb8e9a8d)} date Fri Jan 20 15:36:15 2023
; FORMAT={-:-/ absolute / inch / decimal}
; #@! TF.CreationDate,2023-01-20T15:36:15-06:00
; #@! TF.GenerationSoftware,Kicad,Pcbnew,(7.0.0-rc1-287-ga9cb8e9a8d)
; #@! TF.FileFunction,Plated,1,2,PTH
FMAT,2
INCH
; #@! TA.AperFunction,Plated,PTH,ViaDrill
T1C0.0157
; #@! TA.AperFunction,Plated,PTH,ComponentDrill
T2C0.0197
; #@! TA.AperFunction,Plated,PTH,ComponentDrill
T3C0.0256
; #@! TA.AperFunction,Plated,PTH,ComponentDrill
T4C0.0362
; #@! TA.AperFunction,Plated,PTH,ComponentDrill
T5C0.0394
; #@! TA.AperFunction,Plated,PTH,ComponentDrill
T6C0.1260
%
G90
G05
T1
X5.703Y-3.409
X5.703Y-3.4772
X5.703Y-3.5454
X5.703Y-3.6136
X5.703Y-3.6818
X5.703Y-3.75
X5.703Y-4.083
X5.703Y-4.1502
X5.703Y-4.2174
X5.703Y-4.2846
X5.703Y-4.3518
X5.703Y-4.419
T2
X5.1605Y-3.541
X5.1605Y-4.291
X5.1882Y-3.4742
X5.1882Y-3.6078
X5.1882Y-4.2242
X5.1882Y-4.3578
X5.255Y-3.4465
X5.255Y-3.6355
X5.255Y-4.1965
X5.255Y-4.3855
X5.3218Y-3.4742
X5.3218Y-3.6078
X5.3218Y-4.2242
X5.3218Y-4.3578
X5.3495Y-3.541
X5.3495Y-4.291
T4
X5.8786Y-3.7768
X5.8786Y-3.8752
X5.8786Y-3.9539
X5.8786Y-4.0524
T5
X5.7442Y-3.865
X5.7442Y-3.965
X6.019Y-3.491
X6.019Y-4.344
T6
X5.255Y-3.541
X5.255Y-4.291
T3
G00X5.9062Y-3.6559
M15
G01X5.9455Y-3.6559
M16
G05
G00X5.9062Y-4.1732
M15
G01X5.9455Y-4.1732
M16
G05
T0
M30
