%TF.GenerationSoftware,KiCad,Pcbnew,(7.0.0-rc1-287-ga9cb8e9a8d)*%
%TF.CreationDate,2023-01-20T15:36:01-06:00*%
%TF.ProjectId,Banana to USB Adapter,42616e61-6e61-4207-946f-205553422041,rev?*%
%TF.SameCoordinates,Original*%
%TF.FileFunction,Legend,Bot*%
%TF.FilePolarity,Positive*%
%FSLAX46Y46*%
G04 Gerber Fmt 4.6, Leading zero omitted, Abs format (unit mm)*
G04 Created by KiCad (PCBNEW (7.0.0-rc1-287-ga9cb8e9a8d)) date 2023-01-20 15:36:01*
%MOMM*%
%LPD*%
G01*
G04 APERTURE LIST*
%ADD10C,0.150000*%
%ADD11C,0.120000*%
G04 APERTURE END LIST*
D10*
X150826095Y-95112975D02*
X150788000Y-95151071D01*
X150788000Y-95151071D02*
X150749904Y-95227261D01*
X150749904Y-95227261D02*
X150749904Y-95417737D01*
X150749904Y-95417737D02*
X150788000Y-95493928D01*
X150788000Y-95493928D02*
X150826095Y-95532023D01*
X150826095Y-95532023D02*
X150902285Y-95570118D01*
X150902285Y-95570118D02*
X150978476Y-95570118D01*
X150978476Y-95570118D02*
X151092761Y-95532023D01*
X151092761Y-95532023D02*
X151549904Y-95074880D01*
X151549904Y-95074880D02*
X151549904Y-95570118D01*
X150749904Y-96065357D02*
X150749904Y-96141547D01*
X150749904Y-96141547D02*
X150788000Y-96217738D01*
X150788000Y-96217738D02*
X150826095Y-96255833D01*
X150826095Y-96255833D02*
X150902285Y-96293928D01*
X150902285Y-96293928D02*
X151054666Y-96332023D01*
X151054666Y-96332023D02*
X151245142Y-96332023D01*
X151245142Y-96332023D02*
X151397523Y-96293928D01*
X151397523Y-96293928D02*
X151473714Y-96255833D01*
X151473714Y-96255833D02*
X151511809Y-96217738D01*
X151511809Y-96217738D02*
X151549904Y-96141547D01*
X151549904Y-96141547D02*
X151549904Y-96065357D01*
X151549904Y-96065357D02*
X151511809Y-95989166D01*
X151511809Y-95989166D02*
X151473714Y-95951071D01*
X151473714Y-95951071D02*
X151397523Y-95912976D01*
X151397523Y-95912976D02*
X151245142Y-95874880D01*
X151245142Y-95874880D02*
X151054666Y-95874880D01*
X151054666Y-95874880D02*
X150902285Y-95912976D01*
X150902285Y-95912976D02*
X150826095Y-95951071D01*
X150826095Y-95951071D02*
X150788000Y-95989166D01*
X150788000Y-95989166D02*
X150749904Y-96065357D01*
X150826095Y-96636785D02*
X150788000Y-96674881D01*
X150788000Y-96674881D02*
X150749904Y-96751071D01*
X150749904Y-96751071D02*
X150749904Y-96941547D01*
X150749904Y-96941547D02*
X150788000Y-97017738D01*
X150788000Y-97017738D02*
X150826095Y-97055833D01*
X150826095Y-97055833D02*
X150902285Y-97093928D01*
X150902285Y-97093928D02*
X150978476Y-97093928D01*
X150978476Y-97093928D02*
X151092761Y-97055833D01*
X151092761Y-97055833D02*
X151549904Y-96598690D01*
X151549904Y-96598690D02*
X151549904Y-97093928D01*
X150749904Y-97360595D02*
X150749904Y-97855833D01*
X150749904Y-97855833D02*
X151054666Y-97589167D01*
X151054666Y-97589167D02*
X151054666Y-97703452D01*
X151054666Y-97703452D02*
X151092761Y-97779643D01*
X151092761Y-97779643D02*
X151130857Y-97817738D01*
X151130857Y-97817738D02*
X151207047Y-97855833D01*
X151207047Y-97855833D02*
X151397523Y-97855833D01*
X151397523Y-97855833D02*
X151473714Y-97817738D01*
X151473714Y-97817738D02*
X151511809Y-97779643D01*
X151511809Y-97779643D02*
X151549904Y-97703452D01*
X151549904Y-97703452D02*
X151549904Y-97474881D01*
X151549904Y-97474881D02*
X151511809Y-97398690D01*
X151511809Y-97398690D02*
X151473714Y-97360595D01*
X151245142Y-98198691D02*
X151245142Y-98808215D01*
X150749904Y-99341548D02*
X150749904Y-99417738D01*
X150749904Y-99417738D02*
X150788000Y-99493929D01*
X150788000Y-99493929D02*
X150826095Y-99532024D01*
X150826095Y-99532024D02*
X150902285Y-99570119D01*
X150902285Y-99570119D02*
X151054666Y-99608214D01*
X151054666Y-99608214D02*
X151245142Y-99608214D01*
X151245142Y-99608214D02*
X151397523Y-99570119D01*
X151397523Y-99570119D02*
X151473714Y-99532024D01*
X151473714Y-99532024D02*
X151511809Y-99493929D01*
X151511809Y-99493929D02*
X151549904Y-99417738D01*
X151549904Y-99417738D02*
X151549904Y-99341548D01*
X151549904Y-99341548D02*
X151511809Y-99265357D01*
X151511809Y-99265357D02*
X151473714Y-99227262D01*
X151473714Y-99227262D02*
X151397523Y-99189167D01*
X151397523Y-99189167D02*
X151245142Y-99151071D01*
X151245142Y-99151071D02*
X151054666Y-99151071D01*
X151054666Y-99151071D02*
X150902285Y-99189167D01*
X150902285Y-99189167D02*
X150826095Y-99227262D01*
X150826095Y-99227262D02*
X150788000Y-99265357D01*
X150788000Y-99265357D02*
X150749904Y-99341548D01*
X151549904Y-100370119D02*
X151549904Y-99912976D01*
X151549904Y-100141548D02*
X150749904Y-100141548D01*
X150749904Y-100141548D02*
X150864190Y-100065357D01*
X150864190Y-100065357D02*
X150940380Y-99989167D01*
X150940380Y-99989167D02*
X150978476Y-99912976D01*
X151245142Y-100712977D02*
X151245142Y-101322501D01*
X150826095Y-101665357D02*
X150788000Y-101703453D01*
X150788000Y-101703453D02*
X150749904Y-101779643D01*
X150749904Y-101779643D02*
X150749904Y-101970119D01*
X150749904Y-101970119D02*
X150788000Y-102046310D01*
X150788000Y-102046310D02*
X150826095Y-102084405D01*
X150826095Y-102084405D02*
X150902285Y-102122500D01*
X150902285Y-102122500D02*
X150978476Y-102122500D01*
X150978476Y-102122500D02*
X151092761Y-102084405D01*
X151092761Y-102084405D02*
X151549904Y-101627262D01*
X151549904Y-101627262D02*
X151549904Y-102122500D01*
X150749904Y-102617739D02*
X150749904Y-102693929D01*
X150749904Y-102693929D02*
X150788000Y-102770120D01*
X150788000Y-102770120D02*
X150826095Y-102808215D01*
X150826095Y-102808215D02*
X150902285Y-102846310D01*
X150902285Y-102846310D02*
X151054666Y-102884405D01*
X151054666Y-102884405D02*
X151245142Y-102884405D01*
X151245142Y-102884405D02*
X151397523Y-102846310D01*
X151397523Y-102846310D02*
X151473714Y-102808215D01*
X151473714Y-102808215D02*
X151511809Y-102770120D01*
X151511809Y-102770120D02*
X151549904Y-102693929D01*
X151549904Y-102693929D02*
X151549904Y-102617739D01*
X151549904Y-102617739D02*
X151511809Y-102541548D01*
X151511809Y-102541548D02*
X151473714Y-102503453D01*
X151473714Y-102503453D02*
X151397523Y-102465358D01*
X151397523Y-102465358D02*
X151245142Y-102427262D01*
X151245142Y-102427262D02*
X151054666Y-102427262D01*
X151054666Y-102427262D02*
X150902285Y-102465358D01*
X150902285Y-102465358D02*
X150826095Y-102503453D01*
X150826095Y-102503453D02*
X150788000Y-102541548D01*
X150788000Y-102541548D02*
X150749904Y-102617739D01*
X152464952Y-95646309D02*
X152426857Y-95608214D01*
X152426857Y-95608214D02*
X152388761Y-95532023D01*
X152388761Y-95532023D02*
X152388761Y-95455833D01*
X152388761Y-95455833D02*
X152426857Y-95379642D01*
X152426857Y-95379642D02*
X152464952Y-95341547D01*
X152464952Y-95341547D02*
X152541142Y-95303452D01*
X152541142Y-95303452D02*
X152617333Y-95303452D01*
X152617333Y-95303452D02*
X152693523Y-95341547D01*
X152693523Y-95341547D02*
X152731619Y-95379642D01*
X152731619Y-95379642D02*
X152769714Y-95455833D01*
X152769714Y-95455833D02*
X152769714Y-95532023D01*
X152769714Y-95532023D02*
X152731619Y-95608214D01*
X152731619Y-95608214D02*
X152693523Y-95646309D01*
X152388761Y-95646309D02*
X152693523Y-95646309D01*
X152693523Y-95646309D02*
X152731619Y-95684404D01*
X152731619Y-95684404D02*
X152731619Y-95722499D01*
X152731619Y-95722499D02*
X152693523Y-95798690D01*
X152693523Y-95798690D02*
X152617333Y-95836785D01*
X152617333Y-95836785D02*
X152426857Y-95836785D01*
X152426857Y-95836785D02*
X152312571Y-95760595D01*
X152312571Y-95760595D02*
X152236380Y-95646309D01*
X152236380Y-95646309D02*
X152198285Y-95493928D01*
X152198285Y-95493928D02*
X152236380Y-95341547D01*
X152236380Y-95341547D02*
X152312571Y-95227261D01*
X152312571Y-95227261D02*
X152426857Y-95151071D01*
X152426857Y-95151071D02*
X152579238Y-95112975D01*
X152579238Y-95112975D02*
X152731619Y-95151071D01*
X152731619Y-95151071D02*
X152845904Y-95227261D01*
X152845904Y-95227261D02*
X152922095Y-95341547D01*
X152922095Y-95341547D02*
X152960190Y-95493928D01*
X152960190Y-95493928D02*
X152922095Y-95646309D01*
X152922095Y-95646309D02*
X152845904Y-95760595D01*
X152845904Y-96179642D02*
X152045904Y-96179642D01*
X152350666Y-96179642D02*
X152312571Y-96255832D01*
X152312571Y-96255832D02*
X152312571Y-96408213D01*
X152312571Y-96408213D02*
X152350666Y-96484404D01*
X152350666Y-96484404D02*
X152388761Y-96522499D01*
X152388761Y-96522499D02*
X152464952Y-96560594D01*
X152464952Y-96560594D02*
X152693523Y-96560594D01*
X152693523Y-96560594D02*
X152769714Y-96522499D01*
X152769714Y-96522499D02*
X152807809Y-96484404D01*
X152807809Y-96484404D02*
X152845904Y-96408213D01*
X152845904Y-96408213D02*
X152845904Y-96255832D01*
X152845904Y-96255832D02*
X152807809Y-96179642D01*
X152845904Y-97246309D02*
X152426857Y-97246309D01*
X152426857Y-97246309D02*
X152350666Y-97208214D01*
X152350666Y-97208214D02*
X152312571Y-97132023D01*
X152312571Y-97132023D02*
X152312571Y-96979642D01*
X152312571Y-96979642D02*
X152350666Y-96903452D01*
X152807809Y-97246309D02*
X152845904Y-97170118D01*
X152845904Y-97170118D02*
X152845904Y-96979642D01*
X152845904Y-96979642D02*
X152807809Y-96903452D01*
X152807809Y-96903452D02*
X152731619Y-96865356D01*
X152731619Y-96865356D02*
X152655428Y-96865356D01*
X152655428Y-96865356D02*
X152579238Y-96903452D01*
X152579238Y-96903452D02*
X152541142Y-96979642D01*
X152541142Y-96979642D02*
X152541142Y-97170118D01*
X152541142Y-97170118D02*
X152503047Y-97246309D01*
X152845904Y-97741547D02*
X152807809Y-97665357D01*
X152807809Y-97665357D02*
X152731619Y-97627262D01*
X152731619Y-97627262D02*
X152045904Y-97627262D01*
X152845904Y-98389167D02*
X152045904Y-98389167D01*
X152807809Y-98389167D02*
X152845904Y-98312976D01*
X152845904Y-98312976D02*
X152845904Y-98160595D01*
X152845904Y-98160595D02*
X152807809Y-98084405D01*
X152807809Y-98084405D02*
X152769714Y-98046310D01*
X152769714Y-98046310D02*
X152693523Y-98008214D01*
X152693523Y-98008214D02*
X152464952Y-98008214D01*
X152464952Y-98008214D02*
X152388761Y-98046310D01*
X152388761Y-98046310D02*
X152350666Y-98084405D01*
X152350666Y-98084405D02*
X152312571Y-98160595D01*
X152312571Y-98160595D02*
X152312571Y-98312976D01*
X152312571Y-98312976D02*
X152350666Y-98389167D01*
X152807809Y-99074882D02*
X152845904Y-98998691D01*
X152845904Y-98998691D02*
X152845904Y-98846310D01*
X152845904Y-98846310D02*
X152807809Y-98770120D01*
X152807809Y-98770120D02*
X152731619Y-98732024D01*
X152731619Y-98732024D02*
X152426857Y-98732024D01*
X152426857Y-98732024D02*
X152350666Y-98770120D01*
X152350666Y-98770120D02*
X152312571Y-98846310D01*
X152312571Y-98846310D02*
X152312571Y-98998691D01*
X152312571Y-98998691D02*
X152350666Y-99074882D01*
X152350666Y-99074882D02*
X152426857Y-99112977D01*
X152426857Y-99112977D02*
X152503047Y-99112977D01*
X152503047Y-99112977D02*
X152579238Y-98732024D01*
X152312571Y-99455834D02*
X152845904Y-99455834D01*
X152388761Y-99455834D02*
X152350666Y-99493929D01*
X152350666Y-99493929D02*
X152312571Y-99570119D01*
X152312571Y-99570119D02*
X152312571Y-99684405D01*
X152312571Y-99684405D02*
X152350666Y-99760596D01*
X152350666Y-99760596D02*
X152426857Y-99798691D01*
X152426857Y-99798691D02*
X152845904Y-99798691D01*
X152312571Y-100522501D02*
X152960190Y-100522501D01*
X152960190Y-100522501D02*
X153036380Y-100484406D01*
X153036380Y-100484406D02*
X153074476Y-100446310D01*
X153074476Y-100446310D02*
X153112571Y-100370120D01*
X153112571Y-100370120D02*
X153112571Y-100255834D01*
X153112571Y-100255834D02*
X153074476Y-100179644D01*
X152807809Y-100522501D02*
X152845904Y-100446310D01*
X152845904Y-100446310D02*
X152845904Y-100293929D01*
X152845904Y-100293929D02*
X152807809Y-100217739D01*
X152807809Y-100217739D02*
X152769714Y-100179644D01*
X152769714Y-100179644D02*
X152693523Y-100141548D01*
X152693523Y-100141548D02*
X152464952Y-100141548D01*
X152464952Y-100141548D02*
X152388761Y-100179644D01*
X152388761Y-100179644D02*
X152350666Y-100217739D01*
X152350666Y-100217739D02*
X152312571Y-100293929D01*
X152312571Y-100293929D02*
X152312571Y-100446310D01*
X152312571Y-100446310D02*
X152350666Y-100522501D01*
X152845904Y-100903454D02*
X152312571Y-100903454D01*
X152045904Y-100903454D02*
X152084000Y-100865358D01*
X152084000Y-100865358D02*
X152122095Y-100903454D01*
X152122095Y-100903454D02*
X152084000Y-100941549D01*
X152084000Y-100941549D02*
X152045904Y-100903454D01*
X152045904Y-100903454D02*
X152122095Y-100903454D01*
X152312571Y-101284406D02*
X152845904Y-101284406D01*
X152388761Y-101284406D02*
X152350666Y-101322501D01*
X152350666Y-101322501D02*
X152312571Y-101398691D01*
X152312571Y-101398691D02*
X152312571Y-101512977D01*
X152312571Y-101512977D02*
X152350666Y-101589168D01*
X152350666Y-101589168D02*
X152426857Y-101627263D01*
X152426857Y-101627263D02*
X152845904Y-101627263D01*
X152807809Y-102312978D02*
X152845904Y-102236787D01*
X152845904Y-102236787D02*
X152845904Y-102084406D01*
X152845904Y-102084406D02*
X152807809Y-102008216D01*
X152807809Y-102008216D02*
X152731619Y-101970120D01*
X152731619Y-101970120D02*
X152426857Y-101970120D01*
X152426857Y-101970120D02*
X152350666Y-102008216D01*
X152350666Y-102008216D02*
X152312571Y-102084406D01*
X152312571Y-102084406D02*
X152312571Y-102236787D01*
X152312571Y-102236787D02*
X152350666Y-102312978D01*
X152350666Y-102312978D02*
X152426857Y-102351073D01*
X152426857Y-102351073D02*
X152503047Y-102351073D01*
X152503047Y-102351073D02*
X152579238Y-101970120D01*
X152807809Y-102998692D02*
X152845904Y-102922501D01*
X152845904Y-102922501D02*
X152845904Y-102770120D01*
X152845904Y-102770120D02*
X152807809Y-102693930D01*
X152807809Y-102693930D02*
X152731619Y-102655834D01*
X152731619Y-102655834D02*
X152426857Y-102655834D01*
X152426857Y-102655834D02*
X152350666Y-102693930D01*
X152350666Y-102693930D02*
X152312571Y-102770120D01*
X152312571Y-102770120D02*
X152312571Y-102922501D01*
X152312571Y-102922501D02*
X152350666Y-102998692D01*
X152350666Y-102998692D02*
X152426857Y-103036787D01*
X152426857Y-103036787D02*
X152503047Y-103036787D01*
X152503047Y-103036787D02*
X152579238Y-102655834D01*
X152845904Y-103379644D02*
X152312571Y-103379644D01*
X152464952Y-103379644D02*
X152388761Y-103417739D01*
X152388761Y-103417739D02*
X152350666Y-103455834D01*
X152350666Y-103455834D02*
X152312571Y-103532025D01*
X152312571Y-103532025D02*
X152312571Y-103608215D01*
G36*
X134532357Y-97356655D02*
G01*
X132421643Y-97356655D01*
X132421643Y-96673983D01*
X133415571Y-96673983D01*
X133424814Y-96705461D01*
X133458100Y-96734303D01*
X133501695Y-96740571D01*
X133541759Y-96722275D01*
X133565571Y-96685223D01*
X133565571Y-95890515D01*
X133556328Y-95859037D01*
X133523042Y-95830195D01*
X133479447Y-95823927D01*
X133439383Y-95842223D01*
X133415571Y-95879275D01*
X133415571Y-96673983D01*
X132421643Y-96673983D01*
X132421643Y-95207846D01*
X134532357Y-95207846D01*
X134532357Y-97356655D01*
G37*
G36*
X134551405Y-103772957D02*
G01*
X132402596Y-103772957D01*
X132402596Y-102715152D01*
X133018677Y-102715152D01*
X133036973Y-102755216D01*
X133074025Y-102779028D01*
X133401999Y-102779028D01*
X133401999Y-103095762D01*
X133411242Y-103127240D01*
X133444528Y-103156082D01*
X133488123Y-103162350D01*
X133528187Y-103144054D01*
X133551999Y-103107002D01*
X133551999Y-102779028D01*
X133868733Y-102779028D01*
X133900211Y-102769785D01*
X133929053Y-102736499D01*
X133935321Y-102692904D01*
X133917025Y-102652840D01*
X133879973Y-102629028D01*
X133551999Y-102629028D01*
X133551999Y-102312294D01*
X133542756Y-102280816D01*
X133509470Y-102251974D01*
X133465875Y-102245706D01*
X133425811Y-102264002D01*
X133401999Y-102301054D01*
X133401999Y-102629028D01*
X133085265Y-102629028D01*
X133053787Y-102638271D01*
X133024945Y-102671557D01*
X133018677Y-102715152D01*
X132402596Y-102715152D01*
X132402596Y-101662243D01*
X134551405Y-101662243D01*
X134551405Y-103772957D01*
G37*
G36*
X149710314Y-91671314D02*
G01*
X146313886Y-91671314D01*
X146313886Y-90695191D01*
X147946742Y-90695191D01*
X147955985Y-90726669D01*
X147989271Y-90755511D01*
X148032866Y-90761779D01*
X148072930Y-90743483D01*
X148096742Y-90706431D01*
X148096742Y-89149818D01*
X148087499Y-89118340D01*
X148054213Y-89089498D01*
X148010618Y-89083230D01*
X147970554Y-89101526D01*
X147946742Y-89138578D01*
X147946742Y-90695191D01*
X146313886Y-90695191D01*
X146313886Y-88198696D01*
X149710314Y-88198696D01*
X149710314Y-91671314D01*
G37*
G36*
X149748409Y-110683219D02*
G01*
X146275791Y-110683219D01*
X146275791Y-108986486D01*
X147160325Y-108986486D01*
X147178621Y-109026550D01*
X147215673Y-109050362D01*
X147924599Y-109050362D01*
X147924599Y-109748048D01*
X147933842Y-109779526D01*
X147967128Y-109808368D01*
X148010723Y-109814636D01*
X148050787Y-109796340D01*
X148074599Y-109759288D01*
X148074599Y-109050362D01*
X148772286Y-109050362D01*
X148803764Y-109041119D01*
X148832606Y-109007833D01*
X148838874Y-108964238D01*
X148820578Y-108924174D01*
X148783526Y-108900362D01*
X148074599Y-108900362D01*
X148074599Y-108202675D01*
X148065356Y-108171197D01*
X148032070Y-108142355D01*
X147988475Y-108136087D01*
X147948411Y-108154383D01*
X147924599Y-108191435D01*
X147924599Y-108900362D01*
X147226913Y-108900362D01*
X147195435Y-108909605D01*
X147166593Y-108942891D01*
X147160325Y-108986486D01*
X146275791Y-108986486D01*
X146275791Y-107286791D01*
X149748409Y-107286791D01*
X149748409Y-110683219D01*
G37*
D11*
%TO.C,R1*%
X155367400Y-102860464D02*
X155367400Y-101406336D01*
X153547400Y-102860464D02*
X153547400Y-101406336D01*
%TO.C,D1*%
X153322400Y-98359700D02*
X153322400Y-94299700D01*
X153322400Y-94299700D02*
X155592400Y-94299700D01*
X155592400Y-94299700D02*
X155592400Y-98359700D01*
%TD*%
M02*
